<?xml version="1.0" encoding="utf-8" standalone="no"?>
<!DOCTYPE svg PUBLIC "-//W3C//DTD SVG 1.1//EN"
  "http://www.w3.org/Graphics/SVG/1.1/DTD/svg11.dtd">
<svg xmlns:xlink="http://www.w3.org/1999/xlink" width="460.8pt" height="345.6pt" viewBox="0 0 460.8 345.6" xmlns="http://www.w3.org/2000/svg" version="1.1">
 <metadata>
  <rdf:RDF xmlns:dc="http://purl.org/dc/elements/1.1/" xmlns:cc="http://creativecommons.org/ns#" xmlns:rdf="http://www.w3.org/1999/02/22-rdf-syntax-ns#">
   <cc:Work>
    <dc:type rdf:resource="http://purl.org/dc/dcmitype/StillImage"/>
    <dc:date>2025-05-03T14:22:32.302663</dc:date>
    <dc:format>image/svg+xml</dc:format>
    <dc:creator>
     <cc:Agent>
      <dc:title>Matplotlib v3.10.0, https://matplotlib.org/</dc:title>
     </cc:Agent>
    </dc:creator>
   </cc:Work>
  </rdf:RDF>
 </metadata>
 <defs>
  <style type="text/css">*{stroke-linejoin: round; stroke-linecap: butt}</style>
 </defs>
 <g id="figure_1">
  <g id="patch_1">
   <path d="M 0 345.6 
L 460.8 345.6 
L 460.8 0 
L 0 0 
L 0 345.6 
z
" style="fill: none; opacity: 0"/>
  </g>
  <g id="axes_1">
   <g id="patch_2">
    <path d="M 57.6 307.584 
L 414.72 307.584 
L 414.72 41.472 
L 57.6 41.472 
L 57.6 307.584 
z
" style="fill: none"/>
   </g>
   <g id="PathCollection_1">
    <defs>
     <path id="m34595eefe5" d="M 0 3 
C 0.795609 3 1.55874 2.683901 2.12132 2.12132 
C 2.683901 1.55874 3 0.795609 3 0 
C 3 -0.795609 2.683901 -1.55874 2.12132 -2.12132 
C 1.55874 -2.683901 0.795609 -3 0 -3 
C -0.795609 -3 -1.55874 -2.683901 -2.12132 -2.12132 
C -2.683901 -1.55874 -3 -0.795609 -3 0 
C -3 0.795609 -2.683901 1.55874 -2.12132 2.12132 
C -1.55874 2.683901 -0.795609 3 0 3 
z
" style="stroke: #a459d1"/>
    </defs>
    <g clip-path="url(#p85066adc4b)">
     <use xlink:href="#m34595eefe5" x="364.310397" y="221.218686" style="fill: #a459d1; stroke: #a459d1"/>
     <use xlink:href="#m34595eefe5" x="341.167307" y="228.202313" style="fill: #a459d1; stroke: #a459d1"/>
     <use xlink:href="#m34595eefe5" x="365.564415" y="192.094617" style="fill: #a459d1; stroke: #a459d1"/>
     <use xlink:href="#m34595eefe5" x="244.045734" y="110.021227" style="fill: #a459d1; stroke: #a459d1"/>
     <use xlink:href="#m34595eefe5" x="310.780136" y="185.51375" style="fill: #a459d1; stroke: #a459d1"/>
     <use xlink:href="#m34595eefe5" x="289.607043" y="207.206659" style="fill: #a459d1; stroke: #a459d1"/>
     <use xlink:href="#m34595eefe5" x="328.299614" y="229.03228" style="fill: #a459d1; stroke: #a459d1"/>
     <use xlink:href="#m34595eefe5" x="247.613712" y="208.027326" style="fill: #a459d1; stroke: #a459d1"/>
     <use xlink:href="#m34595eefe5" x="308.624839" y="78.211584" style="fill: #a459d1; stroke: #a459d1"/>
     <use xlink:href="#m34595eefe5" x="231.482651" y="104.787129" style="fill: #a459d1; stroke: #a459d1"/>
     <use xlink:href="#m34595eefe5" x="267.727916" y="82.575052" style="fill: #a459d1; stroke: #a459d1"/>
     <use xlink:href="#m34595eefe5" x="314.680034" y="227.804347" style="fill: #a459d1; stroke: #a459d1"/>
     <use xlink:href="#m34595eefe5" x="277.863556" y="140.259437" style="fill: #a459d1; stroke: #a459d1"/>
     <use xlink:href="#m34595eefe5" x="286.150073" y="222.680332" style="fill: #a459d1; stroke: #a459d1"/>
     <use xlink:href="#m34595eefe5" x="342.832459" y="225.265863" style="fill: #a459d1; stroke: #a459d1"/>
     <use xlink:href="#m34595eefe5" x="305.11047" y="210.567712" style="fill: #a459d1; stroke: #a459d1"/>
     <use xlink:href="#m34595eefe5" x="266.777707" y="202.683282" style="fill: #a459d1; stroke: #a459d1"/>
     <use xlink:href="#m34595eefe5" x="348.78413" y="213.167855" style="fill: #a459d1; stroke: #a459d1"/>
     <use xlink:href="#m34595eefe5" x="287.30115" y="179.037046" style="fill: #a459d1; stroke: #a459d1"/>
     <use xlink:href="#m34595eefe5" x="330.878315" y="197.085803" style="fill: #a459d1; stroke: #a459d1"/>
     <use xlink:href="#m34595eefe5" x="255.16369" y="75.797955" style="fill: #a459d1; stroke: #a459d1"/>
     <use xlink:href="#m34595eefe5" x="208.209082" y="104.350059" style="fill: #a459d1; stroke: #a459d1"/>
     <use xlink:href="#m34595eefe5" x="224.04026" y="85.32972" style="fill: #a459d1; stroke: #a459d1"/>
     <use xlink:href="#m34595eefe5" x="348.972569" y="158.950855" style="fill: #a459d1; stroke: #a459d1"/>
     <use xlink:href="#m34595eefe5" x="276.708007" y="82.165869" style="fill: #a459d1; stroke: #a459d1"/>
     <use xlink:href="#m34595eefe5" x="297.993652" y="74.689989" style="fill: #a459d1; stroke: #a459d1"/>
     <use xlink:href="#m34595eefe5" x="227.667383" y="53.568" style="fill: #a459d1; stroke: #a459d1"/>
     <use xlink:href="#m34595eefe5" x="134.690978" y="75.31383" style="fill: #a459d1; stroke: #a459d1"/>
     <use xlink:href="#m34595eefe5" x="326.638259" y="95.62448" style="fill: #a459d1; stroke: #a459d1"/>
     <use xlink:href="#m34595eefe5" x="281.199075" y="98.788783" style="fill: #a459d1; stroke: #a459d1"/>
     <use xlink:href="#m34595eefe5" x="398.487273" y="195.340747" style="fill: #a459d1; stroke: #a459d1"/>
     <use xlink:href="#m34595eefe5" x="344.181128" y="221.645817" style="fill: #a459d1; stroke: #a459d1"/>
     <use xlink:href="#m34595eefe5" x="194.595662" y="72.50636" style="fill: #a459d1; stroke: #a459d1"/>
     <use xlink:href="#m34595eefe5" x="234.754579" y="225.063888" style="fill: #a459d1; stroke: #a459d1"/>
     <use xlink:href="#m34595eefe5" x="341.136563" y="219.337952" style="fill: #a459d1; stroke: #a459d1"/>
     <use xlink:href="#m34595eefe5" x="361.012642" y="186.739869" style="fill: #a459d1; stroke: #a459d1"/>
     <use xlink:href="#m34595eefe5" x="283.550017" y="217.398097" style="fill: #a459d1; stroke: #a459d1"/>
     <use xlink:href="#m34595eefe5" x="322.455467" y="216.61875" style="fill: #a459d1; stroke: #a459d1"/>
     <use xlink:href="#m34595eefe5" x="325.040214" y="218.016787" style="fill: #a459d1; stroke: #a459d1"/>
     <use xlink:href="#m34595eefe5" x="306.591451" y="183.124843" style="fill: #a459d1; stroke: #a459d1"/>
     <use xlink:href="#m34595eefe5" x="174.480682" y="58.147435" style="fill: #a459d1; stroke: #a459d1"/>
     <use xlink:href="#m34595eefe5" x="276.749264" y="142.496805" style="fill: #a459d1; stroke: #a459d1"/>
     <use xlink:href="#m34595eefe5" x="263.090595" y="225.262906" style="fill: #a459d1; stroke: #a459d1"/>
     <use xlink:href="#m34595eefe5" x="270.519727" y="209.892979" style="fill: #a459d1; stroke: #a459d1"/>
     <use xlink:href="#m34595eefe5" x="190.464472" y="147.007528" style="fill: #a459d1; stroke: #a459d1"/>
     <use xlink:href="#m34595eefe5" x="195.152383" y="107.50406" style="fill: #a459d1; stroke: #a459d1"/>
     <use xlink:href="#m34595eefe5" x="276.615548" y="66.991985" style="fill: #a459d1; stroke: #a459d1"/>
     <use xlink:href="#m34595eefe5" x="261.278195" y="112.54057" style="fill: #a459d1; stroke: #a459d1"/>
     <use xlink:href="#m34595eefe5" x="234.456304" y="100.164607" style="fill: #a459d1; stroke: #a459d1"/>
     <use xlink:href="#m34595eefe5" x="304.438901" y="82.383414" style="fill: #a459d1; stroke: #a459d1"/>
     <use xlink:href="#m34595eefe5" x="287.462832" y="59.904677" style="fill: #a459d1; stroke: #a459d1"/>
     <use xlink:href="#m34595eefe5" x="128.401371" y="182.180334" style="fill: #a459d1; stroke: #a459d1"/>
     <use xlink:href="#m34595eefe5" x="361.834678" y="199.223675" style="fill: #a459d1; stroke: #a459d1"/>
     <use xlink:href="#m34595eefe5" x="299.43474" y="196.28975" style="fill: #a459d1; stroke: #a459d1"/>
     <use xlink:href="#m34595eefe5" x="294.76384" y="195.51361" style="fill: #a459d1; stroke: #a459d1"/>
     <use xlink:href="#m34595eefe5" x="306.352637" y="118.665695" style="fill: #a459d1; stroke: #a459d1"/>
     <use xlink:href="#m34595eefe5" x="347.527373" y="205.862962" style="fill: #a459d1; stroke: #a459d1"/>
     <use xlink:href="#m34595eefe5" x="314.449586" y="225.290011" style="fill: #a459d1; stroke: #a459d1"/>
     <use xlink:href="#m34595eefe5" x="212.862771" y="97.540282" style="fill: #a459d1; stroke: #a459d1"/>
     <use xlink:href="#m34595eefe5" x="313.96009" y="194.622126" style="fill: #a459d1; stroke: #a459d1"/>
     <use xlink:href="#m34595eefe5" x="301.989711" y="213.766046" style="fill: #a459d1; stroke: #a459d1"/>
     <use xlink:href="#m34595eefe5" x="306.358674" y="129.652775" style="fill: #a459d1; stroke: #a459d1"/>
     <use xlink:href="#m34595eefe5" x="242.496793" y="221.337201" style="fill: #a459d1; stroke: #a459d1"/>
     <use xlink:href="#m34595eefe5" x="219.316513" y="76.253043" style="fill: #a459d1; stroke: #a459d1"/>
     <use xlink:href="#m34595eefe5" x="323.832027" y="216.708397" style="fill: #a459d1; stroke: #a459d1"/>
     <use xlink:href="#m34595eefe5" x="328.635444" y="176.93227" style="fill: #a459d1; stroke: #a459d1"/>
     <use xlink:href="#m34595eefe5" x="245.421031" y="74.337363" style="fill: #a459d1; stroke: #a459d1"/>
     <use xlink:href="#m34595eefe5" x="347.245004" y="213.219089" style="fill: #a459d1; stroke: #a459d1"/>
     <use xlink:href="#m34595eefe5" x="184.609563" y="88.811217" style="fill: #a459d1; stroke: #a459d1"/>
     <use xlink:href="#m34595eefe5" x="296.595453" y="234.904465" style="fill: #a459d1; stroke: #a459d1"/>
     <use xlink:href="#m34595eefe5" x="251.622183" y="107.57323" style="fill: #a459d1; stroke: #a459d1"/>
     <use xlink:href="#m34595eefe5" x="255.781965" y="160.885523" style="fill: #a459d1; stroke: #a459d1"/>
     <use xlink:href="#m34595eefe5" x="374.396743" y="198.757719" style="fill: #a459d1; stroke: #a459d1"/>
     <use xlink:href="#m34595eefe5" x="191.536827" y="61.804894" style="fill: #a459d1; stroke: #a459d1"/>
     <use xlink:href="#m34595eefe5" x="329.700152" y="201.066897" style="fill: #a459d1; stroke: #a459d1"/>
     <use xlink:href="#m34595eefe5" x="315.864562" y="207.165559" style="fill: #a459d1; stroke: #a459d1"/>
     <use xlink:href="#m34595eefe5" x="229.400087" y="110.782711" style="fill: #a459d1; stroke: #a459d1"/>
     <use xlink:href="#m34595eefe5" x="373.200514" y="203.947796" style="fill: #a459d1; stroke: #a459d1"/>
     <use xlink:href="#m34595eefe5" x="287.197422" y="134.037591" style="fill: #a459d1; stroke: #a459d1"/>
     <use xlink:href="#m34595eefe5" x="367.243606" y="232.693994" style="fill: #a459d1; stroke: #a459d1"/>
     <use xlink:href="#m34595eefe5" x="317.454188" y="227.025993" style="fill: #a459d1; stroke: #a459d1"/>
     <use xlink:href="#m34595eefe5" x="273.755243" y="239.310439" style="fill: #a459d1; stroke: #a459d1"/>
     <use xlink:href="#m34595eefe5" x="318.338441" y="213.643942" style="fill: #a459d1; stroke: #a459d1"/>
     <use xlink:href="#m34595eefe5" x="308.542466" y="110.71101" style="fill: #a459d1; stroke: #a459d1"/>
     <use xlink:href="#m34595eefe5" x="274.374957" y="89.757406" style="fill: #a459d1; stroke: #a459d1"/>
     <use xlink:href="#m34595eefe5" x="299.065224" y="216.120385" style="fill: #a459d1; stroke: #a459d1"/>
     <use xlink:href="#m34595eefe5" x="284.924834" y="223.210473" style="fill: #a459d1; stroke: #a459d1"/>
     <use xlink:href="#m34595eefe5" x="321.373316" y="225.394775" style="fill: #a459d1; stroke: #a459d1"/>
     <use xlink:href="#m34595eefe5" x="270.861682" y="89.983131" style="fill: #a459d1; stroke: #a459d1"/>
     <use xlink:href="#m34595eefe5" x="341.572812" y="108.890639" style="fill: #a459d1; stroke: #a459d1"/>
     <use xlink:href="#m34595eefe5" x="273.020856" y="112.298906" style="fill: #a459d1; stroke: #a459d1"/>
     <use xlink:href="#m34595eefe5" x="217.076133" y="70.320511" style="fill: #a459d1; stroke: #a459d1"/>
     <use xlink:href="#m34595eefe5" x="205.57874" y="83.038168" style="fill: #a459d1; stroke: #a459d1"/>
     <use xlink:href="#m34595eefe5" x="332.047018" y="116.014064" style="fill: #a459d1; stroke: #a459d1"/>
     <use xlink:href="#m34595eefe5" x="260.890035" y="103.763472" style="fill: #a459d1; stroke: #a459d1"/>
     <use xlink:href="#m34595eefe5" x="317.556244" y="242.47665" style="fill: #a459d1; stroke: #a459d1"/>
     <use xlink:href="#m34595eefe5" x="310.416524" y="205.848719" style="fill: #a459d1; stroke: #a459d1"/>
     <use xlink:href="#m34595eefe5" x="186.062603" y="79.922779" style="fill: #a459d1; stroke: #a459d1"/>
     <use xlink:href="#m34595eefe5" x="172.51714" y="69.440539" style="fill: #a459d1; stroke: #a459d1"/>
     <use xlink:href="#m34595eefe5" x="311.488096" y="150.115773" style="fill: #a459d1; stroke: #a459d1"/>
     <use xlink:href="#m34595eefe5" x="319.601759" y="198.906315" style="fill: #a459d1; stroke: #a459d1"/>
     <use xlink:href="#m34595eefe5" x="266.344724" y="225.735692" style="fill: #a459d1; stroke: #a459d1"/>
     <use xlink:href="#m34595eefe5" x="373.523692" y="226.287605" style="fill: #a459d1; stroke: #a459d1"/>
     <use xlink:href="#m34595eefe5" x="301.520397" y="142.655927" style="fill: #a459d1; stroke: #a459d1"/>
     <use xlink:href="#m34595eefe5" x="321.391568" y="181.640775" style="fill: #a459d1; stroke: #a459d1"/>
     <use xlink:href="#m34595eefe5" x="283.394927" y="222.150107" style="fill: #a459d1; stroke: #a459d1"/>
     <use xlink:href="#m34595eefe5" x="348.755386" y="202.732211" style="fill: #a459d1; stroke: #a459d1"/>
     <use xlink:href="#m34595eefe5" x="231.567578" y="113.005068" style="fill: #a459d1; stroke: #a459d1"/>
     <use xlink:href="#m34595eefe5" x="273.130598" y="108.550284" style="fill: #a459d1; stroke: #a459d1"/>
     <use xlink:href="#m34595eefe5" x="278.408762" y="141.005098" style="fill: #a459d1; stroke: #a459d1"/>
     <use xlink:href="#m34595eefe5" x="315.853449" y="232.06498" style="fill: #a459d1; stroke: #a459d1"/>
     <use xlink:href="#m34595eefe5" x="190.715993" y="81.581588" style="fill: #a459d1; stroke: #a459d1"/>
     <use xlink:href="#m34595eefe5" x="343.988421" y="206.459096" style="fill: #a459d1; stroke: #a459d1"/>
     <use xlink:href="#m34595eefe5" x="339.14994" y="199.870649" style="fill: #a459d1; stroke: #a459d1"/>
     <use xlink:href="#m34595eefe5" x="282.06516" y="239.490999" style="fill: #a459d1; stroke: #a459d1"/>
     <use xlink:href="#m34595eefe5" x="307.987872" y="186.432707" style="fill: #a459d1; stroke: #a459d1"/>
     <use xlink:href="#m34595eefe5" x="362.299814" y="191.007714" style="fill: #a459d1; stroke: #a459d1"/>
     <use xlink:href="#m34595eefe5" x="324.25663" y="193.333967" style="fill: #a459d1; stroke: #a459d1"/>
     <use xlink:href="#m34595eefe5" x="373.439585" y="191.000043" style="fill: #a459d1; stroke: #a459d1"/>
     <use xlink:href="#m34595eefe5" x="305.961525" y="115.677806" style="fill: #a459d1; stroke: #a459d1"/>
    </g>
   </g>
   <g id="PathCollection_2">
    <defs>
     <path id="m6c64ab9d67" d="M 0 3 
C 0.795609 3 1.55874 2.683901 2.12132 2.12132 
C 2.683901 1.55874 3 0.795609 3 0 
C 3 -0.795609 2.683901 -1.55874 2.12132 -2.12132 
C 1.55874 -2.683901 0.795609 -3 0 -3 
C -0.795609 -3 -1.55874 -2.683901 -2.12132 -2.12132 
C -2.683901 -1.55874 -3 -0.795609 -3 0 
C -3 0.795609 -2.683901 1.55874 -2.12132 2.12132 
C -1.55874 2.683901 -0.795609 3 0 3 
z
" style="stroke: #ffb84c"/>
    </defs>
    <g clip-path="url(#p85066adc4b)">
     <use xlink:href="#m6c64ab9d67" x="132.751236" y="276.761193" style="fill: #ffb84c; stroke: #ffb84c"/>
     <use xlink:href="#m6c64ab9d67" x="99.911738" y="262.643811" style="fill: #ffb84c; stroke: #ffb84c"/>
     <use xlink:href="#m6c64ab9d67" x="120.402851" y="227.147315" style="fill: #ffb84c; stroke: #ffb84c"/>
     <use xlink:href="#m6c64ab9d67" x="146.936298" y="129.230245" style="fill: #ffb84c; stroke: #ffb84c"/>
     <use xlink:href="#m6c64ab9d67" x="151.380689" y="204.362111" style="fill: #ffb84c; stroke: #ffb84c"/>
     <use xlink:href="#m6c64ab9d67" x="131.080874" y="231.027188" style="fill: #ffb84c; stroke: #ffb84c"/>
     <use xlink:href="#m6c64ab9d67" x="223.681896" y="267.262499" style="fill: #ffb84c; stroke: #ffb84c"/>
     <use xlink:href="#m6c64ab9d67" x="91.350605" y="230.441823" style="fill: #ffb84c; stroke: #ffb84c"/>
     <use xlink:href="#m6c64ab9d67" x="119.490885" y="112.64472" style="fill: #ffb84c; stroke: #ffb84c"/>
     <use xlink:href="#m6c64ab9d67" x="161.492427" y="119.035973" style="fill: #ffb84c; stroke: #ffb84c"/>
     <use xlink:href="#m6c64ab9d67" x="162.401197" y="105.297435" style="fill: #ffb84c; stroke: #ffb84c"/>
     <use xlink:href="#m6c64ab9d67" x="132.441066" y="273.381381" style="fill: #ffb84c; stroke: #ffb84c"/>
     <use xlink:href="#m6c64ab9d67" x="104.061545" y="126.773918" style="fill: #ffb84c; stroke: #ffb84c"/>
     <use xlink:href="#m6c64ab9d67" x="152.166914" y="241.60352" style="fill: #ffb84c; stroke: #ffb84c"/>
     <use xlink:href="#m6c64ab9d67" x="164.157279" y="284.297799" style="fill: #ffb84c; stroke: #ffb84c"/>
     <use xlink:href="#m6c64ab9d67" x="157.436089" y="236.120157" style="fill: #ffb84c; stroke: #ffb84c"/>
     <use xlink:href="#m6c64ab9d67" x="140.025269" y="240.669027" style="fill: #ffb84c; stroke: #ffb84c"/>
     <use xlink:href="#m6c64ab9d67" x="186.493309" y="269.261614" style="fill: #ffb84c; stroke: #ffb84c"/>
     <use xlink:href="#m6c64ab9d67" x="155.79087" y="206.134351" style="fill: #ffb84c; stroke: #ffb84c"/>
     <use xlink:href="#m6c64ab9d67" x="180.551638" y="243.354555" style="fill: #ffb84c; stroke: #ffb84c"/>
     <use xlink:href="#m6c64ab9d67" x="132.542811" y="97.507259" style="fill: #ffb84c; stroke: #ffb84c"/>
     <use xlink:href="#m6c64ab9d67" x="151.912395" y="112.762321" style="fill: #ffb84c; stroke: #ffb84c"/>
     <use xlink:href="#m6c64ab9d67" x="105.561694" y="121.507399" style="fill: #ffb84c; stroke: #ffb84c"/>
     <use xlink:href="#m6c64ab9d67" x="165.109221" y="189.115714" style="fill: #ffb84c; stroke: #ffb84c"/>
     <use xlink:href="#m6c64ab9d67" x="125.390252" y="109.073216" style="fill: #ffb84c; stroke: #ffb84c"/>
     <use xlink:href="#m6c64ab9d67" x="121.024926" y="101.855998" style="fill: #ffb84c; stroke: #ffb84c"/>
     <use xlink:href="#m6c64ab9d67" x="128.788979" y="117.981103" style="fill: #ffb84c; stroke: #ffb84c"/>
     <use xlink:href="#m6c64ab9d67" x="102.366982" y="113.467958" style="fill: #ffb84c; stroke: #ffb84c"/>
     <use xlink:href="#m6c64ab9d67" x="237.28793" y="117.816643" style="fill: #ffb84c; stroke: #ffb84c"/>
     <use xlink:href="#m6c64ab9d67" x="133.315628" y="139.612903" style="fill: #ffb84c; stroke: #ffb84c"/>
     <use xlink:href="#m6c64ab9d67" x="136.625795" y="241.44337" style="fill: #ffb84c; stroke: #ffb84c"/>
     <use xlink:href="#m6c64ab9d67" x="164.867767" y="286.910458" style="fill: #ffb84c; stroke: #ffb84c"/>
     <use xlink:href="#m6c64ab9d67" x="109.268351" y="124.540497" style="fill: #ffb84c; stroke: #ffb84c"/>
     <use xlink:href="#m6c64ab9d67" x="128.646346" y="232.557169" style="fill: #ffb84c; stroke: #ffb84c"/>
     <use xlink:href="#m6c64ab9d67" x="248.851983" y="259.683185" style="fill: #ffb84c; stroke: #ffb84c"/>
     <use xlink:href="#m6c64ab9d67" x="209.310932" y="228.670446" style="fill: #ffb84c; stroke: #ffb84c"/>
     <use xlink:href="#m6c64ab9d67" x="105.637247" y="248.693794" style="fill: #ffb84c; stroke: #ffb84c"/>
     <use xlink:href="#m6c64ab9d67" x="88.926674" y="248.912237" style="fill: #ffb84c; stroke: #ffb84c"/>
     <use xlink:href="#m6c64ab9d67" x="167.687317" y="279.838301" style="fill: #ffb84c; stroke: #ffb84c"/>
     <use xlink:href="#m6c64ab9d67" x="123.461739" y="217.191485" style="fill: #ffb84c; stroke: #ffb84c"/>
     <use xlink:href="#m6c64ab9d67" x="123.599163" y="115.807819" style="fill: #ffb84c; stroke: #ffb84c"/>
     <use xlink:href="#m6c64ab9d67" x="98.612582" y="143.190959" style="fill: #ffb84c; stroke: #ffb84c"/>
     <use xlink:href="#m6c64ab9d67" x="139.041599" y="236.863568" style="fill: #ffb84c; stroke: #ffb84c"/>
     <use xlink:href="#m6c64ab9d67" x="94.117931" y="228.970343" style="fill: #ffb84c; stroke: #ffb84c"/>
     <use xlink:href="#m6c64ab9d67" x="120.702868" y="154.996557" style="fill: #ffb84c; stroke: #ffb84c"/>
     <use xlink:href="#m6c64ab9d67" x="122.170317" y="108.501236" style="fill: #ffb84c; stroke: #ffb84c"/>
     <use xlink:href="#m6c64ab9d67" x="118.455667" y="113.699137" style="fill: #ffb84c; stroke: #ffb84c"/>
     <use xlink:href="#m6c64ab9d67" x="148.568256" y="126.623917" style="fill: #ffb84c; stroke: #ffb84c"/>
     <use xlink:href="#m6c64ab9d67" x="110.986145" y="130.417136" style="fill: #ffb84c; stroke: #ffb84c"/>
     <use xlink:href="#m6c64ab9d67" x="98.559957" y="103.992511" style="fill: #ffb84c; stroke: #ffb84c"/>
     <use xlink:href="#m6c64ab9d67" x="129.741914" y="92.402281" style="fill: #ffb84c; stroke: #ffb84c"/>
     <use xlink:href="#m6c64ab9d67" x="73.832727" y="202.985936" style="fill: #ffb84c; stroke: #ffb84c"/>
     <use xlink:href="#m6c64ab9d67" x="134.102981" y="262.149977" style="fill: #ffb84c; stroke: #ffb84c"/>
     <use xlink:href="#m6c64ab9d67" x="104.602759" y="237.170716" style="fill: #ffb84c; stroke: #ffb84c"/>
     <use xlink:href="#m6c64ab9d67" x="203.087746" y="235.686413" style="fill: #ffb84c; stroke: #ffb84c"/>
     <use xlink:href="#m6c64ab9d67" x="164.905682" y="118.459676" style="fill: #ffb84c; stroke: #ffb84c"/>
     <use xlink:href="#m6c64ab9d67" x="148.50094" y="221.115594" style="fill: #ffb84c; stroke: #ffb84c"/>
     <use xlink:href="#m6c64ab9d67" x="145.360137" y="274.104047" style="fill: #ffb84c; stroke: #ffb84c"/>
     <use xlink:href="#m6c64ab9d67" x="126.102506" y="107.882714" style="fill: #ffb84c; stroke: #ffb84c"/>
     <use xlink:href="#m6c64ab9d67" x="113.640177" y="246.881047" style="fill: #ffb84c; stroke: #ffb84c"/>
     <use xlink:href="#m6c64ab9d67" x="158.672881" y="249.783331" style="fill: #ffb84c; stroke: #ffb84c"/>
     <use xlink:href="#m6c64ab9d67" x="124.683947" y="134.052162" style="fill: #ffb84c; stroke: #ffb84c"/>
     <use xlink:href="#m6c64ab9d67" x="126.120741" y="231.836045" style="fill: #ffb84c; stroke: #ffb84c"/>
     <use xlink:href="#m6c64ab9d67" x="143.966134" y="105.047638" style="fill: #ffb84c; stroke: #ffb84c"/>
     <use xlink:href="#m6c64ab9d67" x="191.551138" y="257.278954" style="fill: #ffb84c; stroke: #ffb84c"/>
     <use xlink:href="#m6c64ab9d67" x="105.754018" y="224.931986" style="fill: #ffb84c; stroke: #ffb84c"/>
     <use xlink:href="#m6c64ab9d67" x="101.456803" y="102.203066" style="fill: #ffb84c; stroke: #ffb84c"/>
     <use xlink:href="#m6c64ab9d67" x="165.223338" y="275.571602" style="fill: #ffb84c; stroke: #ffb84c"/>
     <use xlink:href="#m6c64ab9d67" x="96.53979" y="98.663197" style="fill: #ffb84c; stroke: #ffb84c"/>
     <use xlink:href="#m6c64ab9d67" x="139.980291" y="281.444288" style="fill: #ffb84c; stroke: #ffb84c"/>
     <use xlink:href="#m6c64ab9d67" x="155.273687" y="120.057563" style="fill: #ffb84c; stroke: #ffb84c"/>
     <use xlink:href="#m6c64ab9d67" x="76.291376" y="191.644989" style="fill: #ffb84c; stroke: #ffb84c"/>
     <use xlink:href="#m6c64ab9d67" x="132.361583" y="261.258314" style="fill: #ffb84c; stroke: #ffb84c"/>
     <use xlink:href="#m6c64ab9d67" x="153.216628" y="110.668852" style="fill: #ffb84c; stroke: #ffb84c"/>
     <use xlink:href="#m6c64ab9d67" x="94.846828" y="259.424467" style="fill: #ffb84c; stroke: #ffb84c"/>
     <use xlink:href="#m6c64ab9d67" x="182.613616" y="240.568491" style="fill: #ffb84c; stroke: #ffb84c"/>
     <use xlink:href="#m6c64ab9d67" x="102.238476" y="128.033452" style="fill: #ffb84c; stroke: #ffb84c"/>
     <use xlink:href="#m6c64ab9d67" x="125.014806" y="267.658127" style="fill: #ffb84c; stroke: #ffb84c"/>
     <use xlink:href="#m6c64ab9d67" x="109.778732" y="142.134931" style="fill: #ffb84c; stroke: #ffb84c"/>
     <use xlink:href="#m6c64ab9d67" x="118.867681" y="295.488" style="fill: #ffb84c; stroke: #ffb84c"/>
     <use xlink:href="#m6c64ab9d67" x="161.981501" y="268.882159" style="fill: #ffb84c; stroke: #ffb84c"/>
     <use xlink:href="#m6c64ab9d67" x="126.715912" y="278.444801" style="fill: #ffb84c; stroke: #ffb84c"/>
     <use xlink:href="#m6c64ab9d67" x="164.795059" y="260.474311" style="fill: #ffb84c; stroke: #ffb84c"/>
     <use xlink:href="#m6c64ab9d67" x="170.70862" y="116.803833" style="fill: #ffb84c; stroke: #ffb84c"/>
     <use xlink:href="#m6c64ab9d67" x="147.122398" y="140.02706" style="fill: #ffb84c; stroke: #ffb84c"/>
     <use xlink:href="#m6c64ab9d67" x="164.990975" y="253.118686" style="fill: #ffb84c; stroke: #ffb84c"/>
     <use xlink:href="#m6c64ab9d67" x="140.240131" y="259.064969" style="fill: #ffb84c; stroke: #ffb84c"/>
     <use xlink:href="#m6c64ab9d67" x="136.67753" y="279.622016" style="fill: #ffb84c; stroke: #ffb84c"/>
     <use xlink:href="#m6c64ab9d67" x="205.086794" y="84.367059" style="fill: #ffb84c; stroke: #ffb84c"/>
     <use xlink:href="#m6c64ab9d67" x="154.069982" y="107.706551" style="fill: #ffb84c; stroke: #ffb84c"/>
     <use xlink:href="#m6c64ab9d67" x="157.607551" y="117.900328" style="fill: #ffb84c; stroke: #ffb84c"/>
     <use xlink:href="#m6c64ab9d67" x="146.867306" y="118.493103" style="fill: #ffb84c; stroke: #ffb84c"/>
     <use xlink:href="#m6c64ab9d67" x="151.229392" y="93.360827" style="fill: #ffb84c; stroke: #ffb84c"/>
     <use xlink:href="#m6c64ab9d67" x="82.253396" y="129.697941" style="fill: #ffb84c; stroke: #ffb84c"/>
     <use xlink:href="#m6c64ab9d67" x="189.53062" y="118.677447" style="fill: #ffb84c; stroke: #ffb84c"/>
     <use xlink:href="#m6c64ab9d67" x="120.37865" y="282.263546" style="fill: #ffb84c; stroke: #ffb84c"/>
     <use xlink:href="#m6c64ab9d67" x="144.273296" y="250.199588" style="fill: #ffb84c; stroke: #ffb84c"/>
     <use xlink:href="#m6c64ab9d67" x="111.133883" y="114.339493" style="fill: #ffb84c; stroke: #ffb84c"/>
     <use xlink:href="#m6c64ab9d67" x="132.371069" y="119.377226" style="fill: #ffb84c; stroke: #ffb84c"/>
     <use xlink:href="#m6c64ab9d67" x="163.69986" y="198.646235" style="fill: #ffb84c; stroke: #ffb84c"/>
     <use xlink:href="#m6c64ab9d67" x="138.917752" y="242.790506" style="fill: #ffb84c; stroke: #ffb84c"/>
     <use xlink:href="#m6c64ab9d67" x="145.222487" y="241.627047" style="fill: #ffb84c; stroke: #ffb84c"/>
     <use xlink:href="#m6c64ab9d67" x="127.251694" y="269.810305" style="fill: #ffb84c; stroke: #ffb84c"/>
     <use xlink:href="#m6c64ab9d67" x="98.758665" y="152.525863" style="fill: #ffb84c; stroke: #ffb84c"/>
     <use xlink:href="#m6c64ab9d67" x="145.960955" y="229.517126" style="fill: #ffb84c; stroke: #ffb84c"/>
     <use xlink:href="#m6c64ab9d67" x="159.300251" y="274.209181" style="fill: #ffb84c; stroke: #ffb84c"/>
     <use xlink:href="#m6c64ab9d67" x="290.528611" y="229.618469" style="fill: #ffb84c; stroke: #ffb84c"/>
     <use xlink:href="#m6c64ab9d67" x="132.51124" y="122.742577" style="fill: #ffb84c; stroke: #ffb84c"/>
     <use xlink:href="#m6c64ab9d67" x="150.102088" y="126.559944" style="fill: #ffb84c; stroke: #ffb84c"/>
     <use xlink:href="#m6c64ab9d67" x="126.816626" y="145.950742" style="fill: #ffb84c; stroke: #ffb84c"/>
     <use xlink:href="#m6c64ab9d67" x="191.244102" y="275.049068" style="fill: #ffb84c; stroke: #ffb84c"/>
     <use xlink:href="#m6c64ab9d67" x="105.491564" y="114.980019" style="fill: #ffb84c; stroke: #ffb84c"/>
     <use xlink:href="#m6c64ab9d67" x="200.768082" y="251.527189" style="fill: #ffb84c; stroke: #ffb84c"/>
     <use xlink:href="#m6c64ab9d67" x="137.985711" y="253.01637" style="fill: #ffb84c; stroke: #ffb84c"/>
     <use xlink:href="#m6c64ab9d67" x="133.650826" y="277.637802" style="fill: #ffb84c; stroke: #ffb84c"/>
     <use xlink:href="#m6c64ab9d67" x="166.098074" y="206.014234" style="fill: #ffb84c; stroke: #ffb84c"/>
     <use xlink:href="#m6c64ab9d67" x="227.027848" y="250.105979" style="fill: #ffb84c; stroke: #ffb84c"/>
     <use xlink:href="#m6c64ab9d67" x="97.416442" y="244.113808" style="fill: #ffb84c; stroke: #ffb84c"/>
     <use xlink:href="#m6c64ab9d67" x="189.067171" y="237.237116" style="fill: #ffb84c; stroke: #ffb84c"/>
     <use xlink:href="#m6c64ab9d67" x="150.528105" y="121.439317" style="fill: #ffb84c; stroke: #ffb84c"/>
    </g>
   </g>
   <g id="matplotlib.axis_1">
    <g id="xtick_1">
     <g id="line2d_1">
      <defs>
       <path id="mba65db3c9f" d="M 0 0 
L 0 3.5 
" style="stroke: #000000; stroke-width: 0.8"/>
      </defs>
      <g>
       <use xlink:href="#mba65db3c9f" x="65.796031" y="307.584" style="stroke: #000000; stroke-width: 0.8"/>
      </g>
     </g>
     <g id="text_1">
      <!-- −2 -->
      <g transform="translate(56.213609 324.461969) scale(0.13 -0.13)">
       <defs>
        <path id="DejaVuSans-2212" d="M 678 2272 
L 4684 2272 
L 4684 1741 
L 678 1741 
L 678 2272 
z
" transform="scale(0.015625)"/>
        <path id="DejaVuSans-32" d="M 1228 531 
L 3431 531 
L 3431 0 
L 469 0 
L 469 531 
Q 828 903 1448 1529 
Q 2069 2156 2228 2338 
Q 2531 2678 2651 2914 
Q 2772 3150 2772 3378 
Q 2772 3750 2511 3984 
Q 2250 4219 1831 4219 
Q 1534 4219 1204 4116 
Q 875 4013 500 3803 
L 500 4441 
Q 881 4594 1212 4672 
Q 1544 4750 1819 4750 
Q 2544 4750 2975 4387 
Q 3406 4025 3406 3419 
Q 3406 3131 3298 2873 
Q 3191 2616 2906 2266 
Q 2828 2175 2409 1742 
Q 1991 1309 1228 531 
z
" transform="scale(0.015625)"/>
       </defs>
       <use xlink:href="#DejaVuSans-2212"/>
       <use xlink:href="#DejaVuSans-32" transform="translate(83.789062 0)"/>
      </g>
     </g>
    </g>
    <g id="xtick_2">
     <g id="line2d_2">
      <g>
       <use xlink:href="#mba65db3c9f" x="140.376808" y="307.584" style="stroke: #000000; stroke-width: 0.8"/>
      </g>
     </g>
     <g id="text_2">
      <!-- −1 -->
      <g transform="translate(130.794386 324.461969) scale(0.13 -0.13)">
       <defs>
        <path id="DejaVuSans-31" d="M 794 531 
L 1825 531 
L 1825 4091 
L 703 3866 
L 703 4441 
L 1819 4666 
L 2450 4666 
L 2450 531 
L 3481 531 
L 3481 0 
L 794 0 
L 794 531 
z
" transform="scale(0.015625)"/>
       </defs>
       <use xlink:href="#DejaVuSans-2212"/>
       <use xlink:href="#DejaVuSans-31" transform="translate(83.789062 0)"/>
      </g>
     </g>
    </g>
    <g id="xtick_3">
     <g id="line2d_3">
      <g>
       <use xlink:href="#mba65db3c9f" x="214.957585" y="307.584" style="stroke: #000000; stroke-width: 0.8"/>
      </g>
     </g>
     <g id="text_3">
      <!-- 0 -->
      <g transform="translate(210.82196 324.461969) scale(0.13 -0.13)">
       <defs>
        <path id="DejaVuSans-30" d="M 2034 4250 
Q 1547 4250 1301 3770 
Q 1056 3291 1056 2328 
Q 1056 1369 1301 889 
Q 1547 409 2034 409 
Q 2525 409 2770 889 
Q 3016 1369 3016 2328 
Q 3016 3291 2770 3770 
Q 2525 4250 2034 4250 
z
M 2034 4750 
Q 2819 4750 3233 4129 
Q 3647 3509 3647 2328 
Q 3647 1150 3233 529 
Q 2819 -91 2034 -91 
Q 1250 -91 836 529 
Q 422 1150 422 2328 
Q 422 3509 836 4129 
Q 1250 4750 2034 4750 
z
" transform="scale(0.015625)"/>
       </defs>
       <use xlink:href="#DejaVuSans-30"/>
      </g>
     </g>
    </g>
    <g id="xtick_4">
     <g id="line2d_4">
      <g>
       <use xlink:href="#mba65db3c9f" x="289.538363" y="307.584" style="stroke: #000000; stroke-width: 0.8"/>
      </g>
     </g>
     <g id="text_4">
      <!-- 1 -->
      <g transform="translate(285.402738 324.461969) scale(0.13 -0.13)">
       <use xlink:href="#DejaVuSans-31"/>
      </g>
     </g>
    </g>
    <g id="xtick_5">
     <g id="line2d_5">
      <g>
       <use xlink:href="#mba65db3c9f" x="364.11914" y="307.584" style="stroke: #000000; stroke-width: 0.8"/>
      </g>
     </g>
     <g id="text_5">
      <!-- 2 -->
      <g transform="translate(359.983515 324.461969) scale(0.13 -0.13)">
       <use xlink:href="#DejaVuSans-32"/>
      </g>
     </g>
    </g>
    <g id="text_6">
     <!-- Component 1 -->
     <g transform="translate(185.461172 342.563219) scale(0.15 -0.15)">
      <defs>
       <path id="DejaVuSans-43" d="M 4122 4306 
L 4122 3641 
Q 3803 3938 3442 4084 
Q 3081 4231 2675 4231 
Q 1875 4231 1450 3742 
Q 1025 3253 1025 2328 
Q 1025 1406 1450 917 
Q 1875 428 2675 428 
Q 3081 428 3442 575 
Q 3803 722 4122 1019 
L 4122 359 
Q 3791 134 3420 21 
Q 3050 -91 2638 -91 
Q 1578 -91 968 557 
Q 359 1206 359 2328 
Q 359 3453 968 4101 
Q 1578 4750 2638 4750 
Q 3056 4750 3426 4639 
Q 3797 4528 4122 4306 
z
" transform="scale(0.015625)"/>
       <path id="DejaVuSans-6f" d="M 1959 3097 
Q 1497 3097 1228 2736 
Q 959 2375 959 1747 
Q 959 1119 1226 758 
Q 1494 397 1959 397 
Q 2419 397 2687 759 
Q 2956 1122 2956 1747 
Q 2956 2369 2687 2733 
Q 2419 3097 1959 3097 
z
M 1959 3584 
Q 2709 3584 3137 3096 
Q 3566 2609 3566 1747 
Q 3566 888 3137 398 
Q 2709 -91 1959 -91 
Q 1206 -91 779 398 
Q 353 888 353 1747 
Q 353 2609 779 3096 
Q 1206 3584 1959 3584 
z
" transform="scale(0.015625)"/>
       <path id="DejaVuSans-6d" d="M 3328 2828 
Q 3544 3216 3844 3400 
Q 4144 3584 4550 3584 
Q 5097 3584 5394 3201 
Q 5691 2819 5691 2113 
L 5691 0 
L 5113 0 
L 5113 2094 
Q 5113 2597 4934 2840 
Q 4756 3084 4391 3084 
Q 3944 3084 3684 2787 
Q 3425 2491 3425 1978 
L 3425 0 
L 2847 0 
L 2847 2094 
Q 2847 2600 2669 2842 
Q 2491 3084 2119 3084 
Q 1678 3084 1418 2786 
Q 1159 2488 1159 1978 
L 1159 0 
L 581 0 
L 581 3500 
L 1159 3500 
L 1159 2956 
Q 1356 3278 1631 3431 
Q 1906 3584 2284 3584 
Q 2666 3584 2933 3390 
Q 3200 3197 3328 2828 
z
" transform="scale(0.015625)"/>
       <path id="DejaVuSans-70" d="M 1159 525 
L 1159 -1331 
L 581 -1331 
L 581 3500 
L 1159 3500 
L 1159 2969 
Q 1341 3281 1617 3432 
Q 1894 3584 2278 3584 
Q 2916 3584 3314 3078 
Q 3713 2572 3713 1747 
Q 3713 922 3314 415 
Q 2916 -91 2278 -91 
Q 1894 -91 1617 61 
Q 1341 213 1159 525 
z
M 3116 1747 
Q 3116 2381 2855 2742 
Q 2594 3103 2138 3103 
Q 1681 3103 1420 2742 
Q 1159 2381 1159 1747 
Q 1159 1113 1420 752 
Q 1681 391 2138 391 
Q 2594 391 2855 752 
Q 3116 1113 3116 1747 
z
" transform="scale(0.015625)"/>
       <path id="DejaVuSans-6e" d="M 3513 2113 
L 3513 0 
L 2938 0 
L 2938 2094 
Q 2938 2591 2744 2837 
Q 2550 3084 2163 3084 
Q 1697 3084 1428 2787 
Q 1159 2491 1159 1978 
L 1159 0 
L 581 0 
L 581 3500 
L 1159 3500 
L 1159 2956 
Q 1366 3272 1645 3428 
Q 1925 3584 2291 3584 
Q 2894 3584 3203 3211 
Q 3513 2838 3513 2113 
z
" transform="scale(0.015625)"/>
       <path id="DejaVuSans-65" d="M 3597 1894 
L 3597 1613 
L 953 1613 
Q 991 1019 1311 708 
Q 1631 397 2203 397 
Q 2534 397 2845 478 
Q 3156 559 3463 722 
L 3463 178 
Q 3153 47 2828 -22 
Q 2503 -91 2169 -91 
Q 1331 -91 842 396 
Q 353 884 353 1716 
Q 353 2575 817 3079 
Q 1281 3584 2069 3584 
Q 2775 3584 3186 3129 
Q 3597 2675 3597 1894 
z
M 3022 2063 
Q 3016 2534 2758 2815 
Q 2500 3097 2075 3097 
Q 1594 3097 1305 2825 
Q 1016 2553 972 2059 
L 3022 2063 
z
" transform="scale(0.015625)"/>
       <path id="DejaVuSans-74" d="M 1172 4494 
L 1172 3500 
L 2356 3500 
L 2356 3053 
L 1172 3053 
L 1172 1153 
Q 1172 725 1289 603 
Q 1406 481 1766 481 
L 2356 481 
L 2356 0 
L 1766 0 
Q 1100 0 847 248 
Q 594 497 594 1153 
L 594 3053 
L 172 3053 
L 172 3500 
L 594 3500 
L 594 4494 
L 1172 4494 
z
" transform="scale(0.015625)"/>
       <path id="DejaVuSans-20" transform="scale(0.015625)"/>
      </defs>
      <use xlink:href="#DejaVuSans-43"/>
      <use xlink:href="#DejaVuSans-6f" transform="translate(69.824219 0)"/>
      <use xlink:href="#DejaVuSans-6d" transform="translate(131.005859 0)"/>
      <use xlink:href="#DejaVuSans-70" transform="translate(228.417969 0)"/>
      <use xlink:href="#DejaVuSans-6f" transform="translate(291.894531 0)"/>
      <use xlink:href="#DejaVuSans-6e" transform="translate(353.076172 0)"/>
      <use xlink:href="#DejaVuSans-65" transform="translate(416.455078 0)"/>
      <use xlink:href="#DejaVuSans-6e" transform="translate(477.978516 0)"/>
      <use xlink:href="#DejaVuSans-74" transform="translate(541.357422 0)"/>
      <use xlink:href="#DejaVuSans-20" transform="translate(580.566406 0)"/>
      <use xlink:href="#DejaVuSans-31" transform="translate(612.353516 0)"/>
     </g>
    </g>
   </g>
   <g id="matplotlib.axis_2">
    <g id="ytick_1">
     <g id="line2d_6">
      <defs>
       <path id="mf9e9d045ba" d="M 0 0 
L -3.5 0 
" style="stroke: #000000; stroke-width: 0.8"/>
      </defs>
      <g>
       <use xlink:href="#mf9e9d045ba" x="57.6" y="279.533898" style="stroke: #000000; stroke-width: 0.8"/>
      </g>
     </g>
     <g id="text_7">
      <!-- −1.0 -->
      <g transform="translate(19.032344 284.472882) scale(0.13 -0.13)">
       <defs>
        <path id="DejaVuSans-2e" d="M 684 794 
L 1344 794 
L 1344 0 
L 684 0 
L 684 794 
z
" transform="scale(0.015625)"/>
       </defs>
       <use xlink:href="#DejaVuSans-2212"/>
       <use xlink:href="#DejaVuSans-31" transform="translate(83.789062 0)"/>
       <use xlink:href="#DejaVuSans-2e" transform="translate(147.412109 0)"/>
       <use xlink:href="#DejaVuSans-30" transform="translate(179.199219 0)"/>
      </g>
     </g>
    </g>
    <g id="ytick_2">
     <g id="line2d_7">
      <g>
       <use xlink:href="#mf9e9d045ba" x="57.6" y="228.244027" style="stroke: #000000; stroke-width: 0.8"/>
      </g>
     </g>
     <g id="text_8">
      <!-- −0.5 -->
      <g transform="translate(19.032344 233.183012) scale(0.13 -0.13)">
       <defs>
        <path id="DejaVuSans-35" d="M 691 4666 
L 3169 4666 
L 3169 4134 
L 1269 4134 
L 1269 2991 
Q 1406 3038 1543 3061 
Q 1681 3084 1819 3084 
Q 2600 3084 3056 2656 
Q 3513 2228 3513 1497 
Q 3513 744 3044 326 
Q 2575 -91 1722 -91 
Q 1428 -91 1123 -41 
Q 819 9 494 109 
L 494 744 
Q 775 591 1075 516 
Q 1375 441 1709 441 
Q 2250 441 2565 725 
Q 2881 1009 2881 1497 
Q 2881 1984 2565 2268 
Q 2250 2553 1709 2553 
Q 1456 2553 1204 2497 
Q 953 2441 691 2322 
L 691 4666 
z
" transform="scale(0.015625)"/>
       </defs>
       <use xlink:href="#DejaVuSans-2212"/>
       <use xlink:href="#DejaVuSans-30" transform="translate(83.789062 0)"/>
       <use xlink:href="#DejaVuSans-2e" transform="translate(147.412109 0)"/>
       <use xlink:href="#DejaVuSans-35" transform="translate(179.199219 0)"/>
      </g>
     </g>
    </g>
    <g id="ytick_3">
     <g id="line2d_8">
      <g>
       <use xlink:href="#mf9e9d045ba" x="57.6" y="176.954157" style="stroke: #000000; stroke-width: 0.8"/>
      </g>
     </g>
     <g id="text_9">
      <!-- 0.0 -->
      <g transform="translate(29.925937 181.893141) scale(0.13 -0.13)">
       <use xlink:href="#DejaVuSans-30"/>
       <use xlink:href="#DejaVuSans-2e" transform="translate(63.623047 0)"/>
       <use xlink:href="#DejaVuSans-30" transform="translate(95.410156 0)"/>
      </g>
     </g>
    </g>
    <g id="ytick_4">
     <g id="line2d_9">
      <g>
       <use xlink:href="#mf9e9d045ba" x="57.6" y="125.664286" style="stroke: #000000; stroke-width: 0.8"/>
      </g>
     </g>
     <g id="text_10">
      <!-- 0.5 -->
      <g transform="translate(29.925937 130.603271) scale(0.13 -0.13)">
       <use xlink:href="#DejaVuSans-30"/>
       <use xlink:href="#DejaVuSans-2e" transform="translate(63.623047 0)"/>
       <use xlink:href="#DejaVuSans-35" transform="translate(95.410156 0)"/>
      </g>
     </g>
    </g>
    <g id="ytick_5">
     <g id="line2d_10">
      <g>
       <use xlink:href="#mf9e9d045ba" x="57.6" y="74.374416" style="stroke: #000000; stroke-width: 0.8"/>
      </g>
     </g>
     <g id="text_11">
      <!-- 1.0 -->
      <g transform="translate(29.925937 79.3134) scale(0.13 -0.13)">
       <use xlink:href="#DejaVuSans-31"/>
       <use xlink:href="#DejaVuSans-2e" transform="translate(63.623047 0)"/>
       <use xlink:href="#DejaVuSans-30" transform="translate(95.410156 0)"/>
      </g>
     </g>
    </g>
    <g id="text_12">
     <!-- Component 2 -->
     <g transform="translate(11.912812 225.226828) rotate(-90) scale(0.15 -0.15)">
      <use xlink:href="#DejaVuSans-43"/>
      <use xlink:href="#DejaVuSans-6f" transform="translate(69.824219 0)"/>
      <use xlink:href="#DejaVuSans-6d" transform="translate(131.005859 0)"/>
      <use xlink:href="#DejaVuSans-70" transform="translate(228.417969 0)"/>
      <use xlink:href="#DejaVuSans-6f" transform="translate(291.894531 0)"/>
      <use xlink:href="#DejaVuSans-6e" transform="translate(353.076172 0)"/>
      <use xlink:href="#DejaVuSans-65" transform="translate(416.455078 0)"/>
      <use xlink:href="#DejaVuSans-6e" transform="translate(477.978516 0)"/>
      <use xlink:href="#DejaVuSans-74" transform="translate(541.357422 0)"/>
      <use xlink:href="#DejaVuSans-20" transform="translate(580.566406 0)"/>
      <use xlink:href="#DejaVuSans-32" transform="translate(612.353516 0)"/>
     </g>
    </g>
   </g>
   <g id="patch_3">
    <path d="M 57.6 307.584 
L 57.6 41.472 
" style="fill: none; stroke: #000000; stroke-width: 0.8; stroke-linejoin: miter; stroke-linecap: square"/>
   </g>
   <g id="patch_4">
    <path d="M 414.72 307.584 
L 414.72 41.472 
" style="fill: none; stroke: #000000; stroke-width: 0.8; stroke-linejoin: miter; stroke-linecap: square"/>
   </g>
   <g id="patch_5">
    <path d="M 57.6 307.584 
L 414.72 307.584 
" style="fill: none; stroke: #000000; stroke-width: 0.8; stroke-linejoin: miter; stroke-linecap: square"/>
   </g>
   <g id="patch_6">
    <path d="M 57.6 41.472 
L 414.72 41.472 
" style="fill: none; stroke: #000000; stroke-width: 0.8; stroke-linejoin: miter; stroke-linecap: square"/>
   </g>
   <g id="text_13">
    <!-- Layer 6 activations (PCA) -->
    <g transform="translate(128.913906 35.472) scale(0.17 -0.17)">
     <defs>
      <path id="DejaVuSans-4c" d="M 628 4666 
L 1259 4666 
L 1259 531 
L 3531 531 
L 3531 0 
L 628 0 
L 628 4666 
z
" transform="scale(0.015625)"/>
      <path id="DejaVuSans-61" d="M 2194 1759 
Q 1497 1759 1228 1600 
Q 959 1441 959 1056 
Q 959 750 1161 570 
Q 1363 391 1709 391 
Q 2188 391 2477 730 
Q 2766 1069 2766 1631 
L 2766 1759 
L 2194 1759 
z
M 3341 1997 
L 3341 0 
L 2766 0 
L 2766 531 
Q 2569 213 2275 61 
Q 1981 -91 1556 -91 
Q 1019 -91 701 211 
Q 384 513 384 1019 
Q 384 1609 779 1909 
Q 1175 2209 1959 2209 
L 2766 2209 
L 2766 2266 
Q 2766 2663 2505 2880 
Q 2244 3097 1772 3097 
Q 1472 3097 1187 3025 
Q 903 2953 641 2809 
L 641 3341 
Q 956 3463 1253 3523 
Q 1550 3584 1831 3584 
Q 2591 3584 2966 3190 
Q 3341 2797 3341 1997 
z
" transform="scale(0.015625)"/>
      <path id="DejaVuSans-79" d="M 2059 -325 
Q 1816 -950 1584 -1140 
Q 1353 -1331 966 -1331 
L 506 -1331 
L 506 -850 
L 844 -850 
Q 1081 -850 1212 -737 
Q 1344 -625 1503 -206 
L 1606 56 
L 191 3500 
L 800 3500 
L 1894 763 
L 2988 3500 
L 3597 3500 
L 2059 -325 
z
" transform="scale(0.015625)"/>
      <path id="DejaVuSans-72" d="M 2631 2963 
Q 2534 3019 2420 3045 
Q 2306 3072 2169 3072 
Q 1681 3072 1420 2755 
Q 1159 2438 1159 1844 
L 1159 0 
L 581 0 
L 581 3500 
L 1159 3500 
L 1159 2956 
Q 1341 3275 1631 3429 
Q 1922 3584 2338 3584 
Q 2397 3584 2469 3576 
Q 2541 3569 2628 3553 
L 2631 2963 
z
" transform="scale(0.015625)"/>
      <path id="DejaVuSans-36" d="M 2113 2584 
Q 1688 2584 1439 2293 
Q 1191 2003 1191 1497 
Q 1191 994 1439 701 
Q 1688 409 2113 409 
Q 2538 409 2786 701 
Q 3034 994 3034 1497 
Q 3034 2003 2786 2293 
Q 2538 2584 2113 2584 
z
M 3366 4563 
L 3366 3988 
Q 3128 4100 2886 4159 
Q 2644 4219 2406 4219 
Q 1781 4219 1451 3797 
Q 1122 3375 1075 2522 
Q 1259 2794 1537 2939 
Q 1816 3084 2150 3084 
Q 2853 3084 3261 2657 
Q 3669 2231 3669 1497 
Q 3669 778 3244 343 
Q 2819 -91 2113 -91 
Q 1303 -91 875 529 
Q 447 1150 447 2328 
Q 447 3434 972 4092 
Q 1497 4750 2381 4750 
Q 2619 4750 2861 4703 
Q 3103 4656 3366 4563 
z
" transform="scale(0.015625)"/>
      <path id="DejaVuSans-63" d="M 3122 3366 
L 3122 2828 
Q 2878 2963 2633 3030 
Q 2388 3097 2138 3097 
Q 1578 3097 1268 2742 
Q 959 2388 959 1747 
Q 959 1106 1268 751 
Q 1578 397 2138 397 
Q 2388 397 2633 464 
Q 2878 531 3122 666 
L 3122 134 
Q 2881 22 2623 -34 
Q 2366 -91 2075 -91 
Q 1284 -91 818 406 
Q 353 903 353 1747 
Q 353 2603 823 3093 
Q 1294 3584 2113 3584 
Q 2378 3584 2631 3529 
Q 2884 3475 3122 3366 
z
" transform="scale(0.015625)"/>
      <path id="DejaVuSans-69" d="M 603 3500 
L 1178 3500 
L 1178 0 
L 603 0 
L 603 3500 
z
M 603 4863 
L 1178 4863 
L 1178 4134 
L 603 4134 
L 603 4863 
z
" transform="scale(0.015625)"/>
      <path id="DejaVuSans-76" d="M 191 3500 
L 800 3500 
L 1894 563 
L 2988 3500 
L 3597 3500 
L 2284 0 
L 1503 0 
L 191 3500 
z
" transform="scale(0.015625)"/>
      <path id="DejaVuSans-73" d="M 2834 3397 
L 2834 2853 
Q 2591 2978 2328 3040 
Q 2066 3103 1784 3103 
Q 1356 3103 1142 2972 
Q 928 2841 928 2578 
Q 928 2378 1081 2264 
Q 1234 2150 1697 2047 
L 1894 2003 
Q 2506 1872 2764 1633 
Q 3022 1394 3022 966 
Q 3022 478 2636 193 
Q 2250 -91 1575 -91 
Q 1294 -91 989 -36 
Q 684 19 347 128 
L 347 722 
Q 666 556 975 473 
Q 1284 391 1588 391 
Q 1994 391 2212 530 
Q 2431 669 2431 922 
Q 2431 1156 2273 1281 
Q 2116 1406 1581 1522 
L 1381 1569 
Q 847 1681 609 1914 
Q 372 2147 372 2553 
Q 372 3047 722 3315 
Q 1072 3584 1716 3584 
Q 2034 3584 2315 3537 
Q 2597 3491 2834 3397 
z
" transform="scale(0.015625)"/>
      <path id="DejaVuSans-28" d="M 1984 4856 
Q 1566 4138 1362 3434 
Q 1159 2731 1159 2009 
Q 1159 1288 1364 580 
Q 1569 -128 1984 -844 
L 1484 -844 
Q 1016 -109 783 600 
Q 550 1309 550 2009 
Q 550 2706 781 3412 
Q 1013 4119 1484 4856 
L 1984 4856 
z
" transform="scale(0.015625)"/>
      <path id="DejaVuSans-50" d="M 1259 4147 
L 1259 2394 
L 2053 2394 
Q 2494 2394 2734 2622 
Q 2975 2850 2975 3272 
Q 2975 3691 2734 3919 
Q 2494 4147 2053 4147 
L 1259 4147 
z
M 628 4666 
L 2053 4666 
Q 2838 4666 3239 4311 
Q 3641 3956 3641 3272 
Q 3641 2581 3239 2228 
Q 2838 1875 2053 1875 
L 1259 1875 
L 1259 0 
L 628 0 
L 628 4666 
z
" transform="scale(0.015625)"/>
      <path id="DejaVuSans-41" d="M 2188 4044 
L 1331 1722 
L 3047 1722 
L 2188 4044 
z
M 1831 4666 
L 2547 4666 
L 4325 0 
L 3669 0 
L 3244 1197 
L 1141 1197 
L 716 0 
L 50 0 
L 1831 4666 
z
" transform="scale(0.015625)"/>
      <path id="DejaVuSans-29" d="M 513 4856 
L 1013 4856 
Q 1481 4119 1714 3412 
Q 1947 2706 1947 2009 
Q 1947 1309 1714 600 
Q 1481 -109 1013 -844 
L 513 -844 
Q 928 -128 1133 580 
Q 1338 1288 1338 2009 
Q 1338 2731 1133 3434 
Q 928 4138 513 4856 
z
" transform="scale(0.015625)"/>
     </defs>
     <use xlink:href="#DejaVuSans-4c"/>
     <use xlink:href="#DejaVuSans-61" transform="translate(55.712891 0)"/>
     <use xlink:href="#DejaVuSans-79" transform="translate(116.992188 0)"/>
     <use xlink:href="#DejaVuSans-65" transform="translate(176.171875 0)"/>
     <use xlink:href="#DejaVuSans-72" transform="translate(237.695312 0)"/>
     <use xlink:href="#DejaVuSans-20" transform="translate(278.808594 0)"/>
     <use xlink:href="#DejaVuSans-36" transform="translate(310.595703 0)"/>
     <use xlink:href="#DejaVuSans-20" transform="translate(374.21875 0)"/>
     <use xlink:href="#DejaVuSans-61" transform="translate(406.005859 0)"/>
     <use xlink:href="#DejaVuSans-63" transform="translate(467.285156 0)"/>
     <use xlink:href="#DejaVuSans-74" transform="translate(522.265625 0)"/>
     <use xlink:href="#DejaVuSans-69" transform="translate(561.474609 0)"/>
     <use xlink:href="#DejaVuSans-76" transform="translate(589.257812 0)"/>
     <use xlink:href="#DejaVuSans-61" transform="translate(648.4375 0)"/>
     <use xlink:href="#DejaVuSans-74" transform="translate(709.716797 0)"/>
     <use xlink:href="#DejaVuSans-69" transform="translate(748.925781 0)"/>
     <use xlink:href="#DejaVuSans-6f" transform="translate(776.708984 0)"/>
     <use xlink:href="#DejaVuSans-6e" transform="translate(837.890625 0)"/>
     <use xlink:href="#DejaVuSans-73" transform="translate(901.269531 0)"/>
     <use xlink:href="#DejaVuSans-20" transform="translate(953.369141 0)"/>
     <use xlink:href="#DejaVuSans-28" transform="translate(985.15625 0)"/>
     <use xlink:href="#DejaVuSans-50" transform="translate(1024.169922 0)"/>
     <use xlink:href="#DejaVuSans-43" transform="translate(1084.472656 0)"/>
     <use xlink:href="#DejaVuSans-41" transform="translate(1154.296875 0)"/>
     <use xlink:href="#DejaVuSans-29" transform="translate(1222.705078 0)"/>
    </g>
   </g>
  </g>
 </g>
 <defs>
  <clipPath id="p85066adc4b">
   <rect x="57.6" y="41.472" width="357.12" height="266.112"/>
  </clipPath>
 </defs>
</svg>
