<?xml version="1.0" encoding="utf-8" standalone="no"?>
<!DOCTYPE svg PUBLIC "-//W3C//DTD SVG 1.1//EN"
  "http://www.w3.org/Graphics/SVG/1.1/DTD/svg11.dtd">
<svg xmlns:xlink="http://www.w3.org/1999/xlink" width="460.8pt" height="345.6pt" viewBox="0 0 460.8 345.6" xmlns="http://www.w3.org/2000/svg" version="1.1">
 <metadata>
  <rdf:RDF xmlns:dc="http://purl.org/dc/elements/1.1/" xmlns:cc="http://creativecommons.org/ns#" xmlns:rdf="http://www.w3.org/1999/02/22-rdf-syntax-ns#">
   <cc:Work>
    <dc:type rdf:resource="http://purl.org/dc/dcmitype/StillImage"/>
    <dc:date>2025-05-03T14:22:32.870039</dc:date>
    <dc:format>image/svg+xml</dc:format>
    <dc:creator>
     <cc:Agent>
      <dc:title>Matplotlib v3.10.0, https://matplotlib.org/</dc:title>
     </cc:Agent>
    </dc:creator>
   </cc:Work>
  </rdf:RDF>
 </metadata>
 <defs>
  <style type="text/css">*{stroke-linejoin: round; stroke-linecap: butt}</style>
 </defs>
 <g id="figure_1">
  <g id="patch_1">
   <path d="M 0 345.6 
L 460.8 345.6 
L 460.8 0 
L 0 0 
L 0 345.6 
z
" style="fill: none; opacity: 0"/>
  </g>
  <g id="axes_1">
   <g id="patch_2">
    <path d="M 57.6 307.584 
L 414.72 307.584 
L 414.72 41.472 
L 57.6 41.472 
L 57.6 307.584 
z
" style="fill: none"/>
   </g>
   <g id="PathCollection_1">
    <defs>
     <path id="mc5a497ecca" d="M 0 3 
C 0.795609 3 1.55874 2.683901 2.12132 2.12132 
C 2.683901 1.55874 3 0.795609 3 0 
C 3 -0.795609 2.683901 -1.55874 2.12132 -2.12132 
C 1.55874 -2.683901 0.795609 -3 0 -3 
C -0.795609 -3 -1.55874 -2.683901 -2.12132 -2.12132 
C -2.683901 -1.55874 -3 -0.795609 -3 0 
C -3 0.795609 -2.683901 1.55874 -2.12132 2.12132 
C -1.55874 2.683901 -0.795609 3 0 3 
z
" style="stroke: #a459d1"/>
    </defs>
    <g clip-path="url(#p3a0a8c6b47)">
     <use xlink:href="#mc5a497ecca" x="384.587086" y="196.024214" style="fill: #a459d1; stroke: #a459d1"/>
     <use xlink:href="#mc5a497ecca" x="352.735726" y="155.152575" style="fill: #a459d1; stroke: #a459d1"/>
     <use xlink:href="#mc5a497ecca" x="394.610165" y="189.905529" style="fill: #a459d1; stroke: #a459d1"/>
     <use xlink:href="#mc5a497ecca" x="369.209574" y="139.106383" style="fill: #a459d1; stroke: #a459d1"/>
     <use xlink:href="#mc5a497ecca" x="381.677352" y="197.280192" style="fill: #a459d1; stroke: #a459d1"/>
     <use xlink:href="#mc5a497ecca" x="313.538697" y="178.051475" style="fill: #a459d1; stroke: #a459d1"/>
     <use xlink:href="#mc5a497ecca" x="381.962382" y="218.469209" style="fill: #a459d1; stroke: #a459d1"/>
     <use xlink:href="#mc5a497ecca" x="361.665451" y="149.880165" style="fill: #a459d1; stroke: #a459d1"/>
     <use xlink:href="#mc5a497ecca" x="395.325561" y="161.499696" style="fill: #a459d1; stroke: #a459d1"/>
     <use xlink:href="#mc5a497ecca" x="342.969772" y="109.793942" style="fill: #a459d1; stroke: #a459d1"/>
     <use xlink:href="#mc5a497ecca" x="380.176009" y="136.887649" style="fill: #a459d1; stroke: #a459d1"/>
     <use xlink:href="#mc5a497ecca" x="382.19532" y="203.388805" style="fill: #a459d1; stroke: #a459d1"/>
     <use xlink:href="#mc5a497ecca" x="305.245636" y="110.128464" style="fill: #a459d1; stroke: #a459d1"/>
     <use xlink:href="#mc5a497ecca" x="378.590911" y="168.247122" style="fill: #a459d1; stroke: #a459d1"/>
     <use xlink:href="#mc5a497ecca" x="373.620982" y="218.074231" style="fill: #a459d1; stroke: #a459d1"/>
     <use xlink:href="#mc5a497ecca" x="388.084449" y="165.494376" style="fill: #a459d1; stroke: #a459d1"/>
     <use xlink:href="#mc5a497ecca" x="368.996573" y="184.681828" style="fill: #a459d1; stroke: #a459d1"/>
     <use xlink:href="#mc5a497ecca" x="374.309783" y="226.942093" style="fill: #a459d1; stroke: #a459d1"/>
     <use xlink:href="#mc5a497ecca" x="379.543294" y="184.461603" style="fill: #a459d1; stroke: #a459d1"/>
     <use xlink:href="#mc5a497ecca" x="365.907885" y="217.545768" style="fill: #a459d1; stroke: #a459d1"/>
     <use xlink:href="#mc5a497ecca" x="356.497286" y="123.034717" style="fill: #a459d1; stroke: #a459d1"/>
     <use xlink:href="#mc5a497ecca" x="296.906336" y="94.079164" style="fill: #a459d1; stroke: #a459d1"/>
     <use xlink:href="#mc5a497ecca" x="318.638582" y="78.252374" style="fill: #a459d1; stroke: #a459d1"/>
     <use xlink:href="#mc5a497ecca" x="391.550732" y="193.920982" style="fill: #a459d1; stroke: #a459d1"/>
     <use xlink:href="#mc5a497ecca" x="369.508375" y="147.491546" style="fill: #a459d1; stroke: #a459d1"/>
     <use xlink:href="#mc5a497ecca" x="355.780572" y="142.575783" style="fill: #a459d1; stroke: #a459d1"/>
     <use xlink:href="#mc5a497ecca" x="293.366869" y="71.287105" style="fill: #a459d1; stroke: #a459d1"/>
     <use xlink:href="#mc5a497ecca" x="178.349836" y="67.134318" style="fill: #a459d1; stroke: #a459d1"/>
     <use xlink:href="#mc5a497ecca" x="384.558947" y="157.762702" style="fill: #a459d1; stroke: #a459d1"/>
     <use xlink:href="#mc5a497ecca" x="364.573188" y="114.666583" style="fill: #a459d1; stroke: #a459d1"/>
     <use xlink:href="#mc5a497ecca" x="372.495949" y="187.347117" style="fill: #a459d1; stroke: #a459d1"/>
     <use xlink:href="#mc5a497ecca" x="370.773168" y="223.119058" style="fill: #a459d1; stroke: #a459d1"/>
     <use xlink:href="#mc5a497ecca" x="301.979598" y="99.466399" style="fill: #a459d1; stroke: #a459d1"/>
     <use xlink:href="#mc5a497ecca" x="360.863285" y="152.167038" style="fill: #a459d1; stroke: #a459d1"/>
     <use xlink:href="#mc5a497ecca" x="375.584661" y="206.741915" style="fill: #a459d1; stroke: #a459d1"/>
     <use xlink:href="#mc5a497ecca" x="388.788176" y="209.240856" style="fill: #a459d1; stroke: #a459d1"/>
     <use xlink:href="#mc5a497ecca" x="379.192044" y="159.7598" style="fill: #a459d1; stroke: #a459d1"/>
     <use xlink:href="#mc5a497ecca" x="383.295374" y="161.839498" style="fill: #a459d1; stroke: #a459d1"/>
     <use xlink:href="#mc5a497ecca" x="360.034248" y="213.878026" style="fill: #a459d1; stroke: #a459d1"/>
     <use xlink:href="#mc5a497ecca" x="382.521743" y="185.917327" style="fill: #a459d1; stroke: #a459d1"/>
     <use xlink:href="#mc5a497ecca" x="197.724431" y="65.259933" style="fill: #a459d1; stroke: #a459d1"/>
     <use xlink:href="#mc5a497ecca" x="330.789829" y="114.264694" style="fill: #a459d1; stroke: #a459d1"/>
     <use xlink:href="#mc5a497ecca" x="374.398936" y="142.558847" style="fill: #a459d1; stroke: #a459d1"/>
     <use xlink:href="#mc5a497ecca" x="366.854813" y="179.900745" style="fill: #a459d1; stroke: #a459d1"/>
     <use xlink:href="#mc5a497ecca" x="342.859477" y="127.589062" style="fill: #a459d1; stroke: #a459d1"/>
     <use xlink:href="#mc5a497ecca" x="284.611609" y="92.329244" style="fill: #a459d1; stroke: #a459d1"/>
     <use xlink:href="#mc5a497ecca" x="383.598911" y="142.939832" style="fill: #a459d1; stroke: #a459d1"/>
     <use xlink:href="#mc5a497ecca" x="377.512297" y="139.047156" style="fill: #a459d1; stroke: #a459d1"/>
     <use xlink:href="#mc5a497ecca" x="360.162742" y="125.641156" style="fill: #a459d1; stroke: #a459d1"/>
     <use xlink:href="#mc5a497ecca" x="398.487273" y="145.062339" style="fill: #a459d1; stroke: #a459d1"/>
     <use xlink:href="#mc5a497ecca" x="379.694359" y="137.997527" style="fill: #a459d1; stroke: #a459d1"/>
     <use xlink:href="#mc5a497ecca" x="250.230235" y="117.434068" style="fill: #a459d1; stroke: #a459d1"/>
     <use xlink:href="#mc5a497ecca" x="382.346216" y="195.600889" style="fill: #a459d1; stroke: #a459d1"/>
     <use xlink:href="#mc5a497ecca" x="355.949861" y="190.25866" style="fill: #a459d1; stroke: #a459d1"/>
     <use xlink:href="#mc5a497ecca" x="360.604519" y="185.780502" style="fill: #a459d1; stroke: #a459d1"/>
     <use xlink:href="#mc5a497ecca" x="372.47126" y="155.957932" style="fill: #a459d1; stroke: #a459d1"/>
     <use xlink:href="#mc5a497ecca" x="389.104223" y="191.919161" style="fill: #a459d1; stroke: #a459d1"/>
     <use xlink:href="#mc5a497ecca" x="386.610017" y="203.152702" style="fill: #a459d1; stroke: #a459d1"/>
     <use xlink:href="#mc5a497ecca" x="340.905795" y="112.266627" style="fill: #a459d1; stroke: #a459d1"/>
     <use xlink:href="#mc5a497ecca" x="373.064919" y="167.745337" style="fill: #a459d1; stroke: #a459d1"/>
     <use xlink:href="#mc5a497ecca" x="376.928061" y="189.782391" style="fill: #a459d1; stroke: #a459d1"/>
     <use xlink:href="#mc5a497ecca" x="389.198258" y="152.614081" style="fill: #a459d1; stroke: #a459d1"/>
     <use xlink:href="#mc5a497ecca" x="368.018233" y="154.772383" style="fill: #a459d1; stroke: #a459d1"/>
     <use xlink:href="#mc5a497ecca" x="253.32764" y="58.341874" style="fill: #a459d1; stroke: #a459d1"/>
     <use xlink:href="#mc5a497ecca" x="393.748771" y="202.842225" style="fill: #a459d1; stroke: #a459d1"/>
     <use xlink:href="#mc5a497ecca" x="388.172423" y="165.979158" style="fill: #a459d1; stroke: #a459d1"/>
     <use xlink:href="#mc5a497ecca" x="354.254589" y="115.033945" style="fill: #a459d1; stroke: #a459d1"/>
     <use xlink:href="#mc5a497ecca" x="379.539051" y="215.732228" style="fill: #a459d1; stroke: #a459d1"/>
     <use xlink:href="#mc5a497ecca" x="348.150891" y="106.886501" style="fill: #a459d1; stroke: #a459d1"/>
     <use xlink:href="#mc5a497ecca" x="382.928625" y="179.443609" style="fill: #a459d1; stroke: #a459d1"/>
     <use xlink:href="#mc5a497ecca" x="367.141864" y="134.101137" style="fill: #a459d1; stroke: #a459d1"/>
     <use xlink:href="#mc5a497ecca" x="358.157331" y="173.039111" style="fill: #a459d1; stroke: #a459d1"/>
     <use xlink:href="#mc5a497ecca" x="379.732422" y="210.638537" style="fill: #a459d1; stroke: #a459d1"/>
     <use xlink:href="#mc5a497ecca" x="278.083835" y="69.317059" style="fill: #a459d1; stroke: #a459d1"/>
     <use xlink:href="#mc5a497ecca" x="380.431898" y="212.196782" style="fill: #a459d1; stroke: #a459d1"/>
     <use xlink:href="#mc5a497ecca" x="384.401586" y="170.712776" style="fill: #a459d1; stroke: #a459d1"/>
     <use xlink:href="#mc5a497ecca" x="320.134236" y="116.977773" style="fill: #a459d1; stroke: #a459d1"/>
     <use xlink:href="#mc5a497ecca" x="365.995479" y="222.758455" style="fill: #a459d1; stroke: #a459d1"/>
     <use xlink:href="#mc5a497ecca" x="390.268249" y="139.597536" style="fill: #a459d1; stroke: #a459d1"/>
     <use xlink:href="#mc5a497ecca" x="379.894316" y="188.342293" style="fill: #a459d1; stroke: #a459d1"/>
     <use xlink:href="#mc5a497ecca" x="355.76778" y="216.010287" style="fill: #a459d1; stroke: #a459d1"/>
     <use xlink:href="#mc5a497ecca" x="374.943274" y="177.277541" style="fill: #a459d1; stroke: #a459d1"/>
     <use xlink:href="#mc5a497ecca" x="379.222059" y="181.070394" style="fill: #a459d1; stroke: #a459d1"/>
     <use xlink:href="#mc5a497ecca" x="380.287678" y="150.286454" style="fill: #a459d1; stroke: #a459d1"/>
     <use xlink:href="#mc5a497ecca" x="383.059753" y="135.51515" style="fill: #a459d1; stroke: #a459d1"/>
     <use xlink:href="#mc5a497ecca" x="374.630323" y="187.580249" style="fill: #a459d1; stroke: #a459d1"/>
     <use xlink:href="#mc5a497ecca" x="376.220003" y="180.605858" style="fill: #a459d1; stroke: #a459d1"/>
     <use xlink:href="#mc5a497ecca" x="363.959408" y="239.604159" style="fill: #a459d1; stroke: #a459d1"/>
     <use xlink:href="#mc5a497ecca" x="354.988144" y="100.567144" style="fill: #a459d1; stroke: #a459d1"/>
     <use xlink:href="#mc5a497ecca" x="383.781049" y="140.852858" style="fill: #a459d1; stroke: #a459d1"/>
     <use xlink:href="#mc5a497ecca" x="374.417443" y="142.782235" style="fill: #a459d1; stroke: #a459d1"/>
     <use xlink:href="#mc5a497ecca" x="348.030948" y="116.993672" style="fill: #a459d1; stroke: #a459d1"/>
     <use xlink:href="#mc5a497ecca" x="330.79871" y="106.884474" style="fill: #a459d1; stroke: #a459d1"/>
     <use xlink:href="#mc5a497ecca" x="352.778856" y="162.432003" style="fill: #a459d1; stroke: #a459d1"/>
     <use xlink:href="#mc5a497ecca" x="384.165254" y="131.325489" style="fill: #a459d1; stroke: #a459d1"/>
     <use xlink:href="#mc5a497ecca" x="346.92341" y="212.714381" style="fill: #a459d1; stroke: #a459d1"/>
     <use xlink:href="#mc5a497ecca" x="386.146793" y="176.156229" style="fill: #a459d1; stroke: #a459d1"/>
     <use xlink:href="#mc5a497ecca" x="331.519424" y="112.267812" style="fill: #a459d1; stroke: #a459d1"/>
     <use xlink:href="#mc5a497ecca" x="272.107788" y="85.874371" style="fill: #a459d1; stroke: #a459d1"/>
     <use xlink:href="#mc5a497ecca" x="389.296786" y="194.78776" style="fill: #a459d1; stroke: #a459d1"/>
     <use xlink:href="#mc5a497ecca" x="392.348041" y="184.789063" style="fill: #a459d1; stroke: #a459d1"/>
     <use xlink:href="#mc5a497ecca" x="359.697263" y="212.505629" style="fill: #a459d1; stroke: #a459d1"/>
     <use xlink:href="#mc5a497ecca" x="382.967302" y="191.443031" style="fill: #a459d1; stroke: #a459d1"/>
     <use xlink:href="#mc5a497ecca" x="394.545142" y="176.805743" style="fill: #a459d1; stroke: #a459d1"/>
     <use xlink:href="#mc5a497ecca" x="388.438058" y="185.561325" style="fill: #a459d1; stroke: #a459d1"/>
     <use xlink:href="#mc5a497ecca" x="371.549369" y="188.315131" style="fill: #a459d1; stroke: #a459d1"/>
     <use xlink:href="#mc5a497ecca" x="378.396182" y="195.219458" style="fill: #a459d1; stroke: #a459d1"/>
     <use xlink:href="#mc5a497ecca" x="363.544041" y="122.157356" style="fill: #a459d1; stroke: #a459d1"/>
     <use xlink:href="#mc5a497ecca" x="368.135413" y="144.112716" style="fill: #a459d1; stroke: #a459d1"/>
     <use xlink:href="#mc5a497ecca" x="390.597339" y="151.580594" style="fill: #a459d1; stroke: #a459d1"/>
     <use xlink:href="#mc5a497ecca" x="363.080008" y="221.487924" style="fill: #a459d1; stroke: #a459d1"/>
     <use xlink:href="#mc5a497ecca" x="296.906886" y="95.704236" style="fill: #a459d1; stroke: #a459d1"/>
     <use xlink:href="#mc5a497ecca" x="372.859967" y="236.621521" style="fill: #a459d1; stroke: #a459d1"/>
     <use xlink:href="#mc5a497ecca" x="391.8773" y="181.672678" style="fill: #a459d1; stroke: #a459d1"/>
     <use xlink:href="#mc5a497ecca" x="374.503073" y="186.322683" style="fill: #a459d1; stroke: #a459d1"/>
     <use xlink:href="#mc5a497ecca" x="371.671737" y="214.784842" style="fill: #a459d1; stroke: #a459d1"/>
     <use xlink:href="#mc5a497ecca" x="369.472041" y="227.921444" style="fill: #a459d1; stroke: #a459d1"/>
     <use xlink:href="#mc5a497ecca" x="391.054874" y="163.971356" style="fill: #a459d1; stroke: #a459d1"/>
     <use xlink:href="#mc5a497ecca" x="377.410342" y="177.308136" style="fill: #a459d1; stroke: #a459d1"/>
     <use xlink:href="#mc5a497ecca" x="383.955817" y="153.667536" style="fill: #a459d1; stroke: #a459d1"/>
    </g>
   </g>
   <g id="PathCollection_2">
    <defs>
     <path id="m9174ee5c15" d="M 0 3 
C 0.795609 3 1.55874 2.683901 2.12132 2.12132 
C 2.683901 1.55874 3 0.795609 3 0 
C 3 -0.795609 2.683901 -1.55874 2.12132 -2.12132 
C 1.55874 -2.683901 0.795609 -3 0 -3 
C -0.795609 -3 -1.55874 -2.683901 -2.12132 -2.12132 
C -2.683901 -1.55874 -3 -0.795609 -3 0 
C -3 0.795609 -2.683901 1.55874 -2.12132 2.12132 
C -1.55874 2.683901 -0.795609 3 0 3 
z
" style="stroke: #ffb84c"/>
    </defs>
    <g clip-path="url(#p3a0a8c6b47)">
     <use xlink:href="#m9174ee5c15" x="127.446513" y="197.096031" style="fill: #ffb84c; stroke: #ffb84c"/>
     <use xlink:href="#m9174ee5c15" x="93.178424" y="197.075993" style="fill: #ffb84c; stroke: #ffb84c"/>
     <use xlink:href="#m9174ee5c15" x="95.400965" y="171.355995" style="fill: #ffb84c; stroke: #ffb84c"/>
     <use xlink:href="#m9174ee5c15" x="195.258886" y="129.558078" style="fill: #ffb84c; stroke: #ffb84c"/>
     <use xlink:href="#m9174ee5c15" x="112.175651" y="188.913804" style="fill: #ffb84c; stroke: #ffb84c"/>
     <use xlink:href="#m9174ee5c15" x="110.006059" y="224.69853" style="fill: #ffb84c; stroke: #ffb84c"/>
     <use xlink:href="#m9174ee5c15" x="146.098391" y="275.952993" style="fill: #ffb84c; stroke: #ffb84c"/>
     <use xlink:href="#m9174ee5c15" x="84.663654" y="164.062426" style="fill: #ffb84c; stroke: #ffb84c"/>
     <use xlink:href="#m9174ee5c15" x="98.242606" y="82.301596" style="fill: #ffb84c; stroke: #ffb84c"/>
     <use xlink:href="#m9174ee5c15" x="155.730064" y="63.378064" style="fill: #ffb84c; stroke: #ffb84c"/>
     <use xlink:href="#m9174ee5c15" x="174.051203" y="154.023909" style="fill: #ffb84c; stroke: #ffb84c"/>
     <use xlink:href="#m9174ee5c15" x="78.418701" y="278.057116" style="fill: #ffb84c; stroke: #ffb84c"/>
     <use xlink:href="#m9174ee5c15" x="91.229405" y="69.062469" style="fill: #ffb84c; stroke: #ffb84c"/>
     <use xlink:href="#m9174ee5c15" x="115.359215" y="194.80202" style="fill: #ffb84c; stroke: #ffb84c"/>
     <use xlink:href="#m9174ee5c15" x="124.016233" y="266.944579" style="fill: #ffb84c; stroke: #ffb84c"/>
     <use xlink:href="#m9174ee5c15" x="122.09507" y="182.921848" style="fill: #ffb84c; stroke: #ffb84c"/>
     <use xlink:href="#m9174ee5c15" x="112.431096" y="273.160086" style="fill: #ffb84c; stroke: #ffb84c"/>
     <use xlink:href="#m9174ee5c15" x="124.445726" y="286.797773" style="fill: #ffb84c; stroke: #ffb84c"/>
     <use xlink:href="#m9174ee5c15" x="118.290865" y="180.912115" style="fill: #ffb84c; stroke: #ffb84c"/>
     <use xlink:href="#m9174ee5c15" x="126.36537" y="263.154874" style="fill: #ffb84c; stroke: #ffb84c"/>
     <use xlink:href="#m9174ee5c15" x="89.109965" y="54.124851" style="fill: #ffb84c; stroke: #ffb84c"/>
     <use xlink:href="#m9174ee5c15" x="137.999351" y="80.480315" style="fill: #ffb84c; stroke: #ffb84c"/>
     <use xlink:href="#m9174ee5c15" x="154.248125" y="76.463086" style="fill: #ffb84c; stroke: #ffb84c"/>
     <use xlink:href="#m9174ee5c15" x="181.444213" y="112.845282" style="fill: #ffb84c; stroke: #ffb84c"/>
     <use xlink:href="#m9174ee5c15" x="170.03348" y="85.922159" style="fill: #ffb84c; stroke: #ffb84c"/>
     <use xlink:href="#m9174ee5c15" x="89.287869" y="53.568" style="fill: #ffb84c; stroke: #ffb84c"/>
     <use xlink:href="#m9174ee5c15" x="151.566965" y="70.17444" style="fill: #ffb84c; stroke: #ffb84c"/>
     <use xlink:href="#m9174ee5c15" x="143.990346" y="74.65215" style="fill: #ffb84c; stroke: #ffb84c"/>
     <use xlink:href="#m9174ee5c15" x="346.517806" y="127.819045" style="fill: #ffb84c; stroke: #ffb84c"/>
     <use xlink:href="#m9174ee5c15" x="113.182009" y="130.601728" style="fill: #ffb84c; stroke: #ffb84c"/>
     <use xlink:href="#m9174ee5c15" x="129.81519" y="177.543536" style="fill: #ffb84c; stroke: #ffb84c"/>
     <use xlink:href="#m9174ee5c15" x="106.740728" y="259.633386" style="fill: #ffb84c; stroke: #ffb84c"/>
     <use xlink:href="#m9174ee5c15" x="146.248914" y="153.193439" style="fill: #ffb84c; stroke: #ffb84c"/>
     <use xlink:href="#m9174ee5c15" x="118.210019" y="182.405693" style="fill: #ffb84c; stroke: #ffb84c"/>
     <use xlink:href="#m9174ee5c15" x="290.85421" y="201.107713" style="fill: #ffb84c; stroke: #ffb84c"/>
     <use xlink:href="#m9174ee5c15" x="195.59188" y="192.131285" style="fill: #ffb84c; stroke: #ffb84c"/>
     <use xlink:href="#m9174ee5c15" x="101.128612" y="174.518902" style="fill: #ffb84c; stroke: #ffb84c"/>
     <use xlink:href="#m9174ee5c15" x="90.920615" y="152.637414" style="fill: #ffb84c; stroke: #ffb84c"/>
     <use xlink:href="#m9174ee5c15" x="118.831687" y="295.488" style="fill: #ffb84c; stroke: #ffb84c"/>
     <use xlink:href="#m9174ee5c15" x="86.905882" y="190.202759" style="fill: #ffb84c; stroke: #ffb84c"/>
     <use xlink:href="#m9174ee5c15" x="153.066926" y="79.695246" style="fill: #ffb84c; stroke: #ffb84c"/>
     <use xlink:href="#m9174ee5c15" x="87.374731" y="75.16692" style="fill: #ffb84c; stroke: #ffb84c"/>
     <use xlink:href="#m9174ee5c15" x="100.605488" y="177.31946" style="fill: #ffb84c; stroke: #ffb84c"/>
     <use xlink:href="#m9174ee5c15" x="87.693137" y="173.211493" style="fill: #ffb84c; stroke: #ffb84c"/>
     <use xlink:href="#m9174ee5c15" x="86.550802" y="142.741228" style="fill: #ffb84c; stroke: #ffb84c"/>
     <use xlink:href="#m9174ee5c15" x="89.694265" y="68.002129" style="fill: #ffb84c; stroke: #ffb84c"/>
     <use xlink:href="#m9174ee5c15" x="174.297661" y="101.140494" style="fill: #ffb84c; stroke: #ffb84c"/>
     <use xlink:href="#m9174ee5c15" x="168.74858" y="136.93257" style="fill: #ffb84c; stroke: #ffb84c"/>
     <use xlink:href="#m9174ee5c15" x="137.839679" y="90.802202" style="fill: #ffb84c; stroke: #ffb84c"/>
     <use xlink:href="#m9174ee5c15" x="113.835745" y="75.639001" style="fill: #ffb84c; stroke: #ffb84c"/>
     <use xlink:href="#m9174ee5c15" x="109.364074" y="81.320623" style="fill: #ffb84c; stroke: #ffb84c"/>
     <use xlink:href="#m9174ee5c15" x="77.42975" y="128.827946" style="fill: #ffb84c; stroke: #ffb84c"/>
     <use xlink:href="#m9174ee5c15" x="114.260793" y="256.12409" style="fill: #ffb84c; stroke: #ffb84c"/>
     <use xlink:href="#m9174ee5c15" x="91.168762" y="218.264768" style="fill: #ffb84c; stroke: #ffb84c"/>
     <use xlink:href="#m9174ee5c15" x="175.435091" y="240.681603" style="fill: #ffb84c; stroke: #ffb84c"/>
     <use xlink:href="#m9174ee5c15" x="184.298306" y="115.428541" style="fill: #ffb84c; stroke: #ffb84c"/>
     <use xlink:href="#m9174ee5c15" x="114.220621" y="172.566384" style="fill: #ffb84c; stroke: #ffb84c"/>
     <use xlink:href="#m9174ee5c15" x="94.425009" y="243.156977" style="fill: #ffb84c; stroke: #ffb84c"/>
     <use xlink:href="#m9174ee5c15" x="96.201168" y="83.167146" style="fill: #ffb84c; stroke: #ffb84c"/>
     <use xlink:href="#m9174ee5c15" x="98.251333" y="200.818592" style="fill: #ffb84c; stroke: #ffb84c"/>
     <use xlink:href="#m9174ee5c15" x="139.167014" y="244.474823" style="fill: #ffb84c; stroke: #ffb84c"/>
     <use xlink:href="#m9174ee5c15" x="90.563596" y="119.517789" style="fill: #ffb84c; stroke: #ffb84c"/>
     <use xlink:href="#m9174ee5c15" x="105.520391" y="153.508769" style="fill: #ffb84c; stroke: #ffb84c"/>
     <use xlink:href="#m9174ee5c15" x="105.473066" y="68.529543" style="fill: #ffb84c; stroke: #ffb84c"/>
     <use xlink:href="#m9174ee5c15" x="161.982508" y="226.447409" style="fill: #ffb84c; stroke: #ffb84c"/>
     <use xlink:href="#m9174ee5c15" x="93.464876" y="156.877303" style="fill: #ffb84c; stroke: #ffb84c"/>
     <use xlink:href="#m9174ee5c15" x="100.717513" y="72.527517" style="fill: #ffb84c; stroke: #ffb84c"/>
     <use xlink:href="#m9174ee5c15" x="112.079022" y="276.964003" style="fill: #ffb84c; stroke: #ffb84c"/>
     <use xlink:href="#m9174ee5c15" x="95.746428" y="78.353437" style="fill: #ffb84c; stroke: #ffb84c"/>
     <use xlink:href="#m9174ee5c15" x="97.513455" y="234.50537" style="fill: #ffb84c; stroke: #ffb84c"/>
     <use xlink:href="#m9174ee5c15" x="145.29018" y="125.216508" style="fill: #ffb84c; stroke: #ffb84c"/>
     <use xlink:href="#m9174ee5c15" x="76.427562" y="130.909901" style="fill: #ffb84c; stroke: #ffb84c"/>
     <use xlink:href="#m9174ee5c15" x="108.637073" y="256.856577" style="fill: #ffb84c; stroke: #ffb84c"/>
     <use xlink:href="#m9174ee5c15" x="178.480604" y="77.789359" style="fill: #ffb84c; stroke: #ffb84c"/>
     <use xlink:href="#m9174ee5c15" x="75.056879" y="246.574877" style="fill: #ffb84c; stroke: #ffb84c"/>
     <use xlink:href="#m9174ee5c15" x="202.97665" y="164.005593" style="fill: #ffb84c; stroke: #ffb84c"/>
     <use xlink:href="#m9174ee5c15" x="109.634929" y="102.864494" style="fill: #ffb84c; stroke: #ffb84c"/>
     <use xlink:href="#m9174ee5c15" x="100.426033" y="241.857662" style="fill: #ffb84c; stroke: #ffb84c"/>
     <use xlink:href="#m9174ee5c15" x="89.561294" y="85.024747" style="fill: #ffb84c; stroke: #ffb84c"/>
     <use xlink:href="#m9174ee5c15" x="122.561051" y="227.8029" style="fill: #ffb84c; stroke: #ffb84c"/>
     <use xlink:href="#m9174ee5c15" x="129.757045" y="277.4292" style="fill: #ffb84c; stroke: #ffb84c"/>
     <use xlink:href="#m9174ee5c15" x="73.832727" y="281.815334" style="fill: #ffb84c; stroke: #ffb84c"/>
     <use xlink:href="#m9174ee5c15" x="142.096725" y="193.272678" style="fill: #ffb84c; stroke: #ffb84c"/>
     <use xlink:href="#m9174ee5c15" x="268.841304" y="121.930717" style="fill: #ffb84c; stroke: #ffb84c"/>
     <use xlink:href="#m9174ee5c15" x="148.232587" y="152.35223" style="fill: #ffb84c; stroke: #ffb84c"/>
     <use xlink:href="#m9174ee5c15" x="122.666311" y="225.146803" style="fill: #ffb84c; stroke: #ffb84c"/>
     <use xlink:href="#m9174ee5c15" x="86.056577" y="261.956301" style="fill: #ffb84c; stroke: #ffb84c"/>
     <use xlink:href="#m9174ee5c15" x="92.299169" y="273.797708" style="fill: #ffb84c; stroke: #ffb84c"/>
     <use xlink:href="#m9174ee5c15" x="296.421405" y="71.184311" style="fill: #ffb84c; stroke: #ffb84c"/>
     <use xlink:href="#m9174ee5c15" x="141.887142" y="71.513857" style="fill: #ffb84c; stroke: #ffb84c"/>
     <use xlink:href="#m9174ee5c15" x="170.62123" y="143.492644" style="fill: #ffb84c; stroke: #ffb84c"/>
     <use xlink:href="#m9174ee5c15" x="183.690546" y="98.287861" style="fill: #ffb84c; stroke: #ffb84c"/>
     <use xlink:href="#m9174ee5c15" x="151.377181" y="87.524881" style="fill: #ffb84c; stroke: #ffb84c"/>
     <use xlink:href="#m9174ee5c15" x="82.469235" y="69.071185" style="fill: #ffb84c; stroke: #ffb84c"/>
     <use xlink:href="#m9174ee5c15" x="211.146329" y="81.805294" style="fill: #ffb84c; stroke: #ffb84c"/>
     <use xlink:href="#m9174ee5c15" x="105.497973" y="293.114031" style="fill: #ffb84c; stroke: #ffb84c"/>
     <use xlink:href="#m9174ee5c15" x="91.185975" y="195.23127" style="fill: #ffb84c; stroke: #ffb84c"/>
     <use xlink:href="#m9174ee5c15" x="161.846418" y="81.002186" style="fill: #ffb84c; stroke: #ffb84c"/>
     <use xlink:href="#m9174ee5c15" x="200.343134" y="102.783645" style="fill: #ffb84c; stroke: #ffb84c"/>
     <use xlink:href="#m9174ee5c15" x="153.98847" y="228.512499" style="fill: #ffb84c; stroke: #ffb84c"/>
     <use xlink:href="#m9174ee5c15" x="117.786854" y="184.981571" style="fill: #ffb84c; stroke: #ffb84c"/>
     <use xlink:href="#m9174ee5c15" x="110.310759" y="256.981915" style="fill: #ffb84c; stroke: #ffb84c"/>
     <use xlink:href="#m9174ee5c15" x="137.816195" y="207.715462" style="fill: #ffb84c; stroke: #ffb84c"/>
     <use xlink:href="#m9174ee5c15" x="114.695757" y="91.456124" style="fill: #ffb84c; stroke: #ffb84c"/>
     <use xlink:href="#m9174ee5c15" x="122.219144" y="193.315188" style="fill: #ffb84c; stroke: #ffb84c"/>
     <use xlink:href="#m9174ee5c15" x="124.888376" y="269.062804" style="fill: #ffb84c; stroke: #ffb84c"/>
     <use xlink:href="#m9174ee5c15" x="274.199383" y="185.32379" style="fill: #ffb84c; stroke: #ffb84c"/>
     <use xlink:href="#m9174ee5c15" x="94.139106" y="121.854144" style="fill: #ffb84c; stroke: #ffb84c"/>
     <use xlink:href="#m9174ee5c15" x="142.410298" y="121.776242" style="fill: #ffb84c; stroke: #ffb84c"/>
     <use xlink:href="#m9174ee5c15" x="100.460266" y="117.833946" style="fill: #ffb84c; stroke: #ffb84c"/>
     <use xlink:href="#m9174ee5c15" x="109.513418" y="283.214481" style="fill: #ffb84c; stroke: #ffb84c"/>
     <use xlink:href="#m9174ee5c15" x="159.236204" y="86.160284" style="fill: #ffb84c; stroke: #ffb84c"/>
     <use xlink:href="#m9174ee5c15" x="140.769754" y="255.844094" style="fill: #ffb84c; stroke: #ffb84c"/>
     <use xlink:href="#m9174ee5c15" x="94.123768" y="174.225437" style="fill: #ffb84c; stroke: #ffb84c"/>
     <use xlink:href="#m9174ee5c15" x="77.994768" y="287.696549" style="fill: #ffb84c; stroke: #ffb84c"/>
     <use xlink:href="#m9174ee5c15" x="102.175361" y="157.885733" style="fill: #ffb84c; stroke: #ffb84c"/>
     <use xlink:href="#m9174ee5c15" x="174.751431" y="245.117738" style="fill: #ffb84c; stroke: #ffb84c"/>
     <use xlink:href="#m9174ee5c15" x="82.908733" y="183.530848" style="fill: #ffb84c; stroke: #ffb84c"/>
     <use xlink:href="#m9174ee5c15" x="144.005062" y="177.844" style="fill: #ffb84c; stroke: #ffb84c"/>
     <use xlink:href="#m9174ee5c15" x="94.419676" y="89.86635" style="fill: #ffb84c; stroke: #ffb84c"/>
    </g>
   </g>
   <g id="matplotlib.axis_1">
    <g id="xtick_1">
     <g id="line2d_1">
      <defs>
       <path id="me5488638a9" d="M 0 0 
L 0 3.5 
" style="stroke: #000000; stroke-width: 0.8"/>
      </defs>
      <g>
       <use xlink:href="#me5488638a9" x="109.831129" y="307.584" style="stroke: #000000; stroke-width: 0.8"/>
      </g>
     </g>
     <g id="text_1">
      <!-- −4 -->
      <g transform="translate(100.248707 324.461969) scale(0.13 -0.13)">
       <defs>
        <path id="DejaVuSans-2212" d="M 678 2272 
L 4684 2272 
L 4684 1741 
L 678 1741 
L 678 2272 
z
" transform="scale(0.015625)"/>
        <path id="DejaVuSans-34" d="M 2419 4116 
L 825 1625 
L 2419 1625 
L 2419 4116 
z
M 2253 4666 
L 3047 4666 
L 3047 1625 
L 3713 1625 
L 3713 1100 
L 3047 1100 
L 3047 0 
L 2419 0 
L 2419 1100 
L 313 1100 
L 313 1709 
L 2253 4666 
z
" transform="scale(0.015625)"/>
       </defs>
       <use xlink:href="#DejaVuSans-2212"/>
       <use xlink:href="#DejaVuSans-34" transform="translate(83.789062 0)"/>
      </g>
     </g>
    </g>
    <g id="xtick_2">
     <g id="line2d_2">
      <g>
       <use xlink:href="#me5488638a9" x="177.622673" y="307.584" style="stroke: #000000; stroke-width: 0.8"/>
      </g>
     </g>
     <g id="text_2">
      <!-- −2 -->
      <g transform="translate(168.040251 324.461969) scale(0.13 -0.13)">
       <defs>
        <path id="DejaVuSans-32" d="M 1228 531 
L 3431 531 
L 3431 0 
L 469 0 
L 469 531 
Q 828 903 1448 1529 
Q 2069 2156 2228 2338 
Q 2531 2678 2651 2914 
Q 2772 3150 2772 3378 
Q 2772 3750 2511 3984 
Q 2250 4219 1831 4219 
Q 1534 4219 1204 4116 
Q 875 4013 500 3803 
L 500 4441 
Q 881 4594 1212 4672 
Q 1544 4750 1819 4750 
Q 2544 4750 2975 4387 
Q 3406 4025 3406 3419 
Q 3406 3131 3298 2873 
Q 3191 2616 2906 2266 
Q 2828 2175 2409 1742 
Q 1991 1309 1228 531 
z
" transform="scale(0.015625)"/>
       </defs>
       <use xlink:href="#DejaVuSans-2212"/>
       <use xlink:href="#DejaVuSans-32" transform="translate(83.789062 0)"/>
      </g>
     </g>
    </g>
    <g id="xtick_3">
     <g id="line2d_3">
      <g>
       <use xlink:href="#me5488638a9" x="245.414217" y="307.584" style="stroke: #000000; stroke-width: 0.8"/>
      </g>
     </g>
     <g id="text_3">
      <!-- 0 -->
      <g transform="translate(241.278592 324.461969) scale(0.13 -0.13)">
       <defs>
        <path id="DejaVuSans-30" d="M 2034 4250 
Q 1547 4250 1301 3770 
Q 1056 3291 1056 2328 
Q 1056 1369 1301 889 
Q 1547 409 2034 409 
Q 2525 409 2770 889 
Q 3016 1369 3016 2328 
Q 3016 3291 2770 3770 
Q 2525 4250 2034 4250 
z
M 2034 4750 
Q 2819 4750 3233 4129 
Q 3647 3509 3647 2328 
Q 3647 1150 3233 529 
Q 2819 -91 2034 -91 
Q 1250 -91 836 529 
Q 422 1150 422 2328 
Q 422 3509 836 4129 
Q 1250 4750 2034 4750 
z
" transform="scale(0.015625)"/>
       </defs>
       <use xlink:href="#DejaVuSans-30"/>
      </g>
     </g>
    </g>
    <g id="xtick_4">
     <g id="line2d_4">
      <g>
       <use xlink:href="#me5488638a9" x="313.20576" y="307.584" style="stroke: #000000; stroke-width: 0.8"/>
      </g>
     </g>
     <g id="text_4">
      <!-- 2 -->
      <g transform="translate(309.070135 324.461969) scale(0.13 -0.13)">
       <use xlink:href="#DejaVuSans-32"/>
      </g>
     </g>
    </g>
    <g id="xtick_5">
     <g id="line2d_5">
      <g>
       <use xlink:href="#me5488638a9" x="380.997304" y="307.584" style="stroke: #000000; stroke-width: 0.8"/>
      </g>
     </g>
     <g id="text_5">
      <!-- 4 -->
      <g transform="translate(376.861679 324.461969) scale(0.13 -0.13)">
       <use xlink:href="#DejaVuSans-34"/>
      </g>
     </g>
    </g>
    <g id="text_6">
     <!-- Component 1 -->
     <g transform="translate(185.461172 342.563219) scale(0.15 -0.15)">
      <defs>
       <path id="DejaVuSans-43" d="M 4122 4306 
L 4122 3641 
Q 3803 3938 3442 4084 
Q 3081 4231 2675 4231 
Q 1875 4231 1450 3742 
Q 1025 3253 1025 2328 
Q 1025 1406 1450 917 
Q 1875 428 2675 428 
Q 3081 428 3442 575 
Q 3803 722 4122 1019 
L 4122 359 
Q 3791 134 3420 21 
Q 3050 -91 2638 -91 
Q 1578 -91 968 557 
Q 359 1206 359 2328 
Q 359 3453 968 4101 
Q 1578 4750 2638 4750 
Q 3056 4750 3426 4639 
Q 3797 4528 4122 4306 
z
" transform="scale(0.015625)"/>
       <path id="DejaVuSans-6f" d="M 1959 3097 
Q 1497 3097 1228 2736 
Q 959 2375 959 1747 
Q 959 1119 1226 758 
Q 1494 397 1959 397 
Q 2419 397 2687 759 
Q 2956 1122 2956 1747 
Q 2956 2369 2687 2733 
Q 2419 3097 1959 3097 
z
M 1959 3584 
Q 2709 3584 3137 3096 
Q 3566 2609 3566 1747 
Q 3566 888 3137 398 
Q 2709 -91 1959 -91 
Q 1206 -91 779 398 
Q 353 888 353 1747 
Q 353 2609 779 3096 
Q 1206 3584 1959 3584 
z
" transform="scale(0.015625)"/>
       <path id="DejaVuSans-6d" d="M 3328 2828 
Q 3544 3216 3844 3400 
Q 4144 3584 4550 3584 
Q 5097 3584 5394 3201 
Q 5691 2819 5691 2113 
L 5691 0 
L 5113 0 
L 5113 2094 
Q 5113 2597 4934 2840 
Q 4756 3084 4391 3084 
Q 3944 3084 3684 2787 
Q 3425 2491 3425 1978 
L 3425 0 
L 2847 0 
L 2847 2094 
Q 2847 2600 2669 2842 
Q 2491 3084 2119 3084 
Q 1678 3084 1418 2786 
Q 1159 2488 1159 1978 
L 1159 0 
L 581 0 
L 581 3500 
L 1159 3500 
L 1159 2956 
Q 1356 3278 1631 3431 
Q 1906 3584 2284 3584 
Q 2666 3584 2933 3390 
Q 3200 3197 3328 2828 
z
" transform="scale(0.015625)"/>
       <path id="DejaVuSans-70" d="M 1159 525 
L 1159 -1331 
L 581 -1331 
L 581 3500 
L 1159 3500 
L 1159 2969 
Q 1341 3281 1617 3432 
Q 1894 3584 2278 3584 
Q 2916 3584 3314 3078 
Q 3713 2572 3713 1747 
Q 3713 922 3314 415 
Q 2916 -91 2278 -91 
Q 1894 -91 1617 61 
Q 1341 213 1159 525 
z
M 3116 1747 
Q 3116 2381 2855 2742 
Q 2594 3103 2138 3103 
Q 1681 3103 1420 2742 
Q 1159 2381 1159 1747 
Q 1159 1113 1420 752 
Q 1681 391 2138 391 
Q 2594 391 2855 752 
Q 3116 1113 3116 1747 
z
" transform="scale(0.015625)"/>
       <path id="DejaVuSans-6e" d="M 3513 2113 
L 3513 0 
L 2938 0 
L 2938 2094 
Q 2938 2591 2744 2837 
Q 2550 3084 2163 3084 
Q 1697 3084 1428 2787 
Q 1159 2491 1159 1978 
L 1159 0 
L 581 0 
L 581 3500 
L 1159 3500 
L 1159 2956 
Q 1366 3272 1645 3428 
Q 1925 3584 2291 3584 
Q 2894 3584 3203 3211 
Q 3513 2838 3513 2113 
z
" transform="scale(0.015625)"/>
       <path id="DejaVuSans-65" d="M 3597 1894 
L 3597 1613 
L 953 1613 
Q 991 1019 1311 708 
Q 1631 397 2203 397 
Q 2534 397 2845 478 
Q 3156 559 3463 722 
L 3463 178 
Q 3153 47 2828 -22 
Q 2503 -91 2169 -91 
Q 1331 -91 842 396 
Q 353 884 353 1716 
Q 353 2575 817 3079 
Q 1281 3584 2069 3584 
Q 2775 3584 3186 3129 
Q 3597 2675 3597 1894 
z
M 3022 2063 
Q 3016 2534 2758 2815 
Q 2500 3097 2075 3097 
Q 1594 3097 1305 2825 
Q 1016 2553 972 2059 
L 3022 2063 
z
" transform="scale(0.015625)"/>
       <path id="DejaVuSans-74" d="M 1172 4494 
L 1172 3500 
L 2356 3500 
L 2356 3053 
L 1172 3053 
L 1172 1153 
Q 1172 725 1289 603 
Q 1406 481 1766 481 
L 2356 481 
L 2356 0 
L 1766 0 
Q 1100 0 847 248 
Q 594 497 594 1153 
L 594 3053 
L 172 3053 
L 172 3500 
L 594 3500 
L 594 4494 
L 1172 4494 
z
" transform="scale(0.015625)"/>
       <path id="DejaVuSans-20" transform="scale(0.015625)"/>
       <path id="DejaVuSans-31" d="M 794 531 
L 1825 531 
L 1825 4091 
L 703 3866 
L 703 4441 
L 1819 4666 
L 2450 4666 
L 2450 531 
L 3481 531 
L 3481 0 
L 794 0 
L 794 531 
z
" transform="scale(0.015625)"/>
      </defs>
      <use xlink:href="#DejaVuSans-43"/>
      <use xlink:href="#DejaVuSans-6f" transform="translate(69.824219 0)"/>
      <use xlink:href="#DejaVuSans-6d" transform="translate(131.005859 0)"/>
      <use xlink:href="#DejaVuSans-70" transform="translate(228.417969 0)"/>
      <use xlink:href="#DejaVuSans-6f" transform="translate(291.894531 0)"/>
      <use xlink:href="#DejaVuSans-6e" transform="translate(353.076172 0)"/>
      <use xlink:href="#DejaVuSans-65" transform="translate(416.455078 0)"/>
      <use xlink:href="#DejaVuSans-6e" transform="translate(477.978516 0)"/>
      <use xlink:href="#DejaVuSans-74" transform="translate(541.357422 0)"/>
      <use xlink:href="#DejaVuSans-20" transform="translate(580.566406 0)"/>
      <use xlink:href="#DejaVuSans-31" transform="translate(612.353516 0)"/>
     </g>
    </g>
   </g>
   <g id="matplotlib.axis_2">
    <g id="ytick_1">
     <g id="line2d_6">
      <defs>
       <path id="m68bd05c83c" d="M 0 0 
L -3.5 0 
" style="stroke: #000000; stroke-width: 0.8"/>
      </defs>
      <g>
       <use xlink:href="#m68bd05c83c" x="57.6" y="294.207253" style="stroke: #000000; stroke-width: 0.8"/>
      </g>
     </g>
     <g id="text_7">
      <!-- −4 -->
      <g transform="translate(31.435156 299.146238) scale(0.13 -0.13)">
       <use xlink:href="#DejaVuSans-2212"/>
       <use xlink:href="#DejaVuSans-34" transform="translate(83.789062 0)"/>
      </g>
     </g>
    </g>
    <g id="ytick_2">
     <g id="line2d_7">
      <g>
       <use xlink:href="#m68bd05c83c" x="57.6" y="261.509946" style="stroke: #000000; stroke-width: 0.8"/>
      </g>
     </g>
     <g id="text_8">
      <!-- −3 -->
      <g transform="translate(31.435156 266.44893) scale(0.13 -0.13)">
       <defs>
        <path id="DejaVuSans-33" d="M 2597 2516 
Q 3050 2419 3304 2112 
Q 3559 1806 3559 1356 
Q 3559 666 3084 287 
Q 2609 -91 1734 -91 
Q 1441 -91 1130 -33 
Q 819 25 488 141 
L 488 750 
Q 750 597 1062 519 
Q 1375 441 1716 441 
Q 2309 441 2620 675 
Q 2931 909 2931 1356 
Q 2931 1769 2642 2001 
Q 2353 2234 1838 2234 
L 1294 2234 
L 1294 2753 
L 1863 2753 
Q 2328 2753 2575 2939 
Q 2822 3125 2822 3475 
Q 2822 3834 2567 4026 
Q 2313 4219 1838 4219 
Q 1578 4219 1281 4162 
Q 984 4106 628 3988 
L 628 4550 
Q 988 4650 1302 4700 
Q 1616 4750 1894 4750 
Q 2613 4750 3031 4423 
Q 3450 4097 3450 3541 
Q 3450 3153 3228 2886 
Q 3006 2619 2597 2516 
z
" transform="scale(0.015625)"/>
       </defs>
       <use xlink:href="#DejaVuSans-2212"/>
       <use xlink:href="#DejaVuSans-33" transform="translate(83.789062 0)"/>
      </g>
     </g>
    </g>
    <g id="ytick_3">
     <g id="line2d_8">
      <g>
       <use xlink:href="#m68bd05c83c" x="57.6" y="228.812639" style="stroke: #000000; stroke-width: 0.8"/>
      </g>
     </g>
     <g id="text_9">
      <!-- −2 -->
      <g transform="translate(31.435156 233.751623) scale(0.13 -0.13)">
       <use xlink:href="#DejaVuSans-2212"/>
       <use xlink:href="#DejaVuSans-32" transform="translate(83.789062 0)"/>
      </g>
     </g>
    </g>
    <g id="ytick_4">
     <g id="line2d_9">
      <g>
       <use xlink:href="#m68bd05c83c" x="57.6" y="196.115331" style="stroke: #000000; stroke-width: 0.8"/>
      </g>
     </g>
     <g id="text_10">
      <!-- −1 -->
      <g transform="translate(31.435156 201.054316) scale(0.13 -0.13)">
       <use xlink:href="#DejaVuSans-2212"/>
       <use xlink:href="#DejaVuSans-31" transform="translate(83.789062 0)"/>
      </g>
     </g>
    </g>
    <g id="ytick_5">
     <g id="line2d_10">
      <g>
       <use xlink:href="#m68bd05c83c" x="57.6" y="163.418024" style="stroke: #000000; stroke-width: 0.8"/>
      </g>
     </g>
     <g id="text_11">
      <!-- 0 -->
      <g transform="translate(42.32875 168.357008) scale(0.13 -0.13)">
       <use xlink:href="#DejaVuSans-30"/>
      </g>
     </g>
    </g>
    <g id="ytick_6">
     <g id="line2d_11">
      <g>
       <use xlink:href="#m68bd05c83c" x="57.6" y="130.720717" style="stroke: #000000; stroke-width: 0.8"/>
      </g>
     </g>
     <g id="text_12">
      <!-- 1 -->
      <g transform="translate(42.32875 135.659701) scale(0.13 -0.13)">
       <use xlink:href="#DejaVuSans-31"/>
      </g>
     </g>
    </g>
    <g id="ytick_7">
     <g id="line2d_12">
      <g>
       <use xlink:href="#m68bd05c83c" x="57.6" y="98.023409" style="stroke: #000000; stroke-width: 0.8"/>
      </g>
     </g>
     <g id="text_13">
      <!-- 2 -->
      <g transform="translate(42.32875 102.962394) scale(0.13 -0.13)">
       <use xlink:href="#DejaVuSans-32"/>
      </g>
     </g>
    </g>
    <g id="ytick_8">
     <g id="line2d_13">
      <g>
       <use xlink:href="#m68bd05c83c" x="57.6" y="65.326102" style="stroke: #000000; stroke-width: 0.8"/>
      </g>
     </g>
     <g id="text_14">
      <!-- 3 -->
      <g transform="translate(42.32875 70.265086) scale(0.13 -0.13)">
       <use xlink:href="#DejaVuSans-33"/>
      </g>
     </g>
    </g>
    <g id="text_15">
     <!-- Component 2 -->
     <g transform="translate(24.315625 225.226828) rotate(-90) scale(0.15 -0.15)">
      <use xlink:href="#DejaVuSans-43"/>
      <use xlink:href="#DejaVuSans-6f" transform="translate(69.824219 0)"/>
      <use xlink:href="#DejaVuSans-6d" transform="translate(131.005859 0)"/>
      <use xlink:href="#DejaVuSans-70" transform="translate(228.417969 0)"/>
      <use xlink:href="#DejaVuSans-6f" transform="translate(291.894531 0)"/>
      <use xlink:href="#DejaVuSans-6e" transform="translate(353.076172 0)"/>
      <use xlink:href="#DejaVuSans-65" transform="translate(416.455078 0)"/>
      <use xlink:href="#DejaVuSans-6e" transform="translate(477.978516 0)"/>
      <use xlink:href="#DejaVuSans-74" transform="translate(541.357422 0)"/>
      <use xlink:href="#DejaVuSans-20" transform="translate(580.566406 0)"/>
      <use xlink:href="#DejaVuSans-32" transform="translate(612.353516 0)"/>
     </g>
    </g>
   </g>
   <g id="patch_3">
    <path d="M 57.6 307.584 
L 57.6 41.472 
" style="fill: none; stroke: #000000; stroke-width: 0.8; stroke-linejoin: miter; stroke-linecap: square"/>
   </g>
   <g id="patch_4">
    <path d="M 414.72 307.584 
L 414.72 41.472 
" style="fill: none; stroke: #000000; stroke-width: 0.8; stroke-linejoin: miter; stroke-linecap: square"/>
   </g>
   <g id="patch_5">
    <path d="M 57.6 307.584 
L 414.72 307.584 
" style="fill: none; stroke: #000000; stroke-width: 0.8; stroke-linejoin: miter; stroke-linecap: square"/>
   </g>
   <g id="patch_6">
    <path d="M 57.6 41.472 
L 414.72 41.472 
" style="fill: none; stroke: #000000; stroke-width: 0.8; stroke-linejoin: miter; stroke-linecap: square"/>
   </g>
   <g id="text_16">
    <!-- Layer 12 activations (PCA) -->
    <g transform="translate(123.505781 35.472) scale(0.17 -0.17)">
     <defs>
      <path id="DejaVuSans-4c" d="M 628 4666 
L 1259 4666 
L 1259 531 
L 3531 531 
L 3531 0 
L 628 0 
L 628 4666 
z
" transform="scale(0.015625)"/>
      <path id="DejaVuSans-61" d="M 2194 1759 
Q 1497 1759 1228 1600 
Q 959 1441 959 1056 
Q 959 750 1161 570 
Q 1363 391 1709 391 
Q 2188 391 2477 730 
Q 2766 1069 2766 1631 
L 2766 1759 
L 2194 1759 
z
M 3341 1997 
L 3341 0 
L 2766 0 
L 2766 531 
Q 2569 213 2275 61 
Q 1981 -91 1556 -91 
Q 1019 -91 701 211 
Q 384 513 384 1019 
Q 384 1609 779 1909 
Q 1175 2209 1959 2209 
L 2766 2209 
L 2766 2266 
Q 2766 2663 2505 2880 
Q 2244 3097 1772 3097 
Q 1472 3097 1187 3025 
Q 903 2953 641 2809 
L 641 3341 
Q 956 3463 1253 3523 
Q 1550 3584 1831 3584 
Q 2591 3584 2966 3190 
Q 3341 2797 3341 1997 
z
" transform="scale(0.015625)"/>
      <path id="DejaVuSans-79" d="M 2059 -325 
Q 1816 -950 1584 -1140 
Q 1353 -1331 966 -1331 
L 506 -1331 
L 506 -850 
L 844 -850 
Q 1081 -850 1212 -737 
Q 1344 -625 1503 -206 
L 1606 56 
L 191 3500 
L 800 3500 
L 1894 763 
L 2988 3500 
L 3597 3500 
L 2059 -325 
z
" transform="scale(0.015625)"/>
      <path id="DejaVuSans-72" d="M 2631 2963 
Q 2534 3019 2420 3045 
Q 2306 3072 2169 3072 
Q 1681 3072 1420 2755 
Q 1159 2438 1159 1844 
L 1159 0 
L 581 0 
L 581 3500 
L 1159 3500 
L 1159 2956 
Q 1341 3275 1631 3429 
Q 1922 3584 2338 3584 
Q 2397 3584 2469 3576 
Q 2541 3569 2628 3553 
L 2631 2963 
z
" transform="scale(0.015625)"/>
      <path id="DejaVuSans-63" d="M 3122 3366 
L 3122 2828 
Q 2878 2963 2633 3030 
Q 2388 3097 2138 3097 
Q 1578 3097 1268 2742 
Q 959 2388 959 1747 
Q 959 1106 1268 751 
Q 1578 397 2138 397 
Q 2388 397 2633 464 
Q 2878 531 3122 666 
L 3122 134 
Q 2881 22 2623 -34 
Q 2366 -91 2075 -91 
Q 1284 -91 818 406 
Q 353 903 353 1747 
Q 353 2603 823 3093 
Q 1294 3584 2113 3584 
Q 2378 3584 2631 3529 
Q 2884 3475 3122 3366 
z
" transform="scale(0.015625)"/>
      <path id="DejaVuSans-69" d="M 603 3500 
L 1178 3500 
L 1178 0 
L 603 0 
L 603 3500 
z
M 603 4863 
L 1178 4863 
L 1178 4134 
L 603 4134 
L 603 4863 
z
" transform="scale(0.015625)"/>
      <path id="DejaVuSans-76" d="M 191 3500 
L 800 3500 
L 1894 563 
L 2988 3500 
L 3597 3500 
L 2284 0 
L 1503 0 
L 191 3500 
z
" transform="scale(0.015625)"/>
      <path id="DejaVuSans-73" d="M 2834 3397 
L 2834 2853 
Q 2591 2978 2328 3040 
Q 2066 3103 1784 3103 
Q 1356 3103 1142 2972 
Q 928 2841 928 2578 
Q 928 2378 1081 2264 
Q 1234 2150 1697 2047 
L 1894 2003 
Q 2506 1872 2764 1633 
Q 3022 1394 3022 966 
Q 3022 478 2636 193 
Q 2250 -91 1575 -91 
Q 1294 -91 989 -36 
Q 684 19 347 128 
L 347 722 
Q 666 556 975 473 
Q 1284 391 1588 391 
Q 1994 391 2212 530 
Q 2431 669 2431 922 
Q 2431 1156 2273 1281 
Q 2116 1406 1581 1522 
L 1381 1569 
Q 847 1681 609 1914 
Q 372 2147 372 2553 
Q 372 3047 722 3315 
Q 1072 3584 1716 3584 
Q 2034 3584 2315 3537 
Q 2597 3491 2834 3397 
z
" transform="scale(0.015625)"/>
      <path id="DejaVuSans-28" d="M 1984 4856 
Q 1566 4138 1362 3434 
Q 1159 2731 1159 2009 
Q 1159 1288 1364 580 
Q 1569 -128 1984 -844 
L 1484 -844 
Q 1016 -109 783 600 
Q 550 1309 550 2009 
Q 550 2706 781 3412 
Q 1013 4119 1484 4856 
L 1984 4856 
z
" transform="scale(0.015625)"/>
      <path id="DejaVuSans-50" d="M 1259 4147 
L 1259 2394 
L 2053 2394 
Q 2494 2394 2734 2622 
Q 2975 2850 2975 3272 
Q 2975 3691 2734 3919 
Q 2494 4147 2053 4147 
L 1259 4147 
z
M 628 4666 
L 2053 4666 
Q 2838 4666 3239 4311 
Q 3641 3956 3641 3272 
Q 3641 2581 3239 2228 
Q 2838 1875 2053 1875 
L 1259 1875 
L 1259 0 
L 628 0 
L 628 4666 
z
" transform="scale(0.015625)"/>
      <path id="DejaVuSans-41" d="M 2188 4044 
L 1331 1722 
L 3047 1722 
L 2188 4044 
z
M 1831 4666 
L 2547 4666 
L 4325 0 
L 3669 0 
L 3244 1197 
L 1141 1197 
L 716 0 
L 50 0 
L 1831 4666 
z
" transform="scale(0.015625)"/>
      <path id="DejaVuSans-29" d="M 513 4856 
L 1013 4856 
Q 1481 4119 1714 3412 
Q 1947 2706 1947 2009 
Q 1947 1309 1714 600 
Q 1481 -109 1013 -844 
L 513 -844 
Q 928 -128 1133 580 
Q 1338 1288 1338 2009 
Q 1338 2731 1133 3434 
Q 928 4138 513 4856 
z
" transform="scale(0.015625)"/>
     </defs>
     <use xlink:href="#DejaVuSans-4c"/>
     <use xlink:href="#DejaVuSans-61" transform="translate(55.712891 0)"/>
     <use xlink:href="#DejaVuSans-79" transform="translate(116.992188 0)"/>
     <use xlink:href="#DejaVuSans-65" transform="translate(176.171875 0)"/>
     <use xlink:href="#DejaVuSans-72" transform="translate(237.695312 0)"/>
     <use xlink:href="#DejaVuSans-20" transform="translate(278.808594 0)"/>
     <use xlink:href="#DejaVuSans-31" transform="translate(310.595703 0)"/>
     <use xlink:href="#DejaVuSans-32" transform="translate(374.21875 0)"/>
     <use xlink:href="#DejaVuSans-20" transform="translate(437.841797 0)"/>
     <use xlink:href="#DejaVuSans-61" transform="translate(469.628906 0)"/>
     <use xlink:href="#DejaVuSans-63" transform="translate(530.908203 0)"/>
     <use xlink:href="#DejaVuSans-74" transform="translate(585.888672 0)"/>
     <use xlink:href="#DejaVuSans-69" transform="translate(625.097656 0)"/>
     <use xlink:href="#DejaVuSans-76" transform="translate(652.880859 0)"/>
     <use xlink:href="#DejaVuSans-61" transform="translate(712.060547 0)"/>
     <use xlink:href="#DejaVuSans-74" transform="translate(773.339844 0)"/>
     <use xlink:href="#DejaVuSans-69" transform="translate(812.548828 0)"/>
     <use xlink:href="#DejaVuSans-6f" transform="translate(840.332031 0)"/>
     <use xlink:href="#DejaVuSans-6e" transform="translate(901.513672 0)"/>
     <use xlink:href="#DejaVuSans-73" transform="translate(964.892578 0)"/>
     <use xlink:href="#DejaVuSans-20" transform="translate(1016.992188 0)"/>
     <use xlink:href="#DejaVuSans-28" transform="translate(1048.779297 0)"/>
     <use xlink:href="#DejaVuSans-50" transform="translate(1087.792969 0)"/>
     <use xlink:href="#DejaVuSans-43" transform="translate(1148.095703 0)"/>
     <use xlink:href="#DejaVuSans-41" transform="translate(1217.919922 0)"/>
     <use xlink:href="#DejaVuSans-29" transform="translate(1286.328125 0)"/>
    </g>
   </g>
  </g>
 </g>
 <defs>
  <clipPath id="p3a0a8c6b47">
   <rect x="57.6" y="41.472" width="357.12" height="266.112"/>
  </clipPath>
 </defs>
</svg>
