<?xml version="1.0" encoding="utf-8" standalone="no"?>
<!DOCTYPE svg PUBLIC "-//W3C//DTD SVG 1.1//EN"
  "http://www.w3.org/Graphics/SVG/1.1/DTD/svg11.dtd">
<svg xmlns:xlink="http://www.w3.org/1999/xlink" width="460.8pt" height="345.6pt" viewBox="0 0 460.8 345.6" xmlns="http://www.w3.org/2000/svg" version="1.1">
 <metadata>
  <rdf:RDF xmlns:dc="http://purl.org/dc/elements/1.1/" xmlns:cc="http://creativecommons.org/ns#" xmlns:rdf="http://www.w3.org/1999/02/22-rdf-syntax-ns#">
   <cc:Work>
    <dc:type rdf:resource="http://purl.org/dc/dcmitype/StillImage"/>
    <dc:date>2025-05-03T14:22:32.388089</dc:date>
    <dc:format>image/svg+xml</dc:format>
    <dc:creator>
     <cc:Agent>
      <dc:title>Matplotlib v3.10.0, https://matplotlib.org/</dc:title>
     </cc:Agent>
    </dc:creator>
   </cc:Work>
  </rdf:RDF>
 </metadata>
 <defs>
  <style type="text/css">*{stroke-linejoin: round; stroke-linecap: butt}</style>
 </defs>
 <g id="figure_1">
  <g id="patch_1">
   <path d="M 0 345.6 
L 460.8 345.6 
L 460.8 0 
L 0 0 
L 0 345.6 
z
" style="fill: none; opacity: 0"/>
  </g>
  <g id="axes_1">
   <g id="patch_2">
    <path d="M 57.6 307.584 
L 414.72 307.584 
L 414.72 41.472 
L 57.6 41.472 
L 57.6 307.584 
z
" style="fill: none"/>
   </g>
   <g id="PathCollection_1">
    <defs>
     <path id="m06f88d1758" d="M 0 3 
C 0.795609 3 1.55874 2.683901 2.12132 2.12132 
C 2.683901 1.55874 3 0.795609 3 0 
C 3 -0.795609 2.683901 -1.55874 2.12132 -2.12132 
C 1.55874 -2.683901 0.795609 -3 0 -3 
C -0.795609 -3 -1.55874 -2.683901 -2.12132 -2.12132 
C -2.683901 -1.55874 -3 -0.795609 -3 0 
C -3 0.795609 -2.683901 1.55874 -2.12132 2.12132 
C -1.55874 2.683901 -0.795609 3 0 3 
z
" style="stroke: #a459d1"/>
    </defs>
    <g clip-path="url(#pd9720ae8c1)">
     <use xlink:href="#m06f88d1758" x="360.529429" y="101.152148" style="fill: #a459d1; stroke: #a459d1"/>
     <use xlink:href="#m06f88d1758" x="319.71809" y="127.473382" style="fill: #a459d1; stroke: #a459d1"/>
     <use xlink:href="#m06f88d1758" x="377.123073" y="139.134954" style="fill: #a459d1; stroke: #a459d1"/>
     <use xlink:href="#m06f88d1758" x="275.508568" y="180.332518" style="fill: #a459d1; stroke: #a459d1"/>
     <use xlink:href="#m06f88d1758" x="334.763322" y="124.741261" style="fill: #a459d1; stroke: #a459d1"/>
     <use xlink:href="#m06f88d1758" x="291.575273" y="111.542696" style="fill: #a459d1; stroke: #a459d1"/>
     <use xlink:href="#m06f88d1758" x="361.959195" y="101.943415" style="fill: #a459d1; stroke: #a459d1"/>
     <use xlink:href="#m06f88d1758" x="269.562083" y="145.642696" style="fill: #a459d1; stroke: #a459d1"/>
     <use xlink:href="#m06f88d1758" x="343.695845" y="198.079399" style="fill: #a459d1; stroke: #a459d1"/>
     <use xlink:href="#m06f88d1758" x="273.877163" y="179.613528" style="fill: #a459d1; stroke: #a459d1"/>
     <use xlink:href="#m06f88d1758" x="303.584908" y="274.203278" style="fill: #a459d1; stroke: #a459d1"/>
     <use xlink:href="#m06f88d1758" x="346.278403" y="101.839965" style="fill: #a459d1; stroke: #a459d1"/>
     <use xlink:href="#m06f88d1758" x="280.147728" y="153.58618" style="fill: #a459d1; stroke: #a459d1"/>
     <use xlink:href="#m06f88d1758" x="318.921054" y="138.982494" style="fill: #a459d1; stroke: #a459d1"/>
     <use xlink:href="#m06f88d1758" x="353.952772" y="102.582585" style="fill: #a459d1; stroke: #a459d1"/>
     <use xlink:href="#m06f88d1758" x="333.188844" y="141.446806" style="fill: #a459d1; stroke: #a459d1"/>
     <use xlink:href="#m06f88d1758" x="301.969864" y="112.198409" style="fill: #a459d1; stroke: #a459d1"/>
     <use xlink:href="#m06f88d1758" x="359.178795" y="98.254873" style="fill: #a459d1; stroke: #a459d1"/>
     <use xlink:href="#m06f88d1758" x="321.948197" y="141.734801" style="fill: #a459d1; stroke: #a459d1"/>
     <use xlink:href="#m06f88d1758" x="361.468923" y="112.844662" style="fill: #a459d1; stroke: #a459d1"/>
     <use xlink:href="#m06f88d1758" x="304.522047" y="204.387242" style="fill: #a459d1; stroke: #a459d1"/>
     <use xlink:href="#m06f88d1758" x="236.372533" y="178.387095" style="fill: #a459d1; stroke: #a459d1"/>
     <use xlink:href="#m06f88d1758" x="251.502183" y="248.209151" style="fill: #a459d1; stroke: #a459d1"/>
     <use xlink:href="#m06f88d1758" x="370.889444" y="164.852452" style="fill: #a459d1; stroke: #a459d1"/>
     <use xlink:href="#m06f88d1758" x="312.059024" y="243.24993" style="fill: #a459d1; stroke: #a459d1"/>
     <use xlink:href="#m06f88d1758" x="351.751772" y="209.709026" style="fill: #a459d1; stroke: #a459d1"/>
     <use xlink:href="#m06f88d1758" x="236.64877" y="294.015713" style="fill: #a459d1; stroke: #a459d1"/>
     <use xlink:href="#m06f88d1758" x="142.322213" y="295.488" style="fill: #a459d1; stroke: #a459d1"/>
     <use xlink:href="#m06f88d1758" x="351.544079" y="240.660456" style="fill: #a459d1; stroke: #a459d1"/>
     <use xlink:href="#m06f88d1758" x="296.041508" y="180.934837" style="fill: #a459d1; stroke: #a459d1"/>
     <use xlink:href="#m06f88d1758" x="382.685516" y="113.947903" style="fill: #a459d1; stroke: #a459d1"/>
     <use xlink:href="#m06f88d1758" x="372.156465" y="110.567431" style="fill: #a459d1; stroke: #a459d1"/>
     <use xlink:href="#m06f88d1758" x="221.052616" y="287.097706" style="fill: #a459d1; stroke: #a459d1"/>
     <use xlink:href="#m06f88d1758" x="272.764575" y="151.101515" style="fill: #a459d1; stroke: #a459d1"/>
     <use xlink:href="#m06f88d1758" x="359.447843" y="105.638867" style="fill: #a459d1; stroke: #a459d1"/>
     <use xlink:href="#m06f88d1758" x="398.487273" y="136.568183" style="fill: #a459d1; stroke: #a459d1"/>
     <use xlink:href="#m06f88d1758" x="301.735292" y="140.067225" style="fill: #a459d1; stroke: #a459d1"/>
     <use xlink:href="#m06f88d1758" x="323.553097" y="138.445729" style="fill: #a459d1; stroke: #a459d1"/>
     <use xlink:href="#m06f88d1758" x="338.008392" y="96.908214" style="fill: #a459d1; stroke: #a459d1"/>
     <use xlink:href="#m06f88d1758" x="352.892394" y="137.130141" style="fill: #a459d1; stroke: #a459d1"/>
     <use xlink:href="#m06f88d1758" x="178.669965" y="286.310796" style="fill: #a459d1; stroke: #a459d1"/>
     <use xlink:href="#m06f88d1758" x="289.068007" y="146.642438" style="fill: #a459d1; stroke: #a459d1"/>
     <use xlink:href="#m06f88d1758" x="284.611378" y="137.400807" style="fill: #a459d1; stroke: #a459d1"/>
     <use xlink:href="#m06f88d1758" x="309.894308" y="119.321895" style="fill: #a459d1; stroke: #a459d1"/>
     <use xlink:href="#m06f88d1758" x="232.843466" y="140.019881" style="fill: #a459d1; stroke: #a459d1"/>
     <use xlink:href="#m06f88d1758" x="208.846678" y="170.788468" style="fill: #a459d1; stroke: #a459d1"/>
     <use xlink:href="#m06f88d1758" x="308.010993" y="276.390684" style="fill: #a459d1; stroke: #a459d1"/>
     <use xlink:href="#m06f88d1758" x="285.886008" y="188.747198" style="fill: #a459d1; stroke: #a459d1"/>
     <use xlink:href="#m06f88d1758" x="284.33184" y="208.369471" style="fill: #a459d1; stroke: #a459d1"/>
     <use xlink:href="#m06f88d1758" x="341.885717" y="191.077358" style="fill: #a459d1; stroke: #a459d1"/>
     <use xlink:href="#m06f88d1758" x="320.153289" y="223.670946" style="fill: #a459d1; stroke: #a459d1"/>
     <use xlink:href="#m06f88d1758" x="140.694825" y="135.535189" style="fill: #a459d1; stroke: #a459d1"/>
     <use xlink:href="#m06f88d1758" x="359.590127" y="123.970478" style="fill: #a459d1; stroke: #a459d1"/>
     <use xlink:href="#m06f88d1758" x="320.505466" y="126.370784" style="fill: #a459d1; stroke: #a459d1"/>
     <use xlink:href="#m06f88d1758" x="297.963339" y="117.775091" style="fill: #a459d1; stroke: #a459d1"/>
     <use xlink:href="#m06f88d1758" x="330.269163" y="184.021089" style="fill: #a459d1; stroke: #a459d1"/>
     <use xlink:href="#m06f88d1758" x="342.250997" y="110.732053" style="fill: #a459d1; stroke: #a459d1"/>
     <use xlink:href="#m06f88d1758" x="355.024141" y="122.542922" style="fill: #a459d1; stroke: #a459d1"/>
     <use xlink:href="#m06f88d1758" x="257.125317" y="175.280545" style="fill: #a459d1; stroke: #a459d1"/>
     <use xlink:href="#m06f88d1758" x="329.781065" y="124.978214" style="fill: #a459d1; stroke: #a459d1"/>
     <use xlink:href="#m06f88d1758" x="309.617363" y="104.503821" style="fill: #a459d1; stroke: #a459d1"/>
     <use xlink:href="#m06f88d1758" x="348.429662" y="153.390821" style="fill: #a459d1; stroke: #a459d1"/>
     <use xlink:href="#m06f88d1758" x="268.540477" y="140.463277" style="fill: #a459d1; stroke: #a459d1"/>
     <use xlink:href="#m06f88d1758" x="241.748217" y="227.702782" style="fill: #a459d1; stroke: #a459d1"/>
     <use xlink:href="#m06f88d1758" x="354.73446" y="122.942334" style="fill: #a459d1; stroke: #a459d1"/>
     <use xlink:href="#m06f88d1758" x="341.922338" y="159.479267" style="fill: #a459d1; stroke: #a459d1"/>
     <use xlink:href="#m06f88d1758" x="274.486784" y="230.939738" style="fill: #a459d1; stroke: #a459d1"/>
     <use xlink:href="#m06f88d1758" x="380.880227" y="119.72493" style="fill: #a459d1; stroke: #a459d1"/>
     <use xlink:href="#m06f88d1758" x="228.998597" y="183.414155" style="fill: #a459d1; stroke: #a459d1"/>
     <use xlink:href="#m06f88d1758" x="325.258867" y="106.390216" style="fill: #a459d1; stroke: #a459d1"/>
     <use xlink:href="#m06f88d1758" x="286.087913" y="177.011802" style="fill: #a459d1; stroke: #a459d1"/>
     <use xlink:href="#m06f88d1758" x="298.306172" y="146.163567" style="fill: #a459d1; stroke: #a459d1"/>
     <use xlink:href="#m06f88d1758" x="377.794578" y="109.408618" style="fill: #a459d1; stroke: #a459d1"/>
     <use xlink:href="#m06f88d1758" x="214.847897" y="294.402529" style="fill: #a459d1; stroke: #a459d1"/>
     <use xlink:href="#m06f88d1758" x="356.069153" y="126.316436" style="fill: #a459d1; stroke: #a459d1"/>
     <use xlink:href="#m06f88d1758" x="332.131634" y="140.180484" style="fill: #a459d1; stroke: #a459d1"/>
     <use xlink:href="#m06f88d1758" x="249.343495" y="162.663779" style="fill: #a459d1; stroke: #a459d1"/>
     <use xlink:href="#m06f88d1758" x="372.039151" y="109.205061" style="fill: #a459d1; stroke: #a459d1"/>
     <use xlink:href="#m06f88d1758" x="323.115004" y="151.614622" style="fill: #a459d1; stroke: #a459d1"/>
     <use xlink:href="#m06f88d1758" x="352.433713" y="98.809314" style="fill: #a459d1; stroke: #a459d1"/>
     <use xlink:href="#m06f88d1758" x="334.030307" y="94.422634" style="fill: #a459d1; stroke: #a459d1"/>
     <use xlink:href="#m06f88d1758" x="295.233913" y="102.196772" style="fill: #a459d1; stroke: #a459d1"/>
     <use xlink:href="#m06f88d1758" x="337.866984" y="137.025984" style="fill: #a459d1; stroke: #a459d1"/>
     <use xlink:href="#m06f88d1758" x="335.104178" y="174.683005" style="fill: #a459d1; stroke: #a459d1"/>
     <use xlink:href="#m06f88d1758" x="311.030347" y="209.233861" style="fill: #a459d1; stroke: #a459d1"/>
     <use xlink:href="#m06f88d1758" x="330.605254" y="136.753022" style="fill: #a459d1; stroke: #a459d1"/>
     <use xlink:href="#m06f88d1758" x="298.905348" y="101.907937" style="fill: #a459d1; stroke: #a459d1"/>
     <use xlink:href="#m06f88d1758" x="352.992598" y="98.722793" style="fill: #a459d1; stroke: #a459d1"/>
     <use xlink:href="#m06f88d1758" x="299.422699" y="215.449426" style="fill: #a459d1; stroke: #a459d1"/>
     <use xlink:href="#m06f88d1758" x="356.333106" y="172.360678" style="fill: #a459d1; stroke: #a459d1"/>
     <use xlink:href="#m06f88d1758" x="305.303452" y="184.467478" style="fill: #a459d1; stroke: #a459d1"/>
     <use xlink:href="#m06f88d1758" x="268.408802" y="288.834204" style="fill: #a459d1; stroke: #a459d1"/>
     <use xlink:href="#m06f88d1758" x="249.628222" y="185.49261" style="fill: #a459d1; stroke: #a459d1"/>
     <use xlink:href="#m06f88d1758" x="358.717749" y="163.476994" style="fill: #a459d1; stroke: #a459d1"/>
     <use xlink:href="#m06f88d1758" x="309.205346" y="201.167978" style="fill: #a459d1; stroke: #a459d1"/>
     <use xlink:href="#m06f88d1758" x="308.362595" y="94.006969" style="fill: #a459d1; stroke: #a459d1"/>
     <use xlink:href="#m06f88d1758" x="331.245525" y="119.905439" style="fill: #a459d1; stroke: #a459d1"/>
     <use xlink:href="#m06f88d1758" x="231.032356" y="284.234408" style="fill: #a459d1; stroke: #a459d1"/>
     <use xlink:href="#m06f88d1758" x="180.653726" y="293.476456" style="fill: #a459d1; stroke: #a459d1"/>
     <use xlink:href="#m06f88d1758" x="338.531003" y="174.813406" style="fill: #a459d1; stroke: #a459d1"/>
     <use xlink:href="#m06f88d1758" x="350.718484" y="148.333566" style="fill: #a459d1; stroke: #a459d1"/>
     <use xlink:href="#m06f88d1758" x="320.680875" y="106.163391" style="fill: #a459d1; stroke: #a459d1"/>
     <use xlink:href="#m06f88d1758" x="353.850687" y="102.297511" style="fill: #a459d1; stroke: #a459d1"/>
     <use xlink:href="#m06f88d1758" x="336.472936" y="147.442122" style="fill: #a459d1; stroke: #a459d1"/>
     <use xlink:href="#m06f88d1758" x="342.370346" y="132.403718" style="fill: #a459d1; stroke: #a459d1"/>
     <use xlink:href="#m06f88d1758" x="300.34108" y="109.940379" style="fill: #a459d1; stroke: #a459d1"/>
     <use xlink:href="#m06f88d1758" x="354.36099" y="120.651314" style="fill: #a459d1; stroke: #a459d1"/>
     <use xlink:href="#m06f88d1758" x="267.150606" y="163.724277" style="fill: #a459d1; stroke: #a459d1"/>
     <use xlink:href="#m06f88d1758" x="309.370529" y="179.750392" style="fill: #a459d1; stroke: #a459d1"/>
     <use xlink:href="#m06f88d1758" x="320.19904" y="154.308487" style="fill: #a459d1; stroke: #a459d1"/>
     <use xlink:href="#m06f88d1758" x="360.484938" y="109.042586" style="fill: #a459d1; stroke: #a459d1"/>
     <use xlink:href="#m06f88d1758" x="210.965159" y="277.414288" style="fill: #a459d1; stroke: #a459d1"/>
     <use xlink:href="#m06f88d1758" x="363.414041" y="108.945266" style="fill: #a459d1; stroke: #a459d1"/>
     <use xlink:href="#m06f88d1758" x="359.940753" y="121.53796" style="fill: #a459d1; stroke: #a459d1"/>
     <use xlink:href="#m06f88d1758" x="304.914872" y="99.963839" style="fill: #a459d1; stroke: #a459d1"/>
     <use xlink:href="#m06f88d1758" x="337.487224" y="123.93931" style="fill: #a459d1; stroke: #a459d1"/>
     <use xlink:href="#m06f88d1758" x="371.312427" y="118.253654" style="fill: #a459d1; stroke: #a459d1"/>
     <use xlink:href="#m06f88d1758" x="350.126083" y="147.037487" style="fill: #a459d1; stroke: #a459d1"/>
     <use xlink:href="#m06f88d1758" x="372.231095" y="140.004725" style="fill: #a459d1; stroke: #a459d1"/>
     <use xlink:href="#m06f88d1758" x="350.603271" y="165.07746" style="fill: #a459d1; stroke: #a459d1"/>
    </g>
   </g>
   <g id="PathCollection_2">
    <defs>
     <path id="mdb45cd37c3" d="M 0 3 
C 0.795609 3 1.55874 2.683901 2.12132 2.12132 
C 2.683901 1.55874 3 0.795609 3 0 
C 3 -0.795609 2.683901 -1.55874 2.12132 -2.12132 
C 1.55874 -2.683901 0.795609 -3 0 -3 
C -0.795609 -3 -1.55874 -2.683901 -2.12132 -2.12132 
C -2.683901 -1.55874 -3 -0.795609 -3 0 
C -3 0.795609 -2.683901 1.55874 -2.12132 2.12132 
C -1.55874 2.683901 -0.795609 3 0 3 
z
" style="stroke: #ffb84c"/>
    </defs>
    <g clip-path="url(#pd9720ae8c1)">
     <use xlink:href="#mdb45cd37c3" x="127.070986" y="91.608003" style="fill: #ffb84c; stroke: #ffb84c"/>
     <use xlink:href="#mdb45cd37c3" x="95.354459" y="124.562113" style="fill: #ffb84c; stroke: #ffb84c"/>
     <use xlink:href="#mdb45cd37c3" x="112.641739" y="163.431311" style="fill: #ffb84c; stroke: #ffb84c"/>
     <use xlink:href="#mdb45cd37c3" x="164.355051" y="162.193679" style="fill: #ffb84c; stroke: #ffb84c"/>
     <use xlink:href="#mdb45cd37c3" x="137.708787" y="109.955371" style="fill: #ffb84c; stroke: #ffb84c"/>
     <use xlink:href="#mdb45cd37c3" x="119.017963" y="104.333803" style="fill: #ffb84c; stroke: #ffb84c"/>
     <use xlink:href="#mdb45cd37c3" x="210.579299" y="76.345679" style="fill: #ffb84c; stroke: #ffb84c"/>
     <use xlink:href="#mdb45cd37c3" x="90.139592" y="148.643439" style="fill: #ffb84c; stroke: #ffb84c"/>
     <use xlink:href="#mdb45cd37c3" x="114.885313" y="173.539149" style="fill: #ffb84c; stroke: #ffb84c"/>
     <use xlink:href="#mdb45cd37c3" x="159.438229" y="163.181172" style="fill: #ffb84c; stroke: #ffb84c"/>
     <use xlink:href="#mdb45cd37c3" x="157.936258" y="271.345935" style="fill: #ffb84c; stroke: #ffb84c"/>
     <use xlink:href="#mdb45cd37c3" x="119.51457" y="69.114568" style="fill: #ffb84c; stroke: #ffb84c"/>
     <use xlink:href="#mdb45cd37c3" x="106.835156" y="161.664607" style="fill: #ffb84c; stroke: #ffb84c"/>
     <use xlink:href="#mdb45cd37c3" x="130.157255" y="125.141266" style="fill: #ffb84c; stroke: #ffb84c"/>
     <use xlink:href="#mdb45cd37c3" x="144.619079" y="71.274353" style="fill: #ffb84c; stroke: #ffb84c"/>
     <use xlink:href="#mdb45cd37c3" x="135.881156" y="125.863494" style="fill: #ffb84c; stroke: #ffb84c"/>
     <use xlink:href="#mdb45cd37c3" x="125.331407" y="77.607341" style="fill: #ffb84c; stroke: #ffb84c"/>
     <use xlink:href="#mdb45cd37c3" x="163.868153" y="63.226496" style="fill: #ffb84c; stroke: #ffb84c"/>
     <use xlink:href="#mdb45cd37c3" x="144.396303" y="110.986528" style="fill: #ffb84c; stroke: #ffb84c"/>
     <use xlink:href="#mdb45cd37c3" x="161.808561" y="84.049326" style="fill: #ffb84c; stroke: #ffb84c"/>
     <use xlink:href="#mdb45cd37c3" x="123.157013" y="169.481218" style="fill: #ffb84c; stroke: #ffb84c"/>
     <use xlink:href="#mdb45cd37c3" x="155.109842" y="170.147404" style="fill: #ffb84c; stroke: #ffb84c"/>
     <use xlink:href="#mdb45cd37c3" x="110.521067" y="220.079016" style="fill: #ffb84c; stroke: #ffb84c"/>
     <use xlink:href="#mdb45cd37c3" x="161.531908" y="177.428655" style="fill: #ffb84c; stroke: #ffb84c"/>
     <use xlink:href="#mdb45cd37c3" x="126.709322" y="282.607163" style="fill: #ffb84c; stroke: #ffb84c"/>
     <use xlink:href="#mdb45cd37c3" x="112.896544" y="177.455499" style="fill: #ffb84c; stroke: #ffb84c"/>
     <use xlink:href="#mdb45cd37c3" x="116.678879" y="271.828852" style="fill: #ffb84c; stroke: #ffb84c"/>
     <use xlink:href="#mdb45cd37c3" x="109.894053" y="271.267489" style="fill: #ffb84c; stroke: #ffb84c"/>
     <use xlink:href="#mdb45cd37c3" x="261.410995" y="254.567321" style="fill: #ffb84c; stroke: #ffb84c"/>
     <use xlink:href="#mdb45cd37c3" x="137.124894" y="127.798959" style="fill: #ffb84c; stroke: #ffb84c"/>
     <use xlink:href="#mdb45cd37c3" x="132.135196" y="102.44149" style="fill: #ffb84c; stroke: #ffb84c"/>
     <use xlink:href="#mdb45cd37c3" x="145.97615" y="71.664622" style="fill: #ffb84c; stroke: #ffb84c"/>
     <use xlink:href="#mdb45cd37c3" x="118.240009" y="259.297765" style="fill: #ffb84c; stroke: #ffb84c"/>
     <use xlink:href="#mdb45cd37c3" x="114.40544" y="133.261265" style="fill: #ffb84c; stroke: #ffb84c"/>
     <use xlink:href="#mdb45cd37c3" x="255.03584" y="84.192981" style="fill: #ffb84c; stroke: #ffb84c"/>
     <use xlink:href="#mdb45cd37c3" x="185.81267" y="131.545229" style="fill: #ffb84c; stroke: #ffb84c"/>
     <use xlink:href="#mdb45cd37c3" x="99.655633" y="130.340309" style="fill: #ffb84c; stroke: #ffb84c"/>
     <use xlink:href="#mdb45cd37c3" x="87.838143" y="144.57078" style="fill: #ffb84c; stroke: #ffb84c"/>
     <use xlink:href="#mdb45cd37c3" x="151.684607" y="53.568" style="fill: #ffb84c; stroke: #ffb84c"/>
     <use xlink:href="#mdb45cd37c3" x="113.016998" y="106.258649" style="fill: #ffb84c; stroke: #ffb84c"/>
     <use xlink:href="#mdb45cd37c3" x="115.230113" y="274.65781" style="fill: #ffb84c; stroke: #ffb84c"/>
     <use xlink:href="#mdb45cd37c3" x="94.674097" y="138.479371" style="fill: #ffb84c; stroke: #ffb84c"/>
     <use xlink:href="#mdb45cd37c3" x="118.859974" y="121.630859" style="fill: #ffb84c; stroke: #ffb84c"/>
     <use xlink:href="#mdb45cd37c3" x="93.832671" y="104.684332" style="fill: #ffb84c; stroke: #ffb84c"/>
     <use xlink:href="#mdb45cd37c3" x="120.459825" y="123.089703" style="fill: #ffb84c; stroke: #ffb84c"/>
     <use xlink:href="#mdb45cd37c3" x="116.7029" y="158.267156" style="fill: #ffb84c; stroke: #ffb84c"/>
     <use xlink:href="#mdb45cd37c3" x="115.409859" y="278.176324" style="fill: #ffb84c; stroke: #ffb84c"/>
     <use xlink:href="#mdb45cd37c3" x="149.910379" y="180.190119" style="fill: #ffb84c; stroke: #ffb84c"/>
     <use xlink:href="#mdb45cd37c3" x="125.96578" y="183.627268" style="fill: #ffb84c; stroke: #ffb84c"/>
     <use xlink:href="#mdb45cd37c3" x="106.608144" y="171.901157" style="fill: #ffb84c; stroke: #ffb84c"/>
     <use xlink:href="#mdb45cd37c3" x="117.731577" y="201.903913" style="fill: #ffb84c; stroke: #ffb84c"/>
     <use xlink:href="#mdb45cd37c3" x="73.832727" y="119.319582" style="fill: #ffb84c; stroke: #ffb84c"/>
     <use xlink:href="#mdb45cd37c3" x="120.703354" y="86.735978" style="fill: #ffb84c; stroke: #ffb84c"/>
     <use xlink:href="#mdb45cd37c3" x="107.692022" y="94.281831" style="fill: #ffb84c; stroke: #ffb84c"/>
     <use xlink:href="#mdb45cd37c3" x="190.346443" y="83.819088" style="fill: #ffb84c; stroke: #ffb84c"/>
     <use xlink:href="#mdb45cd37c3" x="170.056496" y="182.554702" style="fill: #ffb84c; stroke: #ffb84c"/>
     <use xlink:href="#mdb45cd37c3" x="132.442828" y="118.10721" style="fill: #ffb84c; stroke: #ffb84c"/>
     <use xlink:href="#mdb45cd37c3" x="121.602895" y="90.887964" style="fill: #ffb84c; stroke: #ffb84c"/>
     <use xlink:href="#mdb45cd37c3" x="119.576071" y="151.008754" style="fill: #ffb84c; stroke: #ffb84c"/>
     <use xlink:href="#mdb45cd37c3" x="104.808871" y="93.970138" style="fill: #ffb84c; stroke: #ffb84c"/>
     <use xlink:href="#mdb45cd37c3" x="148.567331" y="85.226709" style="fill: #ffb84c; stroke: #ffb84c"/>
     <use xlink:href="#mdb45cd37c3" x="123.908498" y="134.077194" style="fill: #ffb84c; stroke: #ffb84c"/>
     <use xlink:href="#mdb45cd37c3" x="113.09602" y="137.537871" style="fill: #ffb84c; stroke: #ffb84c"/>
     <use xlink:href="#mdb45cd37c3" x="143.587772" y="179.698639" style="fill: #ffb84c; stroke: #ffb84c"/>
     <use xlink:href="#mdb45cd37c3" x="171.648541" y="91.137842" style="fill: #ffb84c; stroke: #ffb84c"/>
     <use xlink:href="#mdb45cd37c3" x="97.659223" y="149.983641" style="fill: #ffb84c; stroke: #ffb84c"/>
     <use xlink:href="#mdb45cd37c3" x="97.452689" y="204.96417" style="fill: #ffb84c; stroke: #ffb84c"/>
     <use xlink:href="#mdb45cd37c3" x="142.133976" y="61.316408" style="fill: #ffb84c; stroke: #ffb84c"/>
     <use xlink:href="#mdb45cd37c3" x="105.543913" y="161.253152" style="fill: #ffb84c; stroke: #ffb84c"/>
     <use xlink:href="#mdb45cd37c3" x="125.926803" y="62.117102" style="fill: #ffb84c; stroke: #ffb84c"/>
     <use xlink:href="#mdb45cd37c3" x="151.038228" y="160.767365" style="fill: #ffb84c; stroke: #ffb84c"/>
     <use xlink:href="#mdb45cd37c3" x="78.390962" y="120.362925" style="fill: #ffb84c; stroke: #ffb84c"/>
     <use xlink:href="#mdb45cd37c3" x="127.419987" y="95.377577" style="fill: #ffb84c; stroke: #ffb84c"/>
     <use xlink:href="#mdb45cd37c3" x="161.49054" y="271.048941" style="fill: #ffb84c; stroke: #ffb84c"/>
     <use xlink:href="#mdb45cd37c3" x="88.094984" y="93.375884" style="fill: #ffb84c; stroke: #ffb84c"/>
     <use xlink:href="#mdb45cd37c3" x="176.04796" y="137.471604" style="fill: #ffb84c; stroke: #ffb84c"/>
     <use xlink:href="#mdb45cd37c3" x="115.125363" y="146.295957" style="fill: #ffb84c; stroke: #ffb84c"/>
     <use xlink:href="#mdb45cd37c3" x="113.053053" y="79.480777" style="fill: #ffb84c; stroke: #ffb84c"/>
     <use xlink:href="#mdb45cd37c3" x="115.163527" y="137.291824" style="fill: #ffb84c; stroke: #ffb84c"/>
     <use xlink:href="#mdb45cd37c3" x="110.161348" y="75.910624" style="fill: #ffb84c; stroke: #ffb84c"/>
     <use xlink:href="#mdb45cd37c3" x="145.329159" y="60.058187" style="fill: #ffb84c; stroke: #ffb84c"/>
     <use xlink:href="#mdb45cd37c3" x="111.670399" y="66.241884" style="fill: #ffb84c; stroke: #ffb84c"/>
     <use xlink:href="#mdb45cd37c3" x="147.786529" y="111.895089" style="fill: #ffb84c; stroke: #ffb84c"/>
     <use xlink:href="#mdb45cd37c3" x="187.546552" y="173.734237" style="fill: #ffb84c; stroke: #ffb84c"/>
     <use xlink:href="#mdb45cd37c3" x="148.917135" y="159.425947" style="fill: #ffb84c; stroke: #ffb84c"/>
     <use xlink:href="#mdb45cd37c3" x="135.876819" y="114.109744" style="fill: #ffb84c; stroke: #ffb84c"/>
     <use xlink:href="#mdb45cd37c3" x="125.514859" y="74.815631" style="fill: #ffb84c; stroke: #ffb84c"/>
     <use xlink:href="#mdb45cd37c3" x="126.225917" y="75.346728" style="fill: #ffb84c; stroke: #ffb84c"/>
     <use xlink:href="#mdb45cd37c3" x="210.566401" y="198.909648" style="fill: #ffb84c; stroke: #ffb84c"/>
     <use xlink:href="#mdb45cd37c3" x="152.652112" y="183.360889" style="fill: #ffb84c; stroke: #ffb84c"/>
     <use xlink:href="#mdb45cd37c3" x="161.605726" y="174.178265" style="fill: #ffb84c; stroke: #ffb84c"/>
     <use xlink:href="#mdb45cd37c3" x="150.475933" y="269.23781" style="fill: #ffb84c; stroke: #ffb84c"/>
     <use xlink:href="#mdb45cd37c3" x="149.648964" y="165.750507" style="fill: #ffb84c; stroke: #ffb84c"/>
     <use xlink:href="#mdb45cd37c3" x="80.413302" y="153.661262" style="fill: #ffb84c; stroke: #ffb84c"/>
     <use xlink:href="#mdb45cd37c3" x="199.68933" y="203.173452" style="fill: #ffb84c; stroke: #ffb84c"/>
     <use xlink:href="#mdb45cd37c3" x="109.849315" y="61.470488" style="fill: #ffb84c; stroke: #ffb84c"/>
     <use xlink:href="#mdb45cd37c3" x="136.664561" y="76.422667" style="fill: #ffb84c; stroke: #ffb84c"/>
     <use xlink:href="#mdb45cd37c3" x="122.79733" y="273.384369" style="fill: #ffb84c; stroke: #ffb84c"/>
     <use xlink:href="#mdb45cd37c3" x="142.272608" y="282.629718" style="fill: #ffb84c; stroke: #ffb84c"/>
     <use xlink:href="#mdb45cd37c3" x="153.238702" y="151.556693" style="fill: #ffb84c; stroke: #ffb84c"/>
     <use xlink:href="#mdb45cd37c3" x="120.008531" y="120.178042" style="fill: #ffb84c; stroke: #ffb84c"/>
     <use xlink:href="#mdb45cd37c3" x="129.166971" y="87.540193" style="fill: #ffb84c; stroke: #ffb84c"/>
     <use xlink:href="#mdb45cd37c3" x="130.470539" y="81.338987" style="fill: #ffb84c; stroke: #ffb84c"/>
     <use xlink:href="#mdb45cd37c3" x="110.065527" y="148.418099" style="fill: #ffb84c; stroke: #ffb84c"/>
     <use xlink:href="#mdb45cd37c3" x="141.964502" y="113.304959" style="fill: #ffb84c; stroke: #ffb84c"/>
     <use xlink:href="#mdb45cd37c3" x="140.048199" y="70.532662" style="fill: #ffb84c; stroke: #ffb84c"/>
     <use xlink:href="#mdb45cd37c3" x="275.86616" y="103.817687" style="fill: #ffb84c; stroke: #ffb84c"/>
     <use xlink:href="#mdb45cd37c3" x="133.773805" y="133.140842" style="fill: #ffb84c; stroke: #ffb84c"/>
     <use xlink:href="#mdb45cd37c3" x="146.743129" y="164.037551" style="fill: #ffb84c; stroke: #ffb84c"/>
     <use xlink:href="#mdb45cd37c3" x="126.427702" y="137.324977" style="fill: #ffb84c; stroke: #ffb84c"/>
     <use xlink:href="#mdb45cd37c3" x="163.230644" y="70.892405" style="fill: #ffb84c; stroke: #ffb84c"/>
     <use xlink:href="#mdb45cd37c3" x="111.82564" y="280.434518" style="fill: #ffb84c; stroke: #ffb84c"/>
     <use xlink:href="#mdb45cd37c3" x="185.397184" y="81.239193" style="fill: #ffb84c; stroke: #ffb84c"/>
     <use xlink:href="#mdb45cd37c3" x="115.654894" y="84.693605" style="fill: #ffb84c; stroke: #ffb84c"/>
     <use xlink:href="#mdb45cd37c3" x="118.862969" y="68.129549" style="fill: #ffb84c; stroke: #ffb84c"/>
     <use xlink:href="#mdb45cd37c3" x="148.893096" y="116.37769" style="fill: #ffb84c; stroke: #ffb84c"/>
     <use xlink:href="#mdb45cd37c3" x="207.371524" y="114.498722" style="fill: #ffb84c; stroke: #ffb84c"/>
     <use xlink:href="#mdb45cd37c3" x="87.910618" y="126.743891" style="fill: #ffb84c; stroke: #ffb84c"/>
     <use xlink:href="#mdb45cd37c3" x="167.748185" y="122.213057" style="fill: #ffb84c; stroke: #ffb84c"/>
     <use xlink:href="#mdb45cd37c3" x="145.332601" y="155.509748" style="fill: #ffb84c; stroke: #ffb84c"/>
    </g>
   </g>
   <g id="matplotlib.axis_1">
    <g id="xtick_1">
     <g id="line2d_1">
      <defs>
       <path id="m35e6c19e50" d="M 0 0 
L 0 3.5 
" style="stroke: #000000; stroke-width: 0.8"/>
      </defs>
      <g>
       <use xlink:href="#m35e6c19e50" x="70.64221" y="307.584" style="stroke: #000000; stroke-width: 0.8"/>
      </g>
     </g>
     <g id="text_1">
      <!-- −2 -->
      <g transform="translate(61.059788 324.461969) scale(0.13 -0.13)">
       <defs>
        <path id="DejaVuSans-2212" d="M 678 2272 
L 4684 2272 
L 4684 1741 
L 678 1741 
L 678 2272 
z
" transform="scale(0.015625)"/>
        <path id="DejaVuSans-32" d="M 1228 531 
L 3431 531 
L 3431 0 
L 469 0 
L 469 531 
Q 828 903 1448 1529 
Q 2069 2156 2228 2338 
Q 2531 2678 2651 2914 
Q 2772 3150 2772 3378 
Q 2772 3750 2511 3984 
Q 2250 4219 1831 4219 
Q 1534 4219 1204 4116 
Q 875 4013 500 3803 
L 500 4441 
Q 881 4594 1212 4672 
Q 1544 4750 1819 4750 
Q 2544 4750 2975 4387 
Q 3406 4025 3406 3419 
Q 3406 3131 3298 2873 
Q 3191 2616 2906 2266 
Q 2828 2175 2409 1742 
Q 1991 1309 1228 531 
z
" transform="scale(0.015625)"/>
       </defs>
       <use xlink:href="#DejaVuSans-2212"/>
       <use xlink:href="#DejaVuSans-32" transform="translate(83.789062 0)"/>
      </g>
     </g>
    </g>
    <g id="xtick_2">
     <g id="line2d_2">
      <g>
       <use xlink:href="#m35e6c19e50" x="147.231575" y="307.584" style="stroke: #000000; stroke-width: 0.8"/>
      </g>
     </g>
     <g id="text_2">
      <!-- −1 -->
      <g transform="translate(137.649153 324.461969) scale(0.13 -0.13)">
       <defs>
        <path id="DejaVuSans-31" d="M 794 531 
L 1825 531 
L 1825 4091 
L 703 3866 
L 703 4441 
L 1819 4666 
L 2450 4666 
L 2450 531 
L 3481 531 
L 3481 0 
L 794 0 
L 794 531 
z
" transform="scale(0.015625)"/>
       </defs>
       <use xlink:href="#DejaVuSans-2212"/>
       <use xlink:href="#DejaVuSans-31" transform="translate(83.789062 0)"/>
      </g>
     </g>
    </g>
    <g id="xtick_3">
     <g id="line2d_3">
      <g>
       <use xlink:href="#m35e6c19e50" x="223.82094" y="307.584" style="stroke: #000000; stroke-width: 0.8"/>
      </g>
     </g>
     <g id="text_3">
      <!-- 0 -->
      <g transform="translate(219.685315 324.461969) scale(0.13 -0.13)">
       <defs>
        <path id="DejaVuSans-30" d="M 2034 4250 
Q 1547 4250 1301 3770 
Q 1056 3291 1056 2328 
Q 1056 1369 1301 889 
Q 1547 409 2034 409 
Q 2525 409 2770 889 
Q 3016 1369 3016 2328 
Q 3016 3291 2770 3770 
Q 2525 4250 2034 4250 
z
M 2034 4750 
Q 2819 4750 3233 4129 
Q 3647 3509 3647 2328 
Q 3647 1150 3233 529 
Q 2819 -91 2034 -91 
Q 1250 -91 836 529 
Q 422 1150 422 2328 
Q 422 3509 836 4129 
Q 1250 4750 2034 4750 
z
" transform="scale(0.015625)"/>
       </defs>
       <use xlink:href="#DejaVuSans-30"/>
      </g>
     </g>
    </g>
    <g id="xtick_4">
     <g id="line2d_4">
      <g>
       <use xlink:href="#m35e6c19e50" x="300.410305" y="307.584" style="stroke: #000000; stroke-width: 0.8"/>
      </g>
     </g>
     <g id="text_4">
      <!-- 1 -->
      <g transform="translate(296.27468 324.461969) scale(0.13 -0.13)">
       <use xlink:href="#DejaVuSans-31"/>
      </g>
     </g>
    </g>
    <g id="xtick_5">
     <g id="line2d_5">
      <g>
       <use xlink:href="#m35e6c19e50" x="376.99967" y="307.584" style="stroke: #000000; stroke-width: 0.8"/>
      </g>
     </g>
     <g id="text_5">
      <!-- 2 -->
      <g transform="translate(372.864045 324.461969) scale(0.13 -0.13)">
       <use xlink:href="#DejaVuSans-32"/>
      </g>
     </g>
    </g>
    <g id="text_6">
     <!-- Component 1 -->
     <g transform="translate(185.461172 342.563219) scale(0.15 -0.15)">
      <defs>
       <path id="DejaVuSans-43" d="M 4122 4306 
L 4122 3641 
Q 3803 3938 3442 4084 
Q 3081 4231 2675 4231 
Q 1875 4231 1450 3742 
Q 1025 3253 1025 2328 
Q 1025 1406 1450 917 
Q 1875 428 2675 428 
Q 3081 428 3442 575 
Q 3803 722 4122 1019 
L 4122 359 
Q 3791 134 3420 21 
Q 3050 -91 2638 -91 
Q 1578 -91 968 557 
Q 359 1206 359 2328 
Q 359 3453 968 4101 
Q 1578 4750 2638 4750 
Q 3056 4750 3426 4639 
Q 3797 4528 4122 4306 
z
" transform="scale(0.015625)"/>
       <path id="DejaVuSans-6f" d="M 1959 3097 
Q 1497 3097 1228 2736 
Q 959 2375 959 1747 
Q 959 1119 1226 758 
Q 1494 397 1959 397 
Q 2419 397 2687 759 
Q 2956 1122 2956 1747 
Q 2956 2369 2687 2733 
Q 2419 3097 1959 3097 
z
M 1959 3584 
Q 2709 3584 3137 3096 
Q 3566 2609 3566 1747 
Q 3566 888 3137 398 
Q 2709 -91 1959 -91 
Q 1206 -91 779 398 
Q 353 888 353 1747 
Q 353 2609 779 3096 
Q 1206 3584 1959 3584 
z
" transform="scale(0.015625)"/>
       <path id="DejaVuSans-6d" d="M 3328 2828 
Q 3544 3216 3844 3400 
Q 4144 3584 4550 3584 
Q 5097 3584 5394 3201 
Q 5691 2819 5691 2113 
L 5691 0 
L 5113 0 
L 5113 2094 
Q 5113 2597 4934 2840 
Q 4756 3084 4391 3084 
Q 3944 3084 3684 2787 
Q 3425 2491 3425 1978 
L 3425 0 
L 2847 0 
L 2847 2094 
Q 2847 2600 2669 2842 
Q 2491 3084 2119 3084 
Q 1678 3084 1418 2786 
Q 1159 2488 1159 1978 
L 1159 0 
L 581 0 
L 581 3500 
L 1159 3500 
L 1159 2956 
Q 1356 3278 1631 3431 
Q 1906 3584 2284 3584 
Q 2666 3584 2933 3390 
Q 3200 3197 3328 2828 
z
" transform="scale(0.015625)"/>
       <path id="DejaVuSans-70" d="M 1159 525 
L 1159 -1331 
L 581 -1331 
L 581 3500 
L 1159 3500 
L 1159 2969 
Q 1341 3281 1617 3432 
Q 1894 3584 2278 3584 
Q 2916 3584 3314 3078 
Q 3713 2572 3713 1747 
Q 3713 922 3314 415 
Q 2916 -91 2278 -91 
Q 1894 -91 1617 61 
Q 1341 213 1159 525 
z
M 3116 1747 
Q 3116 2381 2855 2742 
Q 2594 3103 2138 3103 
Q 1681 3103 1420 2742 
Q 1159 2381 1159 1747 
Q 1159 1113 1420 752 
Q 1681 391 2138 391 
Q 2594 391 2855 752 
Q 3116 1113 3116 1747 
z
" transform="scale(0.015625)"/>
       <path id="DejaVuSans-6e" d="M 3513 2113 
L 3513 0 
L 2938 0 
L 2938 2094 
Q 2938 2591 2744 2837 
Q 2550 3084 2163 3084 
Q 1697 3084 1428 2787 
Q 1159 2491 1159 1978 
L 1159 0 
L 581 0 
L 581 3500 
L 1159 3500 
L 1159 2956 
Q 1366 3272 1645 3428 
Q 1925 3584 2291 3584 
Q 2894 3584 3203 3211 
Q 3513 2838 3513 2113 
z
" transform="scale(0.015625)"/>
       <path id="DejaVuSans-65" d="M 3597 1894 
L 3597 1613 
L 953 1613 
Q 991 1019 1311 708 
Q 1631 397 2203 397 
Q 2534 397 2845 478 
Q 3156 559 3463 722 
L 3463 178 
Q 3153 47 2828 -22 
Q 2503 -91 2169 -91 
Q 1331 -91 842 396 
Q 353 884 353 1716 
Q 353 2575 817 3079 
Q 1281 3584 2069 3584 
Q 2775 3584 3186 3129 
Q 3597 2675 3597 1894 
z
M 3022 2063 
Q 3016 2534 2758 2815 
Q 2500 3097 2075 3097 
Q 1594 3097 1305 2825 
Q 1016 2553 972 2059 
L 3022 2063 
z
" transform="scale(0.015625)"/>
       <path id="DejaVuSans-74" d="M 1172 4494 
L 1172 3500 
L 2356 3500 
L 2356 3053 
L 1172 3053 
L 1172 1153 
Q 1172 725 1289 603 
Q 1406 481 1766 481 
L 2356 481 
L 2356 0 
L 1766 0 
Q 1100 0 847 248 
Q 594 497 594 1153 
L 594 3053 
L 172 3053 
L 172 3500 
L 594 3500 
L 594 4494 
L 1172 4494 
z
" transform="scale(0.015625)"/>
       <path id="DejaVuSans-20" transform="scale(0.015625)"/>
      </defs>
      <use xlink:href="#DejaVuSans-43"/>
      <use xlink:href="#DejaVuSans-6f" transform="translate(69.824219 0)"/>
      <use xlink:href="#DejaVuSans-6d" transform="translate(131.005859 0)"/>
      <use xlink:href="#DejaVuSans-70" transform="translate(228.417969 0)"/>
      <use xlink:href="#DejaVuSans-6f" transform="translate(291.894531 0)"/>
      <use xlink:href="#DejaVuSans-6e" transform="translate(353.076172 0)"/>
      <use xlink:href="#DejaVuSans-65" transform="translate(416.455078 0)"/>
      <use xlink:href="#DejaVuSans-6e" transform="translate(477.978516 0)"/>
      <use xlink:href="#DejaVuSans-74" transform="translate(541.357422 0)"/>
      <use xlink:href="#DejaVuSans-20" transform="translate(580.566406 0)"/>
      <use xlink:href="#DejaVuSans-31" transform="translate(612.353516 0)"/>
     </g>
    </g>
   </g>
   <g id="matplotlib.axis_2">
    <g id="ytick_1">
     <g id="line2d_6">
      <defs>
       <path id="m123becbff9" d="M 0 0 
L -3.5 0 
" style="stroke: #000000; stroke-width: 0.8"/>
      </defs>
      <g>
       <use xlink:href="#m123becbff9" x="57.6" y="280.692901" style="stroke: #000000; stroke-width: 0.8"/>
      </g>
     </g>
     <g id="text_7">
      <!-- −1.5 -->
      <g transform="translate(19.032344 285.631885) scale(0.13 -0.13)">
       <defs>
        <path id="DejaVuSans-2e" d="M 684 794 
L 1344 794 
L 1344 0 
L 684 0 
L 684 794 
z
" transform="scale(0.015625)"/>
        <path id="DejaVuSans-35" d="M 691 4666 
L 3169 4666 
L 3169 4134 
L 1269 4134 
L 1269 2991 
Q 1406 3038 1543 3061 
Q 1681 3084 1819 3084 
Q 2600 3084 3056 2656 
Q 3513 2228 3513 1497 
Q 3513 744 3044 326 
Q 2575 -91 1722 -91 
Q 1428 -91 1123 -41 
Q 819 9 494 109 
L 494 744 
Q 775 591 1075 516 
Q 1375 441 1709 441 
Q 2250 441 2565 725 
Q 2881 1009 2881 1497 
Q 2881 1984 2565 2268 
Q 2250 2553 1709 2553 
Q 1456 2553 1204 2497 
Q 953 2441 691 2322 
L 691 4666 
z
" transform="scale(0.015625)"/>
       </defs>
       <use xlink:href="#DejaVuSans-2212"/>
       <use xlink:href="#DejaVuSans-31" transform="translate(83.789062 0)"/>
       <use xlink:href="#DejaVuSans-2e" transform="translate(147.412109 0)"/>
       <use xlink:href="#DejaVuSans-35" transform="translate(179.199219 0)"/>
      </g>
     </g>
    </g>
    <g id="ytick_2">
     <g id="line2d_7">
      <g>
       <use xlink:href="#m123becbff9" x="57.6" y="236.875578" style="stroke: #000000; stroke-width: 0.8"/>
      </g>
     </g>
     <g id="text_8">
      <!-- −1.0 -->
      <g transform="translate(19.032344 241.814562) scale(0.13 -0.13)">
       <use xlink:href="#DejaVuSans-2212"/>
       <use xlink:href="#DejaVuSans-31" transform="translate(83.789062 0)"/>
       <use xlink:href="#DejaVuSans-2e" transform="translate(147.412109 0)"/>
       <use xlink:href="#DejaVuSans-30" transform="translate(179.199219 0)"/>
      </g>
     </g>
    </g>
    <g id="ytick_3">
     <g id="line2d_8">
      <g>
       <use xlink:href="#m123becbff9" x="57.6" y="193.058255" style="stroke: #000000; stroke-width: 0.8"/>
      </g>
     </g>
     <g id="text_9">
      <!-- −0.5 -->
      <g transform="translate(19.032344 197.99724) scale(0.13 -0.13)">
       <use xlink:href="#DejaVuSans-2212"/>
       <use xlink:href="#DejaVuSans-30" transform="translate(83.789062 0)"/>
       <use xlink:href="#DejaVuSans-2e" transform="translate(147.412109 0)"/>
       <use xlink:href="#DejaVuSans-35" transform="translate(179.199219 0)"/>
      </g>
     </g>
    </g>
    <g id="ytick_4">
     <g id="line2d_9">
      <g>
       <use xlink:href="#m123becbff9" x="57.6" y="149.240933" style="stroke: #000000; stroke-width: 0.8"/>
      </g>
     </g>
     <g id="text_10">
      <!-- 0.0 -->
      <g transform="translate(29.925937 154.179917) scale(0.13 -0.13)">
       <use xlink:href="#DejaVuSans-30"/>
       <use xlink:href="#DejaVuSans-2e" transform="translate(63.623047 0)"/>
       <use xlink:href="#DejaVuSans-30" transform="translate(95.410156 0)"/>
      </g>
     </g>
    </g>
    <g id="ytick_5">
     <g id="line2d_10">
      <g>
       <use xlink:href="#m123becbff9" x="57.6" y="105.42361" style="stroke: #000000; stroke-width: 0.8"/>
      </g>
     </g>
     <g id="text_11">
      <!-- 0.5 -->
      <g transform="translate(29.925937 110.362594) scale(0.13 -0.13)">
       <use xlink:href="#DejaVuSans-30"/>
       <use xlink:href="#DejaVuSans-2e" transform="translate(63.623047 0)"/>
       <use xlink:href="#DejaVuSans-35" transform="translate(95.410156 0)"/>
      </g>
     </g>
    </g>
    <g id="ytick_6">
     <g id="line2d_11">
      <g>
       <use xlink:href="#m123becbff9" x="57.6" y="61.606287" style="stroke: #000000; stroke-width: 0.8"/>
      </g>
     </g>
     <g id="text_12">
      <!-- 1.0 -->
      <g transform="translate(29.925937 66.545272) scale(0.13 -0.13)">
       <use xlink:href="#DejaVuSans-31"/>
       <use xlink:href="#DejaVuSans-2e" transform="translate(63.623047 0)"/>
       <use xlink:href="#DejaVuSans-30" transform="translate(95.410156 0)"/>
      </g>
     </g>
    </g>
    <g id="text_13">
     <!-- Component 2 -->
     <g transform="translate(11.912812 225.226828) rotate(-90) scale(0.15 -0.15)">
      <use xlink:href="#DejaVuSans-43"/>
      <use xlink:href="#DejaVuSans-6f" transform="translate(69.824219 0)"/>
      <use xlink:href="#DejaVuSans-6d" transform="translate(131.005859 0)"/>
      <use xlink:href="#DejaVuSans-70" transform="translate(228.417969 0)"/>
      <use xlink:href="#DejaVuSans-6f" transform="translate(291.894531 0)"/>
      <use xlink:href="#DejaVuSans-6e" transform="translate(353.076172 0)"/>
      <use xlink:href="#DejaVuSans-65" transform="translate(416.455078 0)"/>
      <use xlink:href="#DejaVuSans-6e" transform="translate(477.978516 0)"/>
      <use xlink:href="#DejaVuSans-74" transform="translate(541.357422 0)"/>
      <use xlink:href="#DejaVuSans-20" transform="translate(580.566406 0)"/>
      <use xlink:href="#DejaVuSans-32" transform="translate(612.353516 0)"/>
     </g>
    </g>
   </g>
   <g id="patch_3">
    <path d="M 57.6 307.584 
L 57.6 41.472 
" style="fill: none; stroke: #000000; stroke-width: 0.8; stroke-linejoin: miter; stroke-linecap: square"/>
   </g>
   <g id="patch_4">
    <path d="M 414.72 307.584 
L 414.72 41.472 
" style="fill: none; stroke: #000000; stroke-width: 0.8; stroke-linejoin: miter; stroke-linecap: square"/>
   </g>
   <g id="patch_5">
    <path d="M 57.6 307.584 
L 414.72 307.584 
" style="fill: none; stroke: #000000; stroke-width: 0.8; stroke-linejoin: miter; stroke-linecap: square"/>
   </g>
   <g id="patch_6">
    <path d="M 57.6 41.472 
L 414.72 41.472 
" style="fill: none; stroke: #000000; stroke-width: 0.8; stroke-linejoin: miter; stroke-linecap: square"/>
   </g>
   <g id="text_14">
    <!-- Layer 7 activations (PCA) -->
    <g transform="translate(128.913906 35.472) scale(0.17 -0.17)">
     <defs>
      <path id="DejaVuSans-4c" d="M 628 4666 
L 1259 4666 
L 1259 531 
L 3531 531 
L 3531 0 
L 628 0 
L 628 4666 
z
" transform="scale(0.015625)"/>
      <path id="DejaVuSans-61" d="M 2194 1759 
Q 1497 1759 1228 1600 
Q 959 1441 959 1056 
Q 959 750 1161 570 
Q 1363 391 1709 391 
Q 2188 391 2477 730 
Q 2766 1069 2766 1631 
L 2766 1759 
L 2194 1759 
z
M 3341 1997 
L 3341 0 
L 2766 0 
L 2766 531 
Q 2569 213 2275 61 
Q 1981 -91 1556 -91 
Q 1019 -91 701 211 
Q 384 513 384 1019 
Q 384 1609 779 1909 
Q 1175 2209 1959 2209 
L 2766 2209 
L 2766 2266 
Q 2766 2663 2505 2880 
Q 2244 3097 1772 3097 
Q 1472 3097 1187 3025 
Q 903 2953 641 2809 
L 641 3341 
Q 956 3463 1253 3523 
Q 1550 3584 1831 3584 
Q 2591 3584 2966 3190 
Q 3341 2797 3341 1997 
z
" transform="scale(0.015625)"/>
      <path id="DejaVuSans-79" d="M 2059 -325 
Q 1816 -950 1584 -1140 
Q 1353 -1331 966 -1331 
L 506 -1331 
L 506 -850 
L 844 -850 
Q 1081 -850 1212 -737 
Q 1344 -625 1503 -206 
L 1606 56 
L 191 3500 
L 800 3500 
L 1894 763 
L 2988 3500 
L 3597 3500 
L 2059 -325 
z
" transform="scale(0.015625)"/>
      <path id="DejaVuSans-72" d="M 2631 2963 
Q 2534 3019 2420 3045 
Q 2306 3072 2169 3072 
Q 1681 3072 1420 2755 
Q 1159 2438 1159 1844 
L 1159 0 
L 581 0 
L 581 3500 
L 1159 3500 
L 1159 2956 
Q 1341 3275 1631 3429 
Q 1922 3584 2338 3584 
Q 2397 3584 2469 3576 
Q 2541 3569 2628 3553 
L 2631 2963 
z
" transform="scale(0.015625)"/>
      <path id="DejaVuSans-37" d="M 525 4666 
L 3525 4666 
L 3525 4397 
L 1831 0 
L 1172 0 
L 2766 4134 
L 525 4134 
L 525 4666 
z
" transform="scale(0.015625)"/>
      <path id="DejaVuSans-63" d="M 3122 3366 
L 3122 2828 
Q 2878 2963 2633 3030 
Q 2388 3097 2138 3097 
Q 1578 3097 1268 2742 
Q 959 2388 959 1747 
Q 959 1106 1268 751 
Q 1578 397 2138 397 
Q 2388 397 2633 464 
Q 2878 531 3122 666 
L 3122 134 
Q 2881 22 2623 -34 
Q 2366 -91 2075 -91 
Q 1284 -91 818 406 
Q 353 903 353 1747 
Q 353 2603 823 3093 
Q 1294 3584 2113 3584 
Q 2378 3584 2631 3529 
Q 2884 3475 3122 3366 
z
" transform="scale(0.015625)"/>
      <path id="DejaVuSans-69" d="M 603 3500 
L 1178 3500 
L 1178 0 
L 603 0 
L 603 3500 
z
M 603 4863 
L 1178 4863 
L 1178 4134 
L 603 4134 
L 603 4863 
z
" transform="scale(0.015625)"/>
      <path id="DejaVuSans-76" d="M 191 3500 
L 800 3500 
L 1894 563 
L 2988 3500 
L 3597 3500 
L 2284 0 
L 1503 0 
L 191 3500 
z
" transform="scale(0.015625)"/>
      <path id="DejaVuSans-73" d="M 2834 3397 
L 2834 2853 
Q 2591 2978 2328 3040 
Q 2066 3103 1784 3103 
Q 1356 3103 1142 2972 
Q 928 2841 928 2578 
Q 928 2378 1081 2264 
Q 1234 2150 1697 2047 
L 1894 2003 
Q 2506 1872 2764 1633 
Q 3022 1394 3022 966 
Q 3022 478 2636 193 
Q 2250 -91 1575 -91 
Q 1294 -91 989 -36 
Q 684 19 347 128 
L 347 722 
Q 666 556 975 473 
Q 1284 391 1588 391 
Q 1994 391 2212 530 
Q 2431 669 2431 922 
Q 2431 1156 2273 1281 
Q 2116 1406 1581 1522 
L 1381 1569 
Q 847 1681 609 1914 
Q 372 2147 372 2553 
Q 372 3047 722 3315 
Q 1072 3584 1716 3584 
Q 2034 3584 2315 3537 
Q 2597 3491 2834 3397 
z
" transform="scale(0.015625)"/>
      <path id="DejaVuSans-28" d="M 1984 4856 
Q 1566 4138 1362 3434 
Q 1159 2731 1159 2009 
Q 1159 1288 1364 580 
Q 1569 -128 1984 -844 
L 1484 -844 
Q 1016 -109 783 600 
Q 550 1309 550 2009 
Q 550 2706 781 3412 
Q 1013 4119 1484 4856 
L 1984 4856 
z
" transform="scale(0.015625)"/>
      <path id="DejaVuSans-50" d="M 1259 4147 
L 1259 2394 
L 2053 2394 
Q 2494 2394 2734 2622 
Q 2975 2850 2975 3272 
Q 2975 3691 2734 3919 
Q 2494 4147 2053 4147 
L 1259 4147 
z
M 628 4666 
L 2053 4666 
Q 2838 4666 3239 4311 
Q 3641 3956 3641 3272 
Q 3641 2581 3239 2228 
Q 2838 1875 2053 1875 
L 1259 1875 
L 1259 0 
L 628 0 
L 628 4666 
z
" transform="scale(0.015625)"/>
      <path id="DejaVuSans-41" d="M 2188 4044 
L 1331 1722 
L 3047 1722 
L 2188 4044 
z
M 1831 4666 
L 2547 4666 
L 4325 0 
L 3669 0 
L 3244 1197 
L 1141 1197 
L 716 0 
L 50 0 
L 1831 4666 
z
" transform="scale(0.015625)"/>
      <path id="DejaVuSans-29" d="M 513 4856 
L 1013 4856 
Q 1481 4119 1714 3412 
Q 1947 2706 1947 2009 
Q 1947 1309 1714 600 
Q 1481 -109 1013 -844 
L 513 -844 
Q 928 -128 1133 580 
Q 1338 1288 1338 2009 
Q 1338 2731 1133 3434 
Q 928 4138 513 4856 
z
" transform="scale(0.015625)"/>
     </defs>
     <use xlink:href="#DejaVuSans-4c"/>
     <use xlink:href="#DejaVuSans-61" transform="translate(55.712891 0)"/>
     <use xlink:href="#DejaVuSans-79" transform="translate(116.992188 0)"/>
     <use xlink:href="#DejaVuSans-65" transform="translate(176.171875 0)"/>
     <use xlink:href="#DejaVuSans-72" transform="translate(237.695312 0)"/>
     <use xlink:href="#DejaVuSans-20" transform="translate(278.808594 0)"/>
     <use xlink:href="#DejaVuSans-37" transform="translate(310.595703 0)"/>
     <use xlink:href="#DejaVuSans-20" transform="translate(374.21875 0)"/>
     <use xlink:href="#DejaVuSans-61" transform="translate(406.005859 0)"/>
     <use xlink:href="#DejaVuSans-63" transform="translate(467.285156 0)"/>
     <use xlink:href="#DejaVuSans-74" transform="translate(522.265625 0)"/>
     <use xlink:href="#DejaVuSans-69" transform="translate(561.474609 0)"/>
     <use xlink:href="#DejaVuSans-76" transform="translate(589.257812 0)"/>
     <use xlink:href="#DejaVuSans-61" transform="translate(648.4375 0)"/>
     <use xlink:href="#DejaVuSans-74" transform="translate(709.716797 0)"/>
     <use xlink:href="#DejaVuSans-69" transform="translate(748.925781 0)"/>
     <use xlink:href="#DejaVuSans-6f" transform="translate(776.708984 0)"/>
     <use xlink:href="#DejaVuSans-6e" transform="translate(837.890625 0)"/>
     <use xlink:href="#DejaVuSans-73" transform="translate(901.269531 0)"/>
     <use xlink:href="#DejaVuSans-20" transform="translate(953.369141 0)"/>
     <use xlink:href="#DejaVuSans-28" transform="translate(985.15625 0)"/>
     <use xlink:href="#DejaVuSans-50" transform="translate(1024.169922 0)"/>
     <use xlink:href="#DejaVuSans-43" transform="translate(1084.472656 0)"/>
     <use xlink:href="#DejaVuSans-41" transform="translate(1154.296875 0)"/>
     <use xlink:href="#DejaVuSans-29" transform="translate(1222.705078 0)"/>
    </g>
   </g>
  </g>
 </g>
 <defs>
  <clipPath id="pd9720ae8c1">
   <rect x="57.6" y="41.472" width="357.12" height="266.112"/>
  </clipPath>
 </defs>
</svg>
