<?xml version="1.0" encoding="utf-8" standalone="no"?>
<!DOCTYPE svg PUBLIC "-//W3C//DTD SVG 1.1//EN"
  "http://www.w3.org/Graphics/SVG/1.1/DTD/svg11.dtd">
<svg xmlns:xlink="http://www.w3.org/1999/xlink" width="460.8pt" height="345.6pt" viewBox="0 0 460.8 345.6" xmlns="http://www.w3.org/2000/svg" version="1.1">
 <metadata>
  <rdf:RDF xmlns:dc="http://purl.org/dc/elements/1.1/" xmlns:cc="http://creativecommons.org/ns#" xmlns:rdf="http://www.w3.org/1999/02/22-rdf-syntax-ns#">
   <cc:Work>
    <dc:type rdf:resource="http://purl.org/dc/dcmitype/StillImage"/>
    <dc:date>2025-05-03T14:22:32.589456</dc:date>
    <dc:format>image/svg+xml</dc:format>
    <dc:creator>
     <cc:Agent>
      <dc:title>Matplotlib v3.10.0, https://matplotlib.org/</dc:title>
     </cc:Agent>
    </dc:creator>
   </cc:Work>
  </rdf:RDF>
 </metadata>
 <defs>
  <style type="text/css">*{stroke-linejoin: round; stroke-linecap: butt}</style>
 </defs>
 <g id="figure_1">
  <g id="patch_1">
   <path d="M 0 345.6 
L 460.8 345.6 
L 460.8 0 
L 0 0 
L 0 345.6 
z
" style="fill: none; opacity: 0"/>
  </g>
  <g id="axes_1">
   <g id="patch_2">
    <path d="M 57.6 307.584 
L 414.72 307.584 
L 414.72 41.472 
L 57.6 41.472 
L 57.6 307.584 
z
" style="fill: none"/>
   </g>
   <g id="PathCollection_1">
    <defs>
     <path id="m01209d9440" d="M 0 3 
C 0.795609 3 1.55874 2.683901 2.12132 2.12132 
C 2.683901 1.55874 3 0.795609 3 0 
C 3 -0.795609 2.683901 -1.55874 2.12132 -2.12132 
C 1.55874 -2.683901 0.795609 -3 0 -3 
C -0.795609 -3 -1.55874 -2.683901 -2.12132 -2.12132 
C -2.683901 -1.55874 -3 -0.795609 -3 0 
C -3 0.795609 -2.683901 1.55874 -2.12132 2.12132 
C -1.55874 2.683901 -0.795609 3 0 3 
z
" style="stroke: #a459d1"/>
    </defs>
    <g clip-path="url(#p806bf43393)">
     <use xlink:href="#m01209d9440" x="357.155566" y="112.972321" style="fill: #a459d1; stroke: #a459d1"/>
     <use xlink:href="#m01209d9440" x="313.529403" y="133.588538" style="fill: #a459d1; stroke: #a459d1"/>
     <use xlink:href="#m01209d9440" x="376.319221" y="137.871641" style="fill: #a459d1; stroke: #a459d1"/>
     <use xlink:href="#m01209d9440" x="323.142766" y="153.024123" style="fill: #a459d1; stroke: #a459d1"/>
     <use xlink:href="#m01209d9440" x="370.699265" y="122.966281" style="fill: #a459d1; stroke: #a459d1"/>
     <use xlink:href="#m01209d9440" x="289.365209" y="118.840897" style="fill: #a459d1; stroke: #a459d1"/>
     <use xlink:href="#m01209d9440" x="371.525493" y="110.19183" style="fill: #a459d1; stroke: #a459d1"/>
     <use xlink:href="#m01209d9440" x="347.171706" y="154.253753" style="fill: #a459d1; stroke: #a459d1"/>
     <use xlink:href="#m01209d9440" x="371.37582" y="164.60835" style="fill: #a459d1; stroke: #a459d1"/>
     <use xlink:href="#m01209d9440" x="310.489184" y="158.542087" style="fill: #a459d1; stroke: #a459d1"/>
     <use xlink:href="#m01209d9440" x="366.476691" y="217.244141" style="fill: #a459d1; stroke: #a459d1"/>
     <use xlink:href="#m01209d9440" x="365.56023" y="100.494453" style="fill: #a459d1; stroke: #a459d1"/>
     <use xlink:href="#m01209d9440" x="278.238899" y="165.696731" style="fill: #a459d1; stroke: #a459d1"/>
     <use xlink:href="#m01209d9440" x="361.776452" y="137.520201" style="fill: #a459d1; stroke: #a459d1"/>
     <use xlink:href="#m01209d9440" x="373.347815" y="105.818523" style="fill: #a459d1; stroke: #a459d1"/>
     <use xlink:href="#m01209d9440" x="376.312797" y="135.393865" style="fill: #a459d1; stroke: #a459d1"/>
     <use xlink:href="#m01209d9440" x="347.778135" y="124.370786" style="fill: #a459d1; stroke: #a459d1"/>
     <use xlink:href="#m01209d9440" x="371.256819" y="104.070791" style="fill: #a459d1; stroke: #a459d1"/>
     <use xlink:href="#m01209d9440" x="371.309932" y="132.822555" style="fill: #a459d1; stroke: #a459d1"/>
     <use xlink:href="#m01209d9440" x="364.692741" y="113.631926" style="fill: #a459d1; stroke: #a459d1"/>
     <use xlink:href="#m01209d9440" x="338.13776" y="170.501495" style="fill: #a459d1; stroke: #a459d1"/>
     <use xlink:href="#m01209d9440" x="263.571553" y="189.290659" style="fill: #a459d1; stroke: #a459d1"/>
     <use xlink:href="#m01209d9440" x="290.665836" y="242.199918" style="fill: #a459d1; stroke: #a459d1"/>
     <use xlink:href="#m01209d9440" x="378.734165" y="154.562926" style="fill: #a459d1; stroke: #a459d1"/>
     <use xlink:href="#m01209d9440" x="335.165942" y="189.874923" style="fill: #a459d1; stroke: #a459d1"/>
     <use xlink:href="#m01209d9440" x="350.567822" y="158.535689" style="fill: #a459d1; stroke: #a459d1"/>
     <use xlink:href="#m01209d9440" x="273.653722" y="271.720219" style="fill: #a459d1; stroke: #a459d1"/>
     <use xlink:href="#m01209d9440" x="173.781293" y="286.335583" style="fill: #a459d1; stroke: #a459d1"/>
     <use xlink:href="#m01209d9440" x="390.319032" y="192.130171" style="fill: #a459d1; stroke: #a459d1"/>
     <use xlink:href="#m01209d9440" x="317.462946" y="163.924371" style="fill: #a459d1; stroke: #a459d1"/>
     <use xlink:href="#m01209d9440" x="368.392016" y="112.610945" style="fill: #a459d1; stroke: #a459d1"/>
     <use xlink:href="#m01209d9440" x="373.775889" y="114.974109" style="fill: #a459d1; stroke: #a459d1"/>
     <use xlink:href="#m01209d9440" x="247.450381" y="234.456928" style="fill: #a459d1; stroke: #a459d1"/>
     <use xlink:href="#m01209d9440" x="355.422652" y="151.052632" style="fill: #a459d1; stroke: #a459d1"/>
     <use xlink:href="#m01209d9440" x="370.255709" y="112.286107" style="fill: #a459d1; stroke: #a459d1"/>
     <use xlink:href="#m01209d9440" x="398.487273" y="133.082848" style="fill: #a459d1; stroke: #a459d1"/>
     <use xlink:href="#m01209d9440" x="367.088864" y="144.509322" style="fill: #a459d1; stroke: #a459d1"/>
     <use xlink:href="#m01209d9440" x="342.867993" y="134.698749" style="fill: #a459d1; stroke: #a459d1"/>
     <use xlink:href="#m01209d9440" x="366.071398" y="103.563134" style="fill: #a459d1; stroke: #a459d1"/>
     <use xlink:href="#m01209d9440" x="365.441642" y="128.180149" style="fill: #a459d1; stroke: #a459d1"/>
     <use xlink:href="#m01209d9440" x="191.918957" y="276.560613" style="fill: #a459d1; stroke: #a459d1"/>
     <use xlink:href="#m01209d9440" x="308.117681" y="151.317027" style="fill: #a459d1; stroke: #a459d1"/>
     <use xlink:href="#m01209d9440" x="354.57305" y="141.067358" style="fill: #a459d1; stroke: #a459d1"/>
     <use xlink:href="#m01209d9440" x="348.960429" y="130.012617" style="fill: #a459d1; stroke: #a459d1"/>
     <use xlink:href="#m01209d9440" x="312.595948" y="136.44828" style="fill: #a459d1; stroke: #a459d1"/>
     <use xlink:href="#m01209d9440" x="251.351894" y="168.120536" style="fill: #a459d1; stroke: #a459d1"/>
     <use xlink:href="#m01209d9440" x="366.10524" y="213.383291" style="fill: #a459d1; stroke: #a459d1"/>
     <use xlink:href="#m01209d9440" x="357.4545" y="157.04526" style="fill: #a459d1; stroke: #a459d1"/>
     <use xlink:href="#m01209d9440" x="341.466544" y="167.037816" style="fill: #a459d1; stroke: #a459d1"/>
     <use xlink:href="#m01209d9440" x="364.97244" y="161.719218" style="fill: #a459d1; stroke: #a459d1"/>
     <use xlink:href="#m01209d9440" x="340.252035" y="176.812285" style="fill: #a459d1; stroke: #a459d1"/>
     <use xlink:href="#m01209d9440" x="214.939861" y="157.81237" style="fill: #a459d1; stroke: #a459d1"/>
     <use xlink:href="#m01209d9440" x="370.663432" y="127.064933" style="fill: #a459d1; stroke: #a459d1"/>
     <use xlink:href="#m01209d9440" x="345.300387" y="124.888032" style="fill: #a459d1; stroke: #a459d1"/>
     <use xlink:href="#m01209d9440" x="322.330102" y="115.707035" style="fill: #a459d1; stroke: #a459d1"/>
     <use xlink:href="#m01209d9440" x="354.602581" y="160.351339" style="fill: #a459d1; stroke: #a459d1"/>
     <use xlink:href="#m01209d9440" x="345.74404" y="112.748497" style="fill: #a459d1; stroke: #a459d1"/>
     <use xlink:href="#m01209d9440" x="369.506176" y="118.467755" style="fill: #a459d1; stroke: #a459d1"/>
     <use xlink:href="#m01209d9440" x="303.090712" y="153.864331" style="fill: #a459d1; stroke: #a459d1"/>
     <use xlink:href="#m01209d9440" x="335.67558" y="124.620047" style="fill: #a459d1; stroke: #a459d1"/>
     <use xlink:href="#m01209d9440" x="348.829601" y="116.308138" style="fill: #a459d1; stroke: #a459d1"/>
     <use xlink:href="#m01209d9440" x="356.543831" y="141.845846" style="fill: #a459d1; stroke: #a459d1"/>
     <use xlink:href="#m01209d9440" x="366.949536" y="156.434713" style="fill: #a459d1; stroke: #a459d1"/>
     <use xlink:href="#m01209d9440" x="251.84145" y="232.089624" style="fill: #a459d1; stroke: #a459d1"/>
     <use xlink:href="#m01209d9440" x="383.148403" y="124.343597" style="fill: #a459d1; stroke: #a459d1"/>
     <use xlink:href="#m01209d9440" x="369.380072" y="144.937739" style="fill: #a459d1; stroke: #a459d1"/>
     <use xlink:href="#m01209d9440" x="329.445693" y="191.377966" style="fill: #a459d1; stroke: #a459d1"/>
     <use xlink:href="#m01209d9440" x="387.767674" y="119.595042" style="fill: #a459d1; stroke: #a459d1"/>
     <use xlink:href="#m01209d9440" x="316.570509" y="165.765932" style="fill: #a459d1; stroke: #a459d1"/>
     <use xlink:href="#m01209d9440" x="355.908308" y="115.55596" style="fill: #a459d1; stroke: #a459d1"/>
     <use xlink:href="#m01209d9440" x="343.58134" y="147.153327" style="fill: #a459d1; stroke: #a459d1"/>
     <use xlink:href="#m01209d9440" x="340.175061" y="137.646522" style="fill: #a459d1; stroke: #a459d1"/>
     <use xlink:href="#m01209d9440" x="385.666186" y="115.17842" style="fill: #a459d1; stroke: #a459d1"/>
     <use xlink:href="#m01209d9440" x="254.534496" y="268.891532" style="fill: #a459d1; stroke: #a459d1"/>
     <use xlink:href="#m01209d9440" x="375.234119" y="125.883857" style="fill: #a459d1; stroke: #a459d1"/>
     <use xlink:href="#m01209d9440" x="377.570911" y="142.237497" style="fill: #a459d1; stroke: #a459d1"/>
     <use xlink:href="#m01209d9440" x="287.147344" y="148.151154" style="fill: #a459d1; stroke: #a459d1"/>
     <use xlink:href="#m01209d9440" x="371.388606" y="114.095126" style="fill: #a459d1; stroke: #a459d1"/>
     <use xlink:href="#m01209d9440" x="353.684893" y="142.228911" style="fill: #a459d1; stroke: #a459d1"/>
     <use xlink:href="#m01209d9440" x="348.572184" y="114.247925" style="fill: #a459d1; stroke: #a459d1"/>
     <use xlink:href="#m01209d9440" x="354.777706" y="107.874362" style="fill: #a459d1; stroke: #a459d1"/>
     <use xlink:href="#m01209d9440" x="357.517935" y="104.501672" style="fill: #a459d1; stroke: #a459d1"/>
     <use xlink:href="#m01209d9440" x="371.327321" y="139.621191" style="fill: #a459d1; stroke: #a459d1"/>
     <use xlink:href="#m01209d9440" x="342.405324" y="148.832984" style="fill: #a459d1; stroke: #a459d1"/>
     <use xlink:href="#m01209d9440" x="348.5202" y="162.51299" style="fill: #a459d1; stroke: #a459d1"/>
     <use xlink:href="#m01209d9440" x="359.768513" y="130.763727" style="fill: #a459d1; stroke: #a459d1"/>
     <use xlink:href="#m01209d9440" x="353.142397" y="109.203411" style="fill: #a459d1; stroke: #a459d1"/>
     <use xlink:href="#m01209d9440" x="363.972751" y="109.820702" style="fill: #a459d1; stroke: #a459d1"/>
     <use xlink:href="#m01209d9440" x="326.877195" y="192.378508" style="fill: #a459d1; stroke: #a459d1"/>
     <use xlink:href="#m01209d9440" x="365.876334" y="160.941562" style="fill: #a459d1; stroke: #a459d1"/>
     <use xlink:href="#m01209d9440" x="348.151043" y="155.70438" style="fill: #a459d1; stroke: #a459d1"/>
     <use xlink:href="#m01209d9440" x="327.457935" y="226.250318" style="fill: #a459d1; stroke: #a459d1"/>
     <use xlink:href="#m01209d9440" x="292.659628" y="158.600143" style="fill: #a459d1; stroke: #a459d1"/>
     <use xlink:href="#m01209d9440" x="342.041097" y="140.770029" style="fill: #a459d1; stroke: #a459d1"/>
     <use xlink:href="#m01209d9440" x="343.245734" y="170.910125" style="fill: #a459d1; stroke: #a459d1"/>
     <use xlink:href="#m01209d9440" x="339.801339" y="105.530744" style="fill: #a459d1; stroke: #a459d1"/>
     <use xlink:href="#m01209d9440" x="355.814722" y="119.877701" style="fill: #a459d1; stroke: #a459d1"/>
     <use xlink:href="#m01209d9440" x="304.662927" y="224.181238" style="fill: #a459d1; stroke: #a459d1"/>
     <use xlink:href="#m01209d9440" x="196.28135" y="241.826539" style="fill: #a459d1; stroke: #a459d1"/>
     <use xlink:href="#m01209d9440" x="371.903089" y="149.374191" style="fill: #a459d1; stroke: #a459d1"/>
     <use xlink:href="#m01209d9440" x="377.85769" y="141.201311" style="fill: #a459d1; stroke: #a459d1"/>
     <use xlink:href="#m01209d9440" x="348.124972" y="119.409303" style="fill: #a459d1; stroke: #a459d1"/>
     <use xlink:href="#m01209d9440" x="352.134572" y="111.672434" style="fill: #a459d1; stroke: #a459d1"/>
     <use xlink:href="#m01209d9440" x="369.380315" y="134.059136" style="fill: #a459d1; stroke: #a459d1"/>
     <use xlink:href="#m01209d9440" x="359.860994" y="125.465305" style="fill: #a459d1; stroke: #a459d1"/>
     <use xlink:href="#m01209d9440" x="374.780617" y="125.772832" style="fill: #a459d1; stroke: #a459d1"/>
     <use xlink:href="#m01209d9440" x="386.369964" y="123.605177" style="fill: #a459d1; stroke: #a459d1"/>
     <use xlink:href="#m01209d9440" x="322.228611" y="150.734514" style="fill: #a459d1; stroke: #a459d1"/>
     <use xlink:href="#m01209d9440" x="346.776539" y="149.83581" style="fill: #a459d1; stroke: #a459d1"/>
     <use xlink:href="#m01209d9440" x="357.358426" y="139.919635" style="fill: #a459d1; stroke: #a459d1"/>
     <use xlink:href="#m01209d9440" x="361.16621" y="109.820813" style="fill: #a459d1; stroke: #a459d1"/>
     <use xlink:href="#m01209d9440" x="267.169523" y="246.030808" style="fill: #a459d1; stroke: #a459d1"/>
     <use xlink:href="#m01209d9440" x="381.181313" y="105.489245" style="fill: #a459d1; stroke: #a459d1"/>
     <use xlink:href="#m01209d9440" x="373.323979" y="123.953649" style="fill: #a459d1; stroke: #a459d1"/>
     <use xlink:href="#m01209d9440" x="361.479776" y="102.16794" style="fill: #a459d1; stroke: #a459d1"/>
     <use xlink:href="#m01209d9440" x="360.796386" y="116.39029" style="fill: #a459d1; stroke: #a459d1"/>
     <use xlink:href="#m01209d9440" x="364.596059" y="117.279001" style="fill: #a459d1; stroke: #a459d1"/>
     <use xlink:href="#m01209d9440" x="374.460239" y="141.172872" style="fill: #a459d1; stroke: #a459d1"/>
     <use xlink:href="#m01209d9440" x="380.587318" y="136.927388" style="fill: #a459d1; stroke: #a459d1"/>
     <use xlink:href="#m01209d9440" x="352.189106" y="150.833139" style="fill: #a459d1; stroke: #a459d1"/>
    </g>
   </g>
   <g id="PathCollection_2">
    <defs>
     <path id="m67d7fd44ee" d="M 0 3 
C 0.795609 3 1.55874 2.683901 2.12132 2.12132 
C 2.683901 1.55874 3 0.795609 3 0 
C 3 -0.795609 2.683901 -1.55874 2.12132 -2.12132 
C 1.55874 -2.683901 0.795609 -3 0 -3 
C -0.795609 -3 -1.55874 -2.683901 -2.12132 -2.12132 
C -2.683901 -1.55874 -3 -0.795609 -3 0 
C -3 0.795609 -2.683901 1.55874 -2.12132 2.12132 
C -1.55874 2.683901 -0.795609 3 0 3 
z
" style="stroke: #ffb84c"/>
    </defs>
    <g clip-path="url(#p806bf43393)">
     <use xlink:href="#m67d7fd44ee" x="106.821784" y="105.132051" style="fill: #ffb84c; stroke: #ffb84c"/>
     <use xlink:href="#m67d7fd44ee" x="93.52631" y="121.597918" style="fill: #ffb84c; stroke: #ffb84c"/>
     <use xlink:href="#m67d7fd44ee" x="111.762939" y="154.600387" style="fill: #ffb84c; stroke: #ffb84c"/>
     <use xlink:href="#m67d7fd44ee" x="174.462152" y="158.211314" style="fill: #ffb84c; stroke: #ffb84c"/>
     <use xlink:href="#m67d7fd44ee" x="124.155345" y="118.370458" style="fill: #ffb84c; stroke: #ffb84c"/>
     <use xlink:href="#m67d7fd44ee" x="120.6416" y="112.238435" style="fill: #ffb84c; stroke: #ffb84c"/>
     <use xlink:href="#m67d7fd44ee" x="157.313783" y="67.309295" style="fill: #ffb84c; stroke: #ffb84c"/>
     <use xlink:href="#m67d7fd44ee" x="94.959549" y="154.738879" style="fill: #ffb84c; stroke: #ffb84c"/>
     <use xlink:href="#m67d7fd44ee" x="107.947711" y="193.40446" style="fill: #ffb84c; stroke: #ffb84c"/>
     <use xlink:href="#m67d7fd44ee" x="155.204882" y="181.440119" style="fill: #ffb84c; stroke: #ffb84c"/>
     <use xlink:href="#m67d7fd44ee" x="180.722663" y="236.412792" style="fill: #ffb84c; stroke: #ffb84c"/>
     <use xlink:href="#m67d7fd44ee" x="94.839796" y="70.731209" style="fill: #ffb84c; stroke: #ffb84c"/>
     <use xlink:href="#m67d7fd44ee" x="87.824463" y="187.334612" style="fill: #ffb84c; stroke: #ffb84c"/>
     <use xlink:href="#m67d7fd44ee" x="119.037571" y="127.972868" style="fill: #ffb84c; stroke: #ffb84c"/>
     <use xlink:href="#m67d7fd44ee" x="120.646871" y="69.634491" style="fill: #ffb84c; stroke: #ffb84c"/>
     <use xlink:href="#m67d7fd44ee" x="126.519726" y="135.654224" style="fill: #ffb84c; stroke: #ffb84c"/>
     <use xlink:href="#m67d7fd44ee" x="98.26259" y="74.62329" style="fill: #ffb84c; stroke: #ffb84c"/>
     <use xlink:href="#m67d7fd44ee" x="131.552523" y="67.191684" style="fill: #ffb84c; stroke: #ffb84c"/>
     <use xlink:href="#m67d7fd44ee" x="131.931904" y="123.320288" style="fill: #ffb84c; stroke: #ffb84c"/>
     <use xlink:href="#m67d7fd44ee" x="126.087524" y="83.241411" style="fill: #ffb84c; stroke: #ffb84c"/>
     <use xlink:href="#m67d7fd44ee" x="101.698898" y="190.557159" style="fill: #ffb84c; stroke: #ffb84c"/>
     <use xlink:href="#m67d7fd44ee" x="133.615506" y="197.186641" style="fill: #ffb84c; stroke: #ffb84c"/>
     <use xlink:href="#m67d7fd44ee" x="132.149724" y="243.547374" style="fill: #ffb84c; stroke: #ffb84c"/>
     <use xlink:href="#m67d7fd44ee" x="159.826405" y="192.413745" style="fill: #ffb84c; stroke: #ffb84c"/>
     <use xlink:href="#m67d7fd44ee" x="153.414592" y="273.139077" style="fill: #ffb84c; stroke: #ffb84c"/>
     <use xlink:href="#m67d7fd44ee" x="93.25273" y="198.992848" style="fill: #ffb84c; stroke: #ffb84c"/>
     <use xlink:href="#m67d7fd44ee" x="151.440338" y="295.488" style="fill: #ffb84c; stroke: #ffb84c"/>
     <use xlink:href="#m67d7fd44ee" x="139.350655" y="294.368636" style="fill: #ffb84c; stroke: #ffb84c"/>
     <use xlink:href="#m67d7fd44ee" x="325.192852" y="221.505116" style="fill: #ffb84c; stroke: #ffb84c"/>
     <use xlink:href="#m67d7fd44ee" x="129.455929" y="136.622826" style="fill: #ffb84c; stroke: #ffb84c"/>
     <use xlink:href="#m67d7fd44ee" x="101.164258" y="109.706686" style="fill: #ffb84c; stroke: #ffb84c"/>
     <use xlink:href="#m67d7fd44ee" x="117.404326" y="79.93691" style="fill: #ffb84c; stroke: #ffb84c"/>
     <use xlink:href="#m67d7fd44ee" x="151.564335" y="215.098053" style="fill: #ffb84c; stroke: #ffb84c"/>
     <use xlink:href="#m67d7fd44ee" x="115.153189" y="141.56233" style="fill: #ffb84c; stroke: #ffb84c"/>
     <use xlink:href="#m67d7fd44ee" x="256.599963" y="96.795585" style="fill: #ffb84c; stroke: #ffb84c"/>
     <use xlink:href="#m67d7fd44ee" x="177.110677" y="143.246352" style="fill: #ffb84c; stroke: #ffb84c"/>
     <use xlink:href="#m67d7fd44ee" x="103.433719" y="143.331286" style="fill: #ffb84c; stroke: #ffb84c"/>
     <use xlink:href="#m67d7fd44ee" x="89.908975" y="155.743127" style="fill: #ffb84c; stroke: #ffb84c"/>
     <use xlink:href="#m67d7fd44ee" x="99.972699" y="53.568" style="fill: #ffb84c; stroke: #ffb84c"/>
     <use xlink:href="#m67d7fd44ee" x="103.60712" y="113.176856" style="fill: #ffb84c; stroke: #ffb84c"/>
     <use xlink:href="#m67d7fd44ee" x="149.356986" y="290.576964" style="fill: #ffb84c; stroke: #ffb84c"/>
     <use xlink:href="#m67d7fd44ee" x="73.832727" y="164.155245" style="fill: #ffb84c; stroke: #ffb84c"/>
     <use xlink:href="#m67d7fd44ee" x="112.854222" y="133.341244" style="fill: #ffb84c; stroke: #ffb84c"/>
     <use xlink:href="#m67d7fd44ee" x="94.688301" y="123.469755" style="fill: #ffb84c; stroke: #ffb84c"/>
     <use xlink:href="#m67d7fd44ee" x="97.881582" y="129.197616" style="fill: #ffb84c; stroke: #ffb84c"/>
     <use xlink:href="#m67d7fd44ee" x="92.544751" y="170.361392" style="fill: #ffb84c; stroke: #ffb84c"/>
     <use xlink:href="#m67d7fd44ee" x="151.209028" y="249.24613" style="fill: #ffb84c; stroke: #ffb84c"/>
     <use xlink:href="#m67d7fd44ee" x="159.35189" y="164.493463" style="fill: #ffb84c; stroke: #ffb84c"/>
     <use xlink:href="#m67d7fd44ee" x="138.581056" y="179.809986" style="fill: #ffb84c; stroke: #ffb84c"/>
     <use xlink:href="#m67d7fd44ee" x="113.566816" y="190.633052" style="fill: #ffb84c; stroke: #ffb84c"/>
     <use xlink:href="#m67d7fd44ee" x="111.742794" y="205.920645" style="fill: #ffb84c; stroke: #ffb84c"/>
     <use xlink:href="#m67d7fd44ee" x="83.402624" y="149.910846" style="fill: #ffb84c; stroke: #ffb84c"/>
     <use xlink:href="#m67d7fd44ee" x="99.305374" y="85.801601" style="fill: #ffb84c; stroke: #ffb84c"/>
     <use xlink:href="#m67d7fd44ee" x="102.556224" y="106.600904" style="fill: #ffb84c; stroke: #ffb84c"/>
     <use xlink:href="#m67d7fd44ee" x="161.205887" y="90.499216" style="fill: #ffb84c; stroke: #ffb84c"/>
     <use xlink:href="#m67d7fd44ee" x="187.631309" y="179.773908" style="fill: #ffb84c; stroke: #ffb84c"/>
     <use xlink:href="#m67d7fd44ee" x="105.216249" y="116.791995" style="fill: #ffb84c; stroke: #ffb84c"/>
     <use xlink:href="#m67d7fd44ee" x="107.505308" y="94.9708" style="fill: #ffb84c; stroke: #ffb84c"/>
     <use xlink:href="#m67d7fd44ee" x="105.543002" y="164.183381" style="fill: #ffb84c; stroke: #ffb84c"/>
     <use xlink:href="#m67d7fd44ee" x="91.268653" y="93.02535" style="fill: #ffb84c; stroke: #ffb84c"/>
     <use xlink:href="#m67d7fd44ee" x="113.054106" y="87.44544" style="fill: #ffb84c; stroke: #ffb84c"/>
     <use xlink:href="#m67d7fd44ee" x="110.9439" y="145.798547" style="fill: #ffb84c; stroke: #ffb84c"/>
     <use xlink:href="#m67d7fd44ee" x="108.824222" y="161.531479" style="fill: #ffb84c; stroke: #ffb84c"/>
     <use xlink:href="#m67d7fd44ee" x="117.284379" y="196.366583" style="fill: #ffb84c; stroke: #ffb84c"/>
     <use xlink:href="#m67d7fd44ee" x="160.981244" y="94.009979" style="fill: #ffb84c; stroke: #ffb84c"/>
     <use xlink:href="#m67d7fd44ee" x="104.318245" y="157.046495" style="fill: #ffb84c; stroke: #ffb84c"/>
     <use xlink:href="#m67d7fd44ee" x="106.61023" y="206.225692" style="fill: #ffb84c; stroke: #ffb84c"/>
     <use xlink:href="#m67d7fd44ee" x="111.268832" y="68.356938" style="fill: #ffb84c; stroke: #ffb84c"/>
     <use xlink:href="#m67d7fd44ee" x="110.698977" y="174.69431" style="fill: #ffb84c; stroke: #ffb84c"/>
     <use xlink:href="#m67d7fd44ee" x="94.441618" y="75.973079" style="fill: #ffb84c; stroke: #ffb84c"/>
     <use xlink:href="#m67d7fd44ee" x="156.203447" y="156.266206" style="fill: #ffb84c; stroke: #ffb84c"/>
     <use xlink:href="#m67d7fd44ee" x="82.253164" y="151.334372" style="fill: #ffb84c; stroke: #ffb84c"/>
     <use xlink:href="#m67d7fd44ee" x="111.951069" y="96.151169" style="fill: #ffb84c; stroke: #ffb84c"/>
     <use xlink:href="#m67d7fd44ee" x="178.942671" y="278.176537" style="fill: #ffb84c; stroke: #ffb84c"/>
     <use xlink:href="#m67d7fd44ee" x="77.937928" y="99.668319" style="fill: #ffb84c; stroke: #ffb84c"/>
     <use xlink:href="#m67d7fd44ee" x="174.902168" y="142.845211" style="fill: #ffb84c; stroke: #ffb84c"/>
     <use xlink:href="#m67d7fd44ee" x="113.963646" y="155.037814" style="fill: #ffb84c; stroke: #ffb84c"/>
     <use xlink:href="#m67d7fd44ee" x="98.622505" y="91.968059" style="fill: #ffb84c; stroke: #ffb84c"/>
     <use xlink:href="#m67d7fd44ee" x="99.968704" y="161.973764" style="fill: #ffb84c; stroke: #ffb84c"/>
     <use xlink:href="#m67d7fd44ee" x="101.582229" y="91.140174" style="fill: #ffb84c; stroke: #ffb84c"/>
     <use xlink:href="#m67d7fd44ee" x="114.288578" y="65.241479" style="fill: #ffb84c; stroke: #ffb84c"/>
     <use xlink:href="#m67d7fd44ee" x="88.906602" y="66.340668" style="fill: #ffb84c; stroke: #ffb84c"/>
     <use xlink:href="#m67d7fd44ee" x="134.065346" y="128.740946" style="fill: #ffb84c; stroke: #ffb84c"/>
     <use xlink:href="#m67d7fd44ee" x="220.163217" y="156.758286" style="fill: #ffb84c; stroke: #ffb84c"/>
     <use xlink:href="#m67d7fd44ee" x="151.183959" y="150.618541" style="fill: #ffb84c; stroke: #ffb84c"/>
     <use xlink:href="#m67d7fd44ee" x="121.345925" y="113.517988" style="fill: #ffb84c; stroke: #ffb84c"/>
     <use xlink:href="#m67d7fd44ee" x="104.562839" y="79.262339" style="fill: #ffb84c; stroke: #ffb84c"/>
     <use xlink:href="#m67d7fd44ee" x="83.251251" y="82.775651" style="fill: #ffb84c; stroke: #ffb84c"/>
     <use xlink:href="#m67d7fd44ee" x="253.329153" y="184.639907" style="fill: #ffb84c; stroke: #ffb84c"/>
     <use xlink:href="#m67d7fd44ee" x="141.568368" y="192.710967" style="fill: #ffb84c; stroke: #ffb84c"/>
     <use xlink:href="#m67d7fd44ee" x="167.143197" y="162.796871" style="fill: #ffb84c; stroke: #ffb84c"/>
     <use xlink:href="#m67d7fd44ee" x="173.44287" y="253.782066" style="fill: #ffb84c; stroke: #ffb84c"/>
     <use xlink:href="#m67d7fd44ee" x="143.246172" y="168.244255" style="fill: #ffb84c; stroke: #ffb84c"/>
     <use xlink:href="#m67d7fd44ee" x="75.088959" y="178.708925" style="fill: #ffb84c; stroke: #ffb84c"/>
     <use xlink:href="#m67d7fd44ee" x="205.128328" y="187.13517" style="fill: #ffb84c; stroke: #ffb84c"/>
     <use xlink:href="#m67d7fd44ee" x="82.113873" y="69.571855" style="fill: #ffb84c; stroke: #ffb84c"/>
     <use xlink:href="#m67d7fd44ee" x="108.579469" y="92.356218" style="fill: #ffb84c; stroke: #ffb84c"/>
     <use xlink:href="#m67d7fd44ee" x="151.774996" y="256.65006" style="fill: #ffb84c; stroke: #ffb84c"/>
     <use xlink:href="#m67d7fd44ee" x="166.017186" y="239.292832" style="fill: #ffb84c; stroke: #ffb84c"/>
     <use xlink:href="#m67d7fd44ee" x="158.783991" y="131.230725" style="fill: #ffb84c; stroke: #ffb84c"/>
     <use xlink:href="#m67d7fd44ee" x="121.507353" y="127.986366" style="fill: #ffb84c; stroke: #ffb84c"/>
     <use xlink:href="#m67d7fd44ee" x="96.193596" y="79.414347" style="fill: #ffb84c; stroke: #ffb84c"/>
     <use xlink:href="#m67d7fd44ee" x="124.583807" y="92.674755" style="fill: #ffb84c; stroke: #ffb84c"/>
     <use xlink:href="#m67d7fd44ee" x="112.296899" y="166.454407" style="fill: #ffb84c; stroke: #ffb84c"/>
     <use xlink:href="#m67d7fd44ee" x="122.221307" y="111.581351" style="fill: #ffb84c; stroke: #ffb84c"/>
     <use xlink:href="#m67d7fd44ee" x="124.105255" y="68.563938" style="fill: #ffb84c; stroke: #ffb84c"/>
     <use xlink:href="#m67d7fd44ee" x="252.694011" y="105.390592" style="fill: #ffb84c; stroke: #ffb84c"/>
     <use xlink:href="#m67d7fd44ee" x="116.314755" y="145.700609" style="fill: #ffb84c; stroke: #ffb84c"/>
     <use xlink:href="#m67d7fd44ee" x="151.975937" y="161.330221" style="fill: #ffb84c; stroke: #ffb84c"/>
     <use xlink:href="#m67d7fd44ee" x="115.173796" y="149.760402" style="fill: #ffb84c; stroke: #ffb84c"/>
     <use xlink:href="#m67d7fd44ee" x="118.699306" y="65.225117" style="fill: #ffb84c; stroke: #ffb84c"/>
     <use xlink:href="#m67d7fd44ee" x="147.528367" y="272.769493" style="fill: #ffb84c; stroke: #ffb84c"/>
     <use xlink:href="#m67d7fd44ee" x="154.762922" y="81.473474" style="fill: #ffb84c; stroke: #ffb84c"/>
     <use xlink:href="#m67d7fd44ee" x="98.897834" y="117.03002" style="fill: #ffb84c; stroke: #ffb84c"/>
     <use xlink:href="#m67d7fd44ee" x="91.851888" y="63.219279" style="fill: #ffb84c; stroke: #ffb84c"/>
     <use xlink:href="#m67d7fd44ee" x="120.721974" y="131.001244" style="fill: #ffb84c; stroke: #ffb84c"/>
     <use xlink:href="#m67d7fd44ee" x="164.152964" y="105.900343" style="fill: #ffb84c; stroke: #ffb84c"/>
     <use xlink:href="#m67d7fd44ee" x="92.683435" y="134.077742" style="fill: #ffb84c; stroke: #ffb84c"/>
     <use xlink:href="#m67d7fd44ee" x="148.407332" y="129.007564" style="fill: #ffb84c; stroke: #ffb84c"/>
     <use xlink:href="#m67d7fd44ee" x="117.709125" y="162.643199" style="fill: #ffb84c; stroke: #ffb84c"/>
    </g>
   </g>
   <g id="matplotlib.axis_1">
    <g id="xtick_1">
     <g id="line2d_1">
      <defs>
       <path id="m6278877000" d="M 0 0 
L 0 3.5 
" style="stroke: #000000; stroke-width: 0.8"/>
      </defs>
      <g>
       <use xlink:href="#m6278877000" x="82.317012" y="307.584" style="stroke: #000000; stroke-width: 0.8"/>
      </g>
     </g>
     <g id="text_1">
      <!-- −3 -->
      <g transform="translate(72.73459 324.461969) scale(0.13 -0.13)">
       <defs>
        <path id="DejaVuSans-2212" d="M 678 2272 
L 4684 2272 
L 4684 1741 
L 678 1741 
L 678 2272 
z
" transform="scale(0.015625)"/>
        <path id="DejaVuSans-33" d="M 2597 2516 
Q 3050 2419 3304 2112 
Q 3559 1806 3559 1356 
Q 3559 666 3084 287 
Q 2609 -91 1734 -91 
Q 1441 -91 1130 -33 
Q 819 25 488 141 
L 488 750 
Q 750 597 1062 519 
Q 1375 441 1716 441 
Q 2309 441 2620 675 
Q 2931 909 2931 1356 
Q 2931 1769 2642 2001 
Q 2353 2234 1838 2234 
L 1294 2234 
L 1294 2753 
L 1863 2753 
Q 2328 2753 2575 2939 
Q 2822 3125 2822 3475 
Q 2822 3834 2567 4026 
Q 2313 4219 1838 4219 
Q 1578 4219 1281 4162 
Q 984 4106 628 3988 
L 628 4550 
Q 988 4650 1302 4700 
Q 1616 4750 1894 4750 
Q 2613 4750 3031 4423 
Q 3450 4097 3450 3541 
Q 3450 3153 3228 2886 
Q 3006 2619 2597 2516 
z
" transform="scale(0.015625)"/>
       </defs>
       <use xlink:href="#DejaVuSans-2212"/>
       <use xlink:href="#DejaVuSans-33" transform="translate(83.789062 0)"/>
      </g>
     </g>
    </g>
    <g id="xtick_2">
     <g id="line2d_2">
      <g>
       <use xlink:href="#m6278877000" x="133.248049" y="307.584" style="stroke: #000000; stroke-width: 0.8"/>
      </g>
     </g>
     <g id="text_2">
      <!-- −2 -->
      <g transform="translate(123.665627 324.461969) scale(0.13 -0.13)">
       <defs>
        <path id="DejaVuSans-32" d="M 1228 531 
L 3431 531 
L 3431 0 
L 469 0 
L 469 531 
Q 828 903 1448 1529 
Q 2069 2156 2228 2338 
Q 2531 2678 2651 2914 
Q 2772 3150 2772 3378 
Q 2772 3750 2511 3984 
Q 2250 4219 1831 4219 
Q 1534 4219 1204 4116 
Q 875 4013 500 3803 
L 500 4441 
Q 881 4594 1212 4672 
Q 1544 4750 1819 4750 
Q 2544 4750 2975 4387 
Q 3406 4025 3406 3419 
Q 3406 3131 3298 2873 
Q 3191 2616 2906 2266 
Q 2828 2175 2409 1742 
Q 1991 1309 1228 531 
z
" transform="scale(0.015625)"/>
       </defs>
       <use xlink:href="#DejaVuSans-2212"/>
       <use xlink:href="#DejaVuSans-32" transform="translate(83.789062 0)"/>
      </g>
     </g>
    </g>
    <g id="xtick_3">
     <g id="line2d_3">
      <g>
       <use xlink:href="#m6278877000" x="184.179087" y="307.584" style="stroke: #000000; stroke-width: 0.8"/>
      </g>
     </g>
     <g id="text_3">
      <!-- −1 -->
      <g transform="translate(174.596665 324.461969) scale(0.13 -0.13)">
       <defs>
        <path id="DejaVuSans-31" d="M 794 531 
L 1825 531 
L 1825 4091 
L 703 3866 
L 703 4441 
L 1819 4666 
L 2450 4666 
L 2450 531 
L 3481 531 
L 3481 0 
L 794 0 
L 794 531 
z
" transform="scale(0.015625)"/>
       </defs>
       <use xlink:href="#DejaVuSans-2212"/>
       <use xlink:href="#DejaVuSans-31" transform="translate(83.789062 0)"/>
      </g>
     </g>
    </g>
    <g id="xtick_4">
     <g id="line2d_4">
      <g>
       <use xlink:href="#m6278877000" x="235.110124" y="307.584" style="stroke: #000000; stroke-width: 0.8"/>
      </g>
     </g>
     <g id="text_4">
      <!-- 0 -->
      <g transform="translate(230.974499 324.461969) scale(0.13 -0.13)">
       <defs>
        <path id="DejaVuSans-30" d="M 2034 4250 
Q 1547 4250 1301 3770 
Q 1056 3291 1056 2328 
Q 1056 1369 1301 889 
Q 1547 409 2034 409 
Q 2525 409 2770 889 
Q 3016 1369 3016 2328 
Q 3016 3291 2770 3770 
Q 2525 4250 2034 4250 
z
M 2034 4750 
Q 2819 4750 3233 4129 
Q 3647 3509 3647 2328 
Q 3647 1150 3233 529 
Q 2819 -91 2034 -91 
Q 1250 -91 836 529 
Q 422 1150 422 2328 
Q 422 3509 836 4129 
Q 1250 4750 2034 4750 
z
" transform="scale(0.015625)"/>
       </defs>
       <use xlink:href="#DejaVuSans-30"/>
      </g>
     </g>
    </g>
    <g id="xtick_5">
     <g id="line2d_5">
      <g>
       <use xlink:href="#m6278877000" x="286.041162" y="307.584" style="stroke: #000000; stroke-width: 0.8"/>
      </g>
     </g>
     <g id="text_5">
      <!-- 1 -->
      <g transform="translate(281.905537 324.461969) scale(0.13 -0.13)">
       <use xlink:href="#DejaVuSans-31"/>
      </g>
     </g>
    </g>
    <g id="xtick_6">
     <g id="line2d_6">
      <g>
       <use xlink:href="#m6278877000" x="336.972199" y="307.584" style="stroke: #000000; stroke-width: 0.8"/>
      </g>
     </g>
     <g id="text_6">
      <!-- 2 -->
      <g transform="translate(332.836574 324.461969) scale(0.13 -0.13)">
       <use xlink:href="#DejaVuSans-32"/>
      </g>
     </g>
    </g>
    <g id="xtick_7">
     <g id="line2d_7">
      <g>
       <use xlink:href="#m6278877000" x="387.903237" y="307.584" style="stroke: #000000; stroke-width: 0.8"/>
      </g>
     </g>
     <g id="text_7">
      <!-- 3 -->
      <g transform="translate(383.767612 324.461969) scale(0.13 -0.13)">
       <use xlink:href="#DejaVuSans-33"/>
      </g>
     </g>
    </g>
    <g id="text_8">
     <!-- Component 1 -->
     <g transform="translate(185.461172 342.563219) scale(0.15 -0.15)">
      <defs>
       <path id="DejaVuSans-43" d="M 4122 4306 
L 4122 3641 
Q 3803 3938 3442 4084 
Q 3081 4231 2675 4231 
Q 1875 4231 1450 3742 
Q 1025 3253 1025 2328 
Q 1025 1406 1450 917 
Q 1875 428 2675 428 
Q 3081 428 3442 575 
Q 3803 722 4122 1019 
L 4122 359 
Q 3791 134 3420 21 
Q 3050 -91 2638 -91 
Q 1578 -91 968 557 
Q 359 1206 359 2328 
Q 359 3453 968 4101 
Q 1578 4750 2638 4750 
Q 3056 4750 3426 4639 
Q 3797 4528 4122 4306 
z
" transform="scale(0.015625)"/>
       <path id="DejaVuSans-6f" d="M 1959 3097 
Q 1497 3097 1228 2736 
Q 959 2375 959 1747 
Q 959 1119 1226 758 
Q 1494 397 1959 397 
Q 2419 397 2687 759 
Q 2956 1122 2956 1747 
Q 2956 2369 2687 2733 
Q 2419 3097 1959 3097 
z
M 1959 3584 
Q 2709 3584 3137 3096 
Q 3566 2609 3566 1747 
Q 3566 888 3137 398 
Q 2709 -91 1959 -91 
Q 1206 -91 779 398 
Q 353 888 353 1747 
Q 353 2609 779 3096 
Q 1206 3584 1959 3584 
z
" transform="scale(0.015625)"/>
       <path id="DejaVuSans-6d" d="M 3328 2828 
Q 3544 3216 3844 3400 
Q 4144 3584 4550 3584 
Q 5097 3584 5394 3201 
Q 5691 2819 5691 2113 
L 5691 0 
L 5113 0 
L 5113 2094 
Q 5113 2597 4934 2840 
Q 4756 3084 4391 3084 
Q 3944 3084 3684 2787 
Q 3425 2491 3425 1978 
L 3425 0 
L 2847 0 
L 2847 2094 
Q 2847 2600 2669 2842 
Q 2491 3084 2119 3084 
Q 1678 3084 1418 2786 
Q 1159 2488 1159 1978 
L 1159 0 
L 581 0 
L 581 3500 
L 1159 3500 
L 1159 2956 
Q 1356 3278 1631 3431 
Q 1906 3584 2284 3584 
Q 2666 3584 2933 3390 
Q 3200 3197 3328 2828 
z
" transform="scale(0.015625)"/>
       <path id="DejaVuSans-70" d="M 1159 525 
L 1159 -1331 
L 581 -1331 
L 581 3500 
L 1159 3500 
L 1159 2969 
Q 1341 3281 1617 3432 
Q 1894 3584 2278 3584 
Q 2916 3584 3314 3078 
Q 3713 2572 3713 1747 
Q 3713 922 3314 415 
Q 2916 -91 2278 -91 
Q 1894 -91 1617 61 
Q 1341 213 1159 525 
z
M 3116 1747 
Q 3116 2381 2855 2742 
Q 2594 3103 2138 3103 
Q 1681 3103 1420 2742 
Q 1159 2381 1159 1747 
Q 1159 1113 1420 752 
Q 1681 391 2138 391 
Q 2594 391 2855 752 
Q 3116 1113 3116 1747 
z
" transform="scale(0.015625)"/>
       <path id="DejaVuSans-6e" d="M 3513 2113 
L 3513 0 
L 2938 0 
L 2938 2094 
Q 2938 2591 2744 2837 
Q 2550 3084 2163 3084 
Q 1697 3084 1428 2787 
Q 1159 2491 1159 1978 
L 1159 0 
L 581 0 
L 581 3500 
L 1159 3500 
L 1159 2956 
Q 1366 3272 1645 3428 
Q 1925 3584 2291 3584 
Q 2894 3584 3203 3211 
Q 3513 2838 3513 2113 
z
" transform="scale(0.015625)"/>
       <path id="DejaVuSans-65" d="M 3597 1894 
L 3597 1613 
L 953 1613 
Q 991 1019 1311 708 
Q 1631 397 2203 397 
Q 2534 397 2845 478 
Q 3156 559 3463 722 
L 3463 178 
Q 3153 47 2828 -22 
Q 2503 -91 2169 -91 
Q 1331 -91 842 396 
Q 353 884 353 1716 
Q 353 2575 817 3079 
Q 1281 3584 2069 3584 
Q 2775 3584 3186 3129 
Q 3597 2675 3597 1894 
z
M 3022 2063 
Q 3016 2534 2758 2815 
Q 2500 3097 2075 3097 
Q 1594 3097 1305 2825 
Q 1016 2553 972 2059 
L 3022 2063 
z
" transform="scale(0.015625)"/>
       <path id="DejaVuSans-74" d="M 1172 4494 
L 1172 3500 
L 2356 3500 
L 2356 3053 
L 1172 3053 
L 1172 1153 
Q 1172 725 1289 603 
Q 1406 481 1766 481 
L 2356 481 
L 2356 0 
L 1766 0 
Q 1100 0 847 248 
Q 594 497 594 1153 
L 594 3053 
L 172 3053 
L 172 3500 
L 594 3500 
L 594 4494 
L 1172 4494 
z
" transform="scale(0.015625)"/>
       <path id="DejaVuSans-20" transform="scale(0.015625)"/>
      </defs>
      <use xlink:href="#DejaVuSans-43"/>
      <use xlink:href="#DejaVuSans-6f" transform="translate(69.824219 0)"/>
      <use xlink:href="#DejaVuSans-6d" transform="translate(131.005859 0)"/>
      <use xlink:href="#DejaVuSans-70" transform="translate(228.417969 0)"/>
      <use xlink:href="#DejaVuSans-6f" transform="translate(291.894531 0)"/>
      <use xlink:href="#DejaVuSans-6e" transform="translate(353.076172 0)"/>
      <use xlink:href="#DejaVuSans-65" transform="translate(416.455078 0)"/>
      <use xlink:href="#DejaVuSans-6e" transform="translate(477.978516 0)"/>
      <use xlink:href="#DejaVuSans-74" transform="translate(541.357422 0)"/>
      <use xlink:href="#DejaVuSans-20" transform="translate(580.566406 0)"/>
      <use xlink:href="#DejaVuSans-31" transform="translate(612.353516 0)"/>
     </g>
    </g>
   </g>
   <g id="matplotlib.axis_2">
    <g id="ytick_1">
     <g id="line2d_8">
      <defs>
       <path id="m4574e73424" d="M 0 0 
L -3.5 0 
" style="stroke: #000000; stroke-width: 0.8"/>
      </defs>
      <g>
       <use xlink:href="#m4574e73424" x="57.6" y="297.586057" style="stroke: #000000; stroke-width: 0.8"/>
      </g>
     </g>
     <g id="text_9">
      <!-- −3 -->
      <g transform="translate(31.435156 302.525042) scale(0.13 -0.13)">
       <use xlink:href="#DejaVuSans-2212"/>
       <use xlink:href="#DejaVuSans-33" transform="translate(83.789062 0)"/>
      </g>
     </g>
    </g>
    <g id="ytick_2">
     <g id="line2d_9">
      <g>
       <use xlink:href="#m4574e73424" x="57.6" y="247.290913" style="stroke: #000000; stroke-width: 0.8"/>
      </g>
     </g>
     <g id="text_10">
      <!-- −2 -->
      <g transform="translate(31.435156 252.229898) scale(0.13 -0.13)">
       <use xlink:href="#DejaVuSans-2212"/>
       <use xlink:href="#DejaVuSans-32" transform="translate(83.789062 0)"/>
      </g>
     </g>
    </g>
    <g id="ytick_3">
     <g id="line2d_10">
      <g>
       <use xlink:href="#m4574e73424" x="57.6" y="196.995769" style="stroke: #000000; stroke-width: 0.8"/>
      </g>
     </g>
     <g id="text_11">
      <!-- −1 -->
      <g transform="translate(31.435156 201.934753) scale(0.13 -0.13)">
       <use xlink:href="#DejaVuSans-2212"/>
       <use xlink:href="#DejaVuSans-31" transform="translate(83.789062 0)"/>
      </g>
     </g>
    </g>
    <g id="ytick_4">
     <g id="line2d_11">
      <g>
       <use xlink:href="#m4574e73424" x="57.6" y="146.700625" style="stroke: #000000; stroke-width: 0.8"/>
      </g>
     </g>
     <g id="text_12">
      <!-- 0 -->
      <g transform="translate(42.32875 151.639609) scale(0.13 -0.13)">
       <use xlink:href="#DejaVuSans-30"/>
      </g>
     </g>
    </g>
    <g id="ytick_5">
     <g id="line2d_12">
      <g>
       <use xlink:href="#m4574e73424" x="57.6" y="96.405481" style="stroke: #000000; stroke-width: 0.8"/>
      </g>
     </g>
     <g id="text_13">
      <!-- 1 -->
      <g transform="translate(42.32875 101.344465) scale(0.13 -0.13)">
       <use xlink:href="#DejaVuSans-31"/>
      </g>
     </g>
    </g>
    <g id="ytick_6">
     <g id="line2d_13">
      <g>
       <use xlink:href="#m4574e73424" x="57.6" y="46.110337" style="stroke: #000000; stroke-width: 0.8"/>
      </g>
     </g>
     <g id="text_14">
      <!-- 2 -->
      <g transform="translate(42.32875 51.049321) scale(0.13 -0.13)">
       <use xlink:href="#DejaVuSans-32"/>
      </g>
     </g>
    </g>
    <g id="text_15">
     <!-- Component 2 -->
     <g transform="translate(24.315625 225.226828) rotate(-90) scale(0.15 -0.15)">
      <use xlink:href="#DejaVuSans-43"/>
      <use xlink:href="#DejaVuSans-6f" transform="translate(69.824219 0)"/>
      <use xlink:href="#DejaVuSans-6d" transform="translate(131.005859 0)"/>
      <use xlink:href="#DejaVuSans-70" transform="translate(228.417969 0)"/>
      <use xlink:href="#DejaVuSans-6f" transform="translate(291.894531 0)"/>
      <use xlink:href="#DejaVuSans-6e" transform="translate(353.076172 0)"/>
      <use xlink:href="#DejaVuSans-65" transform="translate(416.455078 0)"/>
      <use xlink:href="#DejaVuSans-6e" transform="translate(477.978516 0)"/>
      <use xlink:href="#DejaVuSans-74" transform="translate(541.357422 0)"/>
      <use xlink:href="#DejaVuSans-20" transform="translate(580.566406 0)"/>
      <use xlink:href="#DejaVuSans-32" transform="translate(612.353516 0)"/>
     </g>
    </g>
   </g>
   <g id="patch_3">
    <path d="M 57.6 307.584 
L 57.6 41.472 
" style="fill: none; stroke: #000000; stroke-width: 0.8; stroke-linejoin: miter; stroke-linecap: square"/>
   </g>
   <g id="patch_4">
    <path d="M 414.72 307.584 
L 414.72 41.472 
" style="fill: none; stroke: #000000; stroke-width: 0.8; stroke-linejoin: miter; stroke-linecap: square"/>
   </g>
   <g id="patch_5">
    <path d="M 57.6 307.584 
L 414.72 307.584 
" style="fill: none; stroke: #000000; stroke-width: 0.8; stroke-linejoin: miter; stroke-linecap: square"/>
   </g>
   <g id="patch_6">
    <path d="M 57.6 41.472 
L 414.72 41.472 
" style="fill: none; stroke: #000000; stroke-width: 0.8; stroke-linejoin: miter; stroke-linecap: square"/>
   </g>
   <g id="text_16">
    <!-- Layer 9 activations (PCA) -->
    <g transform="translate(128.913906 35.472) scale(0.17 -0.17)">
     <defs>
      <path id="DejaVuSans-4c" d="M 628 4666 
L 1259 4666 
L 1259 531 
L 3531 531 
L 3531 0 
L 628 0 
L 628 4666 
z
" transform="scale(0.015625)"/>
      <path id="DejaVuSans-61" d="M 2194 1759 
Q 1497 1759 1228 1600 
Q 959 1441 959 1056 
Q 959 750 1161 570 
Q 1363 391 1709 391 
Q 2188 391 2477 730 
Q 2766 1069 2766 1631 
L 2766 1759 
L 2194 1759 
z
M 3341 1997 
L 3341 0 
L 2766 0 
L 2766 531 
Q 2569 213 2275 61 
Q 1981 -91 1556 -91 
Q 1019 -91 701 211 
Q 384 513 384 1019 
Q 384 1609 779 1909 
Q 1175 2209 1959 2209 
L 2766 2209 
L 2766 2266 
Q 2766 2663 2505 2880 
Q 2244 3097 1772 3097 
Q 1472 3097 1187 3025 
Q 903 2953 641 2809 
L 641 3341 
Q 956 3463 1253 3523 
Q 1550 3584 1831 3584 
Q 2591 3584 2966 3190 
Q 3341 2797 3341 1997 
z
" transform="scale(0.015625)"/>
      <path id="DejaVuSans-79" d="M 2059 -325 
Q 1816 -950 1584 -1140 
Q 1353 -1331 966 -1331 
L 506 -1331 
L 506 -850 
L 844 -850 
Q 1081 -850 1212 -737 
Q 1344 -625 1503 -206 
L 1606 56 
L 191 3500 
L 800 3500 
L 1894 763 
L 2988 3500 
L 3597 3500 
L 2059 -325 
z
" transform="scale(0.015625)"/>
      <path id="DejaVuSans-72" d="M 2631 2963 
Q 2534 3019 2420 3045 
Q 2306 3072 2169 3072 
Q 1681 3072 1420 2755 
Q 1159 2438 1159 1844 
L 1159 0 
L 581 0 
L 581 3500 
L 1159 3500 
L 1159 2956 
Q 1341 3275 1631 3429 
Q 1922 3584 2338 3584 
Q 2397 3584 2469 3576 
Q 2541 3569 2628 3553 
L 2631 2963 
z
" transform="scale(0.015625)"/>
      <path id="DejaVuSans-39" d="M 703 97 
L 703 672 
Q 941 559 1184 500 
Q 1428 441 1663 441 
Q 2288 441 2617 861 
Q 2947 1281 2994 2138 
Q 2813 1869 2534 1725 
Q 2256 1581 1919 1581 
Q 1219 1581 811 2004 
Q 403 2428 403 3163 
Q 403 3881 828 4315 
Q 1253 4750 1959 4750 
Q 2769 4750 3195 4129 
Q 3622 3509 3622 2328 
Q 3622 1225 3098 567 
Q 2575 -91 1691 -91 
Q 1453 -91 1209 -44 
Q 966 3 703 97 
z
M 1959 2075 
Q 2384 2075 2632 2365 
Q 2881 2656 2881 3163 
Q 2881 3666 2632 3958 
Q 2384 4250 1959 4250 
Q 1534 4250 1286 3958 
Q 1038 3666 1038 3163 
Q 1038 2656 1286 2365 
Q 1534 2075 1959 2075 
z
" transform="scale(0.015625)"/>
      <path id="DejaVuSans-63" d="M 3122 3366 
L 3122 2828 
Q 2878 2963 2633 3030 
Q 2388 3097 2138 3097 
Q 1578 3097 1268 2742 
Q 959 2388 959 1747 
Q 959 1106 1268 751 
Q 1578 397 2138 397 
Q 2388 397 2633 464 
Q 2878 531 3122 666 
L 3122 134 
Q 2881 22 2623 -34 
Q 2366 -91 2075 -91 
Q 1284 -91 818 406 
Q 353 903 353 1747 
Q 353 2603 823 3093 
Q 1294 3584 2113 3584 
Q 2378 3584 2631 3529 
Q 2884 3475 3122 3366 
z
" transform="scale(0.015625)"/>
      <path id="DejaVuSans-69" d="M 603 3500 
L 1178 3500 
L 1178 0 
L 603 0 
L 603 3500 
z
M 603 4863 
L 1178 4863 
L 1178 4134 
L 603 4134 
L 603 4863 
z
" transform="scale(0.015625)"/>
      <path id="DejaVuSans-76" d="M 191 3500 
L 800 3500 
L 1894 563 
L 2988 3500 
L 3597 3500 
L 2284 0 
L 1503 0 
L 191 3500 
z
" transform="scale(0.015625)"/>
      <path id="DejaVuSans-73" d="M 2834 3397 
L 2834 2853 
Q 2591 2978 2328 3040 
Q 2066 3103 1784 3103 
Q 1356 3103 1142 2972 
Q 928 2841 928 2578 
Q 928 2378 1081 2264 
Q 1234 2150 1697 2047 
L 1894 2003 
Q 2506 1872 2764 1633 
Q 3022 1394 3022 966 
Q 3022 478 2636 193 
Q 2250 -91 1575 -91 
Q 1294 -91 989 -36 
Q 684 19 347 128 
L 347 722 
Q 666 556 975 473 
Q 1284 391 1588 391 
Q 1994 391 2212 530 
Q 2431 669 2431 922 
Q 2431 1156 2273 1281 
Q 2116 1406 1581 1522 
L 1381 1569 
Q 847 1681 609 1914 
Q 372 2147 372 2553 
Q 372 3047 722 3315 
Q 1072 3584 1716 3584 
Q 2034 3584 2315 3537 
Q 2597 3491 2834 3397 
z
" transform="scale(0.015625)"/>
      <path id="DejaVuSans-28" d="M 1984 4856 
Q 1566 4138 1362 3434 
Q 1159 2731 1159 2009 
Q 1159 1288 1364 580 
Q 1569 -128 1984 -844 
L 1484 -844 
Q 1016 -109 783 600 
Q 550 1309 550 2009 
Q 550 2706 781 3412 
Q 1013 4119 1484 4856 
L 1984 4856 
z
" transform="scale(0.015625)"/>
      <path id="DejaVuSans-50" d="M 1259 4147 
L 1259 2394 
L 2053 2394 
Q 2494 2394 2734 2622 
Q 2975 2850 2975 3272 
Q 2975 3691 2734 3919 
Q 2494 4147 2053 4147 
L 1259 4147 
z
M 628 4666 
L 2053 4666 
Q 2838 4666 3239 4311 
Q 3641 3956 3641 3272 
Q 3641 2581 3239 2228 
Q 2838 1875 2053 1875 
L 1259 1875 
L 1259 0 
L 628 0 
L 628 4666 
z
" transform="scale(0.015625)"/>
      <path id="DejaVuSans-41" d="M 2188 4044 
L 1331 1722 
L 3047 1722 
L 2188 4044 
z
M 1831 4666 
L 2547 4666 
L 4325 0 
L 3669 0 
L 3244 1197 
L 1141 1197 
L 716 0 
L 50 0 
L 1831 4666 
z
" transform="scale(0.015625)"/>
      <path id="DejaVuSans-29" d="M 513 4856 
L 1013 4856 
Q 1481 4119 1714 3412 
Q 1947 2706 1947 2009 
Q 1947 1309 1714 600 
Q 1481 -109 1013 -844 
L 513 -844 
Q 928 -128 1133 580 
Q 1338 1288 1338 2009 
Q 1338 2731 1133 3434 
Q 928 4138 513 4856 
z
" transform="scale(0.015625)"/>
     </defs>
     <use xlink:href="#DejaVuSans-4c"/>
     <use xlink:href="#DejaVuSans-61" transform="translate(55.712891 0)"/>
     <use xlink:href="#DejaVuSans-79" transform="translate(116.992188 0)"/>
     <use xlink:href="#DejaVuSans-65" transform="translate(176.171875 0)"/>
     <use xlink:href="#DejaVuSans-72" transform="translate(237.695312 0)"/>
     <use xlink:href="#DejaVuSans-20" transform="translate(278.808594 0)"/>
     <use xlink:href="#DejaVuSans-39" transform="translate(310.595703 0)"/>
     <use xlink:href="#DejaVuSans-20" transform="translate(374.21875 0)"/>
     <use xlink:href="#DejaVuSans-61" transform="translate(406.005859 0)"/>
     <use xlink:href="#DejaVuSans-63" transform="translate(467.285156 0)"/>
     <use xlink:href="#DejaVuSans-74" transform="translate(522.265625 0)"/>
     <use xlink:href="#DejaVuSans-69" transform="translate(561.474609 0)"/>
     <use xlink:href="#DejaVuSans-76" transform="translate(589.257812 0)"/>
     <use xlink:href="#DejaVuSans-61" transform="translate(648.4375 0)"/>
     <use xlink:href="#DejaVuSans-74" transform="translate(709.716797 0)"/>
     <use xlink:href="#DejaVuSans-69" transform="translate(748.925781 0)"/>
     <use xlink:href="#DejaVuSans-6f" transform="translate(776.708984 0)"/>
     <use xlink:href="#DejaVuSans-6e" transform="translate(837.890625 0)"/>
     <use xlink:href="#DejaVuSans-73" transform="translate(901.269531 0)"/>
     <use xlink:href="#DejaVuSans-20" transform="translate(953.369141 0)"/>
     <use xlink:href="#DejaVuSans-28" transform="translate(985.15625 0)"/>
     <use xlink:href="#DejaVuSans-50" transform="translate(1024.169922 0)"/>
     <use xlink:href="#DejaVuSans-43" transform="translate(1084.472656 0)"/>
     <use xlink:href="#DejaVuSans-41" transform="translate(1154.296875 0)"/>
     <use xlink:href="#DejaVuSans-29" transform="translate(1222.705078 0)"/>
    </g>
   </g>
  </g>
 </g>
 <defs>
  <clipPath id="p806bf43393">
   <rect x="57.6" y="41.472" width="357.12" height="266.112"/>
  </clipPath>
 </defs>
</svg>
