<?xml version="1.0" encoding="utf-8" standalone="no"?>
<!DOCTYPE svg PUBLIC "-//W3C//DTD SVG 1.1//EN"
  "http://www.w3.org/Graphics/SVG/1.1/DTD/svg11.dtd">
<svg xmlns:xlink="http://www.w3.org/1999/xlink" width="460.8pt" height="345.6pt" viewBox="0 0 460.8 345.6" xmlns="http://www.w3.org/2000/svg" version="1.1">
 <metadata>
  <rdf:RDF xmlns:dc="http://purl.org/dc/elements/1.1/" xmlns:cc="http://creativecommons.org/ns#" xmlns:rdf="http://www.w3.org/1999/02/22-rdf-syntax-ns#">
   <cc:Work>
    <dc:type rdf:resource="http://purl.org/dc/dcmitype/StillImage"/>
    <dc:date>2025-05-03T14:22:32.964452</dc:date>
    <dc:format>image/svg+xml</dc:format>
    <dc:creator>
     <cc:Agent>
      <dc:title>Matplotlib v3.10.0, https://matplotlib.org/</dc:title>
     </cc:Agent>
    </dc:creator>
   </cc:Work>
  </rdf:RDF>
 </metadata>
 <defs>
  <style type="text/css">*{stroke-linejoin: round; stroke-linecap: butt}</style>
 </defs>
 <g id="figure_1">
  <g id="patch_1">
   <path d="M 0 345.6 
L 460.8 345.6 
L 460.8 0 
L 0 0 
L 0 345.6 
z
" style="fill: none; opacity: 0"/>
  </g>
  <g id="axes_1">
   <g id="patch_2">
    <path d="M 57.6 307.584 
L 414.72 307.584 
L 414.72 41.472 
L 57.6 41.472 
L 57.6 307.584 
z
" style="fill: none"/>
   </g>
   <g id="PathCollection_1">
    <defs>
     <path id="me863fc0600" d="M 0 3 
C 0.795609 3 1.55874 2.683901 2.12132 2.12132 
C 2.683901 1.55874 3 0.795609 3 0 
C 3 -0.795609 2.683901 -1.55874 2.12132 -2.12132 
C 1.55874 -2.683901 0.795609 -3 0 -3 
C -0.795609 -3 -1.55874 -2.683901 -2.12132 -2.12132 
C -2.683901 -1.55874 -3 -0.795609 -3 0 
C -3 0.795609 -2.683901 1.55874 -2.12132 2.12132 
C -1.55874 2.683901 -0.795609 3 0 3 
z
" style="stroke: #a459d1"/>
    </defs>
    <g clip-path="url(#p343def126d)">
     <use xlink:href="#me863fc0600" x="353.74621" y="237.108573" style="fill: #a459d1; stroke: #a459d1"/>
     <use xlink:href="#me863fc0600" x="360.801189" y="148.769056" style="fill: #a459d1; stroke: #a459d1"/>
     <use xlink:href="#me863fc0600" x="354.846363" y="234.217571" style="fill: #a459d1; stroke: #a459d1"/>
     <use xlink:href="#me863fc0600" x="387.093477" y="131.857779" style="fill: #a459d1; stroke: #a459d1"/>
     <use xlink:href="#me863fc0600" x="339.620449" y="248.362539" style="fill: #a459d1; stroke: #a459d1"/>
     <use xlink:href="#me863fc0600" x="287.69583" y="200.579202" style="fill: #a459d1; stroke: #a459d1"/>
     <use xlink:href="#me863fc0600" x="326.070393" y="285.179303" style="fill: #a459d1; stroke: #a459d1"/>
     <use xlink:href="#me863fc0600" x="350.162515" y="164.738639" style="fill: #a459d1; stroke: #a459d1"/>
     <use xlink:href="#me863fc0600" x="353.406173" y="206.029171" style="fill: #a459d1; stroke: #a459d1"/>
     <use xlink:href="#me863fc0600" x="348.675279" y="120.539229" style="fill: #a459d1; stroke: #a459d1"/>
     <use xlink:href="#me863fc0600" x="371.084855" y="147.638783" style="fill: #a459d1; stroke: #a459d1"/>
     <use xlink:href="#me863fc0600" x="337.389482" y="250.012868" style="fill: #a459d1; stroke: #a459d1"/>
     <use xlink:href="#me863fc0600" x="288.442007" y="154.614778" style="fill: #a459d1; stroke: #a459d1"/>
     <use xlink:href="#me863fc0600" x="357.680356" y="192.612402" style="fill: #a459d1; stroke: #a459d1"/>
     <use xlink:href="#me863fc0600" x="321.996379" y="261.487019" style="fill: #a459d1; stroke: #a459d1"/>
     <use xlink:href="#me863fc0600" x="367.158026" y="187.12942" style="fill: #a459d1; stroke: #a459d1"/>
     <use xlink:href="#me863fc0600" x="352.64801" y="211.964739" style="fill: #a459d1; stroke: #a459d1"/>
     <use xlink:href="#me863fc0600" x="328.764463" y="284.082198" style="fill: #a459d1; stroke: #a459d1"/>
     <use xlink:href="#me863fc0600" x="338.186219" y="230.049319" style="fill: #a459d1; stroke: #a459d1"/>
     <use xlink:href="#me863fc0600" x="324.696661" y="263.167972" style="fill: #a459d1; stroke: #a459d1"/>
     <use xlink:href="#me863fc0600" x="338.609856" y="149.970112" style="fill: #a459d1; stroke: #a459d1"/>
     <use xlink:href="#me863fc0600" x="302.184696" y="121.726121" style="fill: #a459d1; stroke: #a459d1"/>
     <use xlink:href="#me863fc0600" x="356.324508" y="66.533912" style="fill: #a459d1; stroke: #a459d1"/>
     <use xlink:href="#me863fc0600" x="346.082255" y="246.737975" style="fill: #a459d1; stroke: #a459d1"/>
     <use xlink:href="#me863fc0600" x="364.715718" y="160.585773" style="fill: #a459d1; stroke: #a459d1"/>
     <use xlink:href="#me863fc0600" x="321.938513" y="181.335123" style="fill: #a459d1; stroke: #a459d1"/>
     <use xlink:href="#me863fc0600" x="295.495903" y="90.49195" style="fill: #a459d1; stroke: #a459d1"/>
     <use xlink:href="#me863fc0600" x="186.334729" y="97.813731" style="fill: #a459d1; stroke: #a459d1"/>
     <use xlink:href="#me863fc0600" x="360.528323" y="176.866495" style="fill: #a459d1; stroke: #a459d1"/>
     <use xlink:href="#me863fc0600" x="341.911639" y="148.88418" style="fill: #a459d1; stroke: #a459d1"/>
     <use xlink:href="#me863fc0600" x="316.390949" y="242.777365" style="fill: #a459d1; stroke: #a459d1"/>
     <use xlink:href="#me863fc0600" x="321.368807" y="280.384071" style="fill: #a459d1; stroke: #a459d1"/>
     <use xlink:href="#me863fc0600" x="335.20462" y="93.880828" style="fill: #a459d1; stroke: #a459d1"/>
     <use xlink:href="#me863fc0600" x="375.073826" y="144.326094" style="fill: #a459d1; stroke: #a459d1"/>
     <use xlink:href="#me863fc0600" x="324.74923" y="262.321122" style="fill: #a459d1; stroke: #a459d1"/>
     <use xlink:href="#me863fc0600" x="334.249357" y="262.042817" style="fill: #a459d1; stroke: #a459d1"/>
     <use xlink:href="#me863fc0600" x="372.751279" y="163.604964" style="fill: #a459d1; stroke: #a459d1"/>
     <use xlink:href="#me863fc0600" x="376.902143" y="165.063943" style="fill: #a459d1; stroke: #a459d1"/>
     <use xlink:href="#me863fc0600" x="324.383913" y="253.092793" style="fill: #a459d1; stroke: #a459d1"/>
     <use xlink:href="#me863fc0600" x="338.306194" y="231.871099" style="fill: #a459d1; stroke: #a459d1"/>
     <use xlink:href="#me863fc0600" x="216.046536" y="84.689825" style="fill: #a459d1; stroke: #a459d1"/>
     <use xlink:href="#me863fc0600" x="297.266477" y="162.407382" style="fill: #a459d1; stroke: #a459d1"/>
     <use xlink:href="#me863fc0600" x="382.725233" y="134.45602" style="fill: #a459d1; stroke: #a459d1"/>
     <use xlink:href="#me863fc0600" x="323.19062" y="239.055552" style="fill: #a459d1; stroke: #a459d1"/>
     <use xlink:href="#me863fc0600" x="368.159203" y="118.145688" style="fill: #a459d1; stroke: #a459d1"/>
     <use xlink:href="#me863fc0600" x="273.932148" y="124.156163" style="fill: #a459d1; stroke: #a459d1"/>
     <use xlink:href="#me863fc0600" x="361.732625" y="159.278449" style="fill: #a459d1; stroke: #a459d1"/>
     <use xlink:href="#me863fc0600" x="367.497154" y="161.64666" style="fill: #a459d1; stroke: #a459d1"/>
     <use xlink:href="#me863fc0600" x="343.586087" y="154.302289" style="fill: #a459d1; stroke: #a459d1"/>
     <use xlink:href="#me863fc0600" x="385.404012" y="162.978319" style="fill: #a459d1; stroke: #a459d1"/>
     <use xlink:href="#me863fc0600" x="361.728248" y="158.680899" style="fill: #a459d1; stroke: #a459d1"/>
     <use xlink:href="#me863fc0600" x="244.871747" y="135.495199" style="fill: #a459d1; stroke: #a459d1"/>
     <use xlink:href="#me863fc0600" x="339.368166" y="236.005139" style="fill: #a459d1; stroke: #a459d1"/>
     <use xlink:href="#me863fc0600" x="314.739956" y="230.708987" style="fill: #a459d1; stroke: #a459d1"/>
     <use xlink:href="#me863fc0600" x="346.433425" y="203.05557" style="fill: #a459d1; stroke: #a459d1"/>
     <use xlink:href="#me863fc0600" x="355.206387" y="191.669355" style="fill: #a459d1; stroke: #a459d1"/>
     <use xlink:href="#me863fc0600" x="342.196941" y="237.140273" style="fill: #a459d1; stroke: #a459d1"/>
     <use xlink:href="#me863fc0600" x="353.924298" y="250.093279" style="fill: #a459d1; stroke: #a459d1"/>
     <use xlink:href="#me863fc0600" x="357.995927" y="107.999768" style="fill: #a459d1; stroke: #a459d1"/>
     <use xlink:href="#me863fc0600" x="333.311512" y="203.116163" style="fill: #a459d1; stroke: #a459d1"/>
     <use xlink:href="#me863fc0600" x="351.301713" y="225.08021" style="fill: #a459d1; stroke: #a459d1"/>
     <use xlink:href="#me863fc0600" x="370.57783" y="185.218948" style="fill: #a459d1; stroke: #a459d1"/>
     <use xlink:href="#me863fc0600" x="335.938642" y="185.6925" style="fill: #a459d1; stroke: #a459d1"/>
     <use xlink:href="#me863fc0600" x="255.104773" y="91.719358" style="fill: #a459d1; stroke: #a459d1"/>
     <use xlink:href="#me863fc0600" x="363.655182" y="252.278646" style="fill: #a459d1; stroke: #a459d1"/>
     <use xlink:href="#me863fc0600" x="364.225999" y="189.460202" style="fill: #a459d1; stroke: #a459d1"/>
     <use xlink:href="#me863fc0600" x="353.89147" y="126.089257" style="fill: #a459d1; stroke: #a459d1"/>
     <use xlink:href="#me863fc0600" x="327.823543" y="265.274299" style="fill: #a459d1; stroke: #a459d1"/>
     <use xlink:href="#me863fc0600" x="398.487273" y="76.441103" style="fill: #a459d1; stroke: #a459d1"/>
     <use xlink:href="#me863fc0600" x="347.177111" y="216.8448" style="fill: #a459d1; stroke: #a459d1"/>
     <use xlink:href="#me863fc0600" x="366.313827" y="154.894476" style="fill: #a459d1; stroke: #a459d1"/>
     <use xlink:href="#me863fc0600" x="323.993333" y="218.376544" style="fill: #a459d1; stroke: #a459d1"/>
     <use xlink:href="#me863fc0600" x="336.909774" y="262.415818" style="fill: #a459d1; stroke: #a459d1"/>
     <use xlink:href="#me863fc0600" x="298.220281" y="70.653883" style="fill: #a459d1; stroke: #a459d1"/>
     <use xlink:href="#me863fc0600" x="343.369628" y="252.415048" style="fill: #a459d1; stroke: #a459d1"/>
     <use xlink:href="#me863fc0600" x="365.40817" y="192.404575" style="fill: #a459d1; stroke: #a459d1"/>
     <use xlink:href="#me863fc0600" x="314.127603" y="138.315072" style="fill: #a459d1; stroke: #a459d1"/>
     <use xlink:href="#me863fc0600" x="321.179014" y="269.938995" style="fill: #a459d1; stroke: #a459d1"/>
     <use xlink:href="#me863fc0600" x="385.366594" y="152.55309" style="fill: #a459d1; stroke: #a459d1"/>
     <use xlink:href="#me863fc0600" x="350.135916" y="217.687207" style="fill: #a459d1; stroke: #a459d1"/>
     <use xlink:href="#me863fc0600" x="314.445446" y="252.610471" style="fill: #a459d1; stroke: #a459d1"/>
     <use xlink:href="#me863fc0600" x="348.448146" y="203.215752" style="fill: #a459d1; stroke: #a459d1"/>
     <use xlink:href="#me863fc0600" x="350.514572" y="207.270781" style="fill: #a459d1; stroke: #a459d1"/>
     <use xlink:href="#me863fc0600" x="356.537017" y="193.443671" style="fill: #a459d1; stroke: #a459d1"/>
     <use xlink:href="#me863fc0600" x="368.710603" y="164.575673" style="fill: #a459d1; stroke: #a459d1"/>
     <use xlink:href="#me863fc0600" x="350.868693" y="215.203617" style="fill: #a459d1; stroke: #a459d1"/>
     <use xlink:href="#me863fc0600" x="348.692046" y="208.674857" style="fill: #a459d1; stroke: #a459d1"/>
     <use xlink:href="#me863fc0600" x="318.168077" y="292.565874" style="fill: #a459d1; stroke: #a459d1"/>
     <use xlink:href="#me863fc0600" x="346.569067" y="128.989792" style="fill: #a459d1; stroke: #a459d1"/>
     <use xlink:href="#me863fc0600" x="377.811436" y="154.148983" style="fill: #a459d1; stroke: #a459d1"/>
     <use xlink:href="#me863fc0600" x="363.732992" y="168.638306" style="fill: #a459d1; stroke: #a459d1"/>
     <use xlink:href="#me863fc0600" x="332.850199" y="147.828419" style="fill: #a459d1; stroke: #a459d1"/>
     <use xlink:href="#me863fc0600" x="355.189519" y="98.507895" style="fill: #a459d1; stroke: #a459d1"/>
     <use xlink:href="#me863fc0600" x="317.091448" y="203.362371" style="fill: #a459d1; stroke: #a459d1"/>
     <use xlink:href="#me863fc0600" x="379.793868" y="145.107664" style="fill: #a459d1; stroke: #a459d1"/>
     <use xlink:href="#me863fc0600" x="297.086313" y="245.69948" style="fill: #a459d1; stroke: #a459d1"/>
     <use xlink:href="#me863fc0600" x="345.2458" y="223.756195" style="fill: #a459d1; stroke: #a459d1"/>
     <use xlink:href="#me863fc0600" x="322.976063" y="133.540036" style="fill: #a459d1; stroke: #a459d1"/>
     <use xlink:href="#me863fc0600" x="341.868385" y="54.536506" style="fill: #a459d1; stroke: #a459d1"/>
     <use xlink:href="#me863fc0600" x="365.484487" y="219.288963" style="fill: #a459d1; stroke: #a459d1"/>
     <use xlink:href="#me863fc0600" x="364.253069" y="226.923222" style="fill: #a459d1; stroke: #a459d1"/>
     <use xlink:href="#me863fc0600" x="325.960233" y="237.995625" style="fill: #a459d1; stroke: #a459d1"/>
     <use xlink:href="#me863fc0600" x="349.154066" y="221.514835" style="fill: #a459d1; stroke: #a459d1"/>
     <use xlink:href="#me863fc0600" x="365.35064" y="218.432201" style="fill: #a459d1; stroke: #a459d1"/>
     <use xlink:href="#me863fc0600" x="362.676935" y="226.678216" style="fill: #a459d1; stroke: #a459d1"/>
     <use xlink:href="#me863fc0600" x="351.215306" y="203.36609" style="fill: #a459d1; stroke: #a459d1"/>
     <use xlink:href="#me863fc0600" x="343.978704" y="229.3827" style="fill: #a459d1; stroke: #a459d1"/>
     <use xlink:href="#me863fc0600" x="376.789407" y="118.458239" style="fill: #a459d1; stroke: #a459d1"/>
     <use xlink:href="#me863fc0600" x="355.525269" y="175.599322" style="fill: #a459d1; stroke: #a459d1"/>
     <use xlink:href="#me863fc0600" x="370.646482" y="188.016593" style="fill: #a459d1; stroke: #a459d1"/>
     <use xlink:href="#me863fc0600" x="302.876206" y="272.310427" style="fill: #a459d1; stroke: #a459d1"/>
     <use xlink:href="#me863fc0600" x="322.861251" y="98.048115" style="fill: #a459d1; stroke: #a459d1"/>
     <use xlink:href="#me863fc0600" x="324.098404" y="294.663596" style="fill: #a459d1; stroke: #a459d1"/>
     <use xlink:href="#me863fc0600" x="340.487936" y="231.63577" style="fill: #a459d1; stroke: #a459d1"/>
     <use xlink:href="#me863fc0600" x="342.455228" y="219.060024" style="fill: #a459d1; stroke: #a459d1"/>
     <use xlink:href="#me863fc0600" x="319.493712" y="276.384722" style="fill: #a459d1; stroke: #a459d1"/>
     <use xlink:href="#me863fc0600" x="319.833081" y="277.300017" style="fill: #a459d1; stroke: #a459d1"/>
     <use xlink:href="#me863fc0600" x="358.773741" y="191.931403" style="fill: #a459d1; stroke: #a459d1"/>
     <use xlink:href="#me863fc0600" x="353.965116" y="198.384397" style="fill: #a459d1; stroke: #a459d1"/>
     <use xlink:href="#me863fc0600" x="357.329849" y="196.639756" style="fill: #a459d1; stroke: #a459d1"/>
    </g>
   </g>
   <g id="PathCollection_2">
    <defs>
     <path id="m4360eaa6d6" d="M 0 3 
C 0.795609 3 1.55874 2.683901 2.12132 2.12132 
C 2.683901 1.55874 3 0.795609 3 0 
C 3 -0.795609 2.683901 -1.55874 2.12132 -2.12132 
C 1.55874 -2.683901 0.795609 -3 0 -3 
C -0.795609 -3 -1.55874 -2.683901 -2.12132 -2.12132 
C -2.683901 -1.55874 -3 -0.795609 -3 0 
C -3 0.795609 -2.683901 1.55874 -2.12132 2.12132 
C -1.55874 2.683901 -0.795609 3 0 3 
z
" style="stroke: #ffb84c"/>
    </defs>
    <g clip-path="url(#p343def126d)">
     <use xlink:href="#m4360eaa6d6" x="140.283058" y="207.179759" style="fill: #ffb84c; stroke: #ffb84c"/>
     <use xlink:href="#m4360eaa6d6" x="103.163437" y="207.133534" style="fill: #ffb84c; stroke: #ffb84c"/>
     <use xlink:href="#m4360eaa6d6" x="105.03503" y="182.297763" style="fill: #ffb84c; stroke: #ffb84c"/>
     <use xlink:href="#m4360eaa6d6" x="197.909177" y="142.229181" style="fill: #ffb84c; stroke: #ffb84c"/>
     <use xlink:href="#m4360eaa6d6" x="106.306267" y="201.740871" style="fill: #ffb84c; stroke: #ffb84c"/>
     <use xlink:href="#m4360eaa6d6" x="114.891602" y="226.863299" style="fill: #ffb84c; stroke: #ffb84c"/>
     <use xlink:href="#m4360eaa6d6" x="125.956517" y="278.849414" style="fill: #ffb84c; stroke: #ffb84c"/>
     <use xlink:href="#m4360eaa6d6" x="93.638248" y="176.613008" style="fill: #ffb84c; stroke: #ffb84c"/>
     <use xlink:href="#m4360eaa6d6" x="108.301145" y="120.398088" style="fill: #ffb84c; stroke: #ffb84c"/>
     <use xlink:href="#m4360eaa6d6" x="154.631165" y="102.372415" style="fill: #ffb84c; stroke: #ffb84c"/>
     <use xlink:href="#m4360eaa6d6" x="177.784174" y="183.808719" style="fill: #ffb84c; stroke: #ffb84c"/>
     <use xlink:href="#m4360eaa6d6" x="77.463503" y="274.710649" style="fill: #ffb84c; stroke: #ffb84c"/>
     <use xlink:href="#m4360eaa6d6" x="99.632479" y="114.814252" style="fill: #ffb84c; stroke: #ffb84c"/>
     <use xlink:href="#m4360eaa6d6" x="129.437184" y="182.611791" style="fill: #ffb84c; stroke: #ffb84c"/>
     <use xlink:href="#m4360eaa6d6" x="117.997328" y="256.777951" style="fill: #ffb84c; stroke: #ffb84c"/>
     <use xlink:href="#m4360eaa6d6" x="140.250467" y="167.949994" style="fill: #ffb84c; stroke: #ffb84c"/>
     <use xlink:href="#m4360eaa6d6" x="108.596009" y="257.501868" style="fill: #ffb84c; stroke: #ffb84c"/>
     <use xlink:href="#m4360eaa6d6" x="109.263625" y="276.643606" style="fill: #ffb84c; stroke: #ffb84c"/>
     <use xlink:href="#m4360eaa6d6" x="121.535278" y="188.921125" style="fill: #ffb84c; stroke: #ffb84c"/>
     <use xlink:href="#m4360eaa6d6" x="126.088826" y="249.712766" style="fill: #ffb84c; stroke: #ffb84c"/>
     <use xlink:href="#m4360eaa6d6" x="106.183554" y="102.094673" style="fill: #ffb84c; stroke: #ffb84c"/>
     <use xlink:href="#m4360eaa6d6" x="150.81724" y="120.428153" style="fill: #ffb84c; stroke: #ffb84c"/>
     <use xlink:href="#m4360eaa6d6" x="165.68819" y="111.235551" style="fill: #ffb84c; stroke: #ffb84c"/>
     <use xlink:href="#m4360eaa6d6" x="200.731687" y="120.127943" style="fill: #ffb84c; stroke: #ffb84c"/>
     <use xlink:href="#m4360eaa6d6" x="170.923102" y="130.109315" style="fill: #ffb84c; stroke: #ffb84c"/>
     <use xlink:href="#m4360eaa6d6" x="107.81696" y="98.283341" style="fill: #ffb84c; stroke: #ffb84c"/>
     <use xlink:href="#m4360eaa6d6" x="158.780379" y="115.329778" style="fill: #ffb84c; stroke: #ffb84c"/>
     <use xlink:href="#m4360eaa6d6" x="152.603947" y="116.616873" style="fill: #ffb84c; stroke: #ffb84c"/>
     <use xlink:href="#m4360eaa6d6" x="347.465791" y="129.615847" style="fill: #ffb84c; stroke: #ffb84c"/>
     <use xlink:href="#m4360eaa6d6" x="115.42059" y="163.566095" style="fill: #ffb84c; stroke: #ffb84c"/>
     <use xlink:href="#m4360eaa6d6" x="136.385275" y="202.212364" style="fill: #ffb84c; stroke: #ffb84c"/>
     <use xlink:href="#m4360eaa6d6" x="108.338383" y="250.962466" style="fill: #ffb84c; stroke: #ffb84c"/>
     <use xlink:href="#m4360eaa6d6" x="154.537879" y="188.518485" style="fill: #ffb84c; stroke: #ffb84c"/>
     <use xlink:href="#m4360eaa6d6" x="136.041748" y="169.478276" style="fill: #ffb84c; stroke: #ffb84c"/>
     <use xlink:href="#m4360eaa6d6" x="253.191327" y="240.601088" style="fill: #ffb84c; stroke: #ffb84c"/>
     <use xlink:href="#m4360eaa6d6" x="174.153247" y="205.158304" style="fill: #ffb84c; stroke: #ffb84c"/>
     <use xlink:href="#m4360eaa6d6" x="112.309072" y="170.152525" style="fill: #ffb84c; stroke: #ffb84c"/>
     <use xlink:href="#m4360eaa6d6" x="113.439841" y="167.951486" style="fill: #ffb84c; stroke: #ffb84c"/>
     <use xlink:href="#m4360eaa6d6" x="103.511947" y="295.488" style="fill: #ffb84c; stroke: #ffb84c"/>
     <use xlink:href="#m4360eaa6d6" x="96.507673" y="198.725591" style="fill: #ffb84c; stroke: #ffb84c"/>
     <use xlink:href="#m4360eaa6d6" x="164.341029" y="116.181241" style="fill: #ffb84c; stroke: #ffb84c"/>
     <use xlink:href="#m4360eaa6d6" x="99.161548" y="122.922501" style="fill: #ffb84c; stroke: #ffb84c"/>
     <use xlink:href="#m4360eaa6d6" x="115.937727" y="169.976056" style="fill: #ffb84c; stroke: #ffb84c"/>
     <use xlink:href="#m4360eaa6d6" x="95.292125" y="191.382435" style="fill: #ffb84c; stroke: #ffb84c"/>
     <use xlink:href="#m4360eaa6d6" x="90.409068" y="171.439069" style="fill: #ffb84c; stroke: #ffb84c"/>
     <use xlink:href="#m4360eaa6d6" x="107.56003" y="116.866526" style="fill: #ffb84c; stroke: #ffb84c"/>
     <use xlink:href="#m4360eaa6d6" x="181.868665" y="138.263536" style="fill: #ffb84c; stroke: #ffb84c"/>
     <use xlink:href="#m4360eaa6d6" x="189.177342" y="145.078388" style="fill: #ffb84c; stroke: #ffb84c"/>
     <use xlink:href="#m4360eaa6d6" x="138.520453" y="120.895395" style="fill: #ffb84c; stroke: #ffb84c"/>
     <use xlink:href="#m4360eaa6d6" x="117.722408" y="113.578688" style="fill: #ffb84c; stroke: #ffb84c"/>
     <use xlink:href="#m4360eaa6d6" x="118.072714" y="122.508795" style="fill: #ffb84c; stroke: #ffb84c"/>
     <use xlink:href="#m4360eaa6d6" x="81.907244" y="155.732896" style="fill: #ffb84c; stroke: #ffb84c"/>
     <use xlink:href="#m4360eaa6d6" x="112.716638" y="250.809781" style="fill: #ffb84c; stroke: #ffb84c"/>
     <use xlink:href="#m4360eaa6d6" x="90.458988" y="235.888494" style="fill: #ffb84c; stroke: #ffb84c"/>
     <use xlink:href="#m4360eaa6d6" x="155.182835" y="253.788871" style="fill: #ffb84c; stroke: #ffb84c"/>
     <use xlink:href="#m4360eaa6d6" x="196.565007" y="131.799368" style="fill: #ffb84c; stroke: #ffb84c"/>
     <use xlink:href="#m4360eaa6d6" x="125.737588" y="195.247334" style="fill: #ffb84c; stroke: #ffb84c"/>
     <use xlink:href="#m4360eaa6d6" x="107.574317" y="229.153803" style="fill: #ffb84c; stroke: #ffb84c"/>
     <use xlink:href="#m4360eaa6d6" x="103.809324" y="126.524046" style="fill: #ffb84c; stroke: #ffb84c"/>
     <use xlink:href="#m4360eaa6d6" x="119.343233" y="205.730239" style="fill: #ffb84c; stroke: #ffb84c"/>
     <use xlink:href="#m4360eaa6d6" x="142.694245" y="242.400468" style="fill: #ffb84c; stroke: #ffb84c"/>
     <use xlink:href="#m4360eaa6d6" x="95.965071" y="150.32283" style="fill: #ffb84c; stroke: #ffb84c"/>
     <use xlink:href="#m4360eaa6d6" x="114.491106" y="161.288287" style="fill: #ffb84c; stroke: #ffb84c"/>
     <use xlink:href="#m4360eaa6d6" x="116.555714" y="114.700238" style="fill: #ffb84c; stroke: #ffb84c"/>
     <use xlink:href="#m4360eaa6d6" x="169.690814" y="218.163364" style="fill: #ffb84c; stroke: #ffb84c"/>
     <use xlink:href="#m4360eaa6d6" x="109.379469" y="158.671986" style="fill: #ffb84c; stroke: #ffb84c"/>
     <use xlink:href="#m4360eaa6d6" x="120.035281" y="113.590911" style="fill: #ffb84c; stroke: #ffb84c"/>
     <use xlink:href="#m4360eaa6d6" x="115.044179" y="262.08966" style="fill: #ffb84c; stroke: #ffb84c"/>
     <use xlink:href="#m4360eaa6d6" x="105.317402" y="118.604887" style="fill: #ffb84c; stroke: #ffb84c"/>
     <use xlink:href="#m4360eaa6d6" x="102.593832" y="232.838574" style="fill: #ffb84c; stroke: #ffb84c"/>
     <use xlink:href="#m4360eaa6d6" x="149.452683" y="154.774525" style="fill: #ffb84c; stroke: #ffb84c"/>
     <use xlink:href="#m4360eaa6d6" x="78.323639" y="156.118009" style="fill: #ffb84c; stroke: #ffb84c"/>
     <use xlink:href="#m4360eaa6d6" x="103.35084" y="259.16394" style="fill: #ffb84c; stroke: #ffb84c"/>
     <use xlink:href="#m4360eaa6d6" x="196.421885" y="98.236224" style="fill: #ffb84c; stroke: #ffb84c"/>
     <use xlink:href="#m4360eaa6d6" x="80.136502" y="242.729627" style="fill: #ffb84c; stroke: #ffb84c"/>
     <use xlink:href="#m4360eaa6d6" x="241.98879" y="139.216716" style="fill: #ffb84c; stroke: #ffb84c"/>
     <use xlink:href="#m4360eaa6d6" x="117.382876" y="135.565342" style="fill: #ffb84c; stroke: #ffb84c"/>
     <use xlink:href="#m4360eaa6d6" x="94.088305" y="253.547869" style="fill: #ffb84c; stroke: #ffb84c"/>
     <use xlink:href="#m4360eaa6d6" x="96.965563" y="122.761695" style="fill: #ffb84c; stroke: #ffb84c"/>
     <use xlink:href="#m4360eaa6d6" x="130.165673" y="236.244347" style="fill: #ffb84c; stroke: #ffb84c"/>
     <use xlink:href="#m4360eaa6d6" x="116.756248" y="268.707954" style="fill: #ffb84c; stroke: #ffb84c"/>
     <use xlink:href="#m4360eaa6d6" x="73.832727" y="275.443786" style="fill: #ffb84c; stroke: #ffb84c"/>
     <use xlink:href="#m4360eaa6d6" x="148.858949" y="194.350254" style="fill: #ffb84c; stroke: #ffb84c"/>
     <use xlink:href="#m4360eaa6d6" x="284.074978" y="137.899875" style="fill: #ffb84c; stroke: #ffb84c"/>
     <use xlink:href="#m4360eaa6d6" x="154.586536" y="173.098316" style="fill: #ffb84c; stroke: #ffb84c"/>
     <use xlink:href="#m4360eaa6d6" x="128.390565" y="212.887823" style="fill: #ffb84c; stroke: #ffb84c"/>
     <use xlink:href="#m4360eaa6d6" x="88.092862" y="263.513294" style="fill: #ffb84c; stroke: #ffb84c"/>
     <use xlink:href="#m4360eaa6d6" x="86.097108" y="268.46497" style="fill: #ffb84c; stroke: #ffb84c"/>
     <use xlink:href="#m4360eaa6d6" x="329.268979" y="67.580319" style="fill: #ffb84c; stroke: #ffb84c"/>
     <use xlink:href="#m4360eaa6d6" x="146.840592" y="112.519285" style="fill: #ffb84c; stroke: #ffb84c"/>
     <use xlink:href="#m4360eaa6d6" x="183.106979" y="158.552758" style="fill: #ffb84c; stroke: #ffb84c"/>
     <use xlink:href="#m4360eaa6d6" x="179.963268" y="142.436438" style="fill: #ffb84c; stroke: #ffb84c"/>
     <use xlink:href="#m4360eaa6d6" x="163.319051" y="118.393529" style="fill: #ffb84c; stroke: #ffb84c"/>
     <use xlink:href="#m4360eaa6d6" x="101.346051" y="112.400915" style="fill: #ffb84c; stroke: #ffb84c"/>
     <use xlink:href="#m4360eaa6d6" x="221.755831" y="110.999191" style="fill: #ffb84c; stroke: #ffb84c"/>
     <use xlink:href="#m4360eaa6d6" x="91.363635" y="287.153802" style="fill: #ffb84c; stroke: #ffb84c"/>
     <use xlink:href="#m4360eaa6d6" x="91.517885" y="205.815339" style="fill: #ffb84c; stroke: #ffb84c"/>
     <use xlink:href="#m4360eaa6d6" x="171.734608" y="122.073021" style="fill: #ffb84c; stroke: #ffb84c"/>
     <use xlink:href="#m4360eaa6d6" x="288.398164" y="53.568" style="fill: #ffb84c; stroke: #ffb84c"/>
     <use xlink:href="#m4360eaa6d6" x="158.51098" y="223.739608" style="fill: #ffb84c; stroke: #ffb84c"/>
     <use xlink:href="#m4360eaa6d6" x="139.987476" y="171.04168" style="fill: #ffb84c; stroke: #ffb84c"/>
     <use xlink:href="#m4360eaa6d6" x="103.230607" y="264.831098" style="fill: #ffb84c; stroke: #ffb84c"/>
     <use xlink:href="#m4360eaa6d6" x="128.498037" y="221.823073" style="fill: #ffb84c; stroke: #ffb84c"/>
     <use xlink:href="#m4360eaa6d6" x="116.313587" y="128.421357" style="fill: #ffb84c; stroke: #ffb84c"/>
     <use xlink:href="#m4360eaa6d6" x="127.65037" y="193.102895" style="fill: #ffb84c; stroke: #ffb84c"/>
     <use xlink:href="#m4360eaa6d6" x="126.674434" y="256.097279" style="fill: #ffb84c; stroke: #ffb84c"/>
     <use xlink:href="#m4360eaa6d6" x="263.164554" y="195.399323" style="fill: #ffb84c; stroke: #ffb84c"/>
     <use xlink:href="#m4360eaa6d6" x="95.642397" y="153.134427" style="fill: #ffb84c; stroke: #ffb84c"/>
     <use xlink:href="#m4360eaa6d6" x="146.913014" y="146.290544" style="fill: #ffb84c; stroke: #ffb84c"/>
     <use xlink:href="#m4360eaa6d6" x="106.637886" y="149.717458" style="fill: #ffb84c; stroke: #ffb84c"/>
     <use xlink:href="#m4360eaa6d6" x="101.627806" y="275.122048" style="fill: #ffb84c; stroke: #ffb84c"/>
     <use xlink:href="#m4360eaa6d6" x="169.747681" y="127.473479" style="fill: #ffb84c; stroke: #ffb84c"/>
     <use xlink:href="#m4360eaa6d6" x="130.479493" y="246.6328" style="fill: #ffb84c; stroke: #ffb84c"/>
     <use xlink:href="#m4360eaa6d6" x="88.223106" y="197.553221" style="fill: #ffb84c; stroke: #ffb84c"/>
     <use xlink:href="#m4360eaa6d6" x="75.324397" y="283.089509" style="fill: #ffb84c; stroke: #ffb84c"/>
     <use xlink:href="#m4360eaa6d6" x="112.781159" y="164.829935" style="fill: #ffb84c; stroke: #ffb84c"/>
     <use xlink:href="#m4360eaa6d6" x="155.739236" y="260.350878" style="fill: #ffb84c; stroke: #ffb84c"/>
     <use xlink:href="#m4360eaa6d6" x="91.927246" y="178.296069" style="fill: #ffb84c; stroke: #ffb84c"/>
     <use xlink:href="#m4360eaa6d6" x="156.322549" y="171.396148" style="fill: #ffb84c; stroke: #ffb84c"/>
     <use xlink:href="#m4360eaa6d6" x="107.91662" y="128.960131" style="fill: #ffb84c; stroke: #ffb84c"/>
    </g>
   </g>
   <g id="matplotlib.axis_1">
    <g id="xtick_1">
     <g id="line2d_1">
      <defs>
       <path id="mdeffc5c97d" d="M 0 0 
L 0 3.5 
" style="stroke: #000000; stroke-width: 0.8"/>
      </defs>
      <g>
       <use xlink:href="#mdeffc5c97d" x="96.710407" y="307.584" style="stroke: #000000; stroke-width: 0.8"/>
      </g>
     </g>
     <g id="text_1">
      <!-- −6 -->
      <g transform="translate(87.127985 324.461969) scale(0.13 -0.13)">
       <defs>
        <path id="DejaVuSans-2212" d="M 678 2272 
L 4684 2272 
L 4684 1741 
L 678 1741 
L 678 2272 
z
" transform="scale(0.015625)"/>
        <path id="DejaVuSans-36" d="M 2113 2584 
Q 1688 2584 1439 2293 
Q 1191 2003 1191 1497 
Q 1191 994 1439 701 
Q 1688 409 2113 409 
Q 2538 409 2786 701 
Q 3034 994 3034 1497 
Q 3034 2003 2786 2293 
Q 2538 2584 2113 2584 
z
M 3366 4563 
L 3366 3988 
Q 3128 4100 2886 4159 
Q 2644 4219 2406 4219 
Q 1781 4219 1451 3797 
Q 1122 3375 1075 2522 
Q 1259 2794 1537 2939 
Q 1816 3084 2150 3084 
Q 2853 3084 3261 2657 
Q 3669 2231 3669 1497 
Q 3669 778 3244 343 
Q 2819 -91 2113 -91 
Q 1303 -91 875 529 
Q 447 1150 447 2328 
Q 447 3434 972 4092 
Q 1497 4750 2381 4750 
Q 2619 4750 2861 4703 
Q 3103 4656 3366 4563 
z
" transform="scale(0.015625)"/>
       </defs>
       <use xlink:href="#DejaVuSans-2212"/>
       <use xlink:href="#DejaVuSans-36" transform="translate(83.789062 0)"/>
      </g>
     </g>
    </g>
    <g id="xtick_2">
     <g id="line2d_2">
      <g>
       <use xlink:href="#mdeffc5c97d" x="143.783377" y="307.584" style="stroke: #000000; stroke-width: 0.8"/>
      </g>
     </g>
     <g id="text_2">
      <!-- −4 -->
      <g transform="translate(134.200955 324.461969) scale(0.13 -0.13)">
       <defs>
        <path id="DejaVuSans-34" d="M 2419 4116 
L 825 1625 
L 2419 1625 
L 2419 4116 
z
M 2253 4666 
L 3047 4666 
L 3047 1625 
L 3713 1625 
L 3713 1100 
L 3047 1100 
L 3047 0 
L 2419 0 
L 2419 1100 
L 313 1100 
L 313 1709 
L 2253 4666 
z
" transform="scale(0.015625)"/>
       </defs>
       <use xlink:href="#DejaVuSans-2212"/>
       <use xlink:href="#DejaVuSans-34" transform="translate(83.789062 0)"/>
      </g>
     </g>
    </g>
    <g id="xtick_3">
     <g id="line2d_3">
      <g>
       <use xlink:href="#mdeffc5c97d" x="190.856347" y="307.584" style="stroke: #000000; stroke-width: 0.8"/>
      </g>
     </g>
     <g id="text_3">
      <!-- −2 -->
      <g transform="translate(181.273925 324.461969) scale(0.13 -0.13)">
       <defs>
        <path id="DejaVuSans-32" d="M 1228 531 
L 3431 531 
L 3431 0 
L 469 0 
L 469 531 
Q 828 903 1448 1529 
Q 2069 2156 2228 2338 
Q 2531 2678 2651 2914 
Q 2772 3150 2772 3378 
Q 2772 3750 2511 3984 
Q 2250 4219 1831 4219 
Q 1534 4219 1204 4116 
Q 875 4013 500 3803 
L 500 4441 
Q 881 4594 1212 4672 
Q 1544 4750 1819 4750 
Q 2544 4750 2975 4387 
Q 3406 4025 3406 3419 
Q 3406 3131 3298 2873 
Q 3191 2616 2906 2266 
Q 2828 2175 2409 1742 
Q 1991 1309 1228 531 
z
" transform="scale(0.015625)"/>
       </defs>
       <use xlink:href="#DejaVuSans-2212"/>
       <use xlink:href="#DejaVuSans-32" transform="translate(83.789062 0)"/>
      </g>
     </g>
    </g>
    <g id="xtick_4">
     <g id="line2d_4">
      <g>
       <use xlink:href="#mdeffc5c97d" x="237.929317" y="307.584" style="stroke: #000000; stroke-width: 0.8"/>
      </g>
     </g>
     <g id="text_4">
      <!-- 0 -->
      <g transform="translate(233.793692 324.461969) scale(0.13 -0.13)">
       <defs>
        <path id="DejaVuSans-30" d="M 2034 4250 
Q 1547 4250 1301 3770 
Q 1056 3291 1056 2328 
Q 1056 1369 1301 889 
Q 1547 409 2034 409 
Q 2525 409 2770 889 
Q 3016 1369 3016 2328 
Q 3016 3291 2770 3770 
Q 2525 4250 2034 4250 
z
M 2034 4750 
Q 2819 4750 3233 4129 
Q 3647 3509 3647 2328 
Q 3647 1150 3233 529 
Q 2819 -91 2034 -91 
Q 1250 -91 836 529 
Q 422 1150 422 2328 
Q 422 3509 836 4129 
Q 1250 4750 2034 4750 
z
" transform="scale(0.015625)"/>
       </defs>
       <use xlink:href="#DejaVuSans-30"/>
      </g>
     </g>
    </g>
    <g id="xtick_5">
     <g id="line2d_5">
      <g>
       <use xlink:href="#mdeffc5c97d" x="285.002287" y="307.584" style="stroke: #000000; stroke-width: 0.8"/>
      </g>
     </g>
     <g id="text_5">
      <!-- 2 -->
      <g transform="translate(280.866662 324.461969) scale(0.13 -0.13)">
       <use xlink:href="#DejaVuSans-32"/>
      </g>
     </g>
    </g>
    <g id="xtick_6">
     <g id="line2d_6">
      <g>
       <use xlink:href="#mdeffc5c97d" x="332.075257" y="307.584" style="stroke: #000000; stroke-width: 0.8"/>
      </g>
     </g>
     <g id="text_6">
      <!-- 4 -->
      <g transform="translate(327.939632 324.461969) scale(0.13 -0.13)">
       <use xlink:href="#DejaVuSans-34"/>
      </g>
     </g>
    </g>
    <g id="xtick_7">
     <g id="line2d_7">
      <g>
       <use xlink:href="#mdeffc5c97d" x="379.148227" y="307.584" style="stroke: #000000; stroke-width: 0.8"/>
      </g>
     </g>
     <g id="text_7">
      <!-- 6 -->
      <g transform="translate(375.012602 324.461969) scale(0.13 -0.13)">
       <use xlink:href="#DejaVuSans-36"/>
      </g>
     </g>
    </g>
    <g id="text_8">
     <!-- Component 1 -->
     <g transform="translate(185.461172 342.563219) scale(0.15 -0.15)">
      <defs>
       <path id="DejaVuSans-43" d="M 4122 4306 
L 4122 3641 
Q 3803 3938 3442 4084 
Q 3081 4231 2675 4231 
Q 1875 4231 1450 3742 
Q 1025 3253 1025 2328 
Q 1025 1406 1450 917 
Q 1875 428 2675 428 
Q 3081 428 3442 575 
Q 3803 722 4122 1019 
L 4122 359 
Q 3791 134 3420 21 
Q 3050 -91 2638 -91 
Q 1578 -91 968 557 
Q 359 1206 359 2328 
Q 359 3453 968 4101 
Q 1578 4750 2638 4750 
Q 3056 4750 3426 4639 
Q 3797 4528 4122 4306 
z
" transform="scale(0.015625)"/>
       <path id="DejaVuSans-6f" d="M 1959 3097 
Q 1497 3097 1228 2736 
Q 959 2375 959 1747 
Q 959 1119 1226 758 
Q 1494 397 1959 397 
Q 2419 397 2687 759 
Q 2956 1122 2956 1747 
Q 2956 2369 2687 2733 
Q 2419 3097 1959 3097 
z
M 1959 3584 
Q 2709 3584 3137 3096 
Q 3566 2609 3566 1747 
Q 3566 888 3137 398 
Q 2709 -91 1959 -91 
Q 1206 -91 779 398 
Q 353 888 353 1747 
Q 353 2609 779 3096 
Q 1206 3584 1959 3584 
z
" transform="scale(0.015625)"/>
       <path id="DejaVuSans-6d" d="M 3328 2828 
Q 3544 3216 3844 3400 
Q 4144 3584 4550 3584 
Q 5097 3584 5394 3201 
Q 5691 2819 5691 2113 
L 5691 0 
L 5113 0 
L 5113 2094 
Q 5113 2597 4934 2840 
Q 4756 3084 4391 3084 
Q 3944 3084 3684 2787 
Q 3425 2491 3425 1978 
L 3425 0 
L 2847 0 
L 2847 2094 
Q 2847 2600 2669 2842 
Q 2491 3084 2119 3084 
Q 1678 3084 1418 2786 
Q 1159 2488 1159 1978 
L 1159 0 
L 581 0 
L 581 3500 
L 1159 3500 
L 1159 2956 
Q 1356 3278 1631 3431 
Q 1906 3584 2284 3584 
Q 2666 3584 2933 3390 
Q 3200 3197 3328 2828 
z
" transform="scale(0.015625)"/>
       <path id="DejaVuSans-70" d="M 1159 525 
L 1159 -1331 
L 581 -1331 
L 581 3500 
L 1159 3500 
L 1159 2969 
Q 1341 3281 1617 3432 
Q 1894 3584 2278 3584 
Q 2916 3584 3314 3078 
Q 3713 2572 3713 1747 
Q 3713 922 3314 415 
Q 2916 -91 2278 -91 
Q 1894 -91 1617 61 
Q 1341 213 1159 525 
z
M 3116 1747 
Q 3116 2381 2855 2742 
Q 2594 3103 2138 3103 
Q 1681 3103 1420 2742 
Q 1159 2381 1159 1747 
Q 1159 1113 1420 752 
Q 1681 391 2138 391 
Q 2594 391 2855 752 
Q 3116 1113 3116 1747 
z
" transform="scale(0.015625)"/>
       <path id="DejaVuSans-6e" d="M 3513 2113 
L 3513 0 
L 2938 0 
L 2938 2094 
Q 2938 2591 2744 2837 
Q 2550 3084 2163 3084 
Q 1697 3084 1428 2787 
Q 1159 2491 1159 1978 
L 1159 0 
L 581 0 
L 581 3500 
L 1159 3500 
L 1159 2956 
Q 1366 3272 1645 3428 
Q 1925 3584 2291 3584 
Q 2894 3584 3203 3211 
Q 3513 2838 3513 2113 
z
" transform="scale(0.015625)"/>
       <path id="DejaVuSans-65" d="M 3597 1894 
L 3597 1613 
L 953 1613 
Q 991 1019 1311 708 
Q 1631 397 2203 397 
Q 2534 397 2845 478 
Q 3156 559 3463 722 
L 3463 178 
Q 3153 47 2828 -22 
Q 2503 -91 2169 -91 
Q 1331 -91 842 396 
Q 353 884 353 1716 
Q 353 2575 817 3079 
Q 1281 3584 2069 3584 
Q 2775 3584 3186 3129 
Q 3597 2675 3597 1894 
z
M 3022 2063 
Q 3016 2534 2758 2815 
Q 2500 3097 2075 3097 
Q 1594 3097 1305 2825 
Q 1016 2553 972 2059 
L 3022 2063 
z
" transform="scale(0.015625)"/>
       <path id="DejaVuSans-74" d="M 1172 4494 
L 1172 3500 
L 2356 3500 
L 2356 3053 
L 1172 3053 
L 1172 1153 
Q 1172 725 1289 603 
Q 1406 481 1766 481 
L 2356 481 
L 2356 0 
L 1766 0 
Q 1100 0 847 248 
Q 594 497 594 1153 
L 594 3053 
L 172 3053 
L 172 3500 
L 594 3500 
L 594 4494 
L 1172 4494 
z
" transform="scale(0.015625)"/>
       <path id="DejaVuSans-20" transform="scale(0.015625)"/>
       <path id="DejaVuSans-31" d="M 794 531 
L 1825 531 
L 1825 4091 
L 703 3866 
L 703 4441 
L 1819 4666 
L 2450 4666 
L 2450 531 
L 3481 531 
L 3481 0 
L 794 0 
L 794 531 
z
" transform="scale(0.015625)"/>
      </defs>
      <use xlink:href="#DejaVuSans-43"/>
      <use xlink:href="#DejaVuSans-6f" transform="translate(69.824219 0)"/>
      <use xlink:href="#DejaVuSans-6d" transform="translate(131.005859 0)"/>
      <use xlink:href="#DejaVuSans-70" transform="translate(228.417969 0)"/>
      <use xlink:href="#DejaVuSans-6f" transform="translate(291.894531 0)"/>
      <use xlink:href="#DejaVuSans-6e" transform="translate(353.076172 0)"/>
      <use xlink:href="#DejaVuSans-65" transform="translate(416.455078 0)"/>
      <use xlink:href="#DejaVuSans-6e" transform="translate(477.978516 0)"/>
      <use xlink:href="#DejaVuSans-74" transform="translate(541.357422 0)"/>
      <use xlink:href="#DejaVuSans-20" transform="translate(580.566406 0)"/>
      <use xlink:href="#DejaVuSans-31" transform="translate(612.353516 0)"/>
     </g>
    </g>
   </g>
   <g id="matplotlib.axis_2">
    <g id="ytick_1">
     <g id="line2d_8">
      <defs>
       <path id="m642b762dda" d="M 0 0 
L -3.5 0 
" style="stroke: #000000; stroke-width: 0.8"/>
      </defs>
      <g>
       <use xlink:href="#m642b762dda" x="57.6" y="280.829061" style="stroke: #000000; stroke-width: 0.8"/>
      </g>
     </g>
     <g id="text_9">
      <!-- −4 -->
      <g transform="translate(31.435156 285.768046) scale(0.13 -0.13)">
       <use xlink:href="#DejaVuSans-2212"/>
       <use xlink:href="#DejaVuSans-34" transform="translate(83.789062 0)"/>
      </g>
     </g>
    </g>
    <g id="ytick_2">
     <g id="line2d_9">
      <g>
       <use xlink:href="#m642b762dda" x="57.6" y="233.053534" style="stroke: #000000; stroke-width: 0.8"/>
      </g>
     </g>
     <g id="text_10">
      <!-- −2 -->
      <g transform="translate(31.435156 237.992519) scale(0.13 -0.13)">
       <use xlink:href="#DejaVuSans-2212"/>
       <use xlink:href="#DejaVuSans-32" transform="translate(83.789062 0)"/>
      </g>
     </g>
    </g>
    <g id="ytick_3">
     <g id="line2d_10">
      <g>
       <use xlink:href="#m642b762dda" x="57.6" y="185.278007" style="stroke: #000000; stroke-width: 0.8"/>
      </g>
     </g>
     <g id="text_11">
      <!-- 0 -->
      <g transform="translate(42.32875 190.216992) scale(0.13 -0.13)">
       <use xlink:href="#DejaVuSans-30"/>
      </g>
     </g>
    </g>
    <g id="ytick_4">
     <g id="line2d_11">
      <g>
       <use xlink:href="#m642b762dda" x="57.6" y="137.50248" style="stroke: #000000; stroke-width: 0.8"/>
      </g>
     </g>
     <g id="text_12">
      <!-- 2 -->
      <g transform="translate(42.32875 142.441465) scale(0.13 -0.13)">
       <use xlink:href="#DejaVuSans-32"/>
      </g>
     </g>
    </g>
    <g id="ytick_5">
     <g id="line2d_12">
      <g>
       <use xlink:href="#m642b762dda" x="57.6" y="89.726953" style="stroke: #000000; stroke-width: 0.8"/>
      </g>
     </g>
     <g id="text_13">
      <!-- 4 -->
      <g transform="translate(42.32875 94.665938) scale(0.13 -0.13)">
       <use xlink:href="#DejaVuSans-34"/>
      </g>
     </g>
    </g>
    <g id="ytick_6">
     <g id="line2d_13">
      <g>
       <use xlink:href="#m642b762dda" x="57.6" y="41.951426" style="stroke: #000000; stroke-width: 0.8"/>
      </g>
     </g>
     <g id="text_14">
      <!-- 6 -->
      <g transform="translate(42.32875 46.890411) scale(0.13 -0.13)">
       <use xlink:href="#DejaVuSans-36"/>
      </g>
     </g>
    </g>
    <g id="text_15">
     <!-- Component 2 -->
     <g transform="translate(24.315625 225.226828) rotate(-90) scale(0.15 -0.15)">
      <use xlink:href="#DejaVuSans-43"/>
      <use xlink:href="#DejaVuSans-6f" transform="translate(69.824219 0)"/>
      <use xlink:href="#DejaVuSans-6d" transform="translate(131.005859 0)"/>
      <use xlink:href="#DejaVuSans-70" transform="translate(228.417969 0)"/>
      <use xlink:href="#DejaVuSans-6f" transform="translate(291.894531 0)"/>
      <use xlink:href="#DejaVuSans-6e" transform="translate(353.076172 0)"/>
      <use xlink:href="#DejaVuSans-65" transform="translate(416.455078 0)"/>
      <use xlink:href="#DejaVuSans-6e" transform="translate(477.978516 0)"/>
      <use xlink:href="#DejaVuSans-74" transform="translate(541.357422 0)"/>
      <use xlink:href="#DejaVuSans-20" transform="translate(580.566406 0)"/>
      <use xlink:href="#DejaVuSans-32" transform="translate(612.353516 0)"/>
     </g>
    </g>
   </g>
   <g id="patch_3">
    <path d="M 57.6 307.584 
L 57.6 41.472 
" style="fill: none; stroke: #000000; stroke-width: 0.8; stroke-linejoin: miter; stroke-linecap: square"/>
   </g>
   <g id="patch_4">
    <path d="M 414.72 307.584 
L 414.72 41.472 
" style="fill: none; stroke: #000000; stroke-width: 0.8; stroke-linejoin: miter; stroke-linecap: square"/>
   </g>
   <g id="patch_5">
    <path d="M 57.6 307.584 
L 414.72 307.584 
" style="fill: none; stroke: #000000; stroke-width: 0.8; stroke-linejoin: miter; stroke-linecap: square"/>
   </g>
   <g id="patch_6">
    <path d="M 57.6 41.472 
L 414.72 41.472 
" style="fill: none; stroke: #000000; stroke-width: 0.8; stroke-linejoin: miter; stroke-linecap: square"/>
   </g>
   <g id="text_16">
    <!-- Layer 13 activations (PCA) -->
    <g transform="translate(123.505781 35.472) scale(0.17 -0.17)">
     <defs>
      <path id="DejaVuSans-4c" d="M 628 4666 
L 1259 4666 
L 1259 531 
L 3531 531 
L 3531 0 
L 628 0 
L 628 4666 
z
" transform="scale(0.015625)"/>
      <path id="DejaVuSans-61" d="M 2194 1759 
Q 1497 1759 1228 1600 
Q 959 1441 959 1056 
Q 959 750 1161 570 
Q 1363 391 1709 391 
Q 2188 391 2477 730 
Q 2766 1069 2766 1631 
L 2766 1759 
L 2194 1759 
z
M 3341 1997 
L 3341 0 
L 2766 0 
L 2766 531 
Q 2569 213 2275 61 
Q 1981 -91 1556 -91 
Q 1019 -91 701 211 
Q 384 513 384 1019 
Q 384 1609 779 1909 
Q 1175 2209 1959 2209 
L 2766 2209 
L 2766 2266 
Q 2766 2663 2505 2880 
Q 2244 3097 1772 3097 
Q 1472 3097 1187 3025 
Q 903 2953 641 2809 
L 641 3341 
Q 956 3463 1253 3523 
Q 1550 3584 1831 3584 
Q 2591 3584 2966 3190 
Q 3341 2797 3341 1997 
z
" transform="scale(0.015625)"/>
      <path id="DejaVuSans-79" d="M 2059 -325 
Q 1816 -950 1584 -1140 
Q 1353 -1331 966 -1331 
L 506 -1331 
L 506 -850 
L 844 -850 
Q 1081 -850 1212 -737 
Q 1344 -625 1503 -206 
L 1606 56 
L 191 3500 
L 800 3500 
L 1894 763 
L 2988 3500 
L 3597 3500 
L 2059 -325 
z
" transform="scale(0.015625)"/>
      <path id="DejaVuSans-72" d="M 2631 2963 
Q 2534 3019 2420 3045 
Q 2306 3072 2169 3072 
Q 1681 3072 1420 2755 
Q 1159 2438 1159 1844 
L 1159 0 
L 581 0 
L 581 3500 
L 1159 3500 
L 1159 2956 
Q 1341 3275 1631 3429 
Q 1922 3584 2338 3584 
Q 2397 3584 2469 3576 
Q 2541 3569 2628 3553 
L 2631 2963 
z
" transform="scale(0.015625)"/>
      <path id="DejaVuSans-33" d="M 2597 2516 
Q 3050 2419 3304 2112 
Q 3559 1806 3559 1356 
Q 3559 666 3084 287 
Q 2609 -91 1734 -91 
Q 1441 -91 1130 -33 
Q 819 25 488 141 
L 488 750 
Q 750 597 1062 519 
Q 1375 441 1716 441 
Q 2309 441 2620 675 
Q 2931 909 2931 1356 
Q 2931 1769 2642 2001 
Q 2353 2234 1838 2234 
L 1294 2234 
L 1294 2753 
L 1863 2753 
Q 2328 2753 2575 2939 
Q 2822 3125 2822 3475 
Q 2822 3834 2567 4026 
Q 2313 4219 1838 4219 
Q 1578 4219 1281 4162 
Q 984 4106 628 3988 
L 628 4550 
Q 988 4650 1302 4700 
Q 1616 4750 1894 4750 
Q 2613 4750 3031 4423 
Q 3450 4097 3450 3541 
Q 3450 3153 3228 2886 
Q 3006 2619 2597 2516 
z
" transform="scale(0.015625)"/>
      <path id="DejaVuSans-63" d="M 3122 3366 
L 3122 2828 
Q 2878 2963 2633 3030 
Q 2388 3097 2138 3097 
Q 1578 3097 1268 2742 
Q 959 2388 959 1747 
Q 959 1106 1268 751 
Q 1578 397 2138 397 
Q 2388 397 2633 464 
Q 2878 531 3122 666 
L 3122 134 
Q 2881 22 2623 -34 
Q 2366 -91 2075 -91 
Q 1284 -91 818 406 
Q 353 903 353 1747 
Q 353 2603 823 3093 
Q 1294 3584 2113 3584 
Q 2378 3584 2631 3529 
Q 2884 3475 3122 3366 
z
" transform="scale(0.015625)"/>
      <path id="DejaVuSans-69" d="M 603 3500 
L 1178 3500 
L 1178 0 
L 603 0 
L 603 3500 
z
M 603 4863 
L 1178 4863 
L 1178 4134 
L 603 4134 
L 603 4863 
z
" transform="scale(0.015625)"/>
      <path id="DejaVuSans-76" d="M 191 3500 
L 800 3500 
L 1894 563 
L 2988 3500 
L 3597 3500 
L 2284 0 
L 1503 0 
L 191 3500 
z
" transform="scale(0.015625)"/>
      <path id="DejaVuSans-73" d="M 2834 3397 
L 2834 2853 
Q 2591 2978 2328 3040 
Q 2066 3103 1784 3103 
Q 1356 3103 1142 2972 
Q 928 2841 928 2578 
Q 928 2378 1081 2264 
Q 1234 2150 1697 2047 
L 1894 2003 
Q 2506 1872 2764 1633 
Q 3022 1394 3022 966 
Q 3022 478 2636 193 
Q 2250 -91 1575 -91 
Q 1294 -91 989 -36 
Q 684 19 347 128 
L 347 722 
Q 666 556 975 473 
Q 1284 391 1588 391 
Q 1994 391 2212 530 
Q 2431 669 2431 922 
Q 2431 1156 2273 1281 
Q 2116 1406 1581 1522 
L 1381 1569 
Q 847 1681 609 1914 
Q 372 2147 372 2553 
Q 372 3047 722 3315 
Q 1072 3584 1716 3584 
Q 2034 3584 2315 3537 
Q 2597 3491 2834 3397 
z
" transform="scale(0.015625)"/>
      <path id="DejaVuSans-28" d="M 1984 4856 
Q 1566 4138 1362 3434 
Q 1159 2731 1159 2009 
Q 1159 1288 1364 580 
Q 1569 -128 1984 -844 
L 1484 -844 
Q 1016 -109 783 600 
Q 550 1309 550 2009 
Q 550 2706 781 3412 
Q 1013 4119 1484 4856 
L 1984 4856 
z
" transform="scale(0.015625)"/>
      <path id="DejaVuSans-50" d="M 1259 4147 
L 1259 2394 
L 2053 2394 
Q 2494 2394 2734 2622 
Q 2975 2850 2975 3272 
Q 2975 3691 2734 3919 
Q 2494 4147 2053 4147 
L 1259 4147 
z
M 628 4666 
L 2053 4666 
Q 2838 4666 3239 4311 
Q 3641 3956 3641 3272 
Q 3641 2581 3239 2228 
Q 2838 1875 2053 1875 
L 1259 1875 
L 1259 0 
L 628 0 
L 628 4666 
z
" transform="scale(0.015625)"/>
      <path id="DejaVuSans-41" d="M 2188 4044 
L 1331 1722 
L 3047 1722 
L 2188 4044 
z
M 1831 4666 
L 2547 4666 
L 4325 0 
L 3669 0 
L 3244 1197 
L 1141 1197 
L 716 0 
L 50 0 
L 1831 4666 
z
" transform="scale(0.015625)"/>
      <path id="DejaVuSans-29" d="M 513 4856 
L 1013 4856 
Q 1481 4119 1714 3412 
Q 1947 2706 1947 2009 
Q 1947 1309 1714 600 
Q 1481 -109 1013 -844 
L 513 -844 
Q 928 -128 1133 580 
Q 1338 1288 1338 2009 
Q 1338 2731 1133 3434 
Q 928 4138 513 4856 
z
" transform="scale(0.015625)"/>
     </defs>
     <use xlink:href="#DejaVuSans-4c"/>
     <use xlink:href="#DejaVuSans-61" transform="translate(55.712891 0)"/>
     <use xlink:href="#DejaVuSans-79" transform="translate(116.992188 0)"/>
     <use xlink:href="#DejaVuSans-65" transform="translate(176.171875 0)"/>
     <use xlink:href="#DejaVuSans-72" transform="translate(237.695312 0)"/>
     <use xlink:href="#DejaVuSans-20" transform="translate(278.808594 0)"/>
     <use xlink:href="#DejaVuSans-31" transform="translate(310.595703 0)"/>
     <use xlink:href="#DejaVuSans-33" transform="translate(374.21875 0)"/>
     <use xlink:href="#DejaVuSans-20" transform="translate(437.841797 0)"/>
     <use xlink:href="#DejaVuSans-61" transform="translate(469.628906 0)"/>
     <use xlink:href="#DejaVuSans-63" transform="translate(530.908203 0)"/>
     <use xlink:href="#DejaVuSans-74" transform="translate(585.888672 0)"/>
     <use xlink:href="#DejaVuSans-69" transform="translate(625.097656 0)"/>
     <use xlink:href="#DejaVuSans-76" transform="translate(652.880859 0)"/>
     <use xlink:href="#DejaVuSans-61" transform="translate(712.060547 0)"/>
     <use xlink:href="#DejaVuSans-74" transform="translate(773.339844 0)"/>
     <use xlink:href="#DejaVuSans-69" transform="translate(812.548828 0)"/>
     <use xlink:href="#DejaVuSans-6f" transform="translate(840.332031 0)"/>
     <use xlink:href="#DejaVuSans-6e" transform="translate(901.513672 0)"/>
     <use xlink:href="#DejaVuSans-73" transform="translate(964.892578 0)"/>
     <use xlink:href="#DejaVuSans-20" transform="translate(1016.992188 0)"/>
     <use xlink:href="#DejaVuSans-28" transform="translate(1048.779297 0)"/>
     <use xlink:href="#DejaVuSans-50" transform="translate(1087.792969 0)"/>
     <use xlink:href="#DejaVuSans-43" transform="translate(1148.095703 0)"/>
     <use xlink:href="#DejaVuSans-41" transform="translate(1217.919922 0)"/>
     <use xlink:href="#DejaVuSans-29" transform="translate(1286.328125 0)"/>
    </g>
   </g>
  </g>
 </g>
 <defs>
  <clipPath id="p343def126d">
   <rect x="57.6" y="41.472" width="357.12" height="266.112"/>
  </clipPath>
 </defs>
</svg>
