<?xml version="1.0" encoding="utf-8" standalone="no"?>
<!DOCTYPE svg PUBLIC "-//W3C//DTD SVG 1.1//EN"
  "http://www.w3.org/Graphics/SVG/1.1/DTD/svg11.dtd">
<svg xmlns:xlink="http://www.w3.org/1999/xlink" width="460.8pt" height="345.6pt" viewBox="0 0 460.8 345.6" xmlns="http://www.w3.org/2000/svg" version="1.1">
 <metadata>
  <rdf:RDF xmlns:dc="http://purl.org/dc/elements/1.1/" xmlns:cc="http://creativecommons.org/ns#" xmlns:rdf="http://www.w3.org/1999/02/22-rdf-syntax-ns#">
   <cc:Work>
    <dc:type rdf:resource="http://purl.org/dc/dcmitype/StillImage"/>
    <dc:date>2025-05-03T14:22:32.679839</dc:date>
    <dc:format>image/svg+xml</dc:format>
    <dc:creator>
     <cc:Agent>
      <dc:title>Matplotlib v3.10.0, https://matplotlib.org/</dc:title>
     </cc:Agent>
    </dc:creator>
   </cc:Work>
  </rdf:RDF>
 </metadata>
 <defs>
  <style type="text/css">*{stroke-linejoin: round; stroke-linecap: butt}</style>
 </defs>
 <g id="figure_1">
  <g id="patch_1">
   <path d="M 0 345.6 
L 460.8 345.6 
L 460.8 0 
L 0 0 
L 0 345.6 
z
" style="fill: none; opacity: 0"/>
  </g>
  <g id="axes_1">
   <g id="patch_2">
    <path d="M 57.6 307.584 
L 414.72 307.584 
L 414.72 41.472 
L 57.6 41.472 
L 57.6 307.584 
z
" style="fill: none"/>
   </g>
   <g id="PathCollection_1">
    <defs>
     <path id="mad02304ef6" d="M 0 3 
C 0.795609 3 1.55874 2.683901 2.12132 2.12132 
C 2.683901 1.55874 3 0.795609 3 0 
C 3 -0.795609 2.683901 -1.55874 2.12132 -2.12132 
C 1.55874 -2.683901 0.795609 -3 0 -3 
C -0.795609 -3 -1.55874 -2.683901 -2.12132 -2.12132 
C -2.683901 -1.55874 -3 -0.795609 -3 0 
C -3 0.795609 -2.683901 1.55874 -2.12132 2.12132 
C -1.55874 2.683901 -0.795609 3 0 3 
z
" style="stroke: #a459d1"/>
    </defs>
    <g clip-path="url(#pfc42d1f9b6)">
     <use xlink:href="#mad02304ef6" x="364.36464" y="209.912959" style="fill: #a459d1; stroke: #a459d1"/>
     <use xlink:href="#mad02304ef6" x="321.960695" y="181.0665" style="fill: #a459d1; stroke: #a459d1"/>
     <use xlink:href="#mad02304ef6" x="384.958144" y="189.806343" style="fill: #a459d1; stroke: #a459d1"/>
     <use xlink:href="#mad02304ef6" x="333.50103" y="177.12522" style="fill: #a459d1; stroke: #a459d1"/>
     <use xlink:href="#mad02304ef6" x="367.535642" y="204.597872" style="fill: #a459d1; stroke: #a459d1"/>
     <use xlink:href="#mad02304ef6" x="295.43504" y="207.229627" style="fill: #a459d1; stroke: #a459d1"/>
     <use xlink:href="#mad02304ef6" x="371.766988" y="212.297933" style="fill: #a459d1; stroke: #a459d1"/>
     <use xlink:href="#mad02304ef6" x="343.004758" y="173.042532" style="fill: #a459d1; stroke: #a459d1"/>
     <use xlink:href="#mad02304ef6" x="383.289071" y="172.268862" style="fill: #a459d1; stroke: #a459d1"/>
     <use xlink:href="#mad02304ef6" x="314.715619" y="161.407025" style="fill: #a459d1; stroke: #a459d1"/>
     <use xlink:href="#mad02304ef6" x="369.44676" y="144.402521" style="fill: #a459d1; stroke: #a459d1"/>
     <use xlink:href="#mad02304ef6" x="365.341047" y="216.541486" style="fill: #a459d1; stroke: #a459d1"/>
     <use xlink:href="#mad02304ef6" x="280.381274" y="149.987852" style="fill: #a459d1; stroke: #a459d1"/>
     <use xlink:href="#mad02304ef6" x="361.15276" y="183.260739" style="fill: #a459d1; stroke: #a459d1"/>
     <use xlink:href="#mad02304ef6" x="378.94204" y="219.920749" style="fill: #a459d1; stroke: #a459d1"/>
     <use xlink:href="#mad02304ef6" x="372.265896" y="185.723006" style="fill: #a459d1; stroke: #a459d1"/>
     <use xlink:href="#mad02304ef6" x="346.379963" y="203.844047" style="fill: #a459d1; stroke: #a459d1"/>
     <use xlink:href="#mad02304ef6" x="370.452031" y="227.169907" style="fill: #a459d1; stroke: #a459d1"/>
     <use xlink:href="#mad02304ef6" x="369.4911" y="194.036331" style="fill: #a459d1; stroke: #a459d1"/>
     <use xlink:href="#mad02304ef6" x="369.330937" y="212.909488" style="fill: #a459d1; stroke: #a459d1"/>
     <use xlink:href="#mad02304ef6" x="342.046966" y="151.798385" style="fill: #a459d1; stroke: #a459d1"/>
     <use xlink:href="#mad02304ef6" x="269.36813" y="132.833319" style="fill: #a459d1; stroke: #a459d1"/>
     <use xlink:href="#mad02304ef6" x="299.726248" y="90.575981" style="fill: #a459d1; stroke: #a459d1"/>
     <use xlink:href="#mad02304ef6" x="386.123047" y="186.128312" style="fill: #a459d1; stroke: #a459d1"/>
     <use xlink:href="#mad02304ef6" x="344.941947" y="160.913529" style="fill: #a459d1; stroke: #a459d1"/>
     <use xlink:href="#mad02304ef6" x="344.818761" y="163.02594" style="fill: #a459d1; stroke: #a459d1"/>
     <use xlink:href="#mad02304ef6" x="276.313611" y="74.748406" style="fill: #a459d1; stroke: #a459d1"/>
     <use xlink:href="#mad02304ef6" x="166.494618" y="58.269747" style="fill: #a459d1; stroke: #a459d1"/>
     <use xlink:href="#mad02304ef6" x="389.271557" y="157.283082" style="fill: #a459d1; stroke: #a459d1"/>
     <use xlink:href="#mad02304ef6" x="329.972097" y="162.603638" style="fill: #a459d1; stroke: #a459d1"/>
     <use xlink:href="#mad02304ef6" x="365.282847" y="205.114512" style="fill: #a459d1; stroke: #a459d1"/>
     <use xlink:href="#mad02304ef6" x="375.820732" y="210.863601" style="fill: #a459d1; stroke: #a459d1"/>
     <use xlink:href="#mad02304ef6" x="260.670136" y="119.208174" style="fill: #a459d1; stroke: #a459d1"/>
     <use xlink:href="#mad02304ef6" x="350.439536" y="174.900389" style="fill: #a459d1; stroke: #a459d1"/>
     <use xlink:href="#mad02304ef6" x="367.533738" y="213.678437" style="fill: #a459d1; stroke: #a459d1"/>
     <use xlink:href="#mad02304ef6" x="398.487273" y="195.316553" style="fill: #a459d1; stroke: #a459d1"/>
     <use xlink:href="#mad02304ef6" x="362.209838" y="186.586276" style="fill: #a459d1; stroke: #a459d1"/>
     <use xlink:href="#mad02304ef6" x="349.562713" y="183.098312" style="fill: #a459d1; stroke: #a459d1"/>
     <use xlink:href="#mad02304ef6" x="360.371045" y="223.367208" style="fill: #a459d1; stroke: #a459d1"/>
     <use xlink:href="#mad02304ef6" x="368.188423" y="192.378005" style="fill: #a459d1; stroke: #a459d1"/>
     <use xlink:href="#mad02304ef6" x="191.300204" y="63.543585" style="fill: #a459d1; stroke: #a459d1"/>
     <use xlink:href="#mad02304ef6" x="310.297728" y="159.012001" style="fill: #a459d1; stroke: #a459d1"/>
     <use xlink:href="#mad02304ef6" x="350.673525" y="176.51058" style="fill: #a459d1; stroke: #a459d1"/>
     <use xlink:href="#mad02304ef6" x="348.966748" y="194.93446" style="fill: #a459d1; stroke: #a459d1"/>
     <use xlink:href="#mad02304ef6" x="311.786062" y="178.623332" style="fill: #a459d1; stroke: #a459d1"/>
     <use xlink:href="#mad02304ef6" x="264.239486" y="153.080564" style="fill: #a459d1; stroke: #a459d1"/>
     <use xlink:href="#mad02304ef6" x="368.405136" y="149.711618" style="fill: #a459d1; stroke: #a459d1"/>
     <use xlink:href="#mad02304ef6" x="355.959052" y="170.982172" style="fill: #a459d1; stroke: #a459d1"/>
     <use xlink:href="#mad02304ef6" x="343.001457" y="160.3575" style="fill: #a459d1; stroke: #a459d1"/>
     <use xlink:href="#mad02304ef6" x="370.675703" y="171.118257" style="fill: #a459d1; stroke: #a459d1"/>
     <use xlink:href="#mad02304ef6" x="353.196743" y="163.819727" style="fill: #a459d1; stroke: #a459d1"/>
     <use xlink:href="#mad02304ef6" x="227.246093" y="154.72209" style="fill: #a459d1; stroke: #a459d1"/>
     <use xlink:href="#mad02304ef6" x="364.531185" y="202.686598" style="fill: #a459d1; stroke: #a459d1"/>
     <use xlink:href="#mad02304ef6" x="341.039467" y="205.610336" style="fill: #a459d1; stroke: #a459d1"/>
     <use xlink:href="#mad02304ef6" x="329.626814" y="219.197185" style="fill: #a459d1; stroke: #a459d1"/>
     <use xlink:href="#mad02304ef6" x="355.074739" y="173.301285" style="fill: #a459d1; stroke: #a459d1"/>
     <use xlink:href="#mad02304ef6" x="356.354889" y="207.481307" style="fill: #a459d1; stroke: #a459d1"/>
     <use xlink:href="#mad02304ef6" x="369.30774" y="208.22432" style="fill: #a459d1; stroke: #a459d1"/>
     <use xlink:href="#mad02304ef6" x="313.212929" y="164.01233" style="fill: #a459d1; stroke: #a459d1"/>
     <use xlink:href="#mad02304ef6" x="349.779507" y="193.857869" style="fill: #a459d1; stroke: #a459d1"/>
     <use xlink:href="#mad02304ef6" x="347.358263" y="204.852263" style="fill: #a459d1; stroke: #a459d1"/>
     <use xlink:href="#mad02304ef6" x="354.901201" y="179.23269" style="fill: #a459d1; stroke: #a459d1"/>
     <use xlink:href="#mad02304ef6" x="357.800106" y="171.111476" style="fill: #a459d1; stroke: #a459d1"/>
     <use xlink:href="#mad02304ef6" x="251.580965" y="88.125399" style="fill: #a459d1; stroke: #a459d1"/>
     <use xlink:href="#mad02304ef6" x="378.613082" y="205.184242" style="fill: #a459d1; stroke: #a459d1"/>
     <use xlink:href="#mad02304ef6" x="363.242622" y="190.984091" style="fill: #a459d1; stroke: #a459d1"/>
     <use xlink:href="#mad02304ef6" x="332.702512" y="141.253079" style="fill: #a459d1; stroke: #a459d1"/>
     <use xlink:href="#mad02304ef6" x="381.791493" y="208.930668" style="fill: #a459d1; stroke: #a459d1"/>
     <use xlink:href="#mad02304ef6" x="320.781274" y="153.63334" style="fill: #a459d1; stroke: #a459d1"/>
     <use xlink:href="#mad02304ef6" x="348.459438" y="203.462117" style="fill: #a459d1; stroke: #a459d1"/>
     <use xlink:href="#mad02304ef6" x="342.164566" y="173.286968" style="fill: #a459d1; stroke: #a459d1"/>
     <use xlink:href="#mad02304ef6" x="338.727422" y="189.459197" style="fill: #a459d1; stroke: #a459d1"/>
     <use xlink:href="#mad02304ef6" x="385.151718" y="209.713698" style="fill: #a459d1; stroke: #a459d1"/>
     <use xlink:href="#mad02304ef6" x="252.918058" y="78.197636" style="fill: #a459d1; stroke: #a459d1"/>
     <use xlink:href="#mad02304ef6" x="371.663167" y="202.172296" style="fill: #a459d1; stroke: #a459d1"/>
     <use xlink:href="#mad02304ef6" x="373.804547" y="187.813587" style="fill: #a459d1; stroke: #a459d1"/>
     <use xlink:href="#mad02304ef6" x="291.625411" y="170.307084" style="fill: #a459d1; stroke: #a459d1"/>
     <use xlink:href="#mad02304ef6" x="374.058986" y="218.655335" style="fill: #a459d1; stroke: #a459d1"/>
     <use xlink:href="#mad02304ef6" x="357.983627" y="173.833159" style="fill: #a459d1; stroke: #a459d1"/>
     <use xlink:href="#mad02304ef6" x="356.216538" y="204.081152" style="fill: #a459d1; stroke: #a459d1"/>
     <use xlink:href="#mad02304ef6" x="350.865817" y="221.649314" style="fill: #a459d1; stroke: #a459d1"/>
     <use xlink:href="#mad02304ef6" x="356.264282" y="205.760604" style="fill: #a459d1; stroke: #a459d1"/>
     <use xlink:href="#mad02304ef6" x="371.70229" y="190.027475" style="fill: #a459d1; stroke: #a459d1"/>
     <use xlink:href="#mad02304ef6" x="348.730681" y="181.768571" style="fill: #a459d1; stroke: #a459d1"/>
     <use xlink:href="#mad02304ef6" x="350.842632" y="169.144147" style="fill: #a459d1; stroke: #a459d1"/>
     <use xlink:href="#mad02304ef6" x="357.342099" y="199.852995" style="fill: #a459d1; stroke: #a459d1"/>
     <use xlink:href="#mad02304ef6" x="352.127536" y="208.45487" style="fill: #a459d1; stroke: #a459d1"/>
     <use xlink:href="#mad02304ef6" x="364.595282" y="227.498396" style="fill: #a459d1; stroke: #a459d1"/>
     <use xlink:href="#mad02304ef6" x="329.494066" y="135.121164" style="fill: #a459d1; stroke: #a459d1"/>
     <use xlink:href="#mad02304ef6" x="365.38309" y="162.206924" style="fill: #a459d1; stroke: #a459d1"/>
     <use xlink:href="#mad02304ef6" x="354.010657" y="171.661842" style="fill: #a459d1; stroke: #a459d1"/>
     <use xlink:href="#mad02304ef6" x="328.963784" y="131.346997" style="fill: #a459d1; stroke: #a459d1"/>
     <use xlink:href="#mad02304ef6" x="304.403454" y="157.723128" style="fill: #a459d1; stroke: #a459d1"/>
     <use xlink:href="#mad02304ef6" x="347.681301" y="176.056594" style="fill: #a459d1; stroke: #a459d1"/>
     <use xlink:href="#mad02304ef6" x="346.984919" y="163.910961" style="fill: #a459d1; stroke: #a459d1"/>
     <use xlink:href="#mad02304ef6" x="342.888669" y="221.287517" style="fill: #a459d1; stroke: #a459d1"/>
     <use xlink:href="#mad02304ef6" x="352.755643" y="203.183138" style="fill: #a459d1; stroke: #a459d1"/>
     <use xlink:href="#mad02304ef6" x="306.945778" y="130.178602" style="fill: #a459d1; stroke: #a459d1"/>
     <use xlink:href="#mad02304ef6" x="219.345135" y="103.823263" style="fill: #a459d1; stroke: #a459d1"/>
     <use xlink:href="#mad02304ef6" x="363.928537" y="190.005418" style="fill: #a459d1; stroke: #a459d1"/>
     <use xlink:href="#mad02304ef6" x="373.577978" y="192.867274" style="fill: #a459d1; stroke: #a459d1"/>
     <use xlink:href="#mad02304ef6" x="356.192949" y="211.956601" style="fill: #a459d1; stroke: #a459d1"/>
     <use xlink:href="#mad02304ef6" x="359.119563" y="206.458033" style="fill: #a459d1; stroke: #a459d1"/>
     <use xlink:href="#mad02304ef6" x="373.011707" y="191.69807" style="fill: #a459d1; stroke: #a459d1"/>
     <use xlink:href="#mad02304ef6" x="365.976275" y="201.887501" style="fill: #a459d1; stroke: #a459d1"/>
     <use xlink:href="#mad02304ef6" x="361.814" y="206.136077" style="fill: #a459d1; stroke: #a459d1"/>
     <use xlink:href="#mad02304ef6" x="380.81647" y="201.75646" style="fill: #a459d1; stroke: #a459d1"/>
     <use xlink:href="#mad02304ef6" x="326.571981" y="170.412552" style="fill: #a459d1; stroke: #a459d1"/>
     <use xlink:href="#mad02304ef6" x="347.304633" y="176.542745" style="fill: #a459d1; stroke: #a459d1"/>
     <use xlink:href="#mad02304ef6" x="356.846422" y="179.729499" style="fill: #a459d1; stroke: #a459d1"/>
     <use xlink:href="#mad02304ef6" x="365.249529" y="212.509612" style="fill: #a459d1; stroke: #a459d1"/>
     <use xlink:href="#mad02304ef6" x="265.706573" y="115.391938" style="fill: #a459d1; stroke: #a459d1"/>
     <use xlink:href="#mad02304ef6" x="372.396041" y="228.643704" style="fill: #a459d1; stroke: #a459d1"/>
     <use xlink:href="#mad02304ef6" x="370.158942" y="194.657811" style="fill: #a459d1; stroke: #a459d1"/>
     <use xlink:href="#mad02304ef6" x="358.799861" y="210.636304" style="fill: #a459d1; stroke: #a459d1"/>
     <use xlink:href="#mad02304ef6" x="368.508899" y="211.311043" style="fill: #a459d1; stroke: #a459d1"/>
     <use xlink:href="#mad02304ef6" x="366.728641" y="218.239571" style="fill: #a459d1; stroke: #a459d1"/>
     <use xlink:href="#mad02304ef6" x="368.839692" y="186.84953" style="fill: #a459d1; stroke: #a459d1"/>
     <use xlink:href="#mad02304ef6" x="372.826547" y="191.281438" style="fill: #a459d1; stroke: #a459d1"/>
     <use xlink:href="#mad02304ef6" x="355.187666" y="177.155594" style="fill: #a459d1; stroke: #a459d1"/>
    </g>
   </g>
   <g id="PathCollection_2">
    <defs>
     <path id="m27bcd6e471" d="M 0 3 
C 0.795609 3 1.55874 2.683901 2.12132 2.12132 
C 2.683901 1.55874 3 0.795609 3 0 
C 3 -0.795609 2.683901 -1.55874 2.12132 -2.12132 
C 1.55874 -2.683901 0.795609 -3 0 -3 
C -0.795609 -3 -1.55874 -2.683901 -2.12132 -2.12132 
C -2.683901 -1.55874 -3 -0.795609 -3 0 
C -3 0.795609 -2.683901 1.55874 -2.12132 2.12132 
C -1.55874 2.683901 -0.795609 3 0 3 
z
" style="stroke: #ffb84c"/>
    </defs>
    <g clip-path="url(#pfc42d1f9b6)">
     <use xlink:href="#m27bcd6e471" x="111.908723" y="213.894016" style="fill: #ffb84c; stroke: #ffb84c"/>
     <use xlink:href="#m27bcd6e471" x="84.934057" y="203.472471" style="fill: #ffb84c; stroke: #ffb84c"/>
     <use xlink:href="#m27bcd6e471" x="95.638568" y="172.401778" style="fill: #ffb84c; stroke: #ffb84c"/>
     <use xlink:href="#m27bcd6e471" x="170.157401" y="175.835491" style="fill: #ffb84c; stroke: #ffb84c"/>
     <use xlink:href="#m27bcd6e471" x="115.249629" y="203.642408" style="fill: #ffb84c; stroke: #ffb84c"/>
     <use xlink:href="#m27bcd6e471" x="115.002506" y="220.647458" style="fill: #ffb84c; stroke: #ffb84c"/>
     <use xlink:href="#m27bcd6e471" x="147.613655" y="274.183746" style="fill: #ffb84c; stroke: #ffb84c"/>
     <use xlink:href="#m27bcd6e471" x="88.715947" y="167.565452" style="fill: #ffb84c; stroke: #ffb84c"/>
     <use xlink:href="#m27bcd6e471" x="100.571304" y="122.760558" style="fill: #ffb84c; stroke: #ffb84c"/>
     <use xlink:href="#m27bcd6e471" x="162.27648" y="125.330244" style="fill: #ffb84c; stroke: #ffb84c"/>
     <use xlink:href="#m27bcd6e471" x="175.339615" y="138.227479" style="fill: #ffb84c; stroke: #ffb84c"/>
     <use xlink:href="#m27bcd6e471" x="81.2423" y="273.93492" style="fill: #ffb84c; stroke: #ffb84c"/>
     <use xlink:href="#m27bcd6e471" x="90.300738" y="109.79212" style="fill: #ffb84c; stroke: #ffb84c"/>
     <use xlink:href="#m27bcd6e471" x="110.416743" y="204.401932" style="fill: #ffb84c; stroke: #ffb84c"/>
     <use xlink:href="#m27bcd6e471" x="119.055109" y="265.7948" style="fill: #ffb84c; stroke: #ffb84c"/>
     <use xlink:href="#m27bcd6e471" x="115.849519" y="192.900009" style="fill: #ffb84c; stroke: #ffb84c"/>
     <use xlink:href="#m27bcd6e471" x="93.80161" y="271.485307" style="fill: #ffb84c; stroke: #ffb84c"/>
     <use xlink:href="#m27bcd6e471" x="116.728245" y="281.622465" style="fill: #ffb84c; stroke: #ffb84c"/>
     <use xlink:href="#m27bcd6e471" x="125.704398" y="197.872744" style="fill: #ffb84c; stroke: #ffb84c"/>
     <use xlink:href="#m27bcd6e471" x="126.427035" y="258.95317" style="fill: #ffb84c; stroke: #ffb84c"/>
     <use xlink:href="#m27bcd6e471" x="96.468546" y="102.57907" style="fill: #ffb84c; stroke: #ffb84c"/>
     <use xlink:href="#m27bcd6e471" x="147.835278" y="113.287538" style="fill: #ffb84c; stroke: #ffb84c"/>
     <use xlink:href="#m27bcd6e471" x="135.905616" y="80.203032" style="fill: #ffb84c; stroke: #ffb84c"/>
     <use xlink:href="#m27bcd6e471" x="160.469414" y="125.891472" style="fill: #ffb84c; stroke: #ffb84c"/>
     <use xlink:href="#m27bcd6e471" x="165.745881" y="84.207872" style="fill: #ffb84c; stroke: #ffb84c"/>
     <use xlink:href="#m27bcd6e471" x="91.309587" y="97.612232" style="fill: #ffb84c; stroke: #ffb84c"/>
     <use xlink:href="#m27bcd6e471" x="142.616405" y="53.568" style="fill: #ffb84c; stroke: #ffb84c"/>
     <use xlink:href="#m27bcd6e471" x="132.731809" y="58.695996" style="fill: #ffb84c; stroke: #ffb84c"/>
     <use xlink:href="#m27bcd6e471" x="328.62272" y="130.320987" style="fill: #ffb84c; stroke: #ffb84c"/>
     <use xlink:href="#m27bcd6e471" x="118.053034" y="175.665444" style="fill: #ffb84c; stroke: #ffb84c"/>
     <use xlink:href="#m27bcd6e471" x="117.266553" y="204.224269" style="fill: #ffb84c; stroke: #ffb84c"/>
     <use xlink:href="#m27bcd6e471" x="104.39675" y="258.982365" style="fill: #ffb84c; stroke: #ffb84c"/>
     <use xlink:href="#m27bcd6e471" x="161.964048" y="148.057692" style="fill: #ffb84c; stroke: #ffb84c"/>
     <use xlink:href="#m27bcd6e471" x="112.280983" y="192.446844" style="fill: #ffb84c; stroke: #ffb84c"/>
     <use xlink:href="#m27bcd6e471" x="259.105691" y="223.485715" style="fill: #ffb84c; stroke: #ffb84c"/>
     <use xlink:href="#m27bcd6e471" x="178.708709" y="194.432025" style="fill: #ffb84c; stroke: #ffb84c"/>
     <use xlink:href="#m27bcd6e471" x="96.736627" y="183.71476" style="fill: #ffb84c; stroke: #ffb84c"/>
     <use xlink:href="#m27bcd6e471" x="88.412251" y="163.32112" style="fill: #ffb84c; stroke: #ffb84c"/>
     <use xlink:href="#m27bcd6e471" x="96.792172" y="295.488" style="fill: #ffb84c; stroke: #ffb84c"/>
     <use xlink:href="#m27bcd6e471" x="94.060724" y="209.073301" style="fill: #ffb84c; stroke: #ffb84c"/>
     <use xlink:href="#m27bcd6e471" x="140.203852" y="62.06013" style="fill: #ffb84c; stroke: #ffb84c"/>
     <use xlink:href="#m27bcd6e471" x="85.400685" y="124.403478" style="fill: #ffb84c; stroke: #ffb84c"/>
     <use xlink:href="#m27bcd6e471" x="104.944048" y="190.76908" style="fill: #ffb84c; stroke: #ffb84c"/>
     <use xlink:href="#m27bcd6e471" x="86.725693" y="199.488946" style="fill: #ffb84c; stroke: #ffb84c"/>
     <use xlink:href="#m27bcd6e471" x="84.907732" y="186.822588" style="fill: #ffb84c; stroke: #ffb84c"/>
     <use xlink:href="#m27bcd6e471" x="94.332198" y="126.139713" style="fill: #ffb84c; stroke: #ffb84c"/>
     <use xlink:href="#m27bcd6e471" x="146.986362" y="94.99781" style="fill: #ffb84c; stroke: #ffb84c"/>
     <use xlink:href="#m27bcd6e471" x="153.967027" y="173.928826" style="fill: #ffb84c; stroke: #ffb84c"/>
     <use xlink:href="#m27bcd6e471" x="131.083439" y="139.034631" style="fill: #ffb84c; stroke: #ffb84c"/>
     <use xlink:href="#m27bcd6e471" x="113.214863" y="118.664889" style="fill: #ffb84c; stroke: #ffb84c"/>
     <use xlink:href="#m27bcd6e471" x="105.585819" y="104.512659" style="fill: #ffb84c; stroke: #ffb84c"/>
     <use xlink:href="#m27bcd6e471" x="76.569669" y="160.120283" style="fill: #ffb84c; stroke: #ffb84c"/>
     <use xlink:href="#m27bcd6e471" x="93.251184" y="249.221702" style="fill: #ffb84c; stroke: #ffb84c"/>
     <use xlink:href="#m27bcd6e471" x="98.230188" y="221.384543" style="fill: #ffb84c; stroke: #ffb84c"/>
     <use xlink:href="#m27bcd6e471" x="159.837239" y="257.341447" style="fill: #ffb84c; stroke: #ffb84c"/>
     <use xlink:href="#m27bcd6e471" x="178.643319" y="149.847282" style="fill: #ffb84c; stroke: #ffb84c"/>
     <use xlink:href="#m27bcd6e471" x="114.363124" y="197.076227" style="fill: #ffb84c; stroke: #ffb84c"/>
     <use xlink:href="#m27bcd6e471" x="94.430421" y="240.105196" style="fill: #ffb84c; stroke: #ffb84c"/>
     <use xlink:href="#m27bcd6e471" x="99.640483" y="141.370765" style="fill: #ffb84c; stroke: #ffb84c"/>
     <use xlink:href="#m27bcd6e471" x="91.497413" y="224.042644" style="fill: #ffb84c; stroke: #ffb84c"/>
     <use xlink:href="#m27bcd6e471" x="119.544599" y="243.367674" style="fill: #ffb84c; stroke: #ffb84c"/>
     <use xlink:href="#m27bcd6e471" x="94.487213" y="163.192086" style="fill: #ffb84c; stroke: #ffb84c"/>
     <use xlink:href="#m27bcd6e471" x="105.633286" y="159.71777" style="fill: #ffb84c; stroke: #ffb84c"/>
     <use xlink:href="#m27bcd6e471" x="107.988817" y="108.332416" style="fill: #ffb84c; stroke: #ffb84c"/>
     <use xlink:href="#m27bcd6e471" x="162.038602" y="242.394555" style="fill: #ffb84c; stroke: #ffb84c"/>
     <use xlink:href="#m27bcd6e471" x="93.115315" y="169.112175" style="fill: #ffb84c; stroke: #ffb84c"/>
     <use xlink:href="#m27bcd6e471" x="99.511919" y="106.775985" style="fill: #ffb84c; stroke: #ffb84c"/>
     <use xlink:href="#m27bcd6e471" x="104.625107" y="276.973762" style="fill: #ffb84c; stroke: #ffb84c"/>
     <use xlink:href="#m27bcd6e471" x="99.725331" y="132.595894" style="fill: #ffb84c; stroke: #ffb84c"/>
     <use xlink:href="#m27bcd6e471" x="90.056489" y="248.690697" style="fill: #ffb84c; stroke: #ffb84c"/>
     <use xlink:href="#m27bcd6e471" x="138.702973" y="167.686975" style="fill: #ffb84c; stroke: #ffb84c"/>
     <use xlink:href="#m27bcd6e471" x="75.532257" y="160.606728" style="fill: #ffb84c; stroke: #ffb84c"/>
     <use xlink:href="#m27bcd6e471" x="102.591622" y="249.685235" style="fill: #ffb84c; stroke: #ffb84c"/>
     <use xlink:href="#m27bcd6e471" x="161.143972" y="74.541009" style="fill: #ffb84c; stroke: #ffb84c"/>
     <use xlink:href="#m27bcd6e471" x="73.832727" y="232.647645" style="fill: #ffb84c; stroke: #ffb84c"/>
     <use xlink:href="#m27bcd6e471" x="179.082532" y="186.644014" style="fill: #ffb84c; stroke: #ffb84c"/>
     <use xlink:href="#m27bcd6e471" x="109.601237" y="152.759978" style="fill: #ffb84c; stroke: #ffb84c"/>
     <use xlink:href="#m27bcd6e471" x="86.097817" y="244.527975" style="fill: #ffb84c; stroke: #ffb84c"/>
     <use xlink:href="#m27bcd6e471" x="96.54565" y="140.158816" style="fill: #ffb84c; stroke: #ffb84c"/>
     <use xlink:href="#m27bcd6e471" x="98.103032" y="237.320563" style="fill: #ffb84c; stroke: #ffb84c"/>
     <use xlink:href="#m27bcd6e471" x="115.605004" y="278.336735" style="fill: #ffb84c; stroke: #ffb84c"/>
     <use xlink:href="#m27bcd6e471" x="74.809481" y="274.55639" style="fill: #ffb84c; stroke: #ffb84c"/>
     <use xlink:href="#m27bcd6e471" x="135.351843" y="196.336281" style="fill: #ffb84c; stroke: #ffb84c"/>
     <use xlink:href="#m27bcd6e471" x="233.10571" y="172.747697" style="fill: #ffb84c; stroke: #ffb84c"/>
     <use xlink:href="#m27bcd6e471" x="138.16174" y="184.088125" style="fill: #ffb84c; stroke: #ffb84c"/>
     <use xlink:href="#m27bcd6e471" x="113.254344" y="227.863734" style="fill: #ffb84c; stroke: #ffb84c"/>
     <use xlink:href="#m27bcd6e471" x="92.536845" y="259.946785" style="fill: #ffb84c; stroke: #ffb84c"/>
     <use xlink:href="#m27bcd6e471" x="75.690677" y="263.282683" style="fill: #ffb84c; stroke: #ffb84c"/>
     <use xlink:href="#m27bcd6e471" x="265.593845" y="130.849321" style="fill: #ffb84c; stroke: #ffb84c"/>
     <use xlink:href="#m27bcd6e471" x="138.892184" y="118.62305" style="fill: #ffb84c; stroke: #ffb84c"/>
     <use xlink:href="#m27bcd6e471" x="161.510271" y="176.987544" style="fill: #ffb84c; stroke: #ffb84c"/>
     <use xlink:href="#m27bcd6e471" x="182.865934" y="97.921513" style="fill: #ffb84c; stroke: #ffb84c"/>
     <use xlink:href="#m27bcd6e471" x="144.399866" y="146.413086" style="fill: #ffb84c; stroke: #ffb84c"/>
     <use xlink:href="#m27bcd6e471" x="80.750593" y="115.392542" style="fill: #ffb84c; stroke: #ffb84c"/>
     <use xlink:href="#m27bcd6e471" x="199.49412" y="135.172112" style="fill: #ffb84c; stroke: #ffb84c"/>
     <use xlink:href="#m27bcd6e471" x="90.098601" y="288.419069" style="fill: #ffb84c; stroke: #ffb84c"/>
     <use xlink:href="#m27bcd6e471" x="94.75174" y="228.649877" style="fill: #ffb84c; stroke: #ffb84c"/>
     <use xlink:href="#m27bcd6e471" x="161.493987" y="97.983088" style="fill: #ffb84c; stroke: #ffb84c"/>
     <use xlink:href="#m27bcd6e471" x="169.657311" y="117.649027" style="fill: #ffb84c; stroke: #ffb84c"/>
     <use xlink:href="#m27bcd6e471" x="157.891458" y="221.327328" style="fill: #ffb84c; stroke: #ffb84c"/>
     <use xlink:href="#m27bcd6e471" x="113.240333" y="198.929384" style="fill: #ffb84c; stroke: #ffb84c"/>
     <use xlink:href="#m27bcd6e471" x="113.182283" y="261.213984" style="fill: #ffb84c; stroke: #ffb84c"/>
     <use xlink:href="#m27bcd6e471" x="121.086574" y="238.092603" style="fill: #ffb84c; stroke: #ffb84c"/>
     <use xlink:href="#m27bcd6e471" x="106.595603" y="138.526458" style="fill: #ffb84c; stroke: #ffb84c"/>
     <use xlink:href="#m27bcd6e471" x="125.684559" y="204.92417" style="fill: #ffb84c; stroke: #ffb84c"/>
     <use xlink:href="#m27bcd6e471" x="121.137769" y="272.328326" style="fill: #ffb84c; stroke: #ffb84c"/>
     <use xlink:href="#m27bcd6e471" x="252.059335" y="215.501047" style="fill: #ffb84c; stroke: #ffb84c"/>
     <use xlink:href="#m27bcd6e471" x="102.26743" y="167.885878" style="fill: #ffb84c; stroke: #ffb84c"/>
     <use xlink:href="#m27bcd6e471" x="135.906412" y="165.944036" style="fill: #ffb84c; stroke: #ffb84c"/>
     <use xlink:href="#m27bcd6e471" x="98.530052" y="166.653456" style="fill: #ffb84c; stroke: #ffb84c"/>
     <use xlink:href="#m27bcd6e471" x="104.934631" y="282.898064" style="fill: #ffb84c; stroke: #ffb84c"/>
     <use xlink:href="#m27bcd6e471" x="157.396502" y="86.258193" style="fill: #ffb84c; stroke: #ffb84c"/>
     <use xlink:href="#m27bcd6e471" x="144.258722" y="253.713042" style="fill: #ffb84c; stroke: #ffb84c"/>
     <use xlink:href="#m27bcd6e471" x="92.533233" y="198.153872" style="fill: #ffb84c; stroke: #ffb84c"/>
     <use xlink:href="#m27bcd6e471" x="79.003504" y="283.980749" style="fill: #ffb84c; stroke: #ffb84c"/>
     <use xlink:href="#m27bcd6e471" x="104.630508" y="188.228308" style="fill: #ffb84c; stroke: #ffb84c"/>
     <use xlink:href="#m27bcd6e471" x="166.818908" y="235.836574" style="fill: #ffb84c; stroke: #ffb84c"/>
     <use xlink:href="#m27bcd6e471" x="76.3968" y="188.652517" style="fill: #ffb84c; stroke: #ffb84c"/>
     <use xlink:href="#m27bcd6e471" x="137.718799" y="193.215597" style="fill: #ffb84c; stroke: #ffb84c"/>
     <use xlink:href="#m27bcd6e471" x="108.087225" y="144.597562" style="fill: #ffb84c; stroke: #ffb84c"/>
    </g>
   </g>
   <g id="matplotlib.axis_1">
    <g id="xtick_1">
     <g id="line2d_1">
      <defs>
       <path id="md56bba4035" d="M 0 0 
L 0 3.5 
" style="stroke: #000000; stroke-width: 0.8"/>
      </defs>
      <g>
       <use xlink:href="#md56bba4035" x="88.63358" y="307.584" style="stroke: #000000; stroke-width: 0.8"/>
      </g>
     </g>
     <g id="text_1">
      <!-- −3 -->
      <g transform="translate(79.051158 324.461969) scale(0.13 -0.13)">
       <defs>
        <path id="DejaVuSans-2212" d="M 678 2272 
L 4684 2272 
L 4684 1741 
L 678 1741 
L 678 2272 
z
" transform="scale(0.015625)"/>
        <path id="DejaVuSans-33" d="M 2597 2516 
Q 3050 2419 3304 2112 
Q 3559 1806 3559 1356 
Q 3559 666 3084 287 
Q 2609 -91 1734 -91 
Q 1441 -91 1130 -33 
Q 819 25 488 141 
L 488 750 
Q 750 597 1062 519 
Q 1375 441 1716 441 
Q 2309 441 2620 675 
Q 2931 909 2931 1356 
Q 2931 1769 2642 2001 
Q 2353 2234 1838 2234 
L 1294 2234 
L 1294 2753 
L 1863 2753 
Q 2328 2753 2575 2939 
Q 2822 3125 2822 3475 
Q 2822 3834 2567 4026 
Q 2313 4219 1838 4219 
Q 1578 4219 1281 4162 
Q 984 4106 628 3988 
L 628 4550 
Q 988 4650 1302 4700 
Q 1616 4750 1894 4750 
Q 2613 4750 3031 4423 
Q 3450 4097 3450 3541 
Q 3450 3153 3228 2886 
Q 3006 2619 2597 2516 
z
" transform="scale(0.015625)"/>
       </defs>
       <use xlink:href="#DejaVuSans-2212"/>
       <use xlink:href="#DejaVuSans-33" transform="translate(83.789062 0)"/>
      </g>
     </g>
    </g>
    <g id="xtick_2">
     <g id="line2d_2">
      <g>
       <use xlink:href="#md56bba4035" x="137.039116" y="307.584" style="stroke: #000000; stroke-width: 0.8"/>
      </g>
     </g>
     <g id="text_2">
      <!-- −2 -->
      <g transform="translate(127.456694 324.461969) scale(0.13 -0.13)">
       <defs>
        <path id="DejaVuSans-32" d="M 1228 531 
L 3431 531 
L 3431 0 
L 469 0 
L 469 531 
Q 828 903 1448 1529 
Q 2069 2156 2228 2338 
Q 2531 2678 2651 2914 
Q 2772 3150 2772 3378 
Q 2772 3750 2511 3984 
Q 2250 4219 1831 4219 
Q 1534 4219 1204 4116 
Q 875 4013 500 3803 
L 500 4441 
Q 881 4594 1212 4672 
Q 1544 4750 1819 4750 
Q 2544 4750 2975 4387 
Q 3406 4025 3406 3419 
Q 3406 3131 3298 2873 
Q 3191 2616 2906 2266 
Q 2828 2175 2409 1742 
Q 1991 1309 1228 531 
z
" transform="scale(0.015625)"/>
       </defs>
       <use xlink:href="#DejaVuSans-2212"/>
       <use xlink:href="#DejaVuSans-32" transform="translate(83.789062 0)"/>
      </g>
     </g>
    </g>
    <g id="xtick_3">
     <g id="line2d_3">
      <g>
       <use xlink:href="#md56bba4035" x="185.444652" y="307.584" style="stroke: #000000; stroke-width: 0.8"/>
      </g>
     </g>
     <g id="text_3">
      <!-- −1 -->
      <g transform="translate(175.86223 324.461969) scale(0.13 -0.13)">
       <defs>
        <path id="DejaVuSans-31" d="M 794 531 
L 1825 531 
L 1825 4091 
L 703 3866 
L 703 4441 
L 1819 4666 
L 2450 4666 
L 2450 531 
L 3481 531 
L 3481 0 
L 794 0 
L 794 531 
z
" transform="scale(0.015625)"/>
       </defs>
       <use xlink:href="#DejaVuSans-2212"/>
       <use xlink:href="#DejaVuSans-31" transform="translate(83.789062 0)"/>
      </g>
     </g>
    </g>
    <g id="xtick_4">
     <g id="line2d_4">
      <g>
       <use xlink:href="#md56bba4035" x="233.850188" y="307.584" style="stroke: #000000; stroke-width: 0.8"/>
      </g>
     </g>
     <g id="text_4">
      <!-- 0 -->
      <g transform="translate(229.714563 324.461969) scale(0.13 -0.13)">
       <defs>
        <path id="DejaVuSans-30" d="M 2034 4250 
Q 1547 4250 1301 3770 
Q 1056 3291 1056 2328 
Q 1056 1369 1301 889 
Q 1547 409 2034 409 
Q 2525 409 2770 889 
Q 3016 1369 3016 2328 
Q 3016 3291 2770 3770 
Q 2525 4250 2034 4250 
z
M 2034 4750 
Q 2819 4750 3233 4129 
Q 3647 3509 3647 2328 
Q 3647 1150 3233 529 
Q 2819 -91 2034 -91 
Q 1250 -91 836 529 
Q 422 1150 422 2328 
Q 422 3509 836 4129 
Q 1250 4750 2034 4750 
z
" transform="scale(0.015625)"/>
       </defs>
       <use xlink:href="#DejaVuSans-30"/>
      </g>
     </g>
    </g>
    <g id="xtick_5">
     <g id="line2d_5">
      <g>
       <use xlink:href="#md56bba4035" x="282.255724" y="307.584" style="stroke: #000000; stroke-width: 0.8"/>
      </g>
     </g>
     <g id="text_5">
      <!-- 1 -->
      <g transform="translate(278.120099 324.461969) scale(0.13 -0.13)">
       <use xlink:href="#DejaVuSans-31"/>
      </g>
     </g>
    </g>
    <g id="xtick_6">
     <g id="line2d_6">
      <g>
       <use xlink:href="#md56bba4035" x="330.66126" y="307.584" style="stroke: #000000; stroke-width: 0.8"/>
      </g>
     </g>
     <g id="text_6">
      <!-- 2 -->
      <g transform="translate(326.525635 324.461969) scale(0.13 -0.13)">
       <use xlink:href="#DejaVuSans-32"/>
      </g>
     </g>
    </g>
    <g id="xtick_7">
     <g id="line2d_7">
      <g>
       <use xlink:href="#md56bba4035" x="379.066796" y="307.584" style="stroke: #000000; stroke-width: 0.8"/>
      </g>
     </g>
     <g id="text_7">
      <!-- 3 -->
      <g transform="translate(374.931171 324.461969) scale(0.13 -0.13)">
       <use xlink:href="#DejaVuSans-33"/>
      </g>
     </g>
    </g>
    <g id="text_8">
     <!-- Component 1 -->
     <g transform="translate(185.461172 342.563219) scale(0.15 -0.15)">
      <defs>
       <path id="DejaVuSans-43" d="M 4122 4306 
L 4122 3641 
Q 3803 3938 3442 4084 
Q 3081 4231 2675 4231 
Q 1875 4231 1450 3742 
Q 1025 3253 1025 2328 
Q 1025 1406 1450 917 
Q 1875 428 2675 428 
Q 3081 428 3442 575 
Q 3803 722 4122 1019 
L 4122 359 
Q 3791 134 3420 21 
Q 3050 -91 2638 -91 
Q 1578 -91 968 557 
Q 359 1206 359 2328 
Q 359 3453 968 4101 
Q 1578 4750 2638 4750 
Q 3056 4750 3426 4639 
Q 3797 4528 4122 4306 
z
" transform="scale(0.015625)"/>
       <path id="DejaVuSans-6f" d="M 1959 3097 
Q 1497 3097 1228 2736 
Q 959 2375 959 1747 
Q 959 1119 1226 758 
Q 1494 397 1959 397 
Q 2419 397 2687 759 
Q 2956 1122 2956 1747 
Q 2956 2369 2687 2733 
Q 2419 3097 1959 3097 
z
M 1959 3584 
Q 2709 3584 3137 3096 
Q 3566 2609 3566 1747 
Q 3566 888 3137 398 
Q 2709 -91 1959 -91 
Q 1206 -91 779 398 
Q 353 888 353 1747 
Q 353 2609 779 3096 
Q 1206 3584 1959 3584 
z
" transform="scale(0.015625)"/>
       <path id="DejaVuSans-6d" d="M 3328 2828 
Q 3544 3216 3844 3400 
Q 4144 3584 4550 3584 
Q 5097 3584 5394 3201 
Q 5691 2819 5691 2113 
L 5691 0 
L 5113 0 
L 5113 2094 
Q 5113 2597 4934 2840 
Q 4756 3084 4391 3084 
Q 3944 3084 3684 2787 
Q 3425 2491 3425 1978 
L 3425 0 
L 2847 0 
L 2847 2094 
Q 2847 2600 2669 2842 
Q 2491 3084 2119 3084 
Q 1678 3084 1418 2786 
Q 1159 2488 1159 1978 
L 1159 0 
L 581 0 
L 581 3500 
L 1159 3500 
L 1159 2956 
Q 1356 3278 1631 3431 
Q 1906 3584 2284 3584 
Q 2666 3584 2933 3390 
Q 3200 3197 3328 2828 
z
" transform="scale(0.015625)"/>
       <path id="DejaVuSans-70" d="M 1159 525 
L 1159 -1331 
L 581 -1331 
L 581 3500 
L 1159 3500 
L 1159 2969 
Q 1341 3281 1617 3432 
Q 1894 3584 2278 3584 
Q 2916 3584 3314 3078 
Q 3713 2572 3713 1747 
Q 3713 922 3314 415 
Q 2916 -91 2278 -91 
Q 1894 -91 1617 61 
Q 1341 213 1159 525 
z
M 3116 1747 
Q 3116 2381 2855 2742 
Q 2594 3103 2138 3103 
Q 1681 3103 1420 2742 
Q 1159 2381 1159 1747 
Q 1159 1113 1420 752 
Q 1681 391 2138 391 
Q 2594 391 2855 752 
Q 3116 1113 3116 1747 
z
" transform="scale(0.015625)"/>
       <path id="DejaVuSans-6e" d="M 3513 2113 
L 3513 0 
L 2938 0 
L 2938 2094 
Q 2938 2591 2744 2837 
Q 2550 3084 2163 3084 
Q 1697 3084 1428 2787 
Q 1159 2491 1159 1978 
L 1159 0 
L 581 0 
L 581 3500 
L 1159 3500 
L 1159 2956 
Q 1366 3272 1645 3428 
Q 1925 3584 2291 3584 
Q 2894 3584 3203 3211 
Q 3513 2838 3513 2113 
z
" transform="scale(0.015625)"/>
       <path id="DejaVuSans-65" d="M 3597 1894 
L 3597 1613 
L 953 1613 
Q 991 1019 1311 708 
Q 1631 397 2203 397 
Q 2534 397 2845 478 
Q 3156 559 3463 722 
L 3463 178 
Q 3153 47 2828 -22 
Q 2503 -91 2169 -91 
Q 1331 -91 842 396 
Q 353 884 353 1716 
Q 353 2575 817 3079 
Q 1281 3584 2069 3584 
Q 2775 3584 3186 3129 
Q 3597 2675 3597 1894 
z
M 3022 2063 
Q 3016 2534 2758 2815 
Q 2500 3097 2075 3097 
Q 1594 3097 1305 2825 
Q 1016 2553 972 2059 
L 3022 2063 
z
" transform="scale(0.015625)"/>
       <path id="DejaVuSans-74" d="M 1172 4494 
L 1172 3500 
L 2356 3500 
L 2356 3053 
L 1172 3053 
L 1172 1153 
Q 1172 725 1289 603 
Q 1406 481 1766 481 
L 2356 481 
L 2356 0 
L 1766 0 
Q 1100 0 847 248 
Q 594 497 594 1153 
L 594 3053 
L 172 3053 
L 172 3500 
L 594 3500 
L 594 4494 
L 1172 4494 
z
" transform="scale(0.015625)"/>
       <path id="DejaVuSans-20" transform="scale(0.015625)"/>
      </defs>
      <use xlink:href="#DejaVuSans-43"/>
      <use xlink:href="#DejaVuSans-6f" transform="translate(69.824219 0)"/>
      <use xlink:href="#DejaVuSans-6d" transform="translate(131.005859 0)"/>
      <use xlink:href="#DejaVuSans-70" transform="translate(228.417969 0)"/>
      <use xlink:href="#DejaVuSans-6f" transform="translate(291.894531 0)"/>
      <use xlink:href="#DejaVuSans-6e" transform="translate(353.076172 0)"/>
      <use xlink:href="#DejaVuSans-65" transform="translate(416.455078 0)"/>
      <use xlink:href="#DejaVuSans-6e" transform="translate(477.978516 0)"/>
      <use xlink:href="#DejaVuSans-74" transform="translate(541.357422 0)"/>
      <use xlink:href="#DejaVuSans-20" transform="translate(580.566406 0)"/>
      <use xlink:href="#DejaVuSans-31" transform="translate(612.353516 0)"/>
     </g>
    </g>
   </g>
   <g id="matplotlib.axis_2">
    <g id="ytick_1">
     <g id="line2d_8">
      <defs>
       <path id="m83816e9ce0" d="M 0 0 
L -3.5 0 
" style="stroke: #000000; stroke-width: 0.8"/>
      </defs>
      <g>
       <use xlink:href="#m83816e9ce0" x="57.6" y="307.251288" style="stroke: #000000; stroke-width: 0.8"/>
      </g>
     </g>
     <g id="text_9">
      <!-- −3 -->
      <g transform="translate(31.435156 312.190272) scale(0.13 -0.13)">
       <use xlink:href="#DejaVuSans-2212"/>
       <use xlink:href="#DejaVuSans-33" transform="translate(83.789062 0)"/>
      </g>
     </g>
    </g>
    <g id="ytick_2">
     <g id="line2d_9">
      <g>
       <use xlink:href="#m83816e9ce0" x="57.6" y="265.359502" style="stroke: #000000; stroke-width: 0.8"/>
      </g>
     </g>
     <g id="text_10">
      <!-- −2 -->
      <g transform="translate(31.435156 270.298487) scale(0.13 -0.13)">
       <use xlink:href="#DejaVuSans-2212"/>
       <use xlink:href="#DejaVuSans-32" transform="translate(83.789062 0)"/>
      </g>
     </g>
    </g>
    <g id="ytick_3">
     <g id="line2d_10">
      <g>
       <use xlink:href="#m83816e9ce0" x="57.6" y="223.467717" style="stroke: #000000; stroke-width: 0.8"/>
      </g>
     </g>
     <g id="text_11">
      <!-- −1 -->
      <g transform="translate(31.435156 228.406701) scale(0.13 -0.13)">
       <use xlink:href="#DejaVuSans-2212"/>
       <use xlink:href="#DejaVuSans-31" transform="translate(83.789062 0)"/>
      </g>
     </g>
    </g>
    <g id="ytick_4">
     <g id="line2d_11">
      <g>
       <use xlink:href="#m83816e9ce0" x="57.6" y="181.575932" style="stroke: #000000; stroke-width: 0.8"/>
      </g>
     </g>
     <g id="text_12">
      <!-- 0 -->
      <g transform="translate(42.32875 186.514916) scale(0.13 -0.13)">
       <use xlink:href="#DejaVuSans-30"/>
      </g>
     </g>
    </g>
    <g id="ytick_5">
     <g id="line2d_12">
      <g>
       <use xlink:href="#m83816e9ce0" x="57.6" y="139.684147" style="stroke: #000000; stroke-width: 0.8"/>
      </g>
     </g>
     <g id="text_13">
      <!-- 1 -->
      <g transform="translate(42.32875 144.623131) scale(0.13 -0.13)">
       <use xlink:href="#DejaVuSans-31"/>
      </g>
     </g>
    </g>
    <g id="ytick_6">
     <g id="line2d_13">
      <g>
       <use xlink:href="#m83816e9ce0" x="57.6" y="97.792361" style="stroke: #000000; stroke-width: 0.8"/>
      </g>
     </g>
     <g id="text_14">
      <!-- 2 -->
      <g transform="translate(42.32875 102.731346) scale(0.13 -0.13)">
       <use xlink:href="#DejaVuSans-32"/>
      </g>
     </g>
    </g>
    <g id="ytick_7">
     <g id="line2d_14">
      <g>
       <use xlink:href="#m83816e9ce0" x="57.6" y="55.900576" style="stroke: #000000; stroke-width: 0.8"/>
      </g>
     </g>
     <g id="text_15">
      <!-- 3 -->
      <g transform="translate(42.32875 60.83956) scale(0.13 -0.13)">
       <use xlink:href="#DejaVuSans-33"/>
      </g>
     </g>
    </g>
    <g id="text_16">
     <!-- Component 2 -->
     <g transform="translate(24.315625 225.226828) rotate(-90) scale(0.15 -0.15)">
      <use xlink:href="#DejaVuSans-43"/>
      <use xlink:href="#DejaVuSans-6f" transform="translate(69.824219 0)"/>
      <use xlink:href="#DejaVuSans-6d" transform="translate(131.005859 0)"/>
      <use xlink:href="#DejaVuSans-70" transform="translate(228.417969 0)"/>
      <use xlink:href="#DejaVuSans-6f" transform="translate(291.894531 0)"/>
      <use xlink:href="#DejaVuSans-6e" transform="translate(353.076172 0)"/>
      <use xlink:href="#DejaVuSans-65" transform="translate(416.455078 0)"/>
      <use xlink:href="#DejaVuSans-6e" transform="translate(477.978516 0)"/>
      <use xlink:href="#DejaVuSans-74" transform="translate(541.357422 0)"/>
      <use xlink:href="#DejaVuSans-20" transform="translate(580.566406 0)"/>
      <use xlink:href="#DejaVuSans-32" transform="translate(612.353516 0)"/>
     </g>
    </g>
   </g>
   <g id="patch_3">
    <path d="M 57.6 307.584 
L 57.6 41.472 
" style="fill: none; stroke: #000000; stroke-width: 0.8; stroke-linejoin: miter; stroke-linecap: square"/>
   </g>
   <g id="patch_4">
    <path d="M 414.72 307.584 
L 414.72 41.472 
" style="fill: none; stroke: #000000; stroke-width: 0.8; stroke-linejoin: miter; stroke-linecap: square"/>
   </g>
   <g id="patch_5">
    <path d="M 57.6 307.584 
L 414.72 307.584 
" style="fill: none; stroke: #000000; stroke-width: 0.8; stroke-linejoin: miter; stroke-linecap: square"/>
   </g>
   <g id="patch_6">
    <path d="M 57.6 41.472 
L 414.72 41.472 
" style="fill: none; stroke: #000000; stroke-width: 0.8; stroke-linejoin: miter; stroke-linecap: square"/>
   </g>
   <g id="text_17">
    <!-- Layer 10 activations (PCA) -->
    <g transform="translate(123.505781 35.472) scale(0.17 -0.17)">
     <defs>
      <path id="DejaVuSans-4c" d="M 628 4666 
L 1259 4666 
L 1259 531 
L 3531 531 
L 3531 0 
L 628 0 
L 628 4666 
z
" transform="scale(0.015625)"/>
      <path id="DejaVuSans-61" d="M 2194 1759 
Q 1497 1759 1228 1600 
Q 959 1441 959 1056 
Q 959 750 1161 570 
Q 1363 391 1709 391 
Q 2188 391 2477 730 
Q 2766 1069 2766 1631 
L 2766 1759 
L 2194 1759 
z
M 3341 1997 
L 3341 0 
L 2766 0 
L 2766 531 
Q 2569 213 2275 61 
Q 1981 -91 1556 -91 
Q 1019 -91 701 211 
Q 384 513 384 1019 
Q 384 1609 779 1909 
Q 1175 2209 1959 2209 
L 2766 2209 
L 2766 2266 
Q 2766 2663 2505 2880 
Q 2244 3097 1772 3097 
Q 1472 3097 1187 3025 
Q 903 2953 641 2809 
L 641 3341 
Q 956 3463 1253 3523 
Q 1550 3584 1831 3584 
Q 2591 3584 2966 3190 
Q 3341 2797 3341 1997 
z
" transform="scale(0.015625)"/>
      <path id="DejaVuSans-79" d="M 2059 -325 
Q 1816 -950 1584 -1140 
Q 1353 -1331 966 -1331 
L 506 -1331 
L 506 -850 
L 844 -850 
Q 1081 -850 1212 -737 
Q 1344 -625 1503 -206 
L 1606 56 
L 191 3500 
L 800 3500 
L 1894 763 
L 2988 3500 
L 3597 3500 
L 2059 -325 
z
" transform="scale(0.015625)"/>
      <path id="DejaVuSans-72" d="M 2631 2963 
Q 2534 3019 2420 3045 
Q 2306 3072 2169 3072 
Q 1681 3072 1420 2755 
Q 1159 2438 1159 1844 
L 1159 0 
L 581 0 
L 581 3500 
L 1159 3500 
L 1159 2956 
Q 1341 3275 1631 3429 
Q 1922 3584 2338 3584 
Q 2397 3584 2469 3576 
Q 2541 3569 2628 3553 
L 2631 2963 
z
" transform="scale(0.015625)"/>
      <path id="DejaVuSans-63" d="M 3122 3366 
L 3122 2828 
Q 2878 2963 2633 3030 
Q 2388 3097 2138 3097 
Q 1578 3097 1268 2742 
Q 959 2388 959 1747 
Q 959 1106 1268 751 
Q 1578 397 2138 397 
Q 2388 397 2633 464 
Q 2878 531 3122 666 
L 3122 134 
Q 2881 22 2623 -34 
Q 2366 -91 2075 -91 
Q 1284 -91 818 406 
Q 353 903 353 1747 
Q 353 2603 823 3093 
Q 1294 3584 2113 3584 
Q 2378 3584 2631 3529 
Q 2884 3475 3122 3366 
z
" transform="scale(0.015625)"/>
      <path id="DejaVuSans-69" d="M 603 3500 
L 1178 3500 
L 1178 0 
L 603 0 
L 603 3500 
z
M 603 4863 
L 1178 4863 
L 1178 4134 
L 603 4134 
L 603 4863 
z
" transform="scale(0.015625)"/>
      <path id="DejaVuSans-76" d="M 191 3500 
L 800 3500 
L 1894 563 
L 2988 3500 
L 3597 3500 
L 2284 0 
L 1503 0 
L 191 3500 
z
" transform="scale(0.015625)"/>
      <path id="DejaVuSans-73" d="M 2834 3397 
L 2834 2853 
Q 2591 2978 2328 3040 
Q 2066 3103 1784 3103 
Q 1356 3103 1142 2972 
Q 928 2841 928 2578 
Q 928 2378 1081 2264 
Q 1234 2150 1697 2047 
L 1894 2003 
Q 2506 1872 2764 1633 
Q 3022 1394 3022 966 
Q 3022 478 2636 193 
Q 2250 -91 1575 -91 
Q 1294 -91 989 -36 
Q 684 19 347 128 
L 347 722 
Q 666 556 975 473 
Q 1284 391 1588 391 
Q 1994 391 2212 530 
Q 2431 669 2431 922 
Q 2431 1156 2273 1281 
Q 2116 1406 1581 1522 
L 1381 1569 
Q 847 1681 609 1914 
Q 372 2147 372 2553 
Q 372 3047 722 3315 
Q 1072 3584 1716 3584 
Q 2034 3584 2315 3537 
Q 2597 3491 2834 3397 
z
" transform="scale(0.015625)"/>
      <path id="DejaVuSans-28" d="M 1984 4856 
Q 1566 4138 1362 3434 
Q 1159 2731 1159 2009 
Q 1159 1288 1364 580 
Q 1569 -128 1984 -844 
L 1484 -844 
Q 1016 -109 783 600 
Q 550 1309 550 2009 
Q 550 2706 781 3412 
Q 1013 4119 1484 4856 
L 1984 4856 
z
" transform="scale(0.015625)"/>
      <path id="DejaVuSans-50" d="M 1259 4147 
L 1259 2394 
L 2053 2394 
Q 2494 2394 2734 2622 
Q 2975 2850 2975 3272 
Q 2975 3691 2734 3919 
Q 2494 4147 2053 4147 
L 1259 4147 
z
M 628 4666 
L 2053 4666 
Q 2838 4666 3239 4311 
Q 3641 3956 3641 3272 
Q 3641 2581 3239 2228 
Q 2838 1875 2053 1875 
L 1259 1875 
L 1259 0 
L 628 0 
L 628 4666 
z
" transform="scale(0.015625)"/>
      <path id="DejaVuSans-41" d="M 2188 4044 
L 1331 1722 
L 3047 1722 
L 2188 4044 
z
M 1831 4666 
L 2547 4666 
L 4325 0 
L 3669 0 
L 3244 1197 
L 1141 1197 
L 716 0 
L 50 0 
L 1831 4666 
z
" transform="scale(0.015625)"/>
      <path id="DejaVuSans-29" d="M 513 4856 
L 1013 4856 
Q 1481 4119 1714 3412 
Q 1947 2706 1947 2009 
Q 1947 1309 1714 600 
Q 1481 -109 1013 -844 
L 513 -844 
Q 928 -128 1133 580 
Q 1338 1288 1338 2009 
Q 1338 2731 1133 3434 
Q 928 4138 513 4856 
z
" transform="scale(0.015625)"/>
     </defs>
     <use xlink:href="#DejaVuSans-4c"/>
     <use xlink:href="#DejaVuSans-61" transform="translate(55.712891 0)"/>
     <use xlink:href="#DejaVuSans-79" transform="translate(116.992188 0)"/>
     <use xlink:href="#DejaVuSans-65" transform="translate(176.171875 0)"/>
     <use xlink:href="#DejaVuSans-72" transform="translate(237.695312 0)"/>
     <use xlink:href="#DejaVuSans-20" transform="translate(278.808594 0)"/>
     <use xlink:href="#DejaVuSans-31" transform="translate(310.595703 0)"/>
     <use xlink:href="#DejaVuSans-30" transform="translate(374.21875 0)"/>
     <use xlink:href="#DejaVuSans-20" transform="translate(437.841797 0)"/>
     <use xlink:href="#DejaVuSans-61" transform="translate(469.628906 0)"/>
     <use xlink:href="#DejaVuSans-63" transform="translate(530.908203 0)"/>
     <use xlink:href="#DejaVuSans-74" transform="translate(585.888672 0)"/>
     <use xlink:href="#DejaVuSans-69" transform="translate(625.097656 0)"/>
     <use xlink:href="#DejaVuSans-76" transform="translate(652.880859 0)"/>
     <use xlink:href="#DejaVuSans-61" transform="translate(712.060547 0)"/>
     <use xlink:href="#DejaVuSans-74" transform="translate(773.339844 0)"/>
     <use xlink:href="#DejaVuSans-69" transform="translate(812.548828 0)"/>
     <use xlink:href="#DejaVuSans-6f" transform="translate(840.332031 0)"/>
     <use xlink:href="#DejaVuSans-6e" transform="translate(901.513672 0)"/>
     <use xlink:href="#DejaVuSans-73" transform="translate(964.892578 0)"/>
     <use xlink:href="#DejaVuSans-20" transform="translate(1016.992188 0)"/>
     <use xlink:href="#DejaVuSans-28" transform="translate(1048.779297 0)"/>
     <use xlink:href="#DejaVuSans-50" transform="translate(1087.792969 0)"/>
     <use xlink:href="#DejaVuSans-43" transform="translate(1148.095703 0)"/>
     <use xlink:href="#DejaVuSans-41" transform="translate(1217.919922 0)"/>
     <use xlink:href="#DejaVuSans-29" transform="translate(1286.328125 0)"/>
    </g>
   </g>
  </g>
 </g>
 <defs>
  <clipPath id="pfc42d1f9b6">
   <rect x="57.6" y="41.472" width="357.12" height="266.112"/>
  </clipPath>
 </defs>
</svg>
