<?xml version="1.0" encoding="utf-8" standalone="no"?>
<!DOCTYPE svg PUBLIC "-//W3C//DTD SVG 1.1//EN"
  "http://www.w3.org/Graphics/SVG/1.1/DTD/svg11.dtd">
<svg xmlns:xlink="http://www.w3.org/1999/xlink" width="460.8pt" height="345.6pt" viewBox="0 0 460.8 345.6" xmlns="http://www.w3.org/2000/svg" version="1.1">
 <metadata>
  <rdf:RDF xmlns:dc="http://purl.org/dc/elements/1.1/" xmlns:cc="http://creativecommons.org/ns#" xmlns:rdf="http://www.w3.org/1999/02/22-rdf-syntax-ns#">
   <cc:Work>
    <dc:type rdf:resource="http://purl.org/dc/dcmitype/StillImage"/>
    <dc:date>2025-05-03T14:22:33.056731</dc:date>
    <dc:format>image/svg+xml</dc:format>
    <dc:creator>
     <cc:Agent>
      <dc:title>Matplotlib v3.10.0, https://matplotlib.org/</dc:title>
     </cc:Agent>
    </dc:creator>
   </cc:Work>
  </rdf:RDF>
 </metadata>
 <defs>
  <style type="text/css">*{stroke-linejoin: round; stroke-linecap: butt}</style>
 </defs>
 <g id="figure_1">
  <g id="patch_1">
   <path d="M 0 345.6 
L 460.8 345.6 
L 460.8 0 
L 0 0 
L 0 345.6 
z
" style="fill: none; opacity: 0"/>
  </g>
  <g id="axes_1">
   <g id="patch_2">
    <path d="M 57.6 307.584 
L 414.72 307.584 
L 414.72 41.472 
L 57.6 41.472 
L 57.6 307.584 
z
" style="fill: none"/>
   </g>
   <g id="PathCollection_1">
    <defs>
     <path id="mcbdf20d004" d="M 0 3 
C 0.795609 3 1.55874 2.683901 2.12132 2.12132 
C 2.683901 1.55874 3 0.795609 3 0 
C 3 -0.795609 2.683901 -1.55874 2.12132 -2.12132 
C 1.55874 -2.683901 0.795609 -3 0 -3 
C -0.795609 -3 -1.55874 -2.683901 -2.12132 -2.12132 
C -2.683901 -1.55874 -3 -0.795609 -3 0 
C -3 0.795609 -2.683901 1.55874 -2.12132 2.12132 
C -1.55874 2.683901 -0.795609 3 0 3 
z
" style="stroke: #a459d1"/>
    </defs>
    <g clip-path="url(#pe54bb7fe9b)">
     <use xlink:href="#mcbdf20d004" x="363.573436" y="136.3112" style="fill: #a459d1; stroke: #a459d1"/>
     <use xlink:href="#mcbdf20d004" x="361.358964" y="212.901032" style="fill: #a459d1; stroke: #a459d1"/>
     <use xlink:href="#mcbdf20d004" x="368.512027" y="145.521974" style="fill: #a459d1; stroke: #a459d1"/>
     <use xlink:href="#mcbdf20d004" x="379.659724" y="220.519272" style="fill: #a459d1; stroke: #a459d1"/>
     <use xlink:href="#mcbdf20d004" x="355.196572" y="124.901712" style="fill: #a459d1; stroke: #a459d1"/>
     <use xlink:href="#mcbdf20d004" x="298.646267" y="172.388816" style="fill: #a459d1; stroke: #a459d1"/>
     <use xlink:href="#mcbdf20d004" x="330.554517" y="95.278503" style="fill: #a459d1; stroke: #a459d1"/>
     <use xlink:href="#mcbdf20d004" x="363.452955" y="202.492271" style="fill: #a459d1; stroke: #a459d1"/>
     <use xlink:href="#mcbdf20d004" x="365.359711" y="170.169495" style="fill: #a459d1; stroke: #a459d1"/>
     <use xlink:href="#mcbdf20d004" x="359.524076" y="241.795558" style="fill: #a459d1; stroke: #a459d1"/>
     <use xlink:href="#mcbdf20d004" x="364.973752" y="213.196629" style="fill: #a459d1; stroke: #a459d1"/>
     <use xlink:href="#mcbdf20d004" x="346.144934" y="123.668167" style="fill: #a459d1; stroke: #a459d1"/>
     <use xlink:href="#mcbdf20d004" x="291.192621" y="225.152892" style="fill: #a459d1; stroke: #a459d1"/>
     <use xlink:href="#mcbdf20d004" x="371.883604" y="178.801571" style="fill: #a459d1; stroke: #a459d1"/>
     <use xlink:href="#mcbdf20d004" x="333.189937" y="111.013887" style="fill: #a459d1; stroke: #a459d1"/>
     <use xlink:href="#mcbdf20d004" x="378.838262" y="186.23479" style="fill: #a459d1; stroke: #a459d1"/>
     <use xlink:href="#mcbdf20d004" x="377.672957" y="161.605354" style="fill: #a459d1; stroke: #a459d1"/>
     <use xlink:href="#mcbdf20d004" x="339.509577" y="85.008597" style="fill: #a459d1; stroke: #a459d1"/>
     <use xlink:href="#mcbdf20d004" x="354.134786" y="138.653382" style="fill: #a459d1; stroke: #a459d1"/>
     <use xlink:href="#mcbdf20d004" x="345.294463" y="116.800303" style="fill: #a459d1; stroke: #a459d1"/>
     <use xlink:href="#mcbdf20d004" x="349.914478" y="225.67912" style="fill: #a459d1; stroke: #a459d1"/>
     <use xlink:href="#mcbdf20d004" x="317.584367" y="251.066442" style="fill: #a459d1; stroke: #a459d1"/>
     <use xlink:href="#mcbdf20d004" x="344.701392" y="280.689918" style="fill: #a459d1; stroke: #a459d1"/>
     <use xlink:href="#mcbdf20d004" x="356.188522" y="134.291184" style="fill: #a459d1; stroke: #a459d1"/>
     <use xlink:href="#mcbdf20d004" x="368.0068" y="206.771984" style="fill: #a459d1; stroke: #a459d1"/>
     <use xlink:href="#mcbdf20d004" x="333.91655" y="198.460027" style="fill: #a459d1; stroke: #a459d1"/>
     <use xlink:href="#mcbdf20d004" x="280.474943" y="281.047426" style="fill: #a459d1; stroke: #a459d1"/>
     <use xlink:href="#mcbdf20d004" x="176.678116" y="287.574642" style="fill: #a459d1; stroke: #a459d1"/>
     <use xlink:href="#mcbdf20d004" x="371.66503" y="196.484348" style="fill: #a459d1; stroke: #a459d1"/>
     <use xlink:href="#mcbdf20d004" x="346.949396" y="220.680183" style="fill: #a459d1; stroke: #a459d1"/>
     <use xlink:href="#mcbdf20d004" x="321.808413" y="135.980322" style="fill: #a459d1; stroke: #a459d1"/>
     <use xlink:href="#mcbdf20d004" x="327.764248" y="98.351381" style="fill: #a459d1; stroke: #a459d1"/>
     <use xlink:href="#mcbdf20d004" x="325.668603" y="268.37919" style="fill: #a459d1; stroke: #a459d1"/>
     <use xlink:href="#mcbdf20d004" x="372.014636" y="208.676591" style="fill: #a459d1; stroke: #a459d1"/>
     <use xlink:href="#mcbdf20d004" x="335.413257" y="111.122746" style="fill: #a459d1; stroke: #a459d1"/>
     <use xlink:href="#mcbdf20d004" x="343.18004" y="114.635054" style="fill: #a459d1; stroke: #a459d1"/>
     <use xlink:href="#mcbdf20d004" x="372.166298" y="198.31264" style="fill: #a459d1; stroke: #a459d1"/>
     <use xlink:href="#mcbdf20d004" x="376.89537" y="201.394027" style="fill: #a459d1; stroke: #a459d1"/>
     <use xlink:href="#mcbdf20d004" x="337.105059" y="118.669673" style="fill: #a459d1; stroke: #a459d1"/>
     <use xlink:href="#mcbdf20d004" x="358.332913" y="139.600932" style="fill: #a459d1; stroke: #a459d1"/>
     <use xlink:href="#mcbdf20d004" x="206.809036" y="295.488" style="fill: #a459d1; stroke: #a459d1"/>
     <use xlink:href="#mcbdf20d004" x="308.486226" y="215.793144" style="fill: #a459d1; stroke: #a459d1"/>
     <use xlink:href="#mcbdf20d004" x="382.617951" y="226.68194" style="fill: #a459d1; stroke: #a459d1"/>
     <use xlink:href="#mcbdf20d004" x="339.956166" y="132.459927" style="fill: #a459d1; stroke: #a459d1"/>
     <use xlink:href="#mcbdf20d004" x="361.680004" y="231.48152" style="fill: #a459d1; stroke: #a459d1"/>
     <use xlink:href="#mcbdf20d004" x="286.655687" y="246.103562" style="fill: #a459d1; stroke: #a459d1"/>
     <use xlink:href="#mcbdf20d004" x="366.03583" y="210.850176" style="fill: #a459d1; stroke: #a459d1"/>
     <use xlink:href="#mcbdf20d004" x="373.697693" y="203.314386" style="fill: #a459d1; stroke: #a459d1"/>
     <use xlink:href="#mcbdf20d004" x="347.372534" y="209.698711" style="fill: #a459d1; stroke: #a459d1"/>
     <use xlink:href="#mcbdf20d004" x="398.487273" y="210.190969" style="fill: #a459d1; stroke: #a459d1"/>
     <use xlink:href="#mcbdf20d004" x="377.736813" y="213.898882" style="fill: #a459d1; stroke: #a459d1"/>
     <use xlink:href="#mcbdf20d004" x="248.400755" y="230.295375" style="fill: #a459d1; stroke: #a459d1"/>
     <use xlink:href="#mcbdf20d004" x="350.873093" y="141.422479" style="fill: #a459d1; stroke: #a459d1"/>
     <use xlink:href="#mcbdf20d004" x="335.555338" y="142.173242" style="fill: #a459d1; stroke: #a459d1"/>
     <use xlink:href="#mcbdf20d004" x="360.00462" y="164.061036" style="fill: #a459d1; stroke: #a459d1"/>
     <use xlink:href="#mcbdf20d004" x="365.736549" y="182.762929" style="fill: #a459d1; stroke: #a459d1"/>
     <use xlink:href="#mcbdf20d004" x="353.871368" y="140.084599" style="fill: #a459d1; stroke: #a459d1"/>
     <use xlink:href="#mcbdf20d004" x="368.633656" y="123.490141" style="fill: #a459d1; stroke: #a459d1"/>
     <use xlink:href="#mcbdf20d004" x="358.983267" y="248.980174" style="fill: #a459d1; stroke: #a459d1"/>
     <use xlink:href="#mcbdf20d004" x="340.143692" y="172.447235" style="fill: #a459d1; stroke: #a459d1"/>
     <use xlink:href="#mcbdf20d004" x="371.845343" y="148.391867" style="fill: #a459d1; stroke: #a459d1"/>
     <use xlink:href="#mcbdf20d004" x="385.065385" y="185.858265" style="fill: #a459d1; stroke: #a459d1"/>
     <use xlink:href="#mcbdf20d004" x="343.751606" y="188.29434" style="fill: #a459d1; stroke: #a459d1"/>
     <use xlink:href="#mcbdf20d004" x="255.366719" y="285.594032" style="fill: #a459d1; stroke: #a459d1"/>
     <use xlink:href="#mcbdf20d004" x="382.161451" y="118.807892" style="fill: #a459d1; stroke: #a459d1"/>
     <use xlink:href="#mcbdf20d004" x="375.195726" y="181.022842" style="fill: #a459d1; stroke: #a459d1"/>
     <use xlink:href="#mcbdf20d004" x="366.044048" y="243.325753" style="fill: #a459d1; stroke: #a459d1"/>
     <use xlink:href="#mcbdf20d004" x="342.333885" y="109.964939" style="fill: #a459d1; stroke: #a459d1"/>
     <use xlink:href="#mcbdf20d004" x="382.56473" y="267.273709" style="fill: #a459d1; stroke: #a459d1"/>
     <use xlink:href="#mcbdf20d004" x="361.096327" y="156.484936" style="fill: #a459d1; stroke: #a459d1"/>
     <use xlink:href="#mcbdf20d004" x="372.045187" y="206.130893" style="fill: #a459d1; stroke: #a459d1"/>
     <use xlink:href="#mcbdf20d004" x="337.197896" y="148.918326" style="fill: #a459d1; stroke: #a459d1"/>
     <use xlink:href="#mcbdf20d004" x="342.395259" y="114.44516" style="fill: #a459d1; stroke: #a459d1"/>
     <use xlink:href="#mcbdf20d004" x="282.855433" y="293.738234" style="fill: #a459d1; stroke: #a459d1"/>
     <use xlink:href="#mcbdf20d004" x="357.112271" y="124.099238" style="fill: #a459d1; stroke: #a459d1"/>
     <use xlink:href="#mcbdf20d004" x="376.390913" y="178.481225" style="fill: #a459d1; stroke: #a459d1"/>
     <use xlink:href="#mcbdf20d004" x="335.399491" y="230.963011" style="fill: #a459d1; stroke: #a459d1"/>
     <use xlink:href="#mcbdf20d004" x="348.989318" y="106.563851" style="fill: #a459d1; stroke: #a459d1"/>
     <use xlink:href="#mcbdf20d004" x="390.552777" y="217.231733" style="fill: #a459d1; stroke: #a459d1"/>
     <use xlink:href="#mcbdf20d004" x="358.157131" y="154.780269" style="fill: #a459d1; stroke: #a459d1"/>
     <use xlink:href="#mcbdf20d004" x="327.288095" y="112.654321" style="fill: #a459d1; stroke: #a459d1"/>
     <use xlink:href="#mcbdf20d004" x="358.77293" y="166.291952" style="fill: #a459d1; stroke: #a459d1"/>
     <use xlink:href="#mcbdf20d004" x="370.55825" y="163.773583" style="fill: #a459d1; stroke: #a459d1"/>
     <use xlink:href="#mcbdf20d004" x="373.450627" y="177.354608" style="fill: #a459d1; stroke: #a459d1"/>
     <use xlink:href="#mcbdf20d004" x="377.755347" y="201.110209" style="fill: #a459d1; stroke: #a459d1"/>
     <use xlink:href="#mcbdf20d004" x="367.296848" y="155.646796" style="fill: #a459d1; stroke: #a459d1"/>
     <use xlink:href="#mcbdf20d004" x="363.4505" y="163.470308" style="fill: #a459d1; stroke: #a459d1"/>
     <use xlink:href="#mcbdf20d004" x="330.469344" y="78.919363" style="fill: #a459d1; stroke: #a459d1"/>
     <use xlink:href="#mcbdf20d004" x="350.362412" y="241.000837" style="fill: #a459d1; stroke: #a459d1"/>
     <use xlink:href="#mcbdf20d004" x="389.903287" y="214.745285" style="fill: #a459d1; stroke: #a459d1"/>
     <use xlink:href="#mcbdf20d004" x="374.495234" y="195.594559" style="fill: #a459d1; stroke: #a459d1"/>
     <use xlink:href="#mcbdf20d004" x="330.872614" y="219.655928" style="fill: #a459d1; stroke: #a459d1"/>
     <use xlink:href="#mcbdf20d004" x="354.46175" y="256.388051" style="fill: #a459d1; stroke: #a459d1"/>
     <use xlink:href="#mcbdf20d004" x="341.09738" y="173.421782" style="fill: #a459d1; stroke: #a459d1"/>
     <use xlink:href="#mcbdf20d004" x="384.749573" y="217.585477" style="fill: #a459d1; stroke: #a459d1"/>
     <use xlink:href="#mcbdf20d004" x="318.10865" y="127.700123" style="fill: #a459d1; stroke: #a459d1"/>
     <use xlink:href="#mcbdf20d004" x="355.318079" y="146.774648" style="fill: #a459d1; stroke: #a459d1"/>
     <use xlink:href="#mcbdf20d004" x="317.312195" y="228.213566" style="fill: #a459d1; stroke: #a459d1"/>
     <use xlink:href="#mcbdf20d004" x="337.7487" y="292.744327" style="fill: #a459d1; stroke: #a459d1"/>
     <use xlink:href="#mcbdf20d004" x="376.362807" y="150.176575" style="fill: #a459d1; stroke: #a459d1"/>
     <use xlink:href="#mcbdf20d004" x="380.909816" y="143.451022" style="fill: #a459d1; stroke: #a459d1"/>
     <use xlink:href="#mcbdf20d004" x="344.301357" y="136.698237" style="fill: #a459d1; stroke: #a459d1"/>
     <use xlink:href="#mcbdf20d004" x="354.662618" y="151.219265" style="fill: #a459d1; stroke: #a459d1"/>
     <use xlink:href="#mcbdf20d004" x="381.505699" y="155.588" style="fill: #a459d1; stroke: #a459d1"/>
     <use xlink:href="#mcbdf20d004" x="377.62093" y="149.826435" style="fill: #a459d1; stroke: #a459d1"/>
     <use xlink:href="#mcbdf20d004" x="364.163329" y="164.835936" style="fill: #a459d1; stroke: #a459d1"/>
     <use xlink:href="#mcbdf20d004" x="361.795756" y="145.836636" style="fill: #a459d1; stroke: #a459d1"/>
     <use xlink:href="#mcbdf20d004" x="375.501617" y="234.009131" style="fill: #a459d1; stroke: #a459d1"/>
     <use xlink:href="#mcbdf20d004" x="366.111017" y="188.471649" style="fill: #a459d1; stroke: #a459d1"/>
     <use xlink:href="#mcbdf20d004" x="384.39078" y="180.535544" style="fill: #a459d1; stroke: #a459d1"/>
     <use xlink:href="#mcbdf20d004" x="311.427091" y="106.152457" style="fill: #a459d1; stroke: #a459d1"/>
     <use xlink:href="#mcbdf20d004" x="327.618453" y="258.409493" style="fill: #a459d1; stroke: #a459d1"/>
     <use xlink:href="#mcbdf20d004" x="329.808477" y="72.604037" style="fill: #a459d1; stroke: #a459d1"/>
     <use xlink:href="#mcbdf20d004" x="347.574832" y="143.039239" style="fill: #a459d1; stroke: #a459d1"/>
     <use xlink:href="#mcbdf20d004" x="353.595783" y="152.325836" style="fill: #a459d1; stroke: #a459d1"/>
     <use xlink:href="#mcbdf20d004" x="332.360209" y="97.129971" style="fill: #a459d1; stroke: #a459d1"/>
     <use xlink:href="#mcbdf20d004" x="336.396979" y="97.979537" style="fill: #a459d1; stroke: #a459d1"/>
     <use xlink:href="#mcbdf20d004" x="369.200643" y="177.989695" style="fill: #a459d1; stroke: #a459d1"/>
     <use xlink:href="#mcbdf20d004" x="369.156796" y="172.633009" style="fill: #a459d1; stroke: #a459d1"/>
     <use xlink:href="#mcbdf20d004" x="379.739923" y="175.631151" style="fill: #a459d1; stroke: #a459d1"/>
    </g>
   </g>
   <g id="PathCollection_2">
    <defs>
     <path id="m32a3b54859" d="M 0 3 
C 0.795609 3 1.55874 2.683901 2.12132 2.12132 
C 2.683901 1.55874 3 0.795609 3 0 
C 3 -0.795609 2.683901 -1.55874 2.12132 -2.12132 
C 1.55874 -2.683901 0.795609 -3 0 -3 
C -0.795609 -3 -1.55874 -2.683901 -2.12132 -2.12132 
C -2.683901 -1.55874 -3 -0.795609 -3 0 
C -3 0.795609 -2.683901 1.55874 -2.12132 2.12132 
C -1.55874 2.683901 -0.795609 3 0 3 
z
" style="stroke: #ffb84c"/>
    </defs>
    <g clip-path="url(#pe54bb7fe9b)">
     <use xlink:href="#m32a3b54859" x="139.300861" y="166.567414" style="fill: #ffb84c; stroke: #ffb84c"/>
     <use xlink:href="#m32a3b54859" x="104.305123" y="169.68985" style="fill: #ffb84c; stroke: #ffb84c"/>
     <use xlink:href="#m32a3b54859" x="108.114602" y="198.430033" style="fill: #ffb84c; stroke: #ffb84c"/>
     <use xlink:href="#m32a3b54859" x="200.265737" y="210.17601" style="fill: #ffb84c; stroke: #ffb84c"/>
     <use xlink:href="#m32a3b54859" x="98.513213" y="142.196501" style="fill: #ffb84c; stroke: #ffb84c"/>
     <use xlink:href="#m32a3b54859" x="123.520727" y="143.183292" style="fill: #ffb84c; stroke: #ffb84c"/>
     <use xlink:href="#m32a3b54859" x="124.658171" y="73.780783" style="fill: #ffb84c; stroke: #ffb84c"/>
     <use xlink:href="#m32a3b54859" x="95.582358" y="193.061888" style="fill: #ffb84c; stroke: #ffb84c"/>
     <use xlink:href="#m32a3b54859" x="105.976652" y="266.981652" style="fill: #ffb84c; stroke: #ffb84c"/>
     <use xlink:href="#m32a3b54859" x="156.331772" y="273.852184" style="fill: #ffb84c; stroke: #ffb84c"/>
     <use xlink:href="#m32a3b54859" x="180.561667" y="200.145441" style="fill: #ffb84c; stroke: #ffb84c"/>
     <use xlink:href="#m32a3b54859" x="78.545268" y="59.872541" style="fill: #ffb84c; stroke: #ffb84c"/>
     <use xlink:href="#m32a3b54859" x="97.844202" y="275.118793" style="fill: #ffb84c; stroke: #ffb84c"/>
     <use xlink:href="#m32a3b54859" x="123.816934" y="166.72543" style="fill: #ffb84c; stroke: #ffb84c"/>
     <use xlink:href="#m32a3b54859" x="119.977337" y="98.330678" style="fill: #ffb84c; stroke: #ffb84c"/>
     <use xlink:href="#m32a3b54859" x="133.08962" y="169.179869" style="fill: #ffb84c; stroke: #ffb84c"/>
     <use xlink:href="#m32a3b54859" x="119.353791" y="105.557276" style="fill: #ffb84c; stroke: #ffb84c"/>
     <use xlink:href="#m32a3b54859" x="108.182426" y="59.432085" style="fill: #ffb84c; stroke: #ffb84c"/>
     <use xlink:href="#m32a3b54859" x="115.067351" y="154.565616" style="fill: #ffb84c; stroke: #ffb84c"/>
     <use xlink:href="#m32a3b54859" x="124.953785" y="97.235418" style="fill: #ffb84c; stroke: #ffb84c"/>
     <use xlink:href="#m32a3b54859" x="106.9513" y="287.994595" style="fill: #ffb84c; stroke: #ffb84c"/>
     <use xlink:href="#m32a3b54859" x="151.42408" y="268.966962" style="fill: #ffb84c; stroke: #ffb84c"/>
     <use xlink:href="#m32a3b54859" x="154.217067" y="273.714211" style="fill: #ffb84c; stroke: #ffb84c"/>
     <use xlink:href="#m32a3b54859" x="194.085884" y="249.667965" style="fill: #ffb84c; stroke: #ffb84c"/>
     <use xlink:href="#m32a3b54859" x="161.619687" y="253.533051" style="fill: #ffb84c; stroke: #ffb84c"/>
     <use xlink:href="#m32a3b54859" x="110.723542" y="291.297106" style="fill: #ffb84c; stroke: #ffb84c"/>
     <use xlink:href="#m32a3b54859" x="156.432047" y="280.727713" style="fill: #ffb84c; stroke: #ffb84c"/>
     <use xlink:href="#m32a3b54859" x="149.933758" y="280.466555" style="fill: #ffb84c; stroke: #ffb84c"/>
     <use xlink:href="#m32a3b54859" x="347.884287" y="238.759238" style="fill: #ffb84c; stroke: #ffb84c"/>
     <use xlink:href="#m32a3b54859" x="111.791478" y="198.509456" style="fill: #ffb84c; stroke: #ffb84c"/>
     <use xlink:href="#m32a3b54859" x="135.592982" y="177.189472" style="fill: #ffb84c; stroke: #ffb84c"/>
     <use xlink:href="#m32a3b54859" x="100.238677" y="98.253061" style="fill: #ffb84c; stroke: #ffb84c"/>
     <use xlink:href="#m32a3b54859" x="176.727726" y="199.407448" style="fill: #ffb84c; stroke: #ffb84c"/>
     <use xlink:href="#m32a3b54859" x="127.913855" y="173.265782" style="fill: #ffb84c; stroke: #ffb84c"/>
     <use xlink:href="#m32a3b54859" x="262.55359" y="138.639323" style="fill: #ffb84c; stroke: #ffb84c"/>
     <use xlink:href="#m32a3b54859" x="175.31347" y="159.244168" style="fill: #ffb84c; stroke: #ffb84c"/>
     <use xlink:href="#m32a3b54859" x="110.117824" y="198.226898" style="fill: #ffb84c; stroke: #ffb84c"/>
     <use xlink:href="#m32a3b54859" x="106.926636" y="214.219862" style="fill: #ffb84c; stroke: #ffb84c"/>
     <use xlink:href="#m32a3b54859" x="108.74017" y="61.196802" style="fill: #ffb84c; stroke: #ffb84c"/>
     <use xlink:href="#m32a3b54859" x="91.800524" y="153.712042" style="fill: #ffb84c; stroke: #ffb84c"/>
     <use xlink:href="#m32a3b54859" x="162.994521" y="276.375921" style="fill: #ffb84c; stroke: #ffb84c"/>
     <use xlink:href="#m32a3b54859" x="108.360934" y="264.763143" style="fill: #ffb84c; stroke: #ffb84c"/>
     <use xlink:href="#m32a3b54859" x="109.624068" y="180.813592" style="fill: #ffb84c; stroke: #ffb84c"/>
     <use xlink:href="#m32a3b54859" x="94.642905" y="175.179881" style="fill: #ffb84c; stroke: #ffb84c"/>
     <use xlink:href="#m32a3b54859" x="84.604988" y="191.106101" style="fill: #ffb84c; stroke: #ffb84c"/>
     <use xlink:href="#m32a3b54859" x="105.079081" y="268.573506" style="fill: #ffb84c; stroke: #ffb84c"/>
     <use xlink:href="#m32a3b54859" x="188.780023" y="241.197031" style="fill: #ffb84c; stroke: #ffb84c"/>
     <use xlink:href="#m32a3b54859" x="184.837834" y="205.629668" style="fill: #ffb84c; stroke: #ffb84c"/>
     <use xlink:href="#m32a3b54859" x="130.094354" y="249.805097" style="fill: #ffb84c; stroke: #ffb84c"/>
     <use xlink:href="#m32a3b54859" x="115.795102" y="273.874134" style="fill: #ffb84c; stroke: #ffb84c"/>
     <use xlink:href="#m32a3b54859" x="117.483838" y="264.925729" style="fill: #ffb84c; stroke: #ffb84c"/>
     <use xlink:href="#m32a3b54859" x="80.710214" y="213.416546" style="fill: #ffb84c; stroke: #ffb84c"/>
     <use xlink:href="#m32a3b54859" x="107.079878" y="102.851018" style="fill: #ffb84c; stroke: #ffb84c"/>
     <use xlink:href="#m32a3b54859" x="90.538387" y="125.014738" style="fill: #ffb84c; stroke: #ffb84c"/>
     <use xlink:href="#m32a3b54859" x="162.855647" y="105.946083" style="fill: #ffb84c; stroke: #ffb84c"/>
     <use xlink:href="#m32a3b54859" x="191.345705" y="224.003977" style="fill: #ffb84c; stroke: #ffb84c"/>
     <use xlink:href="#m32a3b54859" x="126.426561" y="185.395395" style="fill: #ffb84c; stroke: #ffb84c"/>
     <use xlink:href="#m32a3b54859" x="99.830932" y="110.49351" style="fill: #ffb84c; stroke: #ffb84c"/>
     <use xlink:href="#m32a3b54859" x="98.654362" y="254.877159" style="fill: #ffb84c; stroke: #ffb84c"/>
     <use xlink:href="#m32a3b54859" x="113.331044" y="166.991773" style="fill: #ffb84c; stroke: #ffb84c"/>
     <use xlink:href="#m32a3b54859" x="146.908242" y="115.468463" style="fill: #ffb84c; stroke: #ffb84c"/>
     <use xlink:href="#m32a3b54859" x="88.546862" y="217.496316" style="fill: #ffb84c; stroke: #ffb84c"/>
     <use xlink:href="#m32a3b54859" x="107.424924" y="206.338445" style="fill: #ffb84c; stroke: #ffb84c"/>
     <use xlink:href="#m32a3b54859" x="108.450207" y="273.6617" style="fill: #ffb84c; stroke: #ffb84c"/>
     <use xlink:href="#m32a3b54859" x="177.332067" y="127.336047" style="fill: #ffb84c; stroke: #ffb84c"/>
     <use xlink:href="#m32a3b54859" x="103.999439" y="209.421611" style="fill: #ffb84c; stroke: #ffb84c"/>
     <use xlink:href="#m32a3b54859" x="121.608245" y="275.848156" style="fill: #ffb84c; stroke: #ffb84c"/>
     <use xlink:href="#m32a3b54859" x="111.530101" y="85.583495" style="fill: #ffb84c; stroke: #ffb84c"/>
     <use xlink:href="#m32a3b54859" x="100.065379" y="264.114045" style="fill: #ffb84c; stroke: #ffb84c"/>
     <use xlink:href="#m32a3b54859" x="104.048805" y="118.437561" style="fill: #ffb84c; stroke: #ffb84c"/>
     <use xlink:href="#m32a3b54859" x="143.719245" y="202.584463" style="fill: #ffb84c; stroke: #ffb84c"/>
     <use xlink:href="#m32a3b54859" x="82.72236" y="217.246825" style="fill: #ffb84c; stroke: #ffb84c"/>
     <use xlink:href="#m32a3b54859" x="106.607081" y="102.339293" style="fill: #ffb84c; stroke: #ffb84c"/>
     <use xlink:href="#m32a3b54859" x="190.837181" y="291.091691" style="fill: #ffb84c; stroke: #ffb84c"/>
     <use xlink:href="#m32a3b54859" x="78.718886" y="104.57341" style="fill: #ffb84c; stroke: #ffb84c"/>
     <use xlink:href="#m32a3b54859" x="251.414646" y="217.426939" style="fill: #ffb84c; stroke: #ffb84c"/>
     <use xlink:href="#m32a3b54859" x="120.094255" y="247.029304" style="fill: #ffb84c; stroke: #ffb84c"/>
     <use xlink:href="#m32a3b54859" x="94.027596" y="99.148458" style="fill: #ffb84c; stroke: #ffb84c"/>
     <use xlink:href="#m32a3b54859" x="93.029742" y="254.140464" style="fill: #ffb84c; stroke: #ffb84c"/>
     <use xlink:href="#m32a3b54859" x="134.314314" y="131.553756" style="fill: #ffb84c; stroke: #ffb84c"/>
     <use xlink:href="#m32a3b54859" x="113.975672" y="76.665363" style="fill: #ffb84c; stroke: #ffb84c"/>
     <use xlink:href="#m32a3b54859" x="73.832727" y="60.83012" style="fill: #ffb84c; stroke: #ffb84c"/>
     <use xlink:href="#m32a3b54859" x="146.397984" y="167.15532" style="fill: #ffb84c; stroke: #ffb84c"/>
     <use xlink:href="#m32a3b54859" x="297.606874" y="225.120692" style="fill: #ffb84c; stroke: #ffb84c"/>
     <use xlink:href="#m32a3b54859" x="152.822374" y="181.381513" style="fill: #ffb84c; stroke: #ffb84c"/>
     <use xlink:href="#m32a3b54859" x="121.695703" y="136.230905" style="fill: #ffb84c; stroke: #ffb84c"/>
     <use xlink:href="#m32a3b54859" x="86.457545" y="74.92744" style="fill: #ffb84c; stroke: #ffb84c"/>
     <use xlink:href="#m32a3b54859" x="90.176152" y="90.478435" style="fill: #ffb84c; stroke: #ffb84c"/>
     <use xlink:href="#m32a3b54859" x="325.313129" y="289.042172" style="fill: #ffb84c; stroke: #ffb84c"/>
     <use xlink:href="#m32a3b54859" x="139.416528" y="274.451567" style="fill: #ffb84c; stroke: #ffb84c"/>
     <use xlink:href="#m32a3b54859" x="185.225514" y="191.834454" style="fill: #ffb84c; stroke: #ffb84c"/>
     <use xlink:href="#m32a3b54859" x="167.80996" y="236.573255" style="fill: #ffb84c; stroke: #ffb84c"/>
     <use xlink:href="#m32a3b54859" x="159.142766" y="249.696637" style="fill: #ffb84c; stroke: #ffb84c"/>
     <use xlink:href="#m32a3b54859" x="105.85397" y="278.396943" style="fill: #ffb84c; stroke: #ffb84c"/>
     <use xlink:href="#m32a3b54859" x="219.334315" y="251.235391" style="fill: #ffb84c; stroke: #ffb84c"/>
     <use xlink:href="#m32a3b54859" x="107.468526" y="65.678234" style="fill: #ffb84c; stroke: #ffb84c"/>
     <use xlink:href="#m32a3b54859" x="89.123317" y="153.416083" style="fill: #ffb84c; stroke: #ffb84c"/>
     <use xlink:href="#m32a3b54859" x="169.754996" y="254.175355" style="fill: #ffb84c; stroke: #ffb84c"/>
     <use xlink:href="#m32a3b54859" x="295.090662" y="291.512311" style="fill: #ffb84c; stroke: #ffb84c"/>
     <use xlink:href="#m32a3b54859" x="152.359038" y="128.0715" style="fill: #ffb84c; stroke: #ffb84c"/>
     <use xlink:href="#m32a3b54859" x="136.207784" y="177.202346" style="fill: #ffb84c; stroke: #ffb84c"/>
     <use xlink:href="#m32a3b54859" x="109.574552" y="100.740891" style="fill: #ffb84c; stroke: #ffb84c"/>
     <use xlink:href="#m32a3b54859" x="136.084162" y="153.628771" style="fill: #ffb84c; stroke: #ffb84c"/>
     <use xlink:href="#m32a3b54859" x="117.65505" y="259.591698" style="fill: #ffb84c; stroke: #ffb84c"/>
     <use xlink:href="#m32a3b54859" x="129.886292" y="182.154166" style="fill: #ffb84c; stroke: #ffb84c"/>
     <use xlink:href="#m32a3b54859" x="126.357984" y="92.830253" style="fill: #ffb84c; stroke: #ffb84c"/>
     <use xlink:href="#m32a3b54859" x="289.928729" y="178.06392" style="fill: #ffb84c; stroke: #ffb84c"/>
     <use xlink:href="#m32a3b54859" x="97.953786" y="210.292976" style="fill: #ffb84c; stroke: #ffb84c"/>
     <use xlink:href="#m32a3b54859" x="137.677193" y="210.747892" style="fill: #ffb84c; stroke: #ffb84c"/>
     <use xlink:href="#m32a3b54859" x="101.771652" y="216.467631" style="fill: #ffb84c; stroke: #ffb84c"/>
     <use xlink:href="#m32a3b54859" x="99.901765" y="72.513229" style="fill: #ffb84c; stroke: #ffb84c"/>
     <use xlink:href="#m32a3b54859" x="162.254922" y="256.494694" style="fill: #ffb84c; stroke: #ffb84c"/>
     <use xlink:href="#m32a3b54859" x="127.303059" y="95.024333" style="fill: #ffb84c; stroke: #ffb84c"/>
     <use xlink:href="#m32a3b54859" x="88.076134" y="160.657761" style="fill: #ffb84c; stroke: #ffb84c"/>
     <use xlink:href="#m32a3b54859" x="77.770849" y="53.568" style="fill: #ffb84c; stroke: #ffb84c"/>
     <use xlink:href="#m32a3b54859" x="108.49363" y="189.096995" style="fill: #ffb84c; stroke: #ffb84c"/>
     <use xlink:href="#m32a3b54859" x="162.955536" y="105.051481" style="fill: #ffb84c; stroke: #ffb84c"/>
     <use xlink:href="#m32a3b54859" x="86.537048" y="185.02019" style="fill: #ffb84c; stroke: #ffb84c"/>
     <use xlink:href="#m32a3b54859" x="161.779324" y="183.971544" style="fill: #ffb84c; stroke: #ffb84c"/>
     <use xlink:href="#m32a3b54859" x="100.173382" y="247.273807" style="fill: #ffb84c; stroke: #ffb84c"/>
    </g>
   </g>
   <g id="matplotlib.axis_1">
    <g id="xtick_1">
     <g id="line2d_1">
      <defs>
       <path id="mf336ebbfd9" d="M 0 0 
L 0 3.5 
" style="stroke: #000000; stroke-width: 0.8"/>
      </defs>
      <g>
       <use xlink:href="#mf336ebbfd9" x="94.209273" y="307.584" style="stroke: #000000; stroke-width: 0.8"/>
      </g>
     </g>
     <g id="text_1">
      <!-- −7.5 -->
      <g transform="translate(78.425445 324.461969) scale(0.13 -0.13)">
       <defs>
        <path id="DejaVuSans-2212" d="M 678 2272 
L 4684 2272 
L 4684 1741 
L 678 1741 
L 678 2272 
z
" transform="scale(0.015625)"/>
        <path id="DejaVuSans-37" d="M 525 4666 
L 3525 4666 
L 3525 4397 
L 1831 0 
L 1172 0 
L 2766 4134 
L 525 4134 
L 525 4666 
z
" transform="scale(0.015625)"/>
        <path id="DejaVuSans-2e" d="M 684 794 
L 1344 794 
L 1344 0 
L 684 0 
L 684 794 
z
" transform="scale(0.015625)"/>
        <path id="DejaVuSans-35" d="M 691 4666 
L 3169 4666 
L 3169 4134 
L 1269 4134 
L 1269 2991 
Q 1406 3038 1543 3061 
Q 1681 3084 1819 3084 
Q 2600 3084 3056 2656 
Q 3513 2228 3513 1497 
Q 3513 744 3044 326 
Q 2575 -91 1722 -91 
Q 1428 -91 1123 -41 
Q 819 9 494 109 
L 494 744 
Q 775 591 1075 516 
Q 1375 441 1709 441 
Q 2250 441 2565 725 
Q 2881 1009 2881 1497 
Q 2881 1984 2565 2268 
Q 2250 2553 1709 2553 
Q 1456 2553 1204 2497 
Q 953 2441 691 2322 
L 691 4666 
z
" transform="scale(0.015625)"/>
       </defs>
       <use xlink:href="#DejaVuSans-2212"/>
       <use xlink:href="#DejaVuSans-37" transform="translate(83.789062 0)"/>
       <use xlink:href="#DejaVuSans-2e" transform="translate(147.412109 0)"/>
       <use xlink:href="#DejaVuSans-35" transform="translate(179.199219 0)"/>
      </g>
     </g>
    </g>
    <g id="xtick_2">
     <g id="line2d_2">
      <g>
       <use xlink:href="#mf336ebbfd9" x="143.508484" y="307.584" style="stroke: #000000; stroke-width: 0.8"/>
      </g>
     </g>
     <g id="text_2">
      <!-- −5.0 -->
      <g transform="translate(127.724656 324.461969) scale(0.13 -0.13)">
       <defs>
        <path id="DejaVuSans-30" d="M 2034 4250 
Q 1547 4250 1301 3770 
Q 1056 3291 1056 2328 
Q 1056 1369 1301 889 
Q 1547 409 2034 409 
Q 2525 409 2770 889 
Q 3016 1369 3016 2328 
Q 3016 3291 2770 3770 
Q 2525 4250 2034 4250 
z
M 2034 4750 
Q 2819 4750 3233 4129 
Q 3647 3509 3647 2328 
Q 3647 1150 3233 529 
Q 2819 -91 2034 -91 
Q 1250 -91 836 529 
Q 422 1150 422 2328 
Q 422 3509 836 4129 
Q 1250 4750 2034 4750 
z
" transform="scale(0.015625)"/>
       </defs>
       <use xlink:href="#DejaVuSans-2212"/>
       <use xlink:href="#DejaVuSans-35" transform="translate(83.789062 0)"/>
       <use xlink:href="#DejaVuSans-2e" transform="translate(147.412109 0)"/>
       <use xlink:href="#DejaVuSans-30" transform="translate(179.199219 0)"/>
      </g>
     </g>
    </g>
    <g id="xtick_3">
     <g id="line2d_3">
      <g>
       <use xlink:href="#mf336ebbfd9" x="192.807695" y="307.584" style="stroke: #000000; stroke-width: 0.8"/>
      </g>
     </g>
     <g id="text_3">
      <!-- −2.5 -->
      <g transform="translate(177.023867 324.461969) scale(0.13 -0.13)">
       <defs>
        <path id="DejaVuSans-32" d="M 1228 531 
L 3431 531 
L 3431 0 
L 469 0 
L 469 531 
Q 828 903 1448 1529 
Q 2069 2156 2228 2338 
Q 2531 2678 2651 2914 
Q 2772 3150 2772 3378 
Q 2772 3750 2511 3984 
Q 2250 4219 1831 4219 
Q 1534 4219 1204 4116 
Q 875 4013 500 3803 
L 500 4441 
Q 881 4594 1212 4672 
Q 1544 4750 1819 4750 
Q 2544 4750 2975 4387 
Q 3406 4025 3406 3419 
Q 3406 3131 3298 2873 
Q 3191 2616 2906 2266 
Q 2828 2175 2409 1742 
Q 1991 1309 1228 531 
z
" transform="scale(0.015625)"/>
       </defs>
       <use xlink:href="#DejaVuSans-2212"/>
       <use xlink:href="#DejaVuSans-32" transform="translate(83.789062 0)"/>
       <use xlink:href="#DejaVuSans-2e" transform="translate(147.412109 0)"/>
       <use xlink:href="#DejaVuSans-35" transform="translate(179.199219 0)"/>
      </g>
     </g>
    </g>
    <g id="xtick_4">
     <g id="line2d_4">
      <g>
       <use xlink:href="#mf336ebbfd9" x="242.106906" y="307.584" style="stroke: #000000; stroke-width: 0.8"/>
      </g>
     </g>
     <g id="text_4">
      <!-- 0.0 -->
      <g transform="translate(231.769875 324.461969) scale(0.13 -0.13)">
       <use xlink:href="#DejaVuSans-30"/>
       <use xlink:href="#DejaVuSans-2e" transform="translate(63.623047 0)"/>
       <use xlink:href="#DejaVuSans-30" transform="translate(95.410156 0)"/>
      </g>
     </g>
    </g>
    <g id="xtick_5">
     <g id="line2d_5">
      <g>
       <use xlink:href="#mf336ebbfd9" x="291.406117" y="307.584" style="stroke: #000000; stroke-width: 0.8"/>
      </g>
     </g>
     <g id="text_5">
      <!-- 2.5 -->
      <g transform="translate(281.069086 324.461969) scale(0.13 -0.13)">
       <use xlink:href="#DejaVuSans-32"/>
       <use xlink:href="#DejaVuSans-2e" transform="translate(63.623047 0)"/>
       <use xlink:href="#DejaVuSans-35" transform="translate(95.410156 0)"/>
      </g>
     </g>
    </g>
    <g id="xtick_6">
     <g id="line2d_6">
      <g>
       <use xlink:href="#mf336ebbfd9" x="340.705328" y="307.584" style="stroke: #000000; stroke-width: 0.8"/>
      </g>
     </g>
     <g id="text_6">
      <!-- 5.0 -->
      <g transform="translate(330.368297 324.461969) scale(0.13 -0.13)">
       <use xlink:href="#DejaVuSans-35"/>
       <use xlink:href="#DejaVuSans-2e" transform="translate(63.623047 0)"/>
       <use xlink:href="#DejaVuSans-30" transform="translate(95.410156 0)"/>
      </g>
     </g>
    </g>
    <g id="xtick_7">
     <g id="line2d_7">
      <g>
       <use xlink:href="#mf336ebbfd9" x="390.00454" y="307.584" style="stroke: #000000; stroke-width: 0.8"/>
      </g>
     </g>
     <g id="text_7">
      <!-- 7.5 -->
      <g transform="translate(379.667508 324.461969) scale(0.13 -0.13)">
       <use xlink:href="#DejaVuSans-37"/>
       <use xlink:href="#DejaVuSans-2e" transform="translate(63.623047 0)"/>
       <use xlink:href="#DejaVuSans-35" transform="translate(95.410156 0)"/>
      </g>
     </g>
    </g>
    <g id="text_8">
     <!-- Component 1 -->
     <g transform="translate(185.461172 342.563219) scale(0.15 -0.15)">
      <defs>
       <path id="DejaVuSans-43" d="M 4122 4306 
L 4122 3641 
Q 3803 3938 3442 4084 
Q 3081 4231 2675 4231 
Q 1875 4231 1450 3742 
Q 1025 3253 1025 2328 
Q 1025 1406 1450 917 
Q 1875 428 2675 428 
Q 3081 428 3442 575 
Q 3803 722 4122 1019 
L 4122 359 
Q 3791 134 3420 21 
Q 3050 -91 2638 -91 
Q 1578 -91 968 557 
Q 359 1206 359 2328 
Q 359 3453 968 4101 
Q 1578 4750 2638 4750 
Q 3056 4750 3426 4639 
Q 3797 4528 4122 4306 
z
" transform="scale(0.015625)"/>
       <path id="DejaVuSans-6f" d="M 1959 3097 
Q 1497 3097 1228 2736 
Q 959 2375 959 1747 
Q 959 1119 1226 758 
Q 1494 397 1959 397 
Q 2419 397 2687 759 
Q 2956 1122 2956 1747 
Q 2956 2369 2687 2733 
Q 2419 3097 1959 3097 
z
M 1959 3584 
Q 2709 3584 3137 3096 
Q 3566 2609 3566 1747 
Q 3566 888 3137 398 
Q 2709 -91 1959 -91 
Q 1206 -91 779 398 
Q 353 888 353 1747 
Q 353 2609 779 3096 
Q 1206 3584 1959 3584 
z
" transform="scale(0.015625)"/>
       <path id="DejaVuSans-6d" d="M 3328 2828 
Q 3544 3216 3844 3400 
Q 4144 3584 4550 3584 
Q 5097 3584 5394 3201 
Q 5691 2819 5691 2113 
L 5691 0 
L 5113 0 
L 5113 2094 
Q 5113 2597 4934 2840 
Q 4756 3084 4391 3084 
Q 3944 3084 3684 2787 
Q 3425 2491 3425 1978 
L 3425 0 
L 2847 0 
L 2847 2094 
Q 2847 2600 2669 2842 
Q 2491 3084 2119 3084 
Q 1678 3084 1418 2786 
Q 1159 2488 1159 1978 
L 1159 0 
L 581 0 
L 581 3500 
L 1159 3500 
L 1159 2956 
Q 1356 3278 1631 3431 
Q 1906 3584 2284 3584 
Q 2666 3584 2933 3390 
Q 3200 3197 3328 2828 
z
" transform="scale(0.015625)"/>
       <path id="DejaVuSans-70" d="M 1159 525 
L 1159 -1331 
L 581 -1331 
L 581 3500 
L 1159 3500 
L 1159 2969 
Q 1341 3281 1617 3432 
Q 1894 3584 2278 3584 
Q 2916 3584 3314 3078 
Q 3713 2572 3713 1747 
Q 3713 922 3314 415 
Q 2916 -91 2278 -91 
Q 1894 -91 1617 61 
Q 1341 213 1159 525 
z
M 3116 1747 
Q 3116 2381 2855 2742 
Q 2594 3103 2138 3103 
Q 1681 3103 1420 2742 
Q 1159 2381 1159 1747 
Q 1159 1113 1420 752 
Q 1681 391 2138 391 
Q 2594 391 2855 752 
Q 3116 1113 3116 1747 
z
" transform="scale(0.015625)"/>
       <path id="DejaVuSans-6e" d="M 3513 2113 
L 3513 0 
L 2938 0 
L 2938 2094 
Q 2938 2591 2744 2837 
Q 2550 3084 2163 3084 
Q 1697 3084 1428 2787 
Q 1159 2491 1159 1978 
L 1159 0 
L 581 0 
L 581 3500 
L 1159 3500 
L 1159 2956 
Q 1366 3272 1645 3428 
Q 1925 3584 2291 3584 
Q 2894 3584 3203 3211 
Q 3513 2838 3513 2113 
z
" transform="scale(0.015625)"/>
       <path id="DejaVuSans-65" d="M 3597 1894 
L 3597 1613 
L 953 1613 
Q 991 1019 1311 708 
Q 1631 397 2203 397 
Q 2534 397 2845 478 
Q 3156 559 3463 722 
L 3463 178 
Q 3153 47 2828 -22 
Q 2503 -91 2169 -91 
Q 1331 -91 842 396 
Q 353 884 353 1716 
Q 353 2575 817 3079 
Q 1281 3584 2069 3584 
Q 2775 3584 3186 3129 
Q 3597 2675 3597 1894 
z
M 3022 2063 
Q 3016 2534 2758 2815 
Q 2500 3097 2075 3097 
Q 1594 3097 1305 2825 
Q 1016 2553 972 2059 
L 3022 2063 
z
" transform="scale(0.015625)"/>
       <path id="DejaVuSans-74" d="M 1172 4494 
L 1172 3500 
L 2356 3500 
L 2356 3053 
L 1172 3053 
L 1172 1153 
Q 1172 725 1289 603 
Q 1406 481 1766 481 
L 2356 481 
L 2356 0 
L 1766 0 
Q 1100 0 847 248 
Q 594 497 594 1153 
L 594 3053 
L 172 3053 
L 172 3500 
L 594 3500 
L 594 4494 
L 1172 4494 
z
" transform="scale(0.015625)"/>
       <path id="DejaVuSans-20" transform="scale(0.015625)"/>
       <path id="DejaVuSans-31" d="M 794 531 
L 1825 531 
L 1825 4091 
L 703 3866 
L 703 4441 
L 1819 4666 
L 2450 4666 
L 2450 531 
L 3481 531 
L 3481 0 
L 794 0 
L 794 531 
z
" transform="scale(0.015625)"/>
      </defs>
      <use xlink:href="#DejaVuSans-43"/>
      <use xlink:href="#DejaVuSans-6f" transform="translate(69.824219 0)"/>
      <use xlink:href="#DejaVuSans-6d" transform="translate(131.005859 0)"/>
      <use xlink:href="#DejaVuSans-70" transform="translate(228.417969 0)"/>
      <use xlink:href="#DejaVuSans-6f" transform="translate(291.894531 0)"/>
      <use xlink:href="#DejaVuSans-6e" transform="translate(353.076172 0)"/>
      <use xlink:href="#DejaVuSans-65" transform="translate(416.455078 0)"/>
      <use xlink:href="#DejaVuSans-6e" transform="translate(477.978516 0)"/>
      <use xlink:href="#DejaVuSans-74" transform="translate(541.357422 0)"/>
      <use xlink:href="#DejaVuSans-20" transform="translate(580.566406 0)"/>
      <use xlink:href="#DejaVuSans-31" transform="translate(612.353516 0)"/>
     </g>
    </g>
   </g>
   <g id="matplotlib.axis_2">
    <g id="ytick_1">
     <g id="line2d_8">
      <defs>
       <path id="m33bbe75b7b" d="M 0 0 
L -3.5 0 
" style="stroke: #000000; stroke-width: 0.8"/>
      </defs>
      <g>
       <use xlink:href="#m33bbe75b7b" x="57.6" y="268.58542" style="stroke: #000000; stroke-width: 0.8"/>
      </g>
     </g>
     <g id="text_9">
      <!-- −4 -->
      <g transform="translate(31.435156 273.524405) scale(0.13 -0.13)">
       <defs>
        <path id="DejaVuSans-34" d="M 2419 4116 
L 825 1625 
L 2419 1625 
L 2419 4116 
z
M 2253 4666 
L 3047 4666 
L 3047 1625 
L 3713 1625 
L 3713 1100 
L 3047 1100 
L 3047 0 
L 2419 0 
L 2419 1100 
L 313 1100 
L 313 1709 
L 2253 4666 
z
" transform="scale(0.015625)"/>
       </defs>
       <use xlink:href="#DejaVuSans-2212"/>
       <use xlink:href="#DejaVuSans-34" transform="translate(83.789062 0)"/>
      </g>
     </g>
    </g>
    <g id="ytick_2">
     <g id="line2d_9">
      <g>
       <use xlink:href="#m33bbe75b7b" x="57.6" y="225.54341" style="stroke: #000000; stroke-width: 0.8"/>
      </g>
     </g>
     <g id="text_10">
      <!-- −2 -->
      <g transform="translate(31.435156 230.482395) scale(0.13 -0.13)">
       <use xlink:href="#DejaVuSans-2212"/>
       <use xlink:href="#DejaVuSans-32" transform="translate(83.789062 0)"/>
      </g>
     </g>
    </g>
    <g id="ytick_3">
     <g id="line2d_10">
      <g>
       <use xlink:href="#m33bbe75b7b" x="57.6" y="182.501401" style="stroke: #000000; stroke-width: 0.8"/>
      </g>
     </g>
     <g id="text_11">
      <!-- 0 -->
      <g transform="translate(42.32875 187.440385) scale(0.13 -0.13)">
       <use xlink:href="#DejaVuSans-30"/>
      </g>
     </g>
    </g>
    <g id="ytick_4">
     <g id="line2d_11">
      <g>
       <use xlink:href="#m33bbe75b7b" x="57.6" y="139.459391" style="stroke: #000000; stroke-width: 0.8"/>
      </g>
     </g>
     <g id="text_12">
      <!-- 2 -->
      <g transform="translate(42.32875 144.398375) scale(0.13 -0.13)">
       <use xlink:href="#DejaVuSans-32"/>
      </g>
     </g>
    </g>
    <g id="ytick_5">
     <g id="line2d_12">
      <g>
       <use xlink:href="#m33bbe75b7b" x="57.6" y="96.417381" style="stroke: #000000; stroke-width: 0.8"/>
      </g>
     </g>
     <g id="text_13">
      <!-- 4 -->
      <g transform="translate(42.32875 101.356366) scale(0.13 -0.13)">
       <use xlink:href="#DejaVuSans-34"/>
      </g>
     </g>
    </g>
    <g id="ytick_6">
     <g id="line2d_13">
      <g>
       <use xlink:href="#m33bbe75b7b" x="57.6" y="53.375372" style="stroke: #000000; stroke-width: 0.8"/>
      </g>
     </g>
     <g id="text_14">
      <!-- 6 -->
      <g transform="translate(42.32875 58.314356) scale(0.13 -0.13)">
       <defs>
        <path id="DejaVuSans-36" d="M 2113 2584 
Q 1688 2584 1439 2293 
Q 1191 2003 1191 1497 
Q 1191 994 1439 701 
Q 1688 409 2113 409 
Q 2538 409 2786 701 
Q 3034 994 3034 1497 
Q 3034 2003 2786 2293 
Q 2538 2584 2113 2584 
z
M 3366 4563 
L 3366 3988 
Q 3128 4100 2886 4159 
Q 2644 4219 2406 4219 
Q 1781 4219 1451 3797 
Q 1122 3375 1075 2522 
Q 1259 2794 1537 2939 
Q 1816 3084 2150 3084 
Q 2853 3084 3261 2657 
Q 3669 2231 3669 1497 
Q 3669 778 3244 343 
Q 2819 -91 2113 -91 
Q 1303 -91 875 529 
Q 447 1150 447 2328 
Q 447 3434 972 4092 
Q 1497 4750 2381 4750 
Q 2619 4750 2861 4703 
Q 3103 4656 3366 4563 
z
" transform="scale(0.015625)"/>
       </defs>
       <use xlink:href="#DejaVuSans-36"/>
      </g>
     </g>
    </g>
    <g id="text_15">
     <!-- Component 2 -->
     <g transform="translate(24.315625 225.226828) rotate(-90) scale(0.15 -0.15)">
      <use xlink:href="#DejaVuSans-43"/>
      <use xlink:href="#DejaVuSans-6f" transform="translate(69.824219 0)"/>
      <use xlink:href="#DejaVuSans-6d" transform="translate(131.005859 0)"/>
      <use xlink:href="#DejaVuSans-70" transform="translate(228.417969 0)"/>
      <use xlink:href="#DejaVuSans-6f" transform="translate(291.894531 0)"/>
      <use xlink:href="#DejaVuSans-6e" transform="translate(353.076172 0)"/>
      <use xlink:href="#DejaVuSans-65" transform="translate(416.455078 0)"/>
      <use xlink:href="#DejaVuSans-6e" transform="translate(477.978516 0)"/>
      <use xlink:href="#DejaVuSans-74" transform="translate(541.357422 0)"/>
      <use xlink:href="#DejaVuSans-20" transform="translate(580.566406 0)"/>
      <use xlink:href="#DejaVuSans-32" transform="translate(612.353516 0)"/>
     </g>
    </g>
   </g>
   <g id="patch_3">
    <path d="M 57.6 307.584 
L 57.6 41.472 
" style="fill: none; stroke: #000000; stroke-width: 0.8; stroke-linejoin: miter; stroke-linecap: square"/>
   </g>
   <g id="patch_4">
    <path d="M 414.72 307.584 
L 414.72 41.472 
" style="fill: none; stroke: #000000; stroke-width: 0.8; stroke-linejoin: miter; stroke-linecap: square"/>
   </g>
   <g id="patch_5">
    <path d="M 57.6 307.584 
L 414.72 307.584 
" style="fill: none; stroke: #000000; stroke-width: 0.8; stroke-linejoin: miter; stroke-linecap: square"/>
   </g>
   <g id="patch_6">
    <path d="M 57.6 41.472 
L 414.72 41.472 
" style="fill: none; stroke: #000000; stroke-width: 0.8; stroke-linejoin: miter; stroke-linecap: square"/>
   </g>
   <g id="text_16">
    <!-- Layer 14 activations (PCA) -->
    <g transform="translate(123.505781 35.472) scale(0.17 -0.17)">
     <defs>
      <path id="DejaVuSans-4c" d="M 628 4666 
L 1259 4666 
L 1259 531 
L 3531 531 
L 3531 0 
L 628 0 
L 628 4666 
z
" transform="scale(0.015625)"/>
      <path id="DejaVuSans-61" d="M 2194 1759 
Q 1497 1759 1228 1600 
Q 959 1441 959 1056 
Q 959 750 1161 570 
Q 1363 391 1709 391 
Q 2188 391 2477 730 
Q 2766 1069 2766 1631 
L 2766 1759 
L 2194 1759 
z
M 3341 1997 
L 3341 0 
L 2766 0 
L 2766 531 
Q 2569 213 2275 61 
Q 1981 -91 1556 -91 
Q 1019 -91 701 211 
Q 384 513 384 1019 
Q 384 1609 779 1909 
Q 1175 2209 1959 2209 
L 2766 2209 
L 2766 2266 
Q 2766 2663 2505 2880 
Q 2244 3097 1772 3097 
Q 1472 3097 1187 3025 
Q 903 2953 641 2809 
L 641 3341 
Q 956 3463 1253 3523 
Q 1550 3584 1831 3584 
Q 2591 3584 2966 3190 
Q 3341 2797 3341 1997 
z
" transform="scale(0.015625)"/>
      <path id="DejaVuSans-79" d="M 2059 -325 
Q 1816 -950 1584 -1140 
Q 1353 -1331 966 -1331 
L 506 -1331 
L 506 -850 
L 844 -850 
Q 1081 -850 1212 -737 
Q 1344 -625 1503 -206 
L 1606 56 
L 191 3500 
L 800 3500 
L 1894 763 
L 2988 3500 
L 3597 3500 
L 2059 -325 
z
" transform="scale(0.015625)"/>
      <path id="DejaVuSans-72" d="M 2631 2963 
Q 2534 3019 2420 3045 
Q 2306 3072 2169 3072 
Q 1681 3072 1420 2755 
Q 1159 2438 1159 1844 
L 1159 0 
L 581 0 
L 581 3500 
L 1159 3500 
L 1159 2956 
Q 1341 3275 1631 3429 
Q 1922 3584 2338 3584 
Q 2397 3584 2469 3576 
Q 2541 3569 2628 3553 
L 2631 2963 
z
" transform="scale(0.015625)"/>
      <path id="DejaVuSans-63" d="M 3122 3366 
L 3122 2828 
Q 2878 2963 2633 3030 
Q 2388 3097 2138 3097 
Q 1578 3097 1268 2742 
Q 959 2388 959 1747 
Q 959 1106 1268 751 
Q 1578 397 2138 397 
Q 2388 397 2633 464 
Q 2878 531 3122 666 
L 3122 134 
Q 2881 22 2623 -34 
Q 2366 -91 2075 -91 
Q 1284 -91 818 406 
Q 353 903 353 1747 
Q 353 2603 823 3093 
Q 1294 3584 2113 3584 
Q 2378 3584 2631 3529 
Q 2884 3475 3122 3366 
z
" transform="scale(0.015625)"/>
      <path id="DejaVuSans-69" d="M 603 3500 
L 1178 3500 
L 1178 0 
L 603 0 
L 603 3500 
z
M 603 4863 
L 1178 4863 
L 1178 4134 
L 603 4134 
L 603 4863 
z
" transform="scale(0.015625)"/>
      <path id="DejaVuSans-76" d="M 191 3500 
L 800 3500 
L 1894 563 
L 2988 3500 
L 3597 3500 
L 2284 0 
L 1503 0 
L 191 3500 
z
" transform="scale(0.015625)"/>
      <path id="DejaVuSans-73" d="M 2834 3397 
L 2834 2853 
Q 2591 2978 2328 3040 
Q 2066 3103 1784 3103 
Q 1356 3103 1142 2972 
Q 928 2841 928 2578 
Q 928 2378 1081 2264 
Q 1234 2150 1697 2047 
L 1894 2003 
Q 2506 1872 2764 1633 
Q 3022 1394 3022 966 
Q 3022 478 2636 193 
Q 2250 -91 1575 -91 
Q 1294 -91 989 -36 
Q 684 19 347 128 
L 347 722 
Q 666 556 975 473 
Q 1284 391 1588 391 
Q 1994 391 2212 530 
Q 2431 669 2431 922 
Q 2431 1156 2273 1281 
Q 2116 1406 1581 1522 
L 1381 1569 
Q 847 1681 609 1914 
Q 372 2147 372 2553 
Q 372 3047 722 3315 
Q 1072 3584 1716 3584 
Q 2034 3584 2315 3537 
Q 2597 3491 2834 3397 
z
" transform="scale(0.015625)"/>
      <path id="DejaVuSans-28" d="M 1984 4856 
Q 1566 4138 1362 3434 
Q 1159 2731 1159 2009 
Q 1159 1288 1364 580 
Q 1569 -128 1984 -844 
L 1484 -844 
Q 1016 -109 783 600 
Q 550 1309 550 2009 
Q 550 2706 781 3412 
Q 1013 4119 1484 4856 
L 1984 4856 
z
" transform="scale(0.015625)"/>
      <path id="DejaVuSans-50" d="M 1259 4147 
L 1259 2394 
L 2053 2394 
Q 2494 2394 2734 2622 
Q 2975 2850 2975 3272 
Q 2975 3691 2734 3919 
Q 2494 4147 2053 4147 
L 1259 4147 
z
M 628 4666 
L 2053 4666 
Q 2838 4666 3239 4311 
Q 3641 3956 3641 3272 
Q 3641 2581 3239 2228 
Q 2838 1875 2053 1875 
L 1259 1875 
L 1259 0 
L 628 0 
L 628 4666 
z
" transform="scale(0.015625)"/>
      <path id="DejaVuSans-41" d="M 2188 4044 
L 1331 1722 
L 3047 1722 
L 2188 4044 
z
M 1831 4666 
L 2547 4666 
L 4325 0 
L 3669 0 
L 3244 1197 
L 1141 1197 
L 716 0 
L 50 0 
L 1831 4666 
z
" transform="scale(0.015625)"/>
      <path id="DejaVuSans-29" d="M 513 4856 
L 1013 4856 
Q 1481 4119 1714 3412 
Q 1947 2706 1947 2009 
Q 1947 1309 1714 600 
Q 1481 -109 1013 -844 
L 513 -844 
Q 928 -128 1133 580 
Q 1338 1288 1338 2009 
Q 1338 2731 1133 3434 
Q 928 4138 513 4856 
z
" transform="scale(0.015625)"/>
     </defs>
     <use xlink:href="#DejaVuSans-4c"/>
     <use xlink:href="#DejaVuSans-61" transform="translate(55.712891 0)"/>
     <use xlink:href="#DejaVuSans-79" transform="translate(116.992188 0)"/>
     <use xlink:href="#DejaVuSans-65" transform="translate(176.171875 0)"/>
     <use xlink:href="#DejaVuSans-72" transform="translate(237.695312 0)"/>
     <use xlink:href="#DejaVuSans-20" transform="translate(278.808594 0)"/>
     <use xlink:href="#DejaVuSans-31" transform="translate(310.595703 0)"/>
     <use xlink:href="#DejaVuSans-34" transform="translate(374.21875 0)"/>
     <use xlink:href="#DejaVuSans-20" transform="translate(437.841797 0)"/>
     <use xlink:href="#DejaVuSans-61" transform="translate(469.628906 0)"/>
     <use xlink:href="#DejaVuSans-63" transform="translate(530.908203 0)"/>
     <use xlink:href="#DejaVuSans-74" transform="translate(585.888672 0)"/>
     <use xlink:href="#DejaVuSans-69" transform="translate(625.097656 0)"/>
     <use xlink:href="#DejaVuSans-76" transform="translate(652.880859 0)"/>
     <use xlink:href="#DejaVuSans-61" transform="translate(712.060547 0)"/>
     <use xlink:href="#DejaVuSans-74" transform="translate(773.339844 0)"/>
     <use xlink:href="#DejaVuSans-69" transform="translate(812.548828 0)"/>
     <use xlink:href="#DejaVuSans-6f" transform="translate(840.332031 0)"/>
     <use xlink:href="#DejaVuSans-6e" transform="translate(901.513672 0)"/>
     <use xlink:href="#DejaVuSans-73" transform="translate(964.892578 0)"/>
     <use xlink:href="#DejaVuSans-20" transform="translate(1016.992188 0)"/>
     <use xlink:href="#DejaVuSans-28" transform="translate(1048.779297 0)"/>
     <use xlink:href="#DejaVuSans-50" transform="translate(1087.792969 0)"/>
     <use xlink:href="#DejaVuSans-43" transform="translate(1148.095703 0)"/>
     <use xlink:href="#DejaVuSans-41" transform="translate(1217.919922 0)"/>
     <use xlink:href="#DejaVuSans-29" transform="translate(1286.328125 0)"/>
    </g>
   </g>
  </g>
 </g>
 <defs>
  <clipPath id="pe54bb7fe9b">
   <rect x="57.6" y="41.472" width="357.12" height="266.112"/>
  </clipPath>
 </defs>
</svg>
