<?xml version="1.0" encoding="UTF-8" standalone="no"?>
<!DOCTYPE svg PUBLIC "-//W3C//DTD SVG 1.1//EN"
 "http://www.w3.org/Graphics/SVG/1.1/DTD/svg11.dtd">
<!-- Generated by graphviz version 12.2.1 (0)
 -->
<!-- Title: SystemDiagram Pages: 1 -->
<svg width="728pt" height="615pt"
 viewBox="0.00 0.00 728.00 615.06" xmlns="http://www.w3.org/2000/svg" xmlns:xlink="http://www.w3.org/1999/xlink">
<g id="graph0" class="graph" transform="scale(1 1) rotate(0) translate(4 611.06)">
<title>SystemDiagram</title>
<polygon fill="white" stroke="none" points="-4,4 -4,-611.06 724,-611.06 724,4 -4,4"/>
<text text-anchor="middle" x="360" y="-10.2" font-family="JetBrains Mono" font-size="14.00">Dependency graph</text>
<g id="clust1" class="cluster">
<title>cluster_main</title>
<polygon fill="none" stroke="#ffb84c" stroke-width="2" points="8,-383.78 8,-466.17 132,-466.17 132,-383.78 8,-383.78"/>
<text text-anchor="middle" x="70" y="-393.98" font-family="JetBrains Mono" font-size="14.00">SSR</text>
</g>
<g id="clust2" class="cluster">
<title>cluster_impl</title>
<polygon fill="none" stroke="lightgrey" points="46,-191.89 46,-317.78 502,-317.78 502,-191.89 46,-191.89"/>
<text text-anchor="middle" x="274" y="-202.09" font-family="JetBrains Mono" font-size="14.00">Implementations</text>
</g>
<g id="clust3" class="cluster">
<title>cluster_probe</title>
<polygon fill="none" stroke="#a459d1" stroke-width="2" points="54,-227.39 54,-309.78 178,-309.78 178,-227.39 54,-227.39"/>
<text text-anchor="middle" x="116" y="-237.59" font-family="JetBrains Mono" font-size="14.00">Probe SSR</text>
</g>
<g id="clust4" class="cluster">
<title>cluster_steering</title>
<polygon fill="none" stroke="#a459d1" stroke-width="2" points="186,-227.39 186,-309.78 330,-309.78 330,-227.39 186,-227.39"/>
<text text-anchor="middle" x="258" y="-237.59" font-family="JetBrains Mono" font-size="14.00">Steering SSR</text>
</g>
<g id="clust5" class="cluster">
<title>cluster_attention</title>
<polygon fill="none" stroke="#a459d1" stroke-width="2" points="338,-227.39 338,-309.78 494,-309.78 494,-227.39 338,-227.39"/>
<text text-anchor="middle" x="416" y="-237.59" font-family="JetBrains Mono" font-size="14.00">Attention SSR</text>
</g>
<g id="clust6" class="cluster">
<title>cluster_utils</title>
<polygon fill="none" stroke="lightgrey" points="140,-383.78 140,-466.17 712,-466.17 712,-383.78 140,-383.78"/>
<text text-anchor="middle" x="426" y="-393.98" font-family="JetBrains Mono" font-size="14.00">Utils</text>
</g>
<g id="clust7" class="cluster">
<title>cluster_eval</title>
<polygon fill="none" stroke="lightgrey" points="402,-35.5 402,-117.89 568,-117.89 568,-35.5 402,-35.5"/>
<text text-anchor="middle" x="485" y="-45.7" font-family="JetBrains Mono" font-size="14.00">Evaluation</text>
</g>
<!-- core -->
<g id="node1" class="node">
<title>core</title>
<ellipse fill="none" stroke="none" cx="70" cy="-438.73" rx="54" ry="19.45"/>
<text text-anchor="middle" x="70" y="-435.18" font-family="JetBrains Mono" font-size="14.00">core.py</text>
</g>
<!-- tl -->
<g id="node10" class="node">
<title>tl</title>
<ellipse fill="none" stroke="#2cd3e1" cx="360" cy="-587.62" rx="104.65" ry="19.45"/>
<text text-anchor="middle" x="360" y="-584.07" font-family="JetBrains Mono" font-size="14.00">Transformer Lens</text>
</g>
<!-- core&#45;&gt;tl -->
<g id="edge1" class="edge">
<title>core&#45;&gt;tl</title>
<path fill="none" stroke="black" d="M122.2,-466.17C177.1,-493.98 262.61,-537.29 314.74,-563.69"/>
<polygon fill="black" stroke="black" points="313.15,-566.81 323.65,-568.2 316.31,-560.56 313.15,-566.81"/>
</g>
<!-- ssr_probes -->
<g id="node2" class="node">
<title>ssr_probes</title>
<ellipse fill="none" stroke="none" cx="116" cy="-282.34" rx="54" ry="19.45"/>
<text text-anchor="middle" x="116" y="-278.79" font-family="JetBrains Mono" font-size="14.00">probes/</text>
</g>
<!-- ssr_probes&#45;&gt;core -->
<g id="edge3" class="edge">
<title>ssr_probes&#45;&gt;core</title>
<path fill="none" stroke="black" d="M105.74,-317.78C100.89,-334.04 94.95,-353.99 89.31,-372.92"/>
<polygon fill="black" stroke="black" points="86.01,-371.75 86.5,-382.33 92.71,-373.75 86.01,-371.75"/>
</g>
<!-- ssr_steering -->
<g id="node3" class="node">
<title>ssr_steering</title>
<ellipse fill="none" stroke="none" cx="258" cy="-282.34" rx="63.82" ry="19.45"/>
<text text-anchor="middle" x="258" y="-278.79" font-family="JetBrains Mono" font-size="14.00">steering/</text>
</g>
<!-- memory -->
<g id="node6" class="node">
<title>memory</title>
<ellipse fill="none" stroke="none" cx="380" cy="-438.73" rx="63.82" ry="19.45"/>
<text text-anchor="middle" x="380" y="-435.18" font-family="JetBrains Mono" font-size="14.00">memory.py</text>
</g>
<!-- ssr_steering&#45;&gt;memory -->
<g id="edge4" class="edge">
<title>ssr_steering&#45;&gt;memory</title>
<path fill="none" stroke="black" d="M285.22,-317.78C298.52,-334.61 314.95,-355.41 330.38,-374.93"/>
<polygon fill="black" stroke="black" points="327.49,-376.92 336.44,-382.6 332.98,-372.58 327.49,-376.92"/>
</g>
<!-- ssr_attention -->
<g id="node4" class="node">
<title>ssr_attention</title>
<ellipse fill="none" stroke="none" cx="416" cy="-282.34" rx="69.65" ry="19.45"/>
<text text-anchor="middle" x="416" y="-278.79" font-family="JetBrains Mono" font-size="14.00">attention/</text>
</g>
<!-- defaults -->
<g id="node5" class="node">
<title>defaults</title>
<ellipse fill="none" stroke="none" cx="223" cy="-438.73" rx="75.48" ry="19.45"/>
<text text-anchor="middle" x="223" y="-435.18" font-family="JetBrains Mono" font-size="14.00">defaults.py</text>
</g>
<!-- files -->
<g id="node7" class="node">
<title>files</title>
<ellipse fill="none" stroke="none" cx="520" cy="-438.73" rx="57.98" ry="19.45"/>
<text text-anchor="middle" x="520" y="-435.18" font-family="JetBrains Mono" font-size="14.00">files.py</text>
</g>
<!-- lens -->
<g id="node8" class="node">
<title>lens</title>
<ellipse fill="none" stroke="none" cx="650" cy="-438.73" rx="54" ry="19.45"/>
<text text-anchor="middle" x="650" y="-435.18" font-family="JetBrains Mono" font-size="14.00">lens.py</text>
</g>
<!-- lens&#45;&gt;tl -->
<g id="edge2" class="edge">
<title>lens&#45;&gt;tl</title>
<path fill="none" stroke="black" d="M597.8,-466.17C542.9,-493.98 457.39,-537.29 405.26,-563.69"/>
<polygon fill="black" stroke="black" points="403.69,-560.56 396.35,-568.2 406.85,-566.81 403.69,-560.56"/>
</g>
<!-- runner -->
<g id="node9" class="node">
<title>runner</title>
<ellipse fill="none" stroke="none" cx="485" cy="-90.45" rx="75.48" ry="19.45"/>
<text text-anchor="middle" x="485" y="-86.9" font-family="JetBrains Mono" font-size="14.00">evaluation/</text>
</g>
<!-- runner&#45;&gt;ssr_attention -->
<g id="edge6" class="edge">
<title>runner&#45;&gt;ssr_attention</title>
<path fill="none" stroke="black" d="M475.39,-117.89C469.25,-134.79 460.86,-157.88 452.32,-181.38"/>
<polygon fill="black" stroke="black" points="449.14,-179.88 449.02,-190.47 455.72,-182.27 449.14,-179.88"/>
</g>
<!-- runner&#45;&gt;files -->
<g id="edge5" class="edge">
<title>runner&#45;&gt;files</title>
<path fill="none" stroke="black" d="M500.99,-117.89C510.21,-135.63 520,-159.88 520,-182.89 520,-182.89 520,-182.89 520,-338.78 520,-349.61 520,-361.11 520,-372.29"/>
<polygon fill="black" stroke="black" points="516.5,-372.27 520,-382.27 523.5,-372.27 516.5,-372.27"/>
</g>
</g>
</svg>
